<?xml version="1.0" encoding="utf-8"?>
<!-- Generator: Adobe Illustrator 24.0.1, SVG Export Plug-In . SVG Version: 6.00 Build 0)  -->
<svg version="1.1" id="Layer_1" xmlns="http://www.w3.org/2000/svg" xmlns:xlink="http://www.w3.org/1999/xlink" x="0px" y="0px"
	 viewBox="0 0 51 49" style="enable-background:new 0 0 51 49;" xml:space="preserve">
<style type="text/css">
	.st0{fill:#3BD7F7;}
</style>
<title>apay-vector</title>
<g id="apple-pay">
	<path id="Path_99" class="st0" d="M12.6,17.9c0.5-0.6,0.8-1.5,0.7-2.3c-0.8,0.1-1.6,0.5-2.1,1.1c-0.5,0.6-0.8,1.4-0.8,2.2
		C11.3,18.9,12.1,18.6,12.6,17.9 M13.3,19.1c-1.2-0.1-2.2,0.7-2.7,0.7s-1.4-0.6-2.4-0.6c-1.2,0-2.3,0.7-2.9,1.8
		C4,23.2,5,26.4,6.2,28.2C6.8,29.1,7.5,30,8.5,30s1.2-0.6,2.3-0.6s1.4,0.6,2.3,0.5s1.6-0.9,2.2-1.8c0.4-0.6,0.8-1.3,1-2
		c-1.6-0.7-2.3-2.5-1.6-4.1c0.3-0.6,0.7-1.1,1.3-1.4C15.3,19.6,14.3,19.1,13.3,19.1"/>
	<g id="Group_50">
		<path id="Path_100" class="st0" d="M23.5,16.6c2.3-0.1,4.2,1.6,4.3,3.9l0,0v0.4c0.1,2.3-1.7,4.2-4,4.3l0,0h-3.2v4.5h-2.1V16.6
			H23.5z M20.6,23.6h2.3c1.3,0.2,2.6-0.8,2.8-2.1c0-0.2,0-0.3,0-0.5c0.1-1.3-0.9-2.5-2.2-2.6c-0.2,0-0.3,0-0.5,0h-2.4L20.6,23.6
			L20.6,23.6z M28.3,27.1c0-1.7,1.3-2.7,3.6-2.8l2.6-0.1v-0.7c0-1.1-0.7-1.7-1.9-1.7c-0.9-0.1-1.8,0.5-2,1.4h-1.9
			c0.1-1.7,1.6-3,3.9-3s3.8,1.2,3.8,3.1v6.6h-1.9v-1.6l0,0c-0.6,1.1-1.8,1.8-3,1.7C29.6,29.9,28.3,28.8,28.3,27.1z M34.5,26.2v-0.8
			l-2.3,0.1c-1.2,0.1-1.8,0.6-1.8,1.4s0.7,1.4,1.7,1.4C33.3,28.5,34.4,27.5,34.5,26.2L34.5,26.2z M38.2,33.3v-1.6c0.2,0,0.4,0,0.6,0
			c0.8,0.1,1.6-0.5,1.7-1.4l0.2-0.6l-3.5-9.6h2.1l2.4,7.8l0,0l2.4-7.8h2.1l-3.5,10.1c-0.8,2.3-1.8,3-3.7,3
			C38.9,33.3,38.4,33.3,38.2,33.3L38.2,33.3z"/>
	</g>
</g>
</svg>
