<?xml version="1.0" encoding="utf-8"?>
<!-- Generator: Adobe Illustrator 24.0.1, SVG Export Plug-In . SVG Version: 6.00 Build 0)  -->
<svg version="1.1" id="Layer_1" xmlns="http://www.w3.org/2000/svg" xmlns:xlink="http://www.w3.org/1999/xlink" x="0px" y="0px"
	 viewBox="0 0 200 200" style="enable-background:new 0 0 200 200;" xml:space="preserve">
<style type="text/css">
	.st0{fill:#3BD7F7;}
</style>
<title>beer-vector</title>
<g id="beer">
	<g id="Group_31">
		<g id="Group_30">
			<path id="Path_77" class="st0" d="M111.7,175.2c-2.1,0-3.8,1.7-3.8,3.8s1.7,3.8,3.8,3.8c2.1,0,3.8-1.7,3.8-3.8l0,0
				C115.5,176.9,113.8,175.2,111.7,175.2L111.7,175.2z"/>
		</g>
	</g>
	<g id="Group_33">
		<g id="Group_32">
			<path id="Path_78" class="st0" d="M57.5,78.5c-2.1,0-3.8,1.7-3.8,3.8l0,0v73.6c0,2.1,1.7,3.8,3.8,3.8c2.1,0,3.8-1.7,3.8-3.8V82.4
				c0.1-2-1.5-3.8-3.5-3.9C57.7,78.5,57.6,78.5,57.5,78.5z"/>
		</g>
	</g>
	<g id="Group_35">
		<g id="Group_34">
			<path id="Path_79" class="st0" d="M88.4,78.5c-2.1,0-3.8,1.7-3.8,3.8v0v73.6c0,2.1,1.7,3.8,3.8,3.8c2.1,0,3.8-1.7,3.8-3.8
				c0,0,0,0,0,0V82.4C92.2,80.3,90.6,78.6,88.4,78.5C88.4,78.5,88.4,78.5,88.4,78.5z"/>
		</g>
	</g>
	<g id="Group_37">
		<g id="Group_36">
			<path id="Path_80" class="st0" d="M165.7,63.4h-19.2V51.8c8.5-6.3,10.2-18.3,3.9-26.8c-2.7-3.7-6.7-6.3-11.2-7.2
				c-3.7-0.8-7.5-0.5-11,0.8c-3.5-5.6-9.7-8.9-16.3-8.9c-2.5,0-5,0.5-7.3,1.4c-13.7-13.2-35.5-12.7-48.7,1c0,0,0,0,0,0
				c-1.5,1.5-2.8,3.1-3.9,4.9c-19.1-1.1-35.5,13.6-36.7,32.7c0,0.6-0.1,1.3-0.1,1.9v46.2c0.1,6.4,5.3,11.5,11.7,11.5
				c1.4,0,2.7-0.2,4-0.7v70.7c0,10.6,8.6,19.2,19.2,19.2h77c10.6,0,19.2-8.6,19.2-19.2l0,0v-11.5h19.2c10.6,0,19.2-8.6,19.3-19.2
				V82.7c0.2-10.5-8.2-19.1-18.7-19.3C166,63.4,165.8,63.4,165.7,63.4z M138.8,175.4h-11.7c-2.1,0-3.8,1.7-3.8,3.8s1.7,3.8,3.8,3.8
				h11c-1.6,4.6-6,7.7-10.9,7.7h-77c-4.9,0-9.2-3.1-10.9-7.7h56.9c2.1,0,3.8-1.7,3.8-3.8s-1.7-3.8-3.8-3.8H38.7V70.6
				c8.7-1.4,16.2-6.9,20.1-14.8c0.7,0,1.5,0.3,2,0.8c9.1,8.9,23.7,8.8,32.7-0.3l0.1-0.1c0.2-0.2,0.6-0.4,0.9-0.4
				c6,0,9.9,1.3,11.7,3.8c1.4,2.1,1.4,5,1.4,7.3v15.6c0,4.9,3.1,9.2,7.7,10.9V156c0,2.1,1.7,3.8,3.8,3.8c2.1,0,3.8-1.7,3.8-3.8V93.3
				c4.6-1.6,7.7-6,7.7-10.9V55.3c2.7,0.5,5.4,0.5,8.1,0L138.8,175.4z M128.6,46.5c-1.9-1-4.2-0.2-5.2,1.7c0,0,0,0,0,0
				c-0.3,0.5-0.4,1.1-0.4,1.7v32.5c0,2.1-1.7,3.8-3.8,3.8c-2.1,0-3.8-1.7-3.8-3.8c0,0,0,0,0,0V66.8c0-3,0-7.6-2.8-11.7
				c-3.3-4.7-9.3-7.1-18-7.1c-2.4,0-4.7,1-6.4,2.7c-5.9,6.1-15.7,6.3-21.8,0.4L66.3,51c-2-1.9-4.6-3-7.4-3c-2.9,0-5.6,1.7-6.9,4.3
				c-3.1,6.6-9.7,10.7-17,10.8c-2.1,0-3.8,1.7-3.8,3.8l0,0v30.6c0,2.2-1.8,4-4,4c-2.2,0.1-3.9-1.6-4-3.8V51.6
				c-0.1-14.7,11.7-26.7,26.4-26.9c0.1,0,0.3,0,0.4,0c1.2,0,2.3,0.1,3.5,0.2c1.5,0.2,3-0.5,3.8-1.9c7.2-13,23.5-17.6,36.4-10.5
				c2.7,1.5,5.2,3.5,7.2,5.8c1.2,1.4,3.3,1.7,4.9,0.7c5.4-3.3,12.5-1.6,15.9,3.8c0.4,0.7,0.8,1.4,1,2.2c0.7,2,2.9,3.1,4.9,2.4
				c0.3-0.1,0.6-0.3,0.9-0.4c5.3-3.5,12.4-2.2,15.9,3.1c0,0,0,0.1,0.1,0.1c0.8,1.1,1.3,2.4,1.6,3.7
				C148.4,43.5,138.4,51.5,128.6,46.5z M146.5,86.5h15.4v58.1h-15.4V86.5z M177.3,148.5c0,6.4-5.1,11.5-11.5,11.5l0,0h-19.2v-7.7
				h19.2c2.1,0,3.8-1.7,3.8-3.8l0,0V82.7c0-2.1-1.7-3.8-3.8-3.8l0,0h-19.2v-7.7h19.2c6.4,0,11.5,5.1,11.5,11.5V148.5z"/>
		</g>
	</g>
</g>
</svg>
