<svg id="Layer_1" data-name="Layer 1" xmlns="http://www.w3.org/2000/svg" viewBox="0 0 200 200"><defs><style>.cls-1{fill:#3bd7f7;}</style></defs><title>beer-vector</title><g id="beer"><g id="Group_31" data-name="Group 31"><g id="Group_30" data-name="Group 30"><path id="Path_77" data-name="Path 77" class="cls-1" d="M111.67,175.17a3.8,3.8,0,1,0,3.8,3.8h0A3.8,3.8,0,0,0,111.67,175.17Z"/></g></g><g id="Group_33" data-name="Group 33"><g id="Group_32" data-name="Group 32"><path id="Path_78" data-name="Path 78" class="cls-1" d="M57.54,78.54a3.8,3.8,0,0,0-3.8,3.8v73.6a3.8,3.8,0,0,0,7.6,0V82.44a3.7,3.7,0,0,0-3.8-3.9Z"/></g></g><g id="Group_35" data-name="Group 35"><g id="Group_34" data-name="Group 34"><path id="Path_79" data-name="Path 79" class="cls-1" d="M88.39,78.54a3.8,3.8,0,0,0-3.8,3.8v73.6a3.8,3.8,0,1,0,7.6,0V82.44a3.82,3.82,0,0,0-3.8-3.9Z"/></g></g><g id="Group_37" data-name="Group 37"><g id="Group_36" data-name="Group 36"><path id="Path_80" data-name="Path 80" class="cls-1" d="M165.7,63.4H146.5V51.8A19.16,19.16,0,0,0,150.4,25a18.66,18.66,0,0,0-11.2-7.2,19.62,19.62,0,0,0-11,.8,19.16,19.16,0,0,0-16.3-8.9,20.16,20.16,0,0,0-7.3,1.4,34.44,34.44,0,0,0-48.7,1A30,30,0,0,0,52,17,34.85,34.85,0,0,0,15.3,49.7c0,.6-.1,1.3-.1,1.9V97.8a11.61,11.61,0,0,0,11.7,11.5,10.88,10.88,0,0,0,4-.7v70.7a19.2,19.2,0,0,0,19.2,19.2h77a19.2,19.2,0,0,0,19.2-19.2V167.8h19.2a19.36,19.36,0,0,0,19.3-19.2V82.7A19,19,0,0,0,165.7,63.4Zm-26.9,112H127.1a3.8,3.8,0,1,0,0,7.6h11a11.55,11.55,0,0,1-10.9,7.7h-77A11.65,11.65,0,0,1,39.3,183H96.2a3.8,3.8,0,0,0,0-7.6H38.7V70.6A27,27,0,0,0,58.8,55.8a2.79,2.79,0,0,1,2,.8,23.18,23.18,0,0,0,32.7-.3l.1-.1a1.49,1.49,0,0,1,.9-.4c6,0,9.9,1.3,11.7,3.8,1.4,2.1,1.4,5,1.4,7.3V82.5a11.65,11.65,0,0,0,7.7,10.9V156a3.8,3.8,0,0,0,7.6,0V93.3a11.55,11.55,0,0,0,7.7-10.9V55.3a22.06,22.06,0,0,0,8.1,0ZM128.6,46.5a3.86,3.86,0,0,0-5.2,1.7,3.29,3.29,0,0,0-.4,1.7V82.4a3.8,3.8,0,1,1-7.6,0V66.8c0-3,0-7.6-2.8-11.7-3.3-4.7-9.3-7.1-18-7.1a8.92,8.92,0,0,0-6.4,2.7,15.45,15.45,0,0,1-21.8.4l-.1-.1a10.88,10.88,0,0,0-7.4-3A7.79,7.79,0,0,0,52,52.3,19,19,0,0,1,35,63.1a3.8,3.8,0,0,0-3.8,3.8V97.5a4.08,4.08,0,0,1-4,4,3.91,3.91,0,0,1-4-3.8V51.6A26.63,26.63,0,0,1,50,24.7c1.2,0,2.3.1,3.5.2A3.78,3.78,0,0,0,57.3,23a26.79,26.79,0,0,1,43.6-4.7,3.83,3.83,0,0,0,4.9.7,11.53,11.53,0,0,1,16.9,6,3.87,3.87,0,0,0,4.9,2.4c.3-.1.6-.3.9-.4a11.48,11.48,0,0,1,16,3.2,10.16,10.16,0,0,1,1.6,3.7c2.3,9.6-7.7,17.6-17.5,12.6Zm17.9,40h15.4v58.1H146.5Zm30.8,62A11.5,11.5,0,0,1,165.8,160H146.6v-7.7h19.2a3.8,3.8,0,0,0,3.8-3.8V82.7a3.8,3.8,0,0,0-3.8-3.8H146.6V71.2h19.2a11.5,11.5,0,0,1,11.5,11.5Z"/></g></g></g></svg>