<svg id="Layer_1" data-name="Layer 1" xmlns="http://www.w3.org/2000/svg" viewBox="0 0 200 242.78"><defs><style>.cls-1,.cls-14,.cls-15{fill:none;stroke:#3bd7f7;stroke-linecap:round;}.cls-1,.cls-15{stroke-linejoin:round;}.cls-1,.cls-14{stroke-width:2.31px;}.cls-16,.cls-2,.cls-32,.cls-41,.cls-9{isolation:isolate;fill:#d8d8d8;font-family:OdibeeSans-Regular, Odibee Sans;}.cls-2{font-size:16.15px;}.cls-3{letter-spacing:-0.04em;}.cls-4{letter-spacing:-0.02em;}.cls-5{letter-spacing:-0.04em;}.cls-6{letter-spacing:-0.02em;}.cls-7{letter-spacing:-0.01em;}.cls-8{letter-spacing:-0.03em;}.cls-9{font-size:16.92px;}.cls-10{letter-spacing:-0.01em;}.cls-11{letter-spacing:0em;}.cls-12{letter-spacing:-0.02em;}.cls-13{letter-spacing:-0.01em;}.cls-15{stroke-width:1.63px;}.cls-16{font-size:19.22px;}.cls-17{letter-spacing:-0.04em;}.cls-18{letter-spacing:-0.02em;}.cls-19{letter-spacing:-0.08em;}.cls-20{letter-spacing:-0.01em;}.cls-21{letter-spacing:-0.03em;}.cls-22{letter-spacing:0em;}.cls-23{letter-spacing:-0.01em;}.cls-24{letter-spacing:-0.05em;}.cls-25{letter-spacing:-0.07em;}.cls-26{letter-spacing:-0.02em;}.cls-27{letter-spacing:-0.03em;}.cls-28{letter-spacing:-0.11em;}.cls-29{letter-spacing:-0.07em;}.cls-30{letter-spacing:0em;}.cls-31{letter-spacing:-0.06em;}.cls-32{font-size:18.45px;}.cls-33{letter-spacing:-0.01em;}.cls-34{letter-spacing:-0.07em;}.cls-35{letter-spacing:-0.02em;}.cls-36{letter-spacing:-0.03em;}.cls-37{letter-spacing:0em;}.cls-38{letter-spacing:-0.02em;}.cls-39{letter-spacing:0.02em;}.cls-40{letter-spacing:-0.14em;}.cls-41{font-size:14.79px;}.cls-42{letter-spacing:-0.05em;}</style></defs><title>board-game-stack</title><path id="Path_15" data-name="Path 15" class="cls-1" d="M148,238.64h2.9l1.3-27.6L5.4,214.84l4-22"/><path id="Path_16" data-name="Path 16" class="cls-1" d="M5.1,214.74v23.1l145.5.8"/><path id="Path_17" data-name="Path 17" class="cls-1" d="M152.2,211.24h4.9l.8-23.1"/><path id="Path_18" data-name="Path 18" class="cls-1" d="M99.9,212l-90.1,1.3-.6-23.9H41.9"/><path id="Path_19" data-name="Path 19" class="cls-1" d="M9.2,189.54l7.7-32.9,22.6-.8"/><text class="cls-2" transform="translate(60.02 207.62) rotate(-2)"><tspan class="cls-3">S</tspan><tspan class="cls-4" x="7.28" y="0">ec</tspan><tspan class="cls-5" x="18.33" y="0">r</tspan><tspan x="23.53" y="0">et</tspan><tspan class="cls-6" x="33.62" y="0"> </tspan><tspan x="35.56" y="0">Hi</tspan><tspan class="cls-7" x="46.39" y="0">tl</tspan><tspan class="cls-8" x="53.12" y="0">e</tspan><tspan class="cls-4" x="58.48" y="0">r</tspan></text><text class="cls-9" transform="translate(78.81 230.6) rotate(-2)">et <tspan class="cls-10" x="12.94" y="0">p</tspan><tspan class="cls-11" x="18.89" y="0">l</tspan><tspan class="cls-12" x="21.84" y="0">u</tspan><tspan x="27.62" y="0">s..</tspan><tspan class="cls-13" x="39.62" y="0">.</tspan></text><path id="Path_22" data-name="Path 22" class="cls-1" d="M41,188.94l140.3-1v-24.2l-139,1.2L36.2,152v19.5Z"/><path id="Path_24" data-name="Path 24" class="cls-14" d="M41.1,188.94l1.2-23.8"/><path id="Path_25" data-name="Path 25" class="cls-14" d="M178.6,133.74v30.1"/><path id="Path_26" data-name="Path 26" class="cls-1" d="M175.5,131l3.2,2.7-134.2.9-4.4-9H53.4l3.9,8.1,118.2-1.2v-23.9H57.3v23.9"/><path id="Path_27" data-name="Path 27" class="cls-1" d="M44.3,134.64l-.8,29.9-4-12.3"/><path id="Path_28" data-name="Path 28" class="cls-1" d="M36.3,152h3.1l.6-26.5"/><path id="Path_29" data-name="Path 29" class="cls-14" d="M43.6,164.14l40.6.3"/><path id="Path_30" data-name="Path 30" class="cls-1" d="M54.3,127.54v-19H49.7l-.3-24.2H174.2v24"/><path id="Path_31" data-name="Path 31" class="cls-1" d="M49.8,108.54c-.7-.1-5.5-9.3-5.5-9.3V77.94l5.1,6.5"/><path id="Path_36" data-name="Path 36" class="cls-1" d="M174.2,84.34l3.9.1.6-28.8H58.1v27.7"/><path id="Path_37" data-name="Path 37" class="cls-15" d="M178.8,55.74h16.1v-28L31.4,25.14v30.5H58"/><path id="Path_38" data-name="Path 38" class="cls-1" d="M58,83.24l-2.5-2.8V55.74"/><path id="Path_39" data-name="Path 39" class="cls-1" d="M31.3,55.74l-2.9-3.9V20.44l2.9,3.7"/><path id="Path_40" data-name="Path 40" class="cls-14" d="M28.4,20.44l44.8.7"/><path id="Path_41" data-name="Path 41" class="cls-1" d="M194.8,26.94l-3.7-4H175.2V6.34L75.9,5.14l-5.3-1V19l5.3,2.9,99.3,1"/><path id="Path_42" data-name="Path 42" class="cls-1" d="M71.3,4.14h95.8l8.2,2.2"/><text class="cls-16" transform="translate(76.28 102.91)"><tspan class="cls-17">M</tspan><tspan x="10.53" y="0">o</tspan><tspan class="cls-18" x="17.65" y="0">t</tspan><tspan x="22.32" y="0">s </tspan><tspan class="cls-19" x="31.95" y="0">R</tspan><tspan class="cls-18" x="39.85" y="0">a</tspan><tspan class="cls-20" x="46.42" y="0">p</tspan><tspan class="cls-21" x="53.19" y="0">i</tspan><tspan class="cls-18" x="55.99" y="0">d</tspan><tspan class="cls-22" x="62.57" y="0">o</tspan></text><text class="cls-2" transform="translate(83.97 125.98)"><tspan class="cls-3">M</tspan><tspan x="8.85" y="0">ot </tspan><tspan class="cls-6" x="21.33" y="0">p</tspan><tspan class="cls-23" x="26.85" y="0">o</tspan><tspan x="32.66" y="0">u</tspan><tspan class="cls-6" x="38.51" y="0">r</tspan><tspan x="44.03" y="0"> </tspan><tspan class="cls-24" x="46.29" y="0">m</tspan><tspan x="55.17" y="0">ot</tspan></text><text class="cls-2" transform="translate(74.74 154.43)"><tspan class="cls-23">Mis</tspan><tspan x="17.68" y="0">s </tspan><tspan class="cls-25" x="25.77" y="0">P</tspan><tspan class="cls-7" x="32.65" y="0">ou</tspan><tspan class="cls-26" x="44.14" y="0">t</tspan><tspan class="cls-27" x="48.07" y="0">in</tspan><tspan x="56.24" y="0">e</tspan></text><text class="cls-2" transform="translate(73.2 179.95)"><tspan class="cls-28">T</tspan><tspan class="cls-29" x="6.09" y="0">r</tspan><tspan class="cls-23" x="10.8" y="0">a</tspan><tspan class="cls-6" x="16.49" y="0">ged</tspan><tspan class="cls-30" x="33.05" y="0">y </tspan><tspan class="cls-31" x="41.16" y="0">L</tspan><tspan class="cls-4" x="47.49" y="0">oop</tspan><tspan class="cls-27" x="64.31" y="0">er</tspan><tspan x="75.03" y="0">s</tspan></text><text class="cls-32" transform="translate(84.43 74.48)">G<tspan class="cls-33" x="9.13" y="0">a</tspan><tspan x="15.63" y="0">lé</tspan><tspan class="cls-34" x="25.5" y="0">r</tspan><tspan class="cls-35" x="30.89" y="0">ap</tspan><tspan class="cls-33" x="43.51" y="0">a</tspan><tspan class="cls-36" x="50.01" y="0">go</tspan><tspan class="cls-37" x="62.41" y="0">s</tspan></text><text class="cls-32" transform="translate(79.66 45.3)">L&apos;<tspan class="cls-36" x="11.55" y="0">o</tspan><tspan class="cls-38" x="17.83" y="0">st</tspan><tspan class="cls-39" x="28.6" y="0">i</tspan><tspan x="32.22" y="0"> </tspan><tspan class="cls-33" x="34.8" y="0">d</tspan><tspan x="41.3" y="0">e</tspan><tspan class="cls-40" x="47.98" y="0"> </tspan><tspan x="47.98" y="0">jeu</tspan></text><text class="cls-41" transform="translate(113.23 19.61) rotate(1)"><tspan class="cls-42">UN</tspan><tspan x="13.18" y="0">O</tspan></text><line class="cls-1" x1="54.3" y1="109.04" x2="57.2" y2="109.04"/><line class="cls-1" x1="44.3" y1="77.94" x2="54.3" y2="77.94"/></svg>