<svg id="Layer_1" data-name="Layer 1" xmlns="http://www.w3.org/2000/svg" viewBox="0 0 51 49"><defs><style>.cls-1{fill:#e26223;}</style></defs><title>cc-vector</title><g id="credit-card"><path id="Path_87" data-name="Path 87" class="cls-1" d="M5.06,40.86H45.94A4.1,4.1,0,0,0,50,36.77V12.23a4.1,4.1,0,0,0-4.09-4.09H5.06A4.1,4.1,0,0,0,1,12.23V36.77A4.1,4.1,0,0,0,5.06,40.86ZM2.6,12.23A2.46,2.46,0,0,1,5.06,9.78H45.94a2.46,2.46,0,0,1,2.46,2.45V36.77a2.46,2.46,0,0,1-2.46,2.45H5.06A2.46,2.46,0,0,1,2.6,36.77Z"/><path id="Path_88" data-name="Path 88" class="cls-1" d="M8.33,21.23H11.6a2.45,2.45,0,0,0,2.45-2.45V15.51a2.46,2.46,0,0,0-2.45-2.46H8.33A2.46,2.46,0,0,0,5.87,15.5v3.28A2.46,2.46,0,0,0,8.33,21.23Zm0-6.54H11.6a.82.82,0,0,1,.82.82v.81H11.6a.82.82,0,0,0,0,1.64h.82v.82a.83.83,0,0,1-.82.82H8.33a.83.83,0,0,1-.82-.82V18h.82a.82.82,0,0,0,0-1.64H7.51v-.81a.82.82,0,0,1,.82-.82Z"/><path id="Path_89" data-name="Path 89" class="cls-1" d="M6.69,32.68H19A.82.82,0,0,0,19,31H6.69a.82.82,0,1,0,0,1.64Z"/><path id="Path_90" data-name="Path 90" class="cls-1" d="M6.69,36H23.05a.82.82,0,0,0,0-1.64H6.69a.82.82,0,0,0,0,1.64Z"/><path id="Path_91" data-name="Path 91" class="cls-1" d="M38.59,37.58a4,4,0,0,0,2-.55,4.08,4.08,0,1,0,0-7.07A4.09,4.09,0,1,0,36.54,37a4.18,4.18,0,0,0,2.05.54Zm6.54-4.08A2.45,2.45,0,0,1,42.68,36a2.3,2.3,0,0,1-.74-.12,4.08,4.08,0,0,0,0-4.67A2.44,2.44,0,0,1,45,32.76a2.25,2.25,0,0,1,.12.74ZM38.59,31a2.46,2.46,0,1,1-2.46,2.46A2.46,2.46,0,0,1,38.59,31Z"/><path id="Path_92" data-name="Path 92" class="cls-1" d="M43.12,21.14a.81.81,0,0,0,1.1-.36h0a7.75,7.75,0,0,0,0-7.28.82.82,0,0,0-1.46.73,6.11,6.11,0,0,1,0,5.81A.82.82,0,0,0,43.12,21.14Z"/><path id="Path_93" data-name="Path 93" class="cls-1" d="M36.37,19.35a.82.82,0,0,0,1.16,0h0a2.84,2.84,0,0,0,.42-4,2.38,2.38,0,0,0-.42-.42.81.81,0,0,0-1.16,0,.82.82,0,0,0,0,1.13,1.26,1.26,0,0,1,.38,1.73,1.29,1.29,0,0,1-.38.39.81.81,0,0,0,0,1.15Z"/><path id="Path_94" data-name="Path 94" class="cls-1" d="M6.69,26.14H11.6a.82.82,0,1,0,0-1.64H6.69a.82.82,0,1,0,0,1.64Z"/><path id="Path_95" data-name="Path 95" class="cls-1" d="M16.5,26.14h4.91a.82.82,0,1,0,0-1.64H16.5a.82.82,0,0,0,0,1.64Z"/><path id="Path_96" data-name="Path 96" class="cls-1" d="M26.32,26.14h4.91a.82.82,0,0,0,0-1.64H26.32a.82.82,0,0,0,0,1.64Z"/><path id="Path_97" data-name="Path 97" class="cls-1" d="M36.13,26.14H41a.82.82,0,0,0,0-1.64H36.13a.82.82,0,0,0,0,1.64Z"/><path id="Path_98" data-name="Path 98" class="cls-1" d="M40.8,14.11a.82.82,0,0,0-1.16,0,.84.84,0,0,0,0,1.16,2.8,2.8,0,0,1,.58,1.87A2.81,2.81,0,0,1,39.64,19h0a.82.82,0,1,0,1.11,1.2s0,0,0,0h0a4.87,4.87,0,0,0,0-6.06Z"/></g></svg>