<?xml version="1.0" encoding="utf-8"?>
<!-- Generator: Adobe Illustrator 24.0.1, SVG Export Plug-In . SVG Version: 6.00 Build 0)  -->
<svg version="1.1" id="Layer_1" xmlns="http://www.w3.org/2000/svg" xmlns:xlink="http://www.w3.org/1999/xlink" x="0px" y="0px"
	 viewBox="0 0 51 49" style="enable-background:new 0 0 51 49;" xml:space="preserve">
<style type="text/css">
	.st0{fill:#3BD7F7;}
</style>
<title>gpay-vector</title>
<g id="GPay-Light-themed-buttons">
	<g id="GPAY---SVGs">
		<g id="GPay-Brand-Mark">
			<g id="GPay">
				<g id="Pay">
					<path id="Fill-1" class="st0" d="M24.2,17.8v4.8h2.9c0.7,0,1.3-0.2,1.7-0.7c0.9-0.9,0.9-2.4,0-3.4c0,0,0,0,0,0
						c-0.5-0.4-1.1-0.7-1.7-0.7H24.2z M24.2,24.3v5.5h-1.8V16.2h4.7c1.1,0,2.2,0.4,3,1.2c1.6,1.5,1.7,4,0.2,5.6c0,0,0,0,0,0
						l-0.2,0.2c-0.8,0.8-1.9,1.2-3,1.2L24.2,24.3z"/>
					<path id="Fill-3" class="st0" d="M33.2,27c0,0.5,0.2,0.9,0.6,1.1c0.4,0.3,0.9,0.5,1.4,0.5c0.7,0,1.5-0.3,2-0.8
						c0.6-0.5,0.9-1.2,0.9-2c-0.7-0.5-1.5-0.7-2.3-0.6c-0.6,0-1.3,0.2-1.8,0.5C33.5,26,33.2,26.5,33.2,27 M35.4,20.2
						c1.1-0.1,2.2,0.3,3.1,1c0.8,0.7,1.2,1.8,1.1,2.9v5.8H38v-1.3h-0.1c-0.6,1-1.7,1.6-2.9,1.6c-0.9,0-1.9-0.3-2.6-0.9
						c-0.7-0.6-1-1.4-1-2.3c0-0.9,0.4-1.8,1.1-2.3c0.9-0.6,1.9-0.9,2.9-0.9c0.9,0,1.8,0.2,2.6,0.6v-0.4c0-0.6-0.3-1.2-0.7-1.5
						c-0.5-0.4-1.1-0.6-1.7-0.6c-1,0-1.9,0.4-2.4,1.3l-1.5-1C32.5,20.8,33.9,20.1,35.4,20.2"/>
					<g id="Group-7">
						<path id="Fill-5" class="st0" d="M49.3,20.5l-5.9,13.5h-1.8l2.2-4.7l-3.9-8.8h1.9l2.8,6.7l0,0l2.7-6.7L49.3,20.5z"/>
					</g>
				</g>
				<g id="G">
					<path id="Fill-8" class="st0" d="M17.1,23.1c0-0.5,0-1.1-0.1-1.6H9.6v3h4.3c-0.2,1-0.7,1.8-1.6,2.4v2h2.5
						C16.4,27.4,17.2,25.3,17.1,23.1"/>
					<path id="Fill-10" class="st0" d="M9.6,30.8c1.9,0.1,3.8-0.6,5.2-1.9l-2.5-2c-2.2,1.4-5.1,0.8-6.6-1.4c0,0,0,0,0,0
						c-0.2-0.3-0.4-0.6-0.5-1H2.6v2C3.9,29.1,6.6,30.7,9.6,30.8"/>
					<path id="Fill-12" class="st0" d="M5.2,24.4c-0.3-1-0.3-2,0-3v-2H2.6c-1.1,2.2-1.1,4.8,0,7L5.2,24.4z"/>
					<path id="Fill-14" class="st0" d="M9.6,18.2c1.1,0,2.2,0.4,3,1.2l0,0l2.2-2.2c-1.4-1.3-3.3-2-5.3-2c-3,0-5.7,1.7-7,4.3l2.6,2
						C5.8,19.5,7.6,18.2,9.6,18.2"/>
				</g>
			</g>
		</g>
	</g>
</g>
</svg>
