<svg id="Layer_1" data-name="Layer 1" xmlns="http://www.w3.org/2000/svg" viewBox="0 0 51 49"><defs><style>.cls-1{fill:#e26223;}</style></defs><title>gpay-vector</title><g id="GPay-Light-themed-buttons"><g id="GPAY---SVGs"><g id="GPay-Brand-Mark"><g id="GPay"><g id="Pay"><path id="Fill-1" class="cls-1" d="M24.21,17.84v4.77h2.94a2.3,2.3,0,0,0,1.73-.71,2.39,2.39,0,0,0,0-3.38,2.42,2.42,0,0,0-1.69-.68Zm0,6.45v5.53H22.46V16.17h4.66a4.22,4.22,0,0,1,3,1.18,3.94,3.94,0,0,1,.21,5.57l-.21.21a4.2,4.2,0,0,1-3,1.16Z"/><path id="Fill-3" class="cls-1" d="M33.17,27a1.41,1.41,0,0,0,.58,1.15,2.24,2.24,0,0,0,1.37.46,2.84,2.84,0,0,0,2-.82A2.59,2.59,0,0,0,38,25.81a3.59,3.59,0,0,0-2.29-.65,3,3,0,0,0-1.78.52A1.52,1.52,0,0,0,33.17,27m2.27-6.78a4.35,4.35,0,0,1,3.07,1,3.74,3.74,0,0,1,1.12,2.85v5.75H38V28.52h-.08a3.36,3.36,0,0,1-2.9,1.6,3.78,3.78,0,0,1-2.59-.92,2.93,2.93,0,0,1-1-2.29,2.76,2.76,0,0,1,1.1-2.3,4.65,4.65,0,0,1,2.93-.86,5.22,5.22,0,0,1,2.58.57v-.4a2,2,0,0,0-.72-1.55,2.5,2.5,0,0,0-1.7-.64A2.7,2.7,0,0,0,33.21,23l-1.55-1a4.29,4.29,0,0,1,3.78-1.83"/><g id="Group-7"><path id="Fill-5" class="cls-1" d="M49.27,20.47,43.41,33.93H41.6l2.18-4.71-3.86-8.75h1.91l2.79,6.71h0l2.71-6.71Z"/></g></g><g id="G"><path id="Fill-8" class="cls-1" d="M17.12,23.09a9.59,9.59,0,0,0-.13-1.6H9.58v3h4.25a3.66,3.66,0,0,1-1.57,2.38v2h2.53a7.7,7.7,0,0,0,2.34-5.78"/><path id="Fill-10" class="cls-1" d="M9.58,30.76a7.49,7.49,0,0,0,5.2-1.9l-2.53-2a4.74,4.74,0,0,1-6.56-1.43,4.25,4.25,0,0,1-.51-1H2.56v2a7.86,7.86,0,0,0,7,4.32"/><path id="Fill-12" class="cls-1" d="M5.17,24.41a4.67,4.67,0,0,1,0-3v-2H2.56a7.88,7.88,0,0,0,0,7.05Z"/><path id="Fill-14" class="cls-1" d="M9.58,18.18a4.26,4.26,0,0,1,3,1.17h0l2.24-2.24a7.56,7.56,0,0,0-5.25-2,7.86,7.86,0,0,0-7,4.32l2.61,2a4.7,4.7,0,0,1,4.4-3.24"/></g></g></g></g></g></svg>