<?xml version="1.0" encoding="utf-8"?>
<!-- Generator: Adobe Illustrator 24.0.1, SVG Export Plug-In . SVG Version: 6.00 Build 0)  -->
<svg version="1.1" id="Layer_1" xmlns="http://www.w3.org/2000/svg" xmlns:xlink="http://www.w3.org/1999/xlink" x="0px" y="0px"
	 viewBox="0 0 51 49" style="enable-background:new 0 0 51 49;" xml:space="preserve">
<style type="text/css">
	.st0{fill-rule:evenodd;clip-rule:evenodd;fill:#3BD7F7;}
</style>
<title>interac-vector</title>
<g id="Group_68">
	<g id="Group_51">
		<path id="Path_101" class="st0" d="M43.4,39.4c0,1.7-1.3,3-3,3H10.6c-1.7,0-3-1.3-3-3l0,0V9.6c0-1.7,1.3-3,3-3h29.8
			c1.7,0,3,1.3,3,3L43.4,39.4z"/>
		<path id="Path_102" d="M27.6,24.9v-6.4l1.7-0.4v0.8c0.3-0.6,0.8-1.1,1.4-1.4c0.2,0,0.3,0,0.5,0v1.6c-0.3,0-0.6,0.1-0.9,0.2
			c-0.6,0.3-1,0.9-0.9,1.6v3.5L27.6,24.9z"/>
		<path id="Path_103" d="M18.8,27c-0.2-0.6-0.3-1.2-0.3-1.9v-3.2l-0.9,0.2v-1.3l0.9-0.2v-1.4l1.8-0.4v1.4l1.3-0.3v1.3l-1.3,0.3v3.3
			c0,1.5,0.4,1.8,0.4,1.8L18.8,27z"/>
		<path id="Path_104" d="M21.7,23.2c-0.1-0.9,0.1-1.8,0.5-2.6c0.4-0.8,1.2-1.3,2.1-1.5c2-0.5,2.6,0.7,2.6,2.3c0,0.5,0,0.8,0,0.8
			L23.5,23l0,0c0,1.1,0.2,1.6,0.9,1.5c0.5-0.1,0.8-0.5,0.8-1c0-0.1,0-0.3,0-0.3l1.6-0.4v0.3c0,0.6-0.2,2.1-2.4,2.7
			S21.7,25,21.7,23.2 M24.4,20.3c-0.6,0.1-0.9,0.7-0.9,1.6l1.7-0.4v-0.3C25.2,20.5,25,20.1,24.4,20.3"/>
		<path id="Path_105" d="M37.2,19.4c-0.1-2,0.4-3.5,2.6-4c1.4-0.3,1.9,0.1,2.2,0.4c0.3,0.4,0.4,0.9,0.4,1.4v0.1l-1.7,0.4v-0.2
			c0-0.8-0.2-1-0.8-0.9s-0.9,0.8-0.9,2v0.6c0,1.2,0.2,1.8,0.9,1.6s0.7-0.7,0.7-1.2c0-0.1,0-0.3,0-0.3l1.7-0.4v0.3
			c0.1,1.5-1,2.8-2.5,3C37.7,22.7,37.2,21.4,37.2,19.4"/>
		<path id="Path_106" d="M31.3,22.1c0-1.5,0.9-2,2.2-2.5s1.2-0.7,1.2-1.1s-0.2-0.7-0.8-0.5c-0.4,0.1-0.7,0.4-0.7,0.8
			c0,0.1,0,0.2,0,0.3l-1.6,0.4c0-0.3,0-0.7,0.1-1c0.3-0.9,1-1.5,2.4-1.8c1.8-0.4,2.3,0.4,2.3,1.6v2.8c0,1.4,0.3,1.6,0.3,1.6
			l-1.6,0.4c-0.1-0.2-0.2-0.4-0.2-0.6c-0.3,0.6-0.9,1.1-1.6,1.2c-0.8,0.3-1.6-0.1-1.9-0.9C31.3,22.6,31.2,22.3,31.3,22.1 M34.7,20.1
			c-0.3,0.2-0.6,0.4-0.9,0.5c-0.5,0.2-0.8,0.6-0.8,1.1c0,0.3,0.2,0.6,0.5,0.6c0.1,0,0.2,0,0.3,0c0.6-0.2,0.9-0.7,0.9-1.3V20.1z"/>
		<path id="Path_107" d="M9.5,31.5c-0.6,0-1-0.4-1-1c0-0.2,0.1-0.4,0.2-0.6l0,0l2.4-0.6v1.8l0,0l-1.3,0.3L9.5,31.5"/>
		<path id="Path_108" d="M9.5,33.8c-0.6,0-1-0.4-1-1c0-0.2,0.1-0.4,0.2-0.6l0,0l2.4-0.6v1.8l0,0l-1.3,0.3L9.5,33.8"/>
		<path id="Path_109" d="M9.5,36.2c-0.6,0-1-0.4-1-1c0-0.2,0.1-0.4,0.2-0.5l0,0l2.4-0.6v1.8l0,0l-1.3,0.3L9.5,36.2"/>
		<path id="Path_110" d="M9.2,29.2V18.9l1.9-0.5v10.3L9.2,29.2z"/>
		<path id="Path_111" d="M13.9,28.3c-0.1-0.6-0.6-1.1-1.3-1c-0.6,0.1-1,0.5-1,1l0,0v9.6c0,1.7,1.4,3.1,3.1,3.1H18v-8.5
			c0-0.5-0.3-1-0.7-1.3l-2.9-2v4.5c0,0.1-0.1,0.3-0.2,0.3c-0.1,0-0.3-0.1-0.3-0.2l0,0L13.9,28.3"/>
		<path id="Path_112" d="M15.4,21.2c-0.7,0.2-1.3,0.6-1.7,1.3v-0.7l-1.7,0.4v4.6c0.6-0.2,1.3-0.1,1.8,0.3v-3
			c-0.1-0.6,0.3-1.2,0.9-1.4c0.4-0.1,0.7,0.1,0.7,0.7v4.4l1.8-0.4v-4.6C17.2,21.6,16.8,20.9,15.4,21.2"/>
		<path id="Path_113" d="M41.2,14.6c-0.6,0-1.1-0.5-1.1-1.1c0-0.6,0.5-1.1,1.1-1.1c0.6,0,1.1,0.5,1.1,1.1c0,0,0,0,0,0l0,0
			C42.3,14.1,41.8,14.6,41.2,14.6C41.2,14.6,41.2,14.6,41.2,14.6 M41.2,12.5c-0.6,0-1,0.4-1,1s0.4,1,1,1s1-0.4,1-1l0,0
			C42.2,13,41.8,12.5,41.2,12.5"/>
		<path id="Path_114" d="M40.8,12.8h0.5c0.2,0,0.3,0.1,0.3,0.3c0,0,0,0,0,0v0.1c0,0.2-0.1,0.3-0.2,0.3l0,0c0.1,0,0.2,0.1,0.2,0.3
			c0,0.1,0,0.2,0,0.3c0,0,0,0.1,0.1,0.1h-0.2c0,0,0-0.1,0-0.1c0-0.1,0-0.2,0-0.3c0-0.1,0-0.2-0.2-0.2h-0.2v0.6h-0.2L40.8,12.8z
			 M41.2,13.4c0.1,0,0.2-0.1,0.2-0.2c0,0,0,0,0,0l0,0c0,0-0.1-0.2-0.2-0.2H41v0.4L41.2,13.4z"/>
	</g>
</g>
</svg>
