<svg id="Layer_1" data-name="Layer 1" xmlns="http://www.w3.org/2000/svg" viewBox="0 0 200 200"><defs><style>.st0{fill:#3bd7f7;}</style></defs><title>military-vector</title><g id="military"><path id="Path_53" data-name="Path 53" class="st0" d="M190.71,43.8a6.88,6.88,0,0,0-5,2.1l-2.2,2.2,9.9,9.9,2.2-2.2a7.06,7.06,0,0,0,0-9.9A6.66,6.66,0,0,0,190.71,43.8Z"/><path id="Path_54" data-name="Path 54" class="st0" d="M172.91,58.7l-5-5H158v9.9l5,5-7.8,7.8a16.32,16.32,0,0,1,2,1.7l7.4,7.4c.2.2.4.5.6.7l23.5-23.5-9.9-9.9Z"/><path id="Path_55" data-name="Path 55" class="st0" d="M121.61,104.5l-5.7-1-10.8,8.7,16.5,6.2Z"/><path id="Path_56" data-name="Path 56" class="st0" d="M75.31,126.5a3.33,3.33,0,0,0,3.3,3.3h39.7a3.33,3.33,0,0,0,3.3-3.3v-1l-23.2-8.7-23.2,8.7v1Z"/><path id="Path_57" data-name="Path 57" class="st0" d="M91.91,30.5h13.2v6.6H91.91Z"/><path id="Path_58" data-name="Path 58" class="st0" d="M111.31,98.7l-1.9-7.5a29.6,29.6,0,0,1-21.9,0l-1.9,7.5,12.8,10.2Z"/><path id="Path_59" data-name="Path 59" class="st0" d="M121.61,43.8H80.91a11.93,11.93,0,0,1-4.1,5.3l-3.1,2.2a11.39,11.39,0,0,1,1.6,5.7v6.6a23.15,23.15,0,0,0,46.3,0Z"/><path id="Path_60" data-name="Path 60" class="st0" d="M75.31,104.5v13.9l16.5-6.2L81,103.5Z"/><path id="Path_61" data-name="Path 61" class="st0" d="M111.71,30.5h23.2v6.6h-23.2Z"/><path id="Path_62" data-name="Path 62" class="st0" d="M124.71,98.3l8.7,1.5-5.1-5.1Z"/><path id="Path_63" data-name="Path 63" class="st0" d="M134.91,43.8h-6.6V63.6a27.12,27.12,0,0,1-1,7.5,15.12,15.12,0,0,0,7.6-13.1Z"/><path id="Path_64" data-name="Path 64" class="st0" d="M111.71,4.1H85.21a23.23,23.23,0,0,0-22.9,19.8h72.2A23,23,0,0,0,111.71,4.1Z"/><path id="Path_65" data-name="Path 65" class="st0" d="M49.91,77.4l-10.8-6.5a4.73,4.73,0,0,0-6.3,1.5l-10,16,14.5,8.7-3.4,5.7L19.21,94,7.81,112.2l9.3,4.7-3,5.9-9.8-4.9a17,17,0,0,0,1.3,17.9l8.1-5.4,3.7,5.5-6.8,4.6a16.84,16.84,0,0,0,9,2.6h9.2v-6.6h6.6v6.6h13.2V126.6H42V120h6.6V109l-5.7.9-11.3,18.4L26,124.8l4.3-7-9.6-4.8,3-5.9,10.1,5.1,10.7-17.4-7.7-5.1,3.7-5.5,7.5,5,3.3-5.4a4.56,4.56,0,0,0,.6-2.2A4,4,0,0,0,49.91,77.4Z"/><path id="Path_66" data-name="Path 66" class="st0" d="M159.91,96.7a4.71,4.71,0,0,0,0-6.6l-7.4-7.4a8.92,8.92,0,0,0-11.3-.8l9.1,9.1-4.7,4.7-9.2-9.2-3.6,3.6,11.8,11.8a54.1,54.1,0,0,1,7.9,2.1Z"/><path id="Path_67" data-name="Path 67" class="st0" d="M128.21,126.5a9.86,9.86,0,0,1-9.9,9.9H78.61a9.86,9.86,0,0,1-9.9-9.9V105.6l-13.2,2.2v88.1h6.6V182.7a6.59,6.59,0,0,1,6.6-6.6h19.8a6.59,6.59,0,0,1,6.6,6.6v13.2h6.6V182.7a6.59,6.59,0,0,1,6.6-6.6h19.8a6.59,6.59,0,0,1,6.6,6.6v13.2h6.6V108l-13.2-2.3v20.8Zm6.7,23.1v13.2a6.59,6.59,0,0,1-6.6,6.6H68.81a6.59,6.59,0,0,1-6.6-6.6V149.6a6.59,6.59,0,0,1,6.6-6.6h59.5a6.66,6.66,0,0,1,6.6,6.6Z"/><path id="Path_68" data-name="Path 68" class="st0" d="M161.31,143v13.2h13.2V145.1c0-.7-.1-1.4-.1-2.1Z"/><path id="Path_69" data-name="Path 69" class="st0" d="M154.71,156.2V143a6.59,6.59,0,0,1,6.6-6.6h12.2a36.52,36.52,0,0,0-2.2-6.6h-9.9v-6.6h6a36.22,36.22,0,0,0-19.3-13.7v60h19.8v6.6h-19.8v19.8h26.5v-6.6h-13.2v-6.6h13.2V162.9h-13.2A6.77,6.77,0,0,1,154.71,156.2Z"/><path id="Path_70" data-name="Path 70" class="st0" d="M81.71,37.2h3.6V30.6h-12A8.65,8.65,0,0,1,81.71,37.2Z"/><path id="Path_71" data-name="Path 71" class="st0" d="M68.71,149.6h59.5v13.2H68.71Z"/><path id="Path_72" data-name="Path 72" class="st0" d="M68.71,57a3.92,3.92,0,0,0-.4-1.8L57.41,63l-3.8-5.4L73,43.7a5.33,5.33,0,0,0,2.3-4.5,2,2,0,0,0-2.2-2,2.35,2.35,0,0,0-.8.2L49.51,48.8a13.1,13.1,0,0,0-7.3,11.8v4.5a.37.37,0,0,0,.3.1l10.8,6.5a14.31,14.31,0,0,1,1.5,1.1l12.5-12.5A4.71,4.71,0,0,0,68.71,57Z"/><path id="Path_73" data-name="Path 73" class="st0" d="M68.71,182.7h19.8v13.2H68.71Z"/><path id="Path_74" data-name="Path 74" class="st0" d="M73.31,30.5H62.11v4.6l7.3-3.7A10.13,10.13,0,0,1,73.31,30.5Z"/><path id="Path_75" data-name="Path 75" class="st0" d="M108.41,182.7h19.8v13.2h-19.8Z"/></g></svg>