<svg id="Layer_1" data-name="Layer 1" xmlns="http://www.w3.org/2000/svg" viewBox="0 0 51 49"><defs><style>.cls-1{fill:#e26223;fill-rule:evenodd;}</style></defs><title>pp-vector</title><g id="Group_67" data-name="Group 67"><path id="Path_115" data-name="Path 115" class="cls-1" d="M33.22,42.77a2.14,2.14,0,0,1-1.32-1.54c-.08-.44,0-.74.64-1.95a30.45,30.45,0,0,0,3.62-14.83,30.09,30.09,0,0,0-3.38-14.29A14.37,14.37,0,0,1,31.84,8a2.18,2.18,0,0,1,.91-1.58A2,2,0,0,1,35,6.57a10.49,10.49,0,0,1,1.16,1.9,36.2,36.2,0,0,1,3.49,11,42.87,42.87,0,0,1,.14,9.13,35.66,35.66,0,0,1-3.31,11.19c-1,2.14-1.68,3-2.22,3a1.34,1.34,0,0,0-.4.06,1.49,1.49,0,0,1-.66-.08Zm-7-3.68a1.91,1.91,0,0,1-1.29-2.2c.06-.2.49-1.13.94-2.06a23,23,0,0,0,2.35-12.32,22.2,22.2,0,0,0-2.48-8.71c-1-2.11-1.08-2.43-.48-3.28A2,2,0,0,1,28,10.26,25.29,25.29,0,0,1,30.73,16a27.27,27.27,0,0,1-.89,19.3c-1.36,3.18-2.3,4.16-3.65,3.77ZM19,35.37a2.21,2.21,0,0,1-1.18-1.44c-.07-.36.06-.76.72-2.11a15.45,15.45,0,0,0,.08-14.49c-1-2.11-1.06-2.53-.18-3.37a1.38,1.38,0,0,1,1.23-.48c1,0,1.56.52,2.48,2.4a18.41,18.41,0,0,1,2,8.65A17.58,17.58,0,0,1,22,33.17c-.86,1.76-1.29,2.22-2.15,2.34a2,2,0,0,1-.94-.14Zm-6.77-3.48a2.23,2.23,0,0,1-1.09-1.3c-.17-.59,0-1.05.63-2.14a8.13,8.13,0,0,0,0-8,8.94,8.94,0,0,1-.65-1.27,2,2,0,0,1,1.54-2.26c.87-.16,1.48.23,2.28,1.49a11.39,11.39,0,0,1,0,12.15c-.82,1.27-1.74,1.72-2.71,1.32Z"/></g></svg>