<?xml version="1.0" encoding="utf-8"?>
<!-- Generator: Adobe Illustrator 24.0.1, SVG Export Plug-In . SVG Version: 6.00 Build 0)  -->
<svg version="1.1" id="Layer_1" xmlns="http://www.w3.org/2000/svg" xmlns:xlink="http://www.w3.org/1999/xlink" x="0px" y="0px"
	 viewBox="0 0 51 49" style="enable-background:new 0 0 51 49;" xml:space="preserve">
<style type="text/css">
	.st0{fill-rule:evenodd;clip-rule:evenodd;fill:#3BD7F7;}
</style>
<title>pp-vector</title>
<g id="Group_67">
	<path id="Path_115" class="st0" d="M33.2,42.8c-0.7-0.3-1.2-0.8-1.3-1.5c-0.1-0.4,0-0.7,0.6-2c2.4-4.6,3.7-9.7,3.6-14.8
		c0.1-5-1.1-9.9-3.4-14.3c-0.4-0.7-0.7-1.4-0.9-2.2c0.1-0.6,0.4-1.2,0.9-1.6C33.5,6,34.4,6.1,35,6.6c0.5,0.6,0.8,1.2,1.2,1.9
		c1.7,3.5,2.9,7.2,3.5,11c0.4,3,0.4,6.1,0.1,9.1c-0.5,3.9-1.6,7.7-3.3,11.2c-1,2.1-1.7,3-2.2,3c-0.1,0-0.3,0-0.4,0.1
		C33.6,42.9,33.4,42.8,33.2,42.8L33.2,42.8z M26.2,39.1c-0.9-0.3-1.5-1.2-1.3-2.2c0.1-0.2,0.5-1.1,0.9-2.1c1.9-3.8,2.7-8.1,2.4-12.3
		c-0.2-3-1.1-6-2.5-8.7c-1-2.1-1.1-2.4-0.5-3.3c0.7-0.8,1.9-0.9,2.7-0.3c1.1,1.8,2.1,3.7,2.7,5.7c2.1,6.3,1.8,13.2-0.9,19.3
		C28.5,38.5,27.5,39.5,26.2,39.1L26.2,39.1z M19,35.4c-0.6-0.3-1-0.8-1.2-1.4c-0.1-0.4,0.1-0.8,0.7-2.1c2.4-4.5,2.5-9.9,0.1-14.5
		c-1-2.1-1.1-2.5-0.2-3.4c0.3-0.4,0.8-0.5,1.2-0.5c1,0,1.6,0.5,2.5,2.4c1.4,2.7,2,5.6,2,8.6c0,3-0.7,6-2.1,8.6
		c-0.9,1.8-1.3,2.2-2.1,2.3C19.5,35.5,19.2,35.5,19,35.4L19,35.4z M12.2,31.9c-0.5-0.3-0.9-0.7-1.1-1.3c-0.2-0.6,0-1,0.6-2.1
		c1.4-2.5,1.4-5.5,0-8c-0.3-0.4-0.5-0.8-0.6-1.3c-0.2-1,0.5-2,1.5-2.3c0.9-0.2,1.5,0.2,2.3,1.5c2.3,3.7,2.3,8.4,0,12.1
		C14.1,31.8,13.2,32.3,12.2,31.9L12.2,31.9z"/>
</g>
</svg>
