<svg id="Layer_1" data-name="Layer 1" xmlns="http://www.w3.org/2000/svg" viewBox="0 0 550 150"><defs><style>.cls-1{fill:#40e0d0;}.cls-2{fill:#fff;}</style></defs><title>Artboard 1</title><path class="cls-1" d="M281,3.58h36.4l-31.6,142.84h-40.6L213.56,3.58H250L265.36,99Z"/><path class="cls-2" d="M20.08,114.74Q6,114.74,6,100.54V55.43q0-14.19,14.12-14.2h14.2q14.11,0,14.12,14.2v45.11q0,7.09-3.56,10.65l8.93,11.33H34.67l-6.05-7.78Zm2.68-56.68V97.91q0,2.52,2.4,2.52h4q2.4,0,2.4-2.52V58.06c0-1.67-.8-2.51-2.4-2.51h-4C23.56,55.55,22.76,56.39,22.76,58.06Z"/><path class="cls-2" d="M81.42,41.23h16.8v59.31q0,14.2-14.11,14.2H69.9q-14.12,0-14.11-14.2V41.23h16.8V97.91q0,2.52,2.4,2.52h4q2.4,0,2.4-2.52Z"/><path class="cls-2" d="M137.29,114.74l-1.92-11H120.59l-2,11H102.06L117.9,41.23h20.45l15.84,73.51ZM123.18,89.55h9.6L128.07,63.1Z"/><path class="cls-2" d="M174.83,88.63v26.11H158V41.23h28.51q14.11,0,14.11,14.2v19q0,10.88-8.26,13.39l11.33,26.91H185.67l-9.79-26.11Zm6.62-33.08h-6.62V75h6.62q2.4,0,2.4-2.52V58.06C183.85,56.39,183.05,55.55,181.45,55.55Z"/><path class="cls-2" d="M244.52,41.23V55.55h-11.9v59.19h-16.8V55.55H204V41.23Z"/><path class="cls-2" d="M269,41.23h28.32q14.12,0,14.11,14.2v45.11q0,14.2-14.11,14.2H269Zm25.63,57.82V56.92q0-2.52-2.4-2.52H285.8v47.17h6.43Q294.63,101.57,294.63,99.05Z"/><path class="cls-2" d="M335.62,100.43h21v14.31H318.82V41.23h37V55.55H335.62v15H353V84.86H335.62Z"/><path class="cls-2" d="M409.25,41.23h15.36v73.51h-14.4L396.49,76.15v38.59H381.13V41.23h14.4l13.72,39.28Z"/><path class="cls-2" d="M457.93,41.23h16.8v59.31q0,14.2-14.12,14.2h-14.2q-14.12,0-14.12-14.2V41.23h16.8V97.91q0,2.52,2.4,2.52h4c1.59,0,2.4-.84,2.4-2.52Z"/><path class="cls-2" d="M482.4,41.23h16.8v73.51H482.4Z"/><path class="cls-2" d="M544,41.23V55.55H532.13v59.19h-16.8V55.55H503.52V41.23Z"/></svg>