<svg id="Layer_1" data-name="Layer 1" xmlns="http://www.w3.org/2000/svg" viewBox="0 0 200 200"><defs><style>.sto0{fill:#3bd7f7;}</style></defs><title>sofa-vector</title><g id="Group_29" data-name="Group 29"><path id="Path_50" data-name="Path 50" class="sto0" d="M112.69,93.5h44.1a8.75,8.75,0,0,0,8.8-8.8h0V46.3a8.75,8.75,0,0,0-8.8-8.8h-44.1a8.75,8.75,0,0,0-8.8,8.8h0V84.6A8.9,8.9,0,0,0,112.69,93.5Z"/><path id="Path_51" data-name="Path 51" class="sto0" d="M44.39,93.5h44.1a8.75,8.75,0,0,0,8.8-8.8V46.3a8.75,8.75,0,0,0-8.8-8.8H44.39a8.75,8.75,0,0,0-8.8,8.8h0V84.6a8.83,8.83,0,0,0,8.8,8.9Z"/><path id="Path_52" data-name="Path 52" class="sto0" d="M184.39,69.9a13.19,13.19,0,0,0-13.2,13.2h0v20.7a17.57,17.57,0,0,0-9.9-3.1H40a17.57,17.57,0,0,0-9.9,3.1V83.1a13.25,13.25,0,0,0-26.5,0v57.4a13.19,13.19,0,0,0,13.2,13.2h4.4a8.8,8.8,0,0,0,17.6,0h123.5a8.8,8.8,0,0,0,17.6,0h4.4a13.19,13.19,0,0,0,13.2-13.2V83.1A13,13,0,0,0,184.39,69.9Z"/></g></svg>