<svg id="Layer_1" data-name="Layer 1" xmlns="http://www.w3.org/2000/svg" viewBox="0 0 200 200"><defs><style>.cls-1{fill:#ffad61;}.cls-2{fill:#592719;}.cls-3{fill:#3bd7f7;}.cls-4{fill:#0070c0;}.cls-5{fill:#ffeb3c;}</style></defs><title>ssb-vector</title><g id="Group_6" data-name="Group 6"><rect id="Rectangle_24" data-name="Rectangle 24" class="cls-1" x="94.9" y="51.9" width="10.3" height="10.3"/><rect id="Rectangle_25" data-name="Rectangle 25" class="cls-1" x="107.7" y="51.9" width="10.3" height="10.3"/><rect id="Rectangle_34" data-name="Rectangle 34" class="cls-1" x="119.2" y="51.9" width="10.3" height="10.3"/><rect id="Rectangle_168" data-name="Rectangle 168" x="119.2" y="63.5" width="10.3" height="10.3"/><rect id="Rectangle_36" data-name="Rectangle 36" class="cls-1" x="144.9" y="51.9" width="10.3" height="10.3"/><rect id="Rectangle_164" data-name="Rectangle 164" x="144.9" y="63.5" width="10.3" height="10.3"/><rect id="Rectangle_37" data-name="Rectangle 37" class="cls-1" x="132" y="39.1" width="10.3" height="10.3"/><rect id="Rectangle_166" data-name="Rectangle 166" x="132" y="63.5" width="10.3" height="10.3"/><rect id="Rectangle_38" data-name="Rectangle 38" class="cls-1" x="132" y="26.3" width="10.3" height="10.3"/><rect id="Rectangle_167" data-name="Rectangle 167" x="132" y="51.9" width="10.3" height="10.3"/><rect id="Rectangle_39" data-name="Rectangle 39" class="cls-1" x="144.9" y="39.1" width="10.3" height="10.3"/><rect id="Rectangle_40" data-name="Rectangle 40" class="cls-1" x="156.4" y="39.1" width="10.3" height="10.3"/><rect id="Rectangle_41" data-name="Rectangle 41" class="cls-1" x="156.4" y="51.9" width="10.3" height="10.3"/><rect id="Rectangle_165" data-name="Rectangle 165" x="156.4" y="63.5" width="10.3" height="10.3"/><rect id="Rectangle_42" data-name="Rectangle 42" class="cls-1" x="169.2" y="51.9" width="10.3" height="10.3"/><rect id="Rectangle_26" data-name="Rectangle 26" class="cls-1" x="82" y="51.9" width="10.3" height="10.3"/><rect id="Rectangle_43" data-name="Rectangle 43" class="cls-2" x="70.5" y="51.9" width="10.3" height="10.3"/><rect id="Rectangle_44" data-name="Rectangle 44" class="cls-1" x="57.7" y="63.5" width="10.3" height="10.3"/><rect id="Rectangle_55" data-name="Rectangle 55" class="cls-1" x="57.7" y="76.3" width="10.3" height="10.3"/><rect id="Rectangle_47" data-name="Rectangle 47" class="cls-1" x="70.5" y="63.5" width="10.3" height="10.3"/><rect id="Rectangle_54" data-name="Rectangle 54" class="cls-1" x="70.5" y="76.3" width="10.3" height="10.3"/><rect id="Rectangle_48" data-name="Rectangle 48" class="cls-1" x="82" y="63.5" width="10.3" height="10.3"/><rect id="Rectangle_53" data-name="Rectangle 53" class="cls-1" x="82" y="76.3" width="10.3" height="10.3"/><rect id="Rectangle_49" data-name="Rectangle 49" class="cls-1" x="94.9" y="63.5" width="10.3" height="10.3"/><rect id="Rectangle_52" data-name="Rectangle 52" class="cls-1" x="94.9" y="76.3" width="10.3" height="10.3"/><rect id="Rectangle_50" data-name="Rectangle 50" class="cls-1" x="107.7" y="63.5" width="10.3" height="10.3"/><rect id="Rectangle_51" data-name="Rectangle 51" class="cls-1" x="107.7" y="76.3" width="10.3" height="10.3"/><rect id="Rectangle_56" data-name="Rectangle 56" class="cls-1" x="119.2" y="76.3" width="10.3" height="10.3"/><rect id="Rectangle_57" data-name="Rectangle 57" class="cls-1" x="132" y="76.3" width="10.3" height="10.3"/><rect id="Rectangle_58" data-name="Rectangle 58" class="cls-1" x="144.9" y="76.3" width="10.3" height="10.3"/><rect id="Rectangle_62" data-name="Rectangle 62" class="cls-1" x="144.9" y="126.3" width="10.3" height="10.3"/><rect id="Rectangle_82" data-name="Rectangle 82" class="cls-3" x="144.9" y="113.5" width="10.3" height="10.3"/><rect id="Rectangle_85" data-name="Rectangle 85" class="cls-3" x="132" y="113.5" width="10.3" height="10.3"/><rect id="Rectangle_88" data-name="Rectangle 88" class="cls-3" x="132" y="100.6" width="10.3" height="10.3"/><rect id="Rectangle_87" data-name="Rectangle 87" class="cls-3" x="119.2" y="113.5" width="10.3" height="10.3"/><rect id="Rectangle_111" data-name="Rectangle 111" class="cls-4" x="119.2" y="126.3" width="10.3" height="10.3"/><rect id="Rectangle_89" data-name="Rectangle 89" class="cls-3" x="119.2" y="100.6" width="10.3" height="10.3"/><rect id="Rectangle_90" data-name="Rectangle 90" class="cls-3" x="119.2" y="89.1" width="10.3" height="10.3"/><rect id="Rectangle_91" data-name="Rectangle 91" class="cls-3" x="107.7" y="89.1" width="10.3" height="10.3"/><rect id="Rectangle_92" data-name="Rectangle 92" class="cls-3" x="94.9" y="89.1" width="10.3" height="10.3"/><rect id="Rectangle_93" data-name="Rectangle 93" class="cls-3" x="82" y="89.1" width="10.3" height="10.3"/><rect id="Rectangle_94" data-name="Rectangle 94" class="cls-4" x="70.5" y="89.1" width="10.3" height="10.3"/><rect id="Rectangle_95" data-name="Rectangle 95" class="cls-3" x="57.7" y="89.1" width="10.3" height="10.3"/><rect id="Rectangle_96" data-name="Rectangle 96" class="cls-3" x="44.8" y="89.1" width="10.3" height="10.3"/><rect id="Rectangle_97" data-name="Rectangle 97" class="cls-3" x="44.8" y="100.6" width="10.3" height="10.3"/><rect id="Rectangle_98" data-name="Rectangle 98" class="cls-3" x="33.3" y="100.6" width="10.3" height="10.3"/><rect id="Rectangle_99" data-name="Rectangle 99" class="cls-3" x="33.3" y="113.5" width="10.3" height="10.3"/><rect id="Rectangle_101" data-name="Rectangle 101" class="cls-3" x="44.8" y="113.5" width="10.3" height="10.3"/><rect id="Rectangle_102" data-name="Rectangle 102" class="cls-3" x="44.8" y="126.3" width="10.3" height="10.3"/><rect id="Rectangle_103" data-name="Rectangle 103" class="cls-4" x="57.7" y="126.3" width="10.3" height="10.3"/><rect id="Rectangle_104" data-name="Rectangle 104" class="cls-3" x="57.7" y="113.5" width="10.3" height="10.3"/><rect id="Rectangle_105" data-name="Rectangle 105" class="cls-3" x="57.7" y="100.6" width="10.3" height="10.3"/><rect id="Rectangle_106" data-name="Rectangle 106" class="cls-4" x="70.5" y="100.6" width="10.3" height="10.3"/><rect id="Rectangle_107" data-name="Rectangle 107" class="cls-3" x="82" y="100.6" width="10.3" height="10.3"/><rect id="Rectangle_108" data-name="Rectangle 108" class="cls-3" x="94.9" y="100.6" width="10.3" height="10.3"/><rect id="Rectangle_109" data-name="Rectangle 109" class="cls-4" x="107.7" y="100.6" width="10.3" height="10.3"/><rect id="Rectangle_110" data-name="Rectangle 110" class="cls-4" x="107.7" y="113.5" width="10.3" height="10.3"/><rect id="Rectangle_112" data-name="Rectangle 112" class="cls-5" x="107.7" y="126.3" width="10.3" height="10.3"/><rect id="Rectangle_100" data-name="Rectangle 100" class="cls-3" x="20.5" y="113.5" width="10.3" height="10.3"/><rect id="Rectangle_86" data-name="Rectangle 86" class="cls-3" x="132" y="126.3" width="10.3" height="10.3"/><rect id="Rectangle_84" data-name="Rectangle 84" class="cls-3" x="156.4" y="113.5" width="10.3" height="10.3"/><rect id="Rectangle_83" data-name="Rectangle 83" class="cls-3" x="144.9" y="100.6" width="10.3" height="10.3"/><rect id="Rectangle_64" data-name="Rectangle 64" class="cls-1" x="144.9" y="137.8" width="10.3" height="10.3"/><rect id="Rectangle_68" data-name="Rectangle 68" class="cls-1" x="132" y="137.8" width="10.3" height="10.3"/><rect id="Rectangle_127" data-name="Rectangle 127" class="cls-4" x="132" y="150.6" width="10.3" height="10.3"/><rect id="Rectangle_136" data-name="Rectangle 136" class="cls-4" x="132" y="163.5" width="10.3" height="10.3"/><rect id="Rectangle_144" data-name="Rectangle 144" class="cls-2" x="132" y="175" width="10.3" height="10.3"/><rect id="Rectangle_148" data-name="Rectangle 148" class="cls-2" x="144.9" y="175" width="10.3" height="10.3"/><rect id="Rectangle_146" data-name="Rectangle 146" class="cls-2" x="132" y="187.8" width="10.3" height="10.3"/><rect id="Rectangle_149" data-name="Rectangle 149" class="cls-2" x="144.9" y="187.8" width="10.3" height="10.3"/><rect id="Rectangle_150" data-name="Rectangle 150" class="cls-2" x="156.4" y="187.8" width="10.3" height="10.3"/><rect id="Rectangle_69" data-name="Rectangle 69" class="cls-4" x="119.2" y="137.8" width="10.3" height="10.3"/><rect id="Rectangle_126" data-name="Rectangle 126" class="cls-4" x="119.2" y="150.6" width="10.3" height="10.3"/><rect id="Rectangle_135" data-name="Rectangle 135" class="cls-4" x="119.2" y="163.5" width="10.3" height="10.3"/><rect id="Rectangle_145" data-name="Rectangle 145" class="cls-2" x="119.2" y="175" width="10.3" height="10.3"/><rect id="Rectangle_147" data-name="Rectangle 147" class="cls-2" x="119.2" y="187.8" width="10.3" height="10.3"/><rect id="Rectangle_70" data-name="Rectangle 70" class="cls-4" x="107.7" y="137.8" width="10.3" height="10.3"/><rect id="Rectangle_125" data-name="Rectangle 125" class="cls-4" x="107.7" y="150.6" width="10.3" height="10.3"/><rect id="Rectangle_134" data-name="Rectangle 134" class="cls-4" x="107.7" y="163.5" width="10.3" height="10.3"/><rect id="Rectangle_71" data-name="Rectangle 71" class="cls-4" x="94.9" y="137.8" width="10.3" height="10.3"/><rect id="Rectangle_124" data-name="Rectangle 124" class="cls-4" x="94.9" y="150.6" width="10.3" height="10.3"/><rect id="Rectangle_115" data-name="Rectangle 115" class="cls-4" x="94.9" y="113.5" width="10.3" height="10.3"/><rect id="Rectangle_118" data-name="Rectangle 118" class="cls-4" x="94.9" y="126.3" width="10.3" height="10.3"/><rect id="Rectangle_72" data-name="Rectangle 72" class="cls-4" x="82" y="137.8" width="10.3" height="10.3"/><rect id="Rectangle_123" data-name="Rectangle 123" class="cls-4" x="82" y="150.6" width="10.3" height="10.3"/><rect id="Rectangle_114" data-name="Rectangle 114" class="cls-4" x="82" y="113.5" width="10.3" height="10.3"/><rect id="Rectangle_117" data-name="Rectangle 117" class="cls-4" x="82" y="126.3" width="10.3" height="10.3"/><rect id="Rectangle_73" data-name="Rectangle 73" class="cls-4" x="70.5" y="137.8" width="10.3" height="10.3"/><rect id="Rectangle_122" data-name="Rectangle 122" class="cls-4" x="70.5" y="150.6" width="10.3" height="10.3"/><rect id="Rectangle_131" data-name="Rectangle 131" class="cls-4" x="70.5" y="163.5" width="10.3" height="10.3"/><rect id="Rectangle_113" data-name="Rectangle 113" class="cls-4" x="70.5" y="113.5" width="10.3" height="10.3"/><rect id="Rectangle_116" data-name="Rectangle 116" class="cls-5" x="70.5" y="126.3" width="10.3" height="10.3"/><rect id="Rectangle_74" data-name="Rectangle 74" class="cls-4" x="57.7" y="137.8" width="10.3" height="10.3"/><rect id="Rectangle_120" data-name="Rectangle 120" class="cls-4" x="57.7" y="150.6" width="10.3" height="10.3"/><rect id="Rectangle_129" data-name="Rectangle 129" class="cls-4" x="57.7" y="163.5" width="10.3" height="10.3"/><rect id="Rectangle_138" data-name="Rectangle 138" class="cls-2" x="57.7" y="175" width="10.3" height="10.3"/><rect id="Rectangle_140" data-name="Rectangle 140" class="cls-2" x="57.7" y="187.8" width="10.3" height="10.3"/><rect id="Rectangle_75" data-name="Rectangle 75" class="cls-1" x="44.8" y="137.8" width="10.3" height="10.3"/><rect id="Rectangle_121" data-name="Rectangle 121" class="cls-4" x="44.8" y="150.6" width="10.3" height="10.3"/><rect id="Rectangle_130" data-name="Rectangle 130" class="cls-4" x="44.8" y="163.5" width="10.3" height="10.3"/><rect id="Rectangle_137" data-name="Rectangle 137" class="cls-2" x="44.8" y="175" width="10.3" height="10.3"/><rect id="Rectangle_141" data-name="Rectangle 141" class="cls-2" x="33.3" y="175" width="10.3" height="10.3"/><rect id="Rectangle_139" data-name="Rectangle 139" class="cls-2" x="44.8" y="187.8" width="10.3" height="10.3"/><rect id="Rectangle_142" data-name="Rectangle 142" class="cls-2" x="33.3" y="187.8" width="10.3" height="10.3"/><rect id="Rectangle_143" data-name="Rectangle 143" class="cls-2" x="20.5" y="187.8" width="10.3" height="10.3"/><rect id="Rectangle_76" data-name="Rectangle 76" class="cls-1" x="33.3" y="137.8" width="10.3" height="10.3"/><rect id="Rectangle_81" data-name="Rectangle 81" class="cls-1" x="33.3" y="150.6" width="10.3" height="10.3"/><rect id="Rectangle_78" data-name="Rectangle 78" class="cls-1" x="33.3" y="126.3" width="10.3" height="10.3"/><rect id="Rectangle_79" data-name="Rectangle 79" class="cls-1" x="20.5" y="126.3" width="10.3" height="10.3"/><rect id="Rectangle_77" data-name="Rectangle 77" class="cls-1" x="20.5" y="137.8" width="10.3" height="10.3"/><rect id="Rectangle_80" data-name="Rectangle 80" class="cls-1" x="20.5" y="150.6" width="10.3" height="10.3"/><rect id="Rectangle_67" data-name="Rectangle 67" class="cls-1" x="144.9" y="150.6" width="10.3" height="10.3"/><rect id="Rectangle_65" data-name="Rectangle 65" class="cls-1" x="156.4" y="137.8" width="10.3" height="10.3"/><rect id="Rectangle_66" data-name="Rectangle 66" class="cls-1" x="156.4" y="150.6" width="10.3" height="10.3"/><rect id="Rectangle_63" data-name="Rectangle 63" class="cls-1" x="156.4" y="126.3" width="10.3" height="10.3"/><rect id="Rectangle_45" data-name="Rectangle 45" class="cls-1" x="44.8" y="51.9" width="10.3" height="10.3"/><rect id="Rectangle_182" data-name="Rectangle 182" class="cls-2" x="44.8" y="63.5" width="10.3" height="10.3"/><rect id="Rectangle_179" data-name="Rectangle 179" class="cls-2" x="33.3" y="51.9" width="10.3" height="10.3"/><rect id="Rectangle_181" data-name="Rectangle 181" class="cls-2" x="33.3" y="63.5" width="10.3" height="10.3"/><rect id="Rectangle_46" data-name="Rectangle 46" class="cls-1" x="44.8" y="39.1" width="10.3" height="10.3"/><rect id="Rectangle_180" data-name="Rectangle 180" class="cls-2" x="33.3" y="39.1" width="10.3" height="10.3"/><rect id="Rectangle_27" data-name="Rectangle 27" class="cls-1" x="82" y="39.1" width="10.3" height="10.3"/><rect id="Rectangle_28" data-name="Rectangle 28" class="cls-1" x="94.9" y="39.1" width="10.3" height="10.3"/><rect id="Rectangle_29" data-name="Rectangle 29" class="cls-1" x="107.7" y="39.1" width="10.3" height="10.3"/><rect id="Rectangle_160" data-name="Rectangle 160" x="119.2" y="39.1" width="10.3" height="10.3"/><rect id="Rectangle_30" data-name="Rectangle 30" class="cls-1" x="107.7" y="26.3" width="10.3" height="10.3"/><rect id="Rectangle_159" data-name="Rectangle 159" x="119.2" y="26.3" width="10.3" height="10.3"/><rect id="Rectangle_153" data-name="Rectangle 153" class="cls-3" x="107.7" y="14.7" width="10.3" height="10.3"/><rect id="Rectangle_162" data-name="Rectangle 162" class="cls-3" x="144.9" y="14.7" width="10.3" height="10.3"/><rect id="Rectangle_157" data-name="Rectangle 157" class="cls-3" x="119.2" y="14.7" width="10.3" height="10.3"/><rect id="Rectangle_161" data-name="Rectangle 161" class="cls-3" x="156.4" y="14.7" width="10.3" height="10.3"/><rect id="Rectangle_156" data-name="Rectangle 156" class="cls-3" x="107.7" y="1.9" width="10.3" height="10.3"/><rect id="Rectangle_158" data-name="Rectangle 158" class="cls-3" x="119.2" y="1.9" width="10.3" height="10.3"/><rect id="Rectangle_31" data-name="Rectangle 31" class="cls-1" x="94.9" y="26.3" width="10.3" height="10.3"/><rect id="Rectangle_152" data-name="Rectangle 152" class="cls-3" x="94.9" y="14.7" width="10.3" height="10.3"/><rect id="Rectangle_163" data-name="Rectangle 163" class="cls-3" x="132" y="14.7" width="10.3" height="10.3"/><rect id="Rectangle_155" data-name="Rectangle 155" class="cls-3" x="94.9" y="1.9" width="10.3" height="10.3"/><rect id="Rectangle_32" data-name="Rectangle 32" class="cls-1" x="82" y="26.3" width="10.3" height="10.3"/><rect id="Rectangle_171" data-name="Rectangle 171" class="cls-2" x="70.5" y="26.3" width="10.3" height="10.3"/><rect id="Rectangle_174" data-name="Rectangle 174" class="cls-2" x="57.7" y="26.3" width="10.3" height="10.3"/><rect id="Rectangle_177" data-name="Rectangle 177" class="cls-2" x="57.7" y="51.9" width="10.3" height="10.3"/><rect id="Rectangle_176" data-name="Rectangle 176" class="cls-2" x="44.8" y="26.3" width="10.3" height="10.3"/><rect id="Rectangle_151" data-name="Rectangle 151" class="cls-3" x="82" y="14.7" width="10.3" height="10.3"/><rect id="Rectangle_169" data-name="Rectangle 169" class="cls-3" x="70.5" y="14.7" width="10.3" height="10.3"/><rect id="Rectangle_172" data-name="Rectangle 172" class="cls-3" x="57.7" y="14.7" width="10.3" height="10.3"/><rect id="Rectangle_178" data-name="Rectangle 178" class="cls-2" x="57.7" y="39.1" width="10.3" height="10.3"/><rect id="Rectangle_175" data-name="Rectangle 175" class="cls-3" x="44.8" y="14.7" width="10.3" height="10.3"/><rect id="Rectangle_154" data-name="Rectangle 154" class="cls-3" x="82" y="1.9" width="10.3" height="10.3"/><rect id="Rectangle_170" data-name="Rectangle 170" class="cls-3" x="70.5" y="1.9" width="10.3" height="10.3"/><rect id="Rectangle_173" data-name="Rectangle 173" class="cls-3" x="57.7" y="1.9" width="10.3" height="10.3"/><rect id="Rectangle_33" data-name="Rectangle 33" class="cls-1" x="70.5" y="39.1" width="10.3" height="10.3"/></g></svg>