<svg id="Layer_1" data-name="Layer 1" xmlns="http://www.w3.org/2000/svg" viewBox="0 0 51 49"><defs><style>.cls-1{fill:#e26223;}</style></defs><title>apay-vector</title><g id="apple-pay"><path id="Path_99" data-name="Path 99" class="cls-1" d="M12.57,17.92a3.21,3.21,0,0,0,.73-2.28,3.25,3.25,0,0,0-2.11,1.07,3,3,0,0,0-.76,2.18,2.48,2.48,0,0,0,2.14-1m.73,1.18c-1.18-.07-2.18.66-2.74.66s-1.42-.63-2.35-.63a3.47,3.47,0,0,0-2.94,1.8c-1.25,2.18-.35,5.4.9,7.17.58.87,1.31,1.84,2.25,1.8s1.24-.58,2.32-.58,1.38.58,2.35.55,1.59-.87,2.18-1.77a6.8,6.8,0,0,0,1-2,3.14,3.14,0,0,1-.38-5.57A3.2,3.2,0,0,0,13.3,19.1"/><g id="Group_50" data-name="Group 50"><path id="Path_100" data-name="Path 100" class="cls-1" d="M23.48,16.64a4.12,4.12,0,0,1,4.33,3.9v.39a4.16,4.16,0,0,1-4,4.33H20.61v4.47H18.56V16.64Zm-2.87,6.92h2.32A2.45,2.45,0,0,0,25.7,21a2.44,2.44,0,0,0-2.77-2.6H20.57v5.19Zm7.72,3.5c0-1.66,1.28-2.7,3.56-2.84l2.63-.14v-.72c0-1.08-.72-1.7-1.9-1.7a1.83,1.83,0,0,0-2,1.38H28.74c.11-1.73,1.6-3,3.95-3s3.81,1.21,3.81,3.15v6.58H34.63V28.2h0a3.4,3.4,0,0,1-3,1.74C29.64,29.94,28.33,28.76,28.33,27.06Zm6.19-.86v-.77l-2.35.14c-1.18.07-1.83.59-1.83,1.42s.69,1.39,1.73,1.39a2.29,2.29,0,0,0,2.45-2.11.15.15,0,0,1,0-.07Zm3.71,7.09V31.7a4.3,4.3,0,0,0,.62,0,1.6,1.6,0,0,0,1.7-1.35s.18-.59.18-.59l-3.47-9.56h2.11L41.79,28h0l2.42-7.79h2.08L42.77,30.32c-.83,2.32-1.77,3-3.74,3-.14,0-.63,0-.8-.07Z"/></g></g></svg>