<svg id="Layer_1" data-name="Layer 1" xmlns="http://www.w3.org/2000/svg" viewBox="0 0 200 200"><defs><style>.cls-1{fill:#e26223;}</style></defs><title>beer-vector</title><g id="beer"><g id="Group_31" data-name="Group 31"><g id="Group_30" data-name="Group 30"><path id="Path_77" data-name="Path 77" class="cls-1" d="M111.55,175.17A3.85,3.85,0,1,0,115.4,179h0A3.85,3.85,0,0,0,111.55,175.17Z"/></g></g><g id="Group_33" data-name="Group 33"><g id="Group_32" data-name="Group 32"><path id="Path_78" data-name="Path 78" class="cls-1" d="M57.47,78.56a3.85,3.85,0,0,0-3.85,3.85v73.51a3.85,3.85,0,1,0,7.7,0V82.41a3.85,3.85,0,0,0-3.85-3.85Z"/></g></g><g id="Group_35" data-name="Group 35"><g id="Group_34" data-name="Group 34"><path id="Path_79" data-name="Path 79" class="cls-1" d="M88.26,78.56a3.85,3.85,0,0,0-3.85,3.85v73.51a3.85,3.85,0,0,0,7.7,0V82.41a3.85,3.85,0,0,0-3.85-3.85Z"/></g></g><g id="Group_37" data-name="Group 37"><g id="Group_36" data-name="Group 36"><path id="Path_80" data-name="Path 80" class="cls-1" d="M165.63,63.44H146.38V51.79a19.18,19.18,0,0,0-7.33-34.09,19.47,19.47,0,0,0-11.05.79,19.28,19.28,0,0,0-16.26-8.94A19,19,0,0,0,104.49,11a34.4,34.4,0,0,0-52.61,6.11A34.72,34.72,0,0,0,15.19,49.72c0,.63-.06,1.26-.06,1.9V97.8a11.71,11.71,0,0,0,15.78,10.82v70.67a19.28,19.28,0,0,0,19.24,19.25h77a19.29,19.29,0,0,0,19.25-19.25V167.74h19.24a19.26,19.26,0,0,0,19.25-19.24V82.68A19.26,19.26,0,0,0,165.63,63.44Zm-26.95,112H126.94a3.83,3.83,0,0,0,0,7.66H138a11.59,11.59,0,0,1-10.88,7.73h-77a11.56,11.56,0,0,1-10.88-7.7H96.16a3.85,3.85,0,0,0,0-7.69H38.61V70.56A26.71,26.71,0,0,0,58.68,55.74a2.81,2.81,0,0,1,2,.8,23.1,23.1,0,0,0,32.66-.28l.13-.14a1.3,1.3,0,0,1,.91-.38c6,0,9.92,1.28,11.66,3.8,1.44,2.08,1.44,5,1.44,7.29V82.41a11.55,11.55,0,0,0,7.7,10.88v62.64a3.85,3.85,0,1,0,7.69,0V93.29a11.55,11.55,0,0,0,7.7-10.88V55.29a20.78,20.78,0,0,0,8.09,0Zm-10.18-129a3.85,3.85,0,0,0-5.17,1.69,3.78,3.78,0,0,0-.42,1.74V82.41a3.85,3.85,0,0,1-7.7,0V66.84c0-3,0-7.62-2.79-11.67-3.26-4.73-9.32-7.13-18-7.13A9,9,0,0,0,88,50.77a15.39,15.39,0,0,1-21.76.37l-.09-.09a10.51,10.51,0,0,0-7.44-3,7.73,7.73,0,0,0-6.91,4.31,19.05,19.05,0,0,1-17,10.81A3.85,3.85,0,0,0,30.92,67V97.62a4.16,4.16,0,0,1-4,4,4,4,0,0,1-4-3.85V51.62A27,27,0,0,1,49.93,24.73a27.3,27.3,0,0,1,3.5.22A3.85,3.85,0,0,0,57.28,23a26.79,26.79,0,0,1,43.57-4.76,3.85,3.85,0,0,0,4.93.68,11.13,11.13,0,0,1,6-1.7A11.55,11.55,0,0,1,122.64,25a3.85,3.85,0,0,0,4.91,2.36,3.56,3.56,0,0,0,.87-.44,11.56,11.56,0,0,1,17.66,6.88c2.18,9.73-7.78,17.7-17.58,12.72Zm17.88,40.06h15.4v58.12h-15.4Zm30.79,62a11.55,11.55,0,0,1-11.54,11.55H146.38v-7.7h19.25a3.85,3.85,0,0,0,3.85-3.85V82.68a3.86,3.86,0,0,0-3.85-3.85H146.38v-7.7h19.25a11.56,11.56,0,0,1,11.54,11.55Z"/></g></g></g></svg>