<svg id="Layer_1" data-name="Layer 1" xmlns="http://www.w3.org/2000/svg" viewBox="0 0 49 57"><defs><style>.cls-1{fill:#e26223;}</style></defs><title>beer-vector</title><g id="Group_31" data-name="Group 31"><g id="Group_30" data-name="Group 30"><path id="Path_77" data-name="Path 77" class="cls-1" d="M28.27,49.61a1.09,1.09,0,1,0,1.08,1.09h0A1.08,1.08,0,0,0,28.27,49.61Z"/></g></g><g id="Group_33" data-name="Group 33"><g id="Group_32" data-name="Group 32"><path id="Path_78" data-name="Path 78" class="cls-1" d="M13,22.29a1.1,1.1,0,0,0-1.09,1.09V44.17a1.09,1.09,0,0,0,2.18,0h0V23.38A1.09,1.09,0,0,0,13,22.29Z"/></g></g><g id="Group_35" data-name="Group 35"><g id="Group_34" data-name="Group 34"><path id="Path_79" data-name="Path 79" class="cls-1" d="M21.68,22.29a1.09,1.09,0,0,0-1.09,1.09V44.17a1.09,1.09,0,0,0,2.18,0h0V23.38A1.09,1.09,0,0,0,21.68,22.29Z"/></g></g><g id="Group_37" data-name="Group 37"><g id="Group_36" data-name="Group 36"><path id="Path_80" data-name="Path 80" class="cls-1" d="M43.06,18.16H37.62V14.87a5.41,5.41,0,0,0,1.09-7.59,5.35,5.35,0,0,0-3.17-2,5.54,5.54,0,0,0-3.12.22,5.47,5.47,0,0,0-4.6-2.53,5.36,5.36,0,0,0-2.05.41A9.73,9.73,0,0,0,12,3.66a10,10,0,0,0-1.11,1.39A9.82,9.82,0,0,0,.52,14.28c0,.18,0,.36,0,.54V27.88a3.29,3.29,0,0,0,3.32,3.26A3.38,3.38,0,0,0,5,30.94v20a5.45,5.45,0,0,0,5.44,5.44H32.17a5.45,5.45,0,0,0,5.45-5.44V47.66h5.44a5.45,5.45,0,0,0,5.44-5.45V23.6A5.45,5.45,0,0,0,43.06,18.16ZM35.44,49.83H32.12a1.09,1.09,0,0,0,0,2.17h3.13a3.28,3.28,0,0,1-3.08,2.19H10.41A3.27,3.27,0,0,1,7.33,52H23.41a1.09,1.09,0,0,0,0-2.18H7.14V20.17A7.52,7.52,0,0,0,12.81,16a.83.83,0,0,1,.58.23,6.52,6.52,0,0,0,9.23-.08l0,0a.36.36,0,0,1,.26-.11c1.69,0,2.8.36,3.29,1.08a3.6,3.6,0,0,1,.41,2.06v4.41a3.26,3.26,0,0,0,2.17,3.07V44.31a1.09,1.09,0,1,0,2.18,0V26.6a3.25,3.25,0,0,0,2.18-3.07V15.85a5.52,5.52,0,0,0,2.29,0ZM32.56,13.36a1.1,1.1,0,0,0-1.47.48,1.18,1.18,0,0,0-.12.49v9.19a1.09,1.09,0,1,1-2.17,0v-4.4a5.55,5.55,0,0,0-.79-3.3c-.93-1.34-2.64-2-5.09-2a2.52,2.52,0,0,0-1.82.77,4.36,4.36,0,0,1-6.16.1l0,0a2.94,2.94,0,0,0-2.1-.85,2.16,2.16,0,0,0-2,1.22,5.4,5.4,0,0,1-4.82,3A1.1,1.1,0,0,0,5,19.17v8.66A1.18,1.18,0,0,1,3.82,29a1.14,1.14,0,0,1-1.14-1.09V14.82a7.64,7.64,0,0,1,7.66-7.61,8.24,8.24,0,0,1,1,.07,1.1,1.1,0,0,0,1.09-.55A7.58,7.58,0,0,1,24.74,5.39a1.08,1.08,0,0,0,1.39.19,3.16,3.16,0,0,1,1.69-.48A3.27,3.27,0,0,1,30.9,7.28,1.09,1.09,0,0,0,32.29,8a1.15,1.15,0,0,0,.25-.12,3.26,3.26,0,0,1,4.53.89,3.29,3.29,0,0,1,.46,1,3.33,3.33,0,0,1-2.55,4,3.26,3.26,0,0,1-2.42-.39Zm5.06,11.33H42V41.13H37.62Zm8.7,17.52a3.26,3.26,0,0,1-3.26,3.27H37.62V43.3h5.44a1.09,1.09,0,0,0,1.09-1.09h0V23.6a1.09,1.09,0,0,0-1.09-1.09H37.62V20.34h5.44a3.26,3.26,0,0,1,3.26,3.26Z"/></g></g></svg>