<svg id="Layer_1" data-name="Layer 1" xmlns="http://www.w3.org/2000/svg" viewBox="0 0 239 505"><defs><style>.cls-1,.cls-2{fill:none;stroke:#e26223;stroke-linecap:round;stroke-width:3px;}.cls-1{stroke-linejoin:round;}.cls-11,.cls-17,.cls-3,.cls-33,.cls-4,.cls-46,.cls-6{isolation:isolate;}.cls-4{font-size:25px;}.cls-11,.cls-17,.cls-33,.cls-4,.cls-46,.cls-6{fill:#d8d8d8;font-family:OdibeeSans-Regular, Odibee Sans;}.cls-5{letter-spacing:-0.03em;}.cls-6{font-size:18px;}.cls-7{letter-spacing:-0.01em;}.cls-8{letter-spacing:-0.04em;}.cls-9{letter-spacing:-0.02em;}.cls-10{letter-spacing:0em;}.cls-11{font-size:21px;}.cls-12{letter-spacing:-0.04em;}.cls-13{letter-spacing:-0.02em;}.cls-14{letter-spacing:-0.02em;}.cls-15{letter-spacing:-0.01em;}.cls-16{letter-spacing:-0.03em;}.cls-17{font-size:22px;}.cls-18{letter-spacing:-0.01em;}.cls-19{letter-spacing:-0.02em;}.cls-20{letter-spacing:-0.09em;}.cls-21{letter-spacing:-0.04em;}.cls-22{letter-spacing:-0.02em;}.cls-23{letter-spacing:-0.08em;}.cls-24{letter-spacing:-0.01em;}.cls-25{letter-spacing:-0.02em;}.cls-26{letter-spacing:0em;}.cls-27{letter-spacing:-0.05em;}.cls-28{letter-spacing:-0.07em;}.cls-29{letter-spacing:-0.03em;}.cls-30{letter-spacing:-0.11em;}.cls-31{letter-spacing:-0.07em;}.cls-32{letter-spacing:-0.06em;}.cls-33{font-size:24px;}.cls-34{letter-spacing:-0.01em;}.cls-35{letter-spacing:-0.07em;}.cls-36{letter-spacing:-0.02em;}.cls-37{letter-spacing:-0.03em;}.cls-38{letter-spacing:-0.03em;}.cls-39{letter-spacing:-0.02em;}.cls-40{letter-spacing:0.02em;}.cls-41{letter-spacing:-0.14em;}.cls-42{letter-spacing:-0.04em;}.cls-43{letter-spacing:0em;}.cls-44{letter-spacing:-0.05em;}.cls-45{letter-spacing:0em;}.cls-46{font-size:17px;}.cls-47{letter-spacing:-0.05em;}</style></defs><title>Board_Game_Stack</title><g id="Group_61" data-name="Group 61"><g id="Group_19" data-name="Group 19"><path id="Path_15" data-name="Path 15" class="cls-1" d="M187.86,503.24h3.76l1.73-35.86L2.45,472.29l5.21-28.63"/><path id="Path_16" data-name="Path 16" class="cls-1" d="M2,472.1v30.08l189.25,1.08"/><path id="Path_17" data-name="Path 17" class="cls-1" d="M193.35,467.63h6.35l1.06-31.73L49.48,440.77l.79-45.68L215,393.25l-.66,41.34-12.77,1.31"/><path id="Path_18" data-name="Path 18" class="cls-1" d="M125.32,468.68,8.15,470.4l-.79-41.47H49.88l-4-32.65.92-16.86"/><path id="Path_19" data-name="Path 19" class="cls-1" d="M7.36,428.92l10-48.05,29.36-1.05"/><path id="Path_20" data-name="Path 20" class="cls-1" d="M50.41,395.22,39.88,344.8V309.51l10.53,30.42Z"/><path id="Path_21" data-name="Path 21" class="cls-1" d="M215,393.25h15.53l1.84-53.19-181.94.13"/><path id="Path_23" data-name="Path 23" class="cls-2" d="M39.88,309.51h6.84"/><path id="Path_43" data-name="Path 43" class="cls-2" d="M232.35,340.06,221,324.39"/><g id="Jenga" class="cls-3"><text class="cls-4" transform="matrix(1, -0.03, 0.03, 1, 104.95, 423.92)">J<tspan class="cls-5" x="12.38" y="0">eng</tspan><tspan x="37.98" y="0">a</tspan></text></g><g id="Jeu_de_Cartes" data-name="Jeu de Cartes" class="cls-3"><text class="cls-6" transform="translate(97.69 371.11)">Jeu <tspan class="cls-7" x="24.46" y="0">d</tspan><tspan x="30.8" y="0">e </tspan><tspan class="cls-8" x="39.83" y="0">C</tspan><tspan class="cls-9" x="48.02" y="0">arte</tspan><tspan class="cls-10" x="70.87" y="0">s</tspan></text></g><g id="Secret_Hitler" data-name="Secret Hitler" class="cls-3"><text class="cls-11" transform="matrix(1, -0.03, 0.03, 1, 73.47, 462.87)"><tspan class="cls-12">S</tspan><tspan class="cls-13" x="9.47" y="0">ec</tspan><tspan class="cls-12" x="23.84" y="0">r</tspan><tspan x="30.6" y="0">et</tspan><tspan class="cls-14" x="43.72" y="0"> </tspan><tspan x="46.24" y="0">Hi</tspan><tspan class="cls-15" x="60.33" y="0">tl</tspan><tspan class="cls-16" x="69.09" y="0">e</tspan><tspan class="cls-14" x="76.06" y="0">r</tspan></text></g><g id="et_plus..." data-name="et plus..." class="cls-3"><text class="cls-17" transform="matrix(1, -0.03, 0.03, 1, 109.86, 492.76)">et <tspan class="cls-18" x="16.83" y="0">p</tspan><tspan x="24.57" y="0">l</tspan><tspan class="cls-19" x="28.4" y="0">u</tspan><tspan x="35.93" y="0">s..</tspan><tspan class="cls-18" x="51.52" y="0">.</tspan></text></g></g><g id="Group_20" data-name="Group 20"><path id="Path_22" data-name="Path 22" class="cls-1" d="M51.81,324.83l182.43-1.28V286.88L53.43,288.41,45.54,271.6v30.56Z"/><path id="Path_24" data-name="Path 24" class="cls-2" d="M52,324.8l1.62-36.17"/><path id="Path_25" data-name="Path 25" class="cls-2" d="M230.82,245.16v41.72"/><path id="Path_26" data-name="Path 26" class="cls-1" d="M226.7,241.63l4.12,3.53L56.27,246.33l-5.68-11.75H67.83l5.09,10.57,153.78-1.56V212.44H72.92v31.15"/><path id="Path_27" data-name="Path 27" class="cls-1" d="M56.16,246.35l-1,41.47-5.17-16"/><path id="Path_28" data-name="Path 28" class="cls-1" d="M45.74,271.6h4.09l.8-37"/><path id="Path_29" data-name="Path 29" class="cls-2" d="M55.18,287.35l52.81.41"/><path id="Path_30" data-name="Path 30" class="cls-1" d="M69.09,237.17v-24.7h-6L62.67,181H225V212.2"/><path id="Path_31" data-name="Path 31" class="cls-1" d="M63.24,212.44c-.93-.19-7.19-4.25-7.19-4.25v-27.7l6.61.7"/><path id="Path_32" data-name="Path 32" class="cls-1" d="M225,181V143.88L53.72,142.7l.83,36.63,1.5,1"/><path id="Path_33" data-name="Path 33" class="cls-1" d="M54.53,179.65l-2.11-2.11-.75-37.07,2.11,2.71"/><path id="Path_34" data-name="Path 34" class="cls-2" d="M51.66,140.47h4.52"/><path id="Path_35" data-name="Path 35" class="cls-1" d="M225,143.79l-3.27-3.34H215.4"/><path id="Path_36" data-name="Path 36" class="cls-1" d="M214.56,142.12l.78-37.42H58.43v36H55.29"/><path id="Path_37" data-name="Path 37" class="cls-1" d="M215.4,104.7h20.88V32.22L23.63,25.59v79.1H58.27"/><path id="Path_38" data-name="Path 38" class="cls-1" d="M58.27,140.47,55,136.88V104.8"/><path id="Path_39" data-name="Path 39" class="cls-1" d="M23.64,104.79,19.82,99.7V21l3.82,4.84"/><path id="Path_40" data-name="Path 40" class="cls-2" d="M19.82,21l55.77,1.53"/><path id="Path_41" data-name="Path 41" class="cls-1" d="M236.28,32.12l-4.84-5.25-20.63-1.28V5.22L81.7,3.69,74.82,2.42V21.77l6.88,3.82,129.11,1.28"/><path id="Path_42" data-name="Path 42" class="cls-1" d="M75.59,2.42H200.12l10.7,2.8"/><g id="Wanted_" data-name="Wanted " class="cls-3"><text class="cls-4" transform="translate(112.69 172.11)"><tspan class="cls-20">W</tspan><tspan class="cls-21" x="16.6" y="0">a</tspan><tspan class="cls-5" x="24.65" y="0">n</tspan><tspan class="cls-22" x="33.65" y="0">te</tspan><tspan x="48.28" y="0">d!</tspan></text></g><g id="Mots_Rapido" data-name="Mots Rapido" class="cls-3"><text class="cls-4" transform="translate(97.69 205.11)"><tspan class="cls-21">M</tspan><tspan x="13.7" y="0">o</tspan><tspan class="cls-22" x="22.95" y="0">t</tspan><tspan x="29.02" y="0">s </tspan><tspan class="cls-23" x="41.55" y="0">R</tspan><tspan class="cls-22" x="51.83" y="0">a</tspan><tspan class="cls-24" x="60.38" y="0">p</tspan><tspan class="cls-5" x="69.18" y="0">i</tspan><tspan class="cls-25" x="72.83" y="0">d</tspan><tspan x="81.38" y="0">o</tspan></text></g><g id="Mot_pour_mot" data-name="Mot pour mot" class="cls-3"><text class="cls-11" transform="translate(107.69 235.11)"><tspan class="cls-12">M</tspan><tspan class="cls-26" x="11.51" y="0">ot </tspan><tspan class="cls-13" x="27.74" y="0">p</tspan><tspan class="cls-15" x="34.92" y="0">o</tspan><tspan x="42.48" y="0">u</tspan><tspan class="cls-13" x="50.08" y="0">r</tspan><tspan x="57.27" y="0"> </tspan><tspan class="cls-27" x="60.21" y="0">m</tspan><tspan class="cls-26" x="71.76" y="0">ot</tspan></text></g><g id="Miss_Poutine" data-name="Miss Poutine" class="cls-3"><text class="cls-11" transform="translate(95.69 272.11)"><tspan class="cls-15">Mis</tspan><tspan class="cls-26" x="23" y="0">s </tspan><tspan class="cls-28" x="33.52" y="0">P</tspan><tspan class="cls-15" x="42.46" y="0">ou</tspan><tspan class="cls-13" x="57.41" y="0">t</tspan><tspan class="cls-29" x="62.52" y="0">in</tspan><tspan x="73.14" y="0">e</tspan></text></g><g id="Tragedy_Loopers" data-name="Tragedy Loopers" class="cls-3"><text class="cls-11" transform="translate(93.69 313.11)"><tspan class="cls-30">T</tspan><tspan class="cls-31" x="7.92" y="0">r</tspan><tspan class="cls-15" x="14.05" y="0">a</tspan><tspan class="cls-14" x="21.44" y="0">ged</tspan><tspan x="42.99" y="0">y </tspan><tspan class="cls-32" x="53.53" y="0">L</tspan><tspan class="cls-13" x="61.76" y="0">oop</tspan><tspan class="cls-29" x="83.64" y="0">er</tspan><tspan class="cls-26" x="97.59" y="0">s</tspan></text></g><g id="Galérapagos" class="cls-3"><text class="cls-33" transform="translate(92.69 129.11)">G<tspan class="cls-34" x="11.88" y="0">a</tspan><tspan x="20.33" y="0">lé</tspan><tspan class="cls-35" x="33.17" y="0">r</tspan><tspan class="cls-36" x="40.18" y="0">ap</tspan><tspan class="cls-34" x="56.59" y="0">a</tspan><tspan class="cls-37" x="65.04" y="0">go</tspan><tspan x="81.17" y="0">s</tspan></text></g><g id="L_osti_de_jeu_Cards_Against_Humanity_" data-name="L osti de jeu Cards Against Humanity " class="cls-3"><text class="cls-33" transform="translate(86.48 61.11)">L&apos;<tspan class="cls-38" x="15.02" y="0">o</tspan><tspan class="cls-39" x="23.18" y="0">st</tspan><tspan class="cls-40" x="37.2" y="0">i</tspan><tspan x="41.9" y="0"> </tspan><tspan class="cls-34" x="45.26" y="0">d</tspan><tspan x="53.71" y="0">e</tspan><tspan class="cls-41" x="62.4" y="0"> </tspan><tspan x="62.4" y="0">jeu</tspan></text><text class="cls-33" transform="translate(38.35 88.11)">(<tspan class="cls-42" x="6.89" y="0">C</tspan><tspan class="cls-36" x="17.81" y="0">a</tspan><tspan class="cls-42" x="26.02" y="0">r</tspan><tspan class="cls-38" x="33.74" y="0">d</tspan><tspan class="cls-43" x="41.71" y="0">s </tspan><tspan class="cls-37" x="53.74" y="0">Ag</tspan><tspan class="cls-36" x="71.42" y="0">a</tspan><tspan class="cls-37" x="79.63" y="0">in</tspan><tspan class="cls-39" x="91.78" y="0">s</tspan><tspan class="cls-43" x="99.96" y="0">t</tspan><tspan class="cls-36" x="106.27" y="0"> </tspan><tspan x="109.15" y="0">H</tspan><tspan class="cls-38" x="121.03" y="0">u</tspan><tspan class="cls-44" x="129" y="0">m</tspan><tspan class="cls-42" x="142.2" y="0">a</tspan><tspan class="cls-36" x="149.93" y="0">n</tspan><tspan class="cls-45" x="158.81" y="0">i</tspan><tspan class="cls-34" x="163.03" y="0">t</tspan><tspan x="169.1" y="0">y)</tspan></text></g><g id="UNO" class="cls-3"><text class="cls-46" transform="matrix(1, 0.02, -0.02, 1, 130.13, 21.57)"><tspan class="cls-47">UN</tspan><tspan x="15.15" y="0">O</tspan></text></g></g></g></svg>