<svg id="Layer_1" data-name="Layer 1" xmlns="http://www.w3.org/2000/svg" viewBox="0 0 199.19 242.74"><defs><style>.cls-1,.cls-12,.cls-13{fill:none;stroke:#e26223;stroke-linecap:round;}.cls-1,.cls-13{stroke-linejoin:round;}.cls-1,.cls-12{stroke-width:2.31px;}.cls-14,.cls-2,.cls-28,.cls-37,.cls-9{isolation:isolate;fill:#d8d8d8;font-family:OdibeeSans-Regular, Odibee Sans;}.cls-2{font-size:16.15px;}.cls-3{letter-spacing:-0.04em;}.cls-4{letter-spacing:-0.02em;}.cls-5{letter-spacing:-0.02em;}.cls-6{letter-spacing:0em;}.cls-7{letter-spacing:-0.01em;}.cls-8{letter-spacing:-0.03em;}.cls-9{font-size:16.92px;}.cls-10{letter-spacing:-0.01em;}.cls-11{letter-spacing:-0.02em;}.cls-13{stroke-width:1.63px;}.cls-14{font-size:19.22px;}.cls-15{letter-spacing:-0.04em;}.cls-16{letter-spacing:0em;}.cls-17{letter-spacing:-0.02em;}.cls-18{letter-spacing:-0.08em;}.cls-19{letter-spacing:-0.01em;}.cls-20{letter-spacing:-0.03em;}.cls-21{letter-spacing:0em;}.cls-22{letter-spacing:-0.01em;}.cls-23{letter-spacing:-0.05em;}.cls-24{letter-spacing:-0.07em;}.cls-25{letter-spacing:-0.03em;}.cls-26{letter-spacing:-0.11em;}.cls-27{letter-spacing:-0.06em;}.cls-28{font-size:18.45px;}.cls-29{letter-spacing:-0.01em;}.cls-30{letter-spacing:-0.07em;}.cls-31{letter-spacing:-0.02em;}.cls-32{letter-spacing:-0.03em;}.cls-33{letter-spacing:0.02em;}.cls-34{letter-spacing:0em;}.cls-35{letter-spacing:-0.01em;}.cls-36{letter-spacing:-0.14em;}.cls-37{font-size:14.79px;}.cls-38{letter-spacing:-0.05em;}</style></defs><title>board-game-vector</title><path id="Path_15" data-name="Path 15" class="cls-1" d="M147.62,238.62h2.89L151.84,211,5.06,214.82l4-22"/><path id="Path_16" data-name="Path 16" class="cls-1" d="M4.71,214.67V237.8l145.5.84"/><path id="Path_17" data-name="Path 17" class="cls-1" d="M151.84,211.24h4.89l.8-23.14"/><path id="Path_18" data-name="Path 18" class="cls-1" d="M99.53,212.05,9.44,213.36l-.61-23.88h32.7"/><path id="Path_19" data-name="Path 19" class="cls-1" d="M8.83,189.48l7.7-32.95,22.57-.81"/><text class="cls-2" transform="translate(59.66 207.58) rotate(-2)"><tspan class="cls-3">S</tspan><tspan class="cls-4" x="7.28" y="0">ec</tspan><tspan class="cls-3" x="18.33" y="0">r</tspan><tspan x="23.53" y="0">et</tspan><tspan class="cls-5" x="33.62" y="0"> </tspan><tspan class="cls-6" x="35.55" y="0">Hi</tspan><tspan class="cls-7" x="46.39" y="0">tl</tspan><tspan class="cls-8" x="53.12" y="0">e</tspan><tspan class="cls-5" x="58.48" y="0">r</tspan></text><text class="cls-9" transform="translate(78.45 230.56) rotate(-2)">et <tspan class="cls-10" x="12.94" y="0">p</tspan><tspan x="18.89" y="0">l</tspan><tspan class="cls-11" x="21.84" y="0">u</tspan><tspan x="27.62" y="0">s..</tspan><tspan class="cls-10" x="39.62" y="0">.</tspan></text><path id="Path_22" data-name="Path 22" class="cls-1" d="M40.64,188.92l140.27-1V163.75l-139,1.17L35.82,152v19.49Z"/><path id="Path_24" data-name="Path 24" class="cls-12" d="M40.79,188.9,42,165.09"/><path id="Path_25" data-name="Path 25" class="cls-12" d="M178.28,133.66v30.09"/><path id="Path_26" data-name="Path 26" class="cls-1" d="M175.12,131l3.16,2.71-134.21.91-4.36-9H53l3.92,8.13,118.24-1.2v-24H56.88v24"/><path id="Path_27" data-name="Path 27" class="cls-1" d="M44,134.58l-.76,29.88-4-12.27"/><path id="Path_28" data-name="Path 28" class="cls-1" d="M36,152h3.15l.62-26.47"/><path id="Path_29" data-name="Path 29" class="cls-12" d="M43.23,164.1l40.61.32"/><path id="Path_30" data-name="Path 30" class="cls-1" d="M53.93,127.52v-19H49.34L49,84.33H173.84v24"/><path id="Path_31" data-name="Path 31" class="cls-1" d="M49.43,108.51c-.71-.15-5.52-9.27-5.52-9.27V77.94L49,84.48"/><path id="Path_36" data-name="Path 36" class="cls-1" d="M173.84,84.33l3.94.11.6-28.77H57.73V83.38"/><path id="Path_37" data-name="Path 37" class="cls-13" d="M178.42,55.67h16.06v-28L31,25.14V55.67H57.61"/><path id="Path_38" data-name="Path 38" class="cls-1" d="M57.61,83.17l-2.55-2.76V55.74"/><path id="Path_39" data-name="Path 39" class="cls-1" d="M31,55.74,28,51.83V20.4L31,24.12"/><path id="Path_40" data-name="Path 40" class="cls-12" d="M28,20.4l44.8.74"/><path id="Path_41" data-name="Path 41" class="cls-1" d="M194.48,26.94l-3.72-4-15.86,0V6.26L75.62,5.09l-5.28-1V19l5.28,2.94,99.28,1"/><path id="Path_42" data-name="Path 42" class="cls-1" d="M70.92,4.11h95.75l8.23,2.15"/><text class="cls-14" transform="translate(75.92 102.87)"><tspan class="cls-15">M</tspan><tspan class="cls-16" x="10.53" y="0">o</tspan><tspan class="cls-17" x="17.65" y="0">t</tspan><tspan x="22.32" y="0">s </tspan><tspan class="cls-18" x="31.95" y="0">R</tspan><tspan class="cls-17" x="39.85" y="0">a</tspan><tspan class="cls-19" x="46.42" y="0">p</tspan><tspan class="cls-20" x="53.19" y="0">i</tspan><tspan class="cls-17" x="55.99" y="0">d</tspan><tspan x="62.57" y="0">o</tspan></text><text class="cls-2" transform="translate(83.61 125.94)"><tspan class="cls-3">M</tspan><tspan class="cls-21" x="8.85" y="0">ot </tspan><tspan class="cls-4" x="21.33" y="0">p</tspan><tspan class="cls-22" x="26.85" y="0">o</tspan><tspan class="cls-6" x="32.66" y="0">u</tspan><tspan class="cls-4" x="38.51" y="0">r</tspan><tspan class="cls-21" x="44.03" y="0"> </tspan><tspan class="cls-23" x="46.29" y="0">m</tspan><tspan x="55.17" y="0">ot</tspan></text><text class="cls-2" transform="translate(74.38 154.39)"><tspan class="cls-7">Mis</tspan><tspan x="17.68" y="0">s </tspan><tspan class="cls-24" x="25.77" y="0">P</tspan><tspan class="cls-22" x="32.65" y="0">ou</tspan><tspan class="cls-4" x="44.14" y="0">t</tspan><tspan class="cls-25" x="48.07" y="0">in</tspan><tspan x="56.24" y="0">e</tspan></text><text class="cls-2" transform="translate(72.84 179.91)"><tspan class="cls-26">T</tspan><tspan class="cls-24" x="6.09" y="0">r</tspan><tspan class="cls-7" x="10.8" y="0">a</tspan><tspan class="cls-4" x="16.49" y="0">ged</tspan><tspan class="cls-6" x="33.05" y="0">y </tspan><tspan class="cls-27" x="41.16" y="0">L</tspan><tspan class="cls-5" x="47.49" y="0">oop</tspan><tspan class="cls-25" x="64.31" y="0">er</tspan><tspan x="75.03" y="0">s</tspan></text><text class="cls-28" transform="translate(84.08 74.44)">G<tspan class="cls-29" x="9.13" y="0">a</tspan><tspan x="15.63" y="0">lé</tspan><tspan class="cls-30" x="25.5" y="0">r</tspan><tspan class="cls-31" x="30.89" y="0">ap</tspan><tspan class="cls-29" x="43.51" y="0">a</tspan><tspan class="cls-32" x="50.01" y="0">go</tspan><tspan x="62.41" y="0">s</tspan></text><text class="cls-28" transform="translate(79.3 45.26)">L&apos;<tspan class="cls-32" x="11.55" y="0">o</tspan><tspan class="cls-31" x="17.83" y="0">st</tspan><tspan class="cls-33" x="28.6" y="0">i</tspan><tspan class="cls-34" x="32.22" y="0"> </tspan><tspan class="cls-35" x="34.8" y="0">d</tspan><tspan x="41.3" y="0">e</tspan><tspan class="cls-36" x="47.98" y="0"> </tspan><tspan class="cls-34" x="47.98" y="0">jeu</tspan></text><text class="cls-37" transform="translate(112.87 19.58) rotate(1)"><tspan class="cls-38">UN</tspan><tspan x="13.18" y="0">O</tspan></text><line class="cls-1" x1="53.93" y1="109.03" x2="56.88" y2="109.03"/><line class="cls-1" x1="43.91" y1="77.94" x2="53.93" y2="77.94"/></svg>