<svg id="Layer_1" data-name="Layer 1" xmlns="http://www.w3.org/2000/svg" viewBox="0 0 51 49"><defs><style>.cls-1{fill:#e26223;}</style></defs><title>coin-vector</title><g id="Group_39" data-name="Group 39"><g id="Group_38" data-name="Group 38"><path id="Path_81" data-name="Path 81" class="cls-1" d="M33.16,31a1.71,1.71,0,1,1,2-1.7.89.89,0,0,0,1.78,0,3.55,3.55,0,0,0-2.85-3.38v-.46a.89.89,0,1,0-1.78,0v.46a3.55,3.55,0,0,0-2.85,3.38,3.62,3.62,0,0,0,3.74,3.48,1.71,1.71,0,1,1-2,1.7.89.89,0,0,0-1.78,0,3.55,3.55,0,0,0,2.85,3.38v.38a.89.89,0,1,0,1.78,0v-.38a3.55,3.55,0,0,0,2.85-3.38A3.62,3.62,0,0,0,33.16,31Z"/></g></g><g id="Group_41" data-name="Group 41"><g id="Group_40" data-name="Group 40"><path id="Path_82" data-name="Path 82" class="cls-1" d="M42.91,25.65a11.59,11.59,0,0,0-4.74-4.2.89.89,0,1,0-.78,1.6h0A9.8,9.8,0,0,1,42,36.14a3.78,3.78,0,0,1-.17.35.89.89,0,0,0,1.56.86v0a11.58,11.58,0,0,0-.48-11.68Z"/></g></g><g id="Group_43" data-name="Group 43"><g id="Group_42" data-name="Group 42"><path id="Path_83" data-name="Path 83" class="cls-1" d="M34.56,20.31H34.5a.9.9,0,0,0,0,1.79h0a.9.9,0,0,0,0-1.79Z"/></g></g><g id="Group_45" data-name="Group 45"><g id="Group_44" data-name="Group 44"><path id="Path_84" data-name="Path 84" class="cls-1" d="M28.92,40.74a9.81,9.81,0,0,1-4.59-13.09,3.78,3.78,0,0,1,.17-.35.89.89,0,1,0-1.56-.86v0a11.59,11.59,0,0,0,4.8,15.67l.42.21a.89.89,0,0,0,1.19-.4.9.9,0,0,0-.4-1.2Z"/></g></g><g id="Group_47" data-name="Group 47"><g id="Group_46" data-name="Group 46"><path id="Path_85" data-name="Path 85" class="cls-1" d="M31.82,41.7h-.05a.89.89,0,0,0,0,1.78h.06a.89.89,0,1,0,0-1.78Z"/></g></g><g id="Group_49" data-name="Group 49"><g id="Group_48" data-name="Group 48"><path id="Path_86" data-name="Path 86" class="cls-1" d="M37.21,17.3a5.18,5.18,0,0,0-.4-.73h2.32a4.1,4.1,0,0,0,0-8.2H32a4.09,4.09,0,0,0-1.07-5.69A4,4,0,0,0,28.62,2H6.79a4.1,4.1,0,0,0,0,8.2h7.14a4.1,4.1,0,0,0,0,4.64H11.6a4.1,4.1,0,0,0-2.55,7.3,4.1,4.1,0,0,0-.67,5.75,4.71,4.71,0,0,0,.67.67,4.09,4.09,0,0,0-.67,5.74,4.71,4.71,0,0,0,.67.67,4.1,4.1,0,0,0,2.55,7.3H22.1A15.14,15.14,0,1,0,37.21,17.3Zm1.92-7.14a2.32,2.32,0,1,1,0,4.64H17.3a2.32,2.32,0,0,1,0-4.64ZM6.79,8.38a2.32,2.32,0,1,1,0-4.64H28.62a2.32,2.32,0,0,1,0,4.64Zm4.81,8.2H33.43a2.37,2.37,0,0,1,1,.23c-.42,0-.85,0-1.28,0a15.09,15.09,0,0,0-10.72,4.45H11.6a2.32,2.32,0,1,1,0-4.63Zm0,6.41h9.32a15.12,15.12,0,0,0-2.29,4.64h-7a2.32,2.32,0,1,1,0-4.64Zm0,6.42h6.62a15.29,15.29,0,0,0,0,4.63H11.6a2.32,2.32,0,1,1,0-4.63Zm0,11.05a2.32,2.32,0,0,1,0-4.64h6.93a15.3,15.3,0,0,0,2.14,4.64Zm21.56,4.8A13.37,13.37,0,1,1,46.52,31.9h0A13.36,13.36,0,0,1,33.16,45.26Z"/></g></g></svg>