<svg id="Layer_1" data-name="Layer 1" xmlns="http://www.w3.org/2000/svg" viewBox="0 0 200 200"><defs><style>.cls-1{fill:#d8d8d8;}.cls-2{fill:#e26223;}.cls-3,.cls-4{fill:none;}.cls-4{stroke:#d8d8d8;stroke-width:3.31px;}</style></defs><title>ddr-vector</title><g id="Group_62" data-name="Group 62"><g id="Group_15" data-name="Group 15"><g id="Group_12" data-name="Group 12"><g id="Group_10" data-name="Group 10"><g id="Group_9" data-name="Group 9"><g id="Group_8" data-name="Group 8"><path id="Polygon_1" data-name="Polygon 1" class="cls-1" d="M100.22,197.39a1.1,1.1,0,0,1-1.54,0L66.63,165.85A1.11,1.11,0,0,1,67.4,164h64.09a1.11,1.11,0,0,1,1.11,1.1,1.16,1.16,0,0,1-.33.79Z"/><rect id="Rectangle_200" data-name="Rectangle 200" class="cls-1" x="79.05" y="138.6" width="40.8" height="36.39" rx="2.21"/></g></g></g><g id="Group_13" data-name="Group 13"><g id="Group_9-2" data-name="Group 9-2"><g id="Group_8-2" data-name="Group 8-2"><path id="Polygon_1-2" data-name="Polygon 1-2" class="cls-1" d="M98.69,2.58a1.09,1.09,0,0,1,1.52,0l32,30.45a1.1,1.1,0,0,1,0,1.56,1.16,1.16,0,0,1-.8.35h-64A1.1,1.1,0,0,1,66.71,33Z"/><rect id="Rectangle_200-2" data-name="Rectangle 200-2" class="cls-1" x="79.05" y="25.01" width="40.8" height="35.29" rx="2.21"/></g></g></g></g><g id="Group_14" data-name="Group 14"><g id="Group_10-2" data-name="Group 10-2"><g id="Group_9-3" data-name="Group 9-3"><g id="Group_8-3" data-name="Group 8-3"><path id="Polygon_1-3" data-name="Polygon 1-3" class="cls-2" d="M2.58,100.21a1.09,1.09,0,0,1,0-1.52L33,66.71a1.1,1.1,0,0,1,1.56,0,1.16,1.16,0,0,1,.35.8v64a1.11,1.11,0,0,1-1.91.76Z"/><rect id="Rectangle_200-3" data-name="Rectangle 200-3" class="cls-2" x="25.01" y="79.05" width="35.29" height="40.8" rx="2.21"/></g></g></g><g id="Group_13-2" data-name="Group 13-2"><g id="Group_9-4" data-name="Group 9-4"><g id="Group_8-4" data-name="Group 8-4"><path id="Polygon_1-4" data-name="Polygon 1-4" class="cls-2" d="M197.39,98.68a1.1,1.1,0,0,1,0,1.54l-31.54,32.05a1.1,1.1,0,0,1-1.89-.78V67.4a1.1,1.1,0,0,1,1.1-1.1,1.11,1.11,0,0,1,.79.33Z"/><rect id="Rectangle_200-4" data-name="Rectangle 200-4" class="cls-2" x="138.6" y="79.05" width="36.39" height="40.8" rx="2.21"/></g></g></g></g></g><g id="Rectangle_201" data-name="Rectangle 201"><rect class="cls-3" x="1.85" y="146.32" width="51.83" height="51.83" rx="7.72"/><rect class="cls-4" x="3.51" y="147.97" width="48.52" height="48.52" rx="6.07"/></g><g id="Rectangle_202" data-name="Rectangle 202"><rect class="cls-3" x="146.32" y="146.32" width="51.83" height="51.83" rx="7.72"/><rect class="cls-4" x="147.97" y="147.97" width="48.52" height="48.52" rx="6.07"/></g><g id="Rectangle_203" data-name="Rectangle 203"><rect class="cls-3" x="146.32" y="1.85" width="51.83" height="51.83" rx="7.72"/><rect class="cls-4" x="147.97" y="3.51" width="48.52" height="48.52" rx="6.07"/></g><g id="Rectangle_204" data-name="Rectangle 204"><rect class="cls-3" x="1.85" y="1.85" width="51.83" height="51.83" rx="7.72"/><rect class="cls-4" x="3.51" y="3.51" width="48.52" height="48.52" rx="6.07"/></g><g id="Rectangle_205" data-name="Rectangle 205"><rect class="cls-3" x="160.65" y="160.65" width="24.26" height="24.26"/><rect class="cls-4" x="162.31" y="162.31" width="20.95" height="20.95"/></g><g id="Path_5" data-name="Path 5"><path class="cls-3" d="M28.32,160.65l12.13,24.27H16.19Z"/><path class="cls-1" d="M28.32,168.05l-6.78,13.56H35.1l-6.78-13.56m0-7.4,12.13,24.27H16.19Z"/></g><g id="Group_16" data-name="Group 16"><path id="Path_6" data-name="Path 6" class="cls-4" d="M17.17,17,38,37.82"/><path id="Path_7" data-name="Path 7" class="cls-4" d="M38,17,17.75,37.24"/></g><g id="Ellipse_10" data-name="Ellipse 10"><circle class="cls-3" cx="172.78" cy="28.32" r="12.13"/><circle class="cls-4" cx="172.78" cy="28.32" r="10.48"/></g></g></svg>