<svg id="Layer_1" data-name="Layer 1" xmlns="http://www.w3.org/2000/svg" viewBox="0 0 181 179"><defs><style>.cls-1{fill:#d8d8d8;}.cls-2{fill:#e26223;}.cls-3,.cls-4{fill:none;}.cls-4{stroke:#d8d8d8;stroke-width:3px;}</style></defs><title>ddr-vector</title><g id="Group_62" data-name="Group 62"><g id="Group_15" data-name="Group 15"><g id="Group_12" data-name="Group 12"><g id="Group_10" data-name="Group 10"><g id="Group_9" data-name="Group 9"><g id="Group_8" data-name="Group 8"><path id="Polygon_1" data-name="Polygon 1" class="cls-1" d="M90.7,177.81a1,1,0,0,1-1.4,0l-29.06-28.6a1,1,0,0,1,0-1.41,1,1,0,0,1,.71-.3h58.12a1,1,0,0,1,.7,1.71Z"/><rect id="Rectangle_200" data-name="Rectangle 200" class="cls-1" x="71.5" y="124.5" width="37" height="33" rx="2"/></g></g></g><g id="Group_13" data-name="Group 13"><g id="Group_9-2" data-name="Group 9-2"><g id="Group_8-2" data-name="Group 8-2"><path id="Polygon_1-2" data-name="Polygon 1-2" class="cls-1" d="M89.31,1.16a1,1,0,0,1,1.38,0l29,27.62A1,1,0,0,1,119,30.5H61a1,1,0,0,1-1-1,1,1,0,0,1,.31-.72Z"/><rect id="Rectangle_200-2" data-name="Rectangle 200-2" class="cls-1" x="71.5" y="21.5" width="37" height="32" rx="2"/></g></g></g></g><g id="Group_14" data-name="Group 14"><g id="Group_10-2" data-name="Group 10-2"><g id="Group_9-3" data-name="Group 9-3"><g id="Group_8-3" data-name="Group 8-3"><path id="Polygon_1-3" data-name="Polygon 1-3" class="cls-2" d="M2.16,89.69a1,1,0,0,1,0-1.38l27.62-29A1,1,0,0,1,31.5,60v58a1,1,0,0,1-1,1,1,1,0,0,1-.72-.31Z"/><rect id="Rectangle_200-3" data-name="Rectangle 200-3" class="cls-2" x="22.5" y="70.5" width="32" height="37" rx="2"/></g></g></g><g id="Group_13-2" data-name="Group 13-2"><g id="Group_9-4" data-name="Group 9-4"><g id="Group_8-4" data-name="Group 8-4"><path id="Polygon_1-4" data-name="Polygon 1-4" class="cls-2" d="M178.81,88.3a1,1,0,0,1,0,1.4l-28.6,29.06a1,1,0,0,1-1.41,0,1,1,0,0,1-.3-.71V59.94a1,1,0,0,1,1.71-.7Z"/><rect id="Rectangle_200-4" data-name="Rectangle 200-4" class="cls-2" x="125.5" y="70.5" width="33" height="37" rx="2"/></g></g></g></g></g><g id="Rectangle_201" data-name="Rectangle 201"><rect class="cls-3" x="1.5" y="131.5" width="47" height="47" rx="7"/><rect class="cls-4" x="3" y="133" width="44" height="44" rx="5.5"/></g><g id="Rectangle_202" data-name="Rectangle 202"><rect class="cls-3" x="132.5" y="131.5" width="47" height="47" rx="7"/><rect class="cls-4" x="134" y="133" width="44" height="44" rx="5.5"/></g><g id="Rectangle_203" data-name="Rectangle 203"><rect class="cls-3" x="132.5" y="0.5" width="47" height="47" rx="7"/><rect class="cls-4" x="134" y="2" width="44" height="44" rx="5.5"/></g><g id="Rectangle_204" data-name="Rectangle 204"><rect class="cls-3" x="1.5" y="0.5" width="47" height="47" rx="7"/><rect class="cls-4" x="3" y="2" width="44" height="44" rx="5.5"/></g><g id="Rectangle_205" data-name="Rectangle 205"><rect class="cls-3" x="145.5" y="144.5" width="22" height="22"/><rect class="cls-4" x="147" y="146" width="19" height="19"/></g><g id="Path_5" data-name="Path 5"><path class="cls-3" d="M25.5,144.5l11,22h-22Z"/><path class="cls-1" d="M25.5,151.21,19.35,163.5h12.3L25.5,151.21m0-6.71,11,22h-22Z"/></g><g id="Group_16" data-name="Group 16"><path id="Path_6" data-name="Path 6" class="cls-4" d="M15.39,14.22l18.89,18.9"/><path id="Path_7" data-name="Path 7" class="cls-4" d="M34.28,14.22,15.91,32.59"/></g><g id="Ellipse_10" data-name="Ellipse 10"><circle class="cls-3" cx="156.5" cy="24.5" r="11"/><circle class="cls-4" cx="156.5" cy="24.5" r="9.5"/></g></g></svg>