<svg id="Layer_1" data-name="Layer 1" xmlns="http://www.w3.org/2000/svg" viewBox="0 0 51 49"><defs><style>.cls-1{fill:#e26223;fill-rule:evenodd;}</style></defs><title>interac-vector</title><g id="Group_68" data-name="Group 68"><g id="Group_51" data-name="Group 51"><path id="Path_101" data-name="Path 101" class="cls-1" d="M43.39,39.4a3,3,0,0,1-3,3H10.59a3,3,0,0,1-3-3h0V9.6a3,3,0,0,1,3-3H40.4a3,3,0,0,1,3,3Z"/><path id="Path_102" data-name="Path 102" d="M27.59,24.89V18.48l1.67-.4v.84a2.4,2.4,0,0,1,1.43-1.36,1,1,0,0,1,.47,0v1.64a2.23,2.23,0,0,0-.88.18,1.53,1.53,0,0,0-.92,1.58v3.54Z"/><path id="Path_103" data-name="Path 103" d="M18.78,27a3.79,3.79,0,0,1-.28-1.85V21.93l-.86.2V20.82l.87-.2V19.19l1.77-.42V20.2l1.26-.3v1.31l-1.26.3v3.25c0,1.48.4,1.76.4,1.76Z"/><path id="Path_104" data-name="Path 104" d="M21.73,23.16a5.33,5.33,0,0,1,.51-2.61,2.94,2.94,0,0,1,2.08-1.47c1.95-.45,2.65.71,2.63,2.26,0,.55,0,.82,0,.82L23.51,23V23c0,1.09.22,1.6.91,1.45a.94.94,0,0,0,.8-.95c0-.08,0-.27,0-.27l1.61-.38v.28c0,.61-.19,2.14-2.43,2.67s-2.68-.8-2.68-2.66m2.66-2.89c-.57.13-.87.69-.88,1.61l1.73-.41v-.28c0-.7-.22-1.06-.85-.92"/><path id="Path_105" data-name="Path 105" d="M37.18,19.41c-.07-1.95.44-3.5,2.61-4,1.39-.31,1.92.05,2.18.4a2.19,2.19,0,0,1,.36,1.41v.11l-1.71.41v-.24c0-.75-.2-1-.75-.89s-.9.77-.9,2v.56c0,1.24.17,1.8.91,1.65s.73-.7.74-1.2c0-.08,0-.32,0-.32l1.7-.41v.27a2.87,2.87,0,0,1-2.46,3c-2.2.52-2.63-.76-2.7-2.75"/><path id="Path_106" data-name="Path 106" d="M31.29,22.14c0-1.48.87-1.95,2.18-2.49s1.2-.73,1.21-1.15-.16-.66-.75-.51a.88.88,0,0,0-.71.83c0,.11,0,.22,0,.33l-1.65.39a3.15,3.15,0,0,1,.12-1c.26-.89,1-1.49,2.39-1.8,1.76-.4,2.34.37,2.35,1.56v2.84c0,1.37.25,1.57.25,1.57l-1.62.39a4.19,4.19,0,0,1-.22-.59,2.18,2.18,0,0,1-1.57,1.18,1.49,1.49,0,0,1-2-1.58m3.38-2a6.3,6.3,0,0,1-.87.5A1.15,1.15,0,0,0,33,21.7a.56.56,0,0,0,.47.63.48.48,0,0,0,.29,0,1.27,1.27,0,0,0,.89-1.3Z"/><path id="Path_107" data-name="Path 107" d="M9.48,31.46a1,1,0,0,1-1-1,1.1,1.1,0,0,1,.16-.56h0l2.42-.57v1.84h0l-1.33.31-.21,0"/><path id="Path_108" data-name="Path 108" d="M9.48,33.81a1,1,0,0,1-1-1,1,1,0,0,1,.16-.56h0l2.42-.57v1.84h0l-1.33.31-.21,0"/><path id="Path_109" data-name="Path 109" d="M9.48,36.16a1,1,0,0,1-1-1,1,1,0,0,1,.16-.55v0L11.07,34v1.84h0l-1.33.31-.21,0"/><path id="Path_110" data-name="Path 110" d="M9.2,29.21V18.94l1.87-.45V28.77Z"/><path id="Path_111" data-name="Path 111" d="M13.86,28.33a1.16,1.16,0,0,0-2.31,0h0v9.61a3.13,3.13,0,0,0,3.13,3.12H18V32.59a1.52,1.52,0,0,0-.67-1.26l-2.92-2v4.5a.25.25,0,0,1-.5.06V28.34"/><path id="Path_112" data-name="Path 112" d="M15.42,21.17a2.54,2.54,0,0,0-1.66,1.29v-.73l-1.69.4v4.61a1.75,1.75,0,0,1,1.77.31v-3a1.34,1.34,0,0,1,.87-1.4c.38-.08.7.06.7.73v4.35l1.77-.42V22.75c0-1.12-.43-1.9-1.76-1.58"/><path id="Path_113" data-name="Path 113" d="M41.23,14.59a1.1,1.1,0,1,1,1.1-1.09h0a1.09,1.09,0,0,1-1.1,1.09m0-2.05a1,1,0,1,0,1,1h0a1,1,0,0,0-1-1"/><path id="Path_114" data-name="Path 114" d="M40.83,12.84h.48a.31.31,0,0,1,.34.28v.07a.3.3,0,0,1-.23.33h0c.14,0,.21.08.21.28a2.44,2.44,0,0,0,0,.27.12.12,0,0,0,.07.11h-.24a.15.15,0,0,1,0-.11,2.17,2.17,0,0,1,0-.26c0-.14-.05-.21-.2-.21h-.17v.59h-.22Zm.39.6a.19.19,0,0,0,.21-.18s0,0,0,0-.06-.22-.2-.22h-.18v.44Z"/></g></g></svg>