<svg id="Layer_1" data-name="Layer 1" xmlns="http://www.w3.org/2000/svg" viewBox="0 0 200 200"><defs><style>.cls-1{fill:#e26223;}</style></defs><title>military-vector</title><g id="military"><path id="Path_53" data-name="Path 53" class="cls-1" d="M190.55,43.78a7,7,0,0,0-5,2l-2.22,2.22L193.29,58l2.22-2.22a7,7,0,0,0-5-12Z"/><path id="Path_54" data-name="Path 54" class="cls-1" d="M172.76,58.66l-5-5h-9.92v9.92l5,5-7.77,7.77a14.86,14.86,0,0,1,2,1.67l7.38,7.38c.22.22.39.48.59.72l23.53-23.48-9.92-9.91Z"/><path id="Path_55" data-name="Path 55" class="cls-1" d="M121.5,104.53l-5.72-1L105,112.18l16.54,6.2Z"/><path id="Path_56" data-name="Path 56" class="cls-1" d="M75.2,126.46a3.32,3.32,0,0,0,3.3,3.31h39.69a3.32,3.32,0,0,0,3.31-3.31v-1l-23.15-8.68L75.2,125.44Z"/><path id="Path_57" data-name="Path 57" class="cls-1" d="M91.73,30.55H105v6.61H91.73Z"/><path id="Path_58" data-name="Path 58" class="cls-1" d="M111.16,98.74l-1.87-7.47a29.38,29.38,0,0,1-21.89,0l-1.87,7.47L98.35,109Z"/><path id="Path_59" data-name="Path 59" class="cls-1" d="M121.5,43.78H80.84a12.22,12.22,0,0,1-4.13,5.34l-3.09,2.2A11.15,11.15,0,0,1,75.2,57v6.62a23.15,23.15,0,0,0,46.3,0Z"/><path id="Path_60" data-name="Path 60" class="cls-1" d="M75.2,104.45v13.93l16.54-6.2L80.9,103.51Z"/><path id="Path_61" data-name="Path 61" class="cls-1" d="M111.58,30.55h23.15v6.61H111.58Z"/><path id="Path_62" data-name="Path 62" class="cls-1" d="M124.53,98.34l8.71,1.54-5.13-5.13Z"/><path id="Path_63" data-name="Path 63" class="cls-1" d="M134.73,43.78h-6.62V63.62a29.42,29.42,0,0,1-1,7.52A15,15,0,0,0,134.73,58Z"/><path id="Path_64" data-name="Path 64" class="cls-1" d="M111.58,4.09H85.12A23.17,23.17,0,0,0,62.23,23.93h72.23A23.17,23.17,0,0,0,111.58,4.09Z"/><path id="Path_65" data-name="Path 65" class="cls-1" d="M49.82,77.38,39,70.89a4.77,4.77,0,0,0-6.34,1.53l-10,16,14.55,8.73-3.4,5.68L19.16,94,7.8,112.21l9.35,4.68-3,5.91-9.82-4.9a17,17,0,0,0,1.32,17.85l8.14-5.43,3.67,5.51-6.84,4.55a17.08,17.08,0,0,0,9,2.62h9.2v-6.62h6.62V143H48.74V126.46H42.12v-6.62h6.62v-11l-5.69,1L31.71,128.19l-5.63-3.47,4.34-7-9.62-4.8,3-5.92L33.91,112,44.65,94.62,37,89.52,40.65,84l7.47,5,3.34-5.42a4.49,4.49,0,0,0,.59-2.24A4.66,4.66,0,0,0,49.82,77.38Z"/><path id="Path_66" data-name="Path 66" class="cls-1" d="M159.82,96.69a4.68,4.68,0,0,0,0-6.61l-7.38-7.38a8.9,8.9,0,0,0-11.29-.79l9.15,9.14-4.68,4.68-9.24-9.24-3.59,3.59,11.82,11.82a43.21,43.21,0,0,1,7.9,2.1Z"/><path id="Path_67" data-name="Path 67" class="cls-1" d="M128.11,126.46a9.92,9.92,0,0,1-9.92,9.92H78.5a9.94,9.94,0,0,1-9.92-9.92v-20.9l-13.23,2.2v88.15H62V182.68a6.61,6.61,0,0,1,6.61-6.61H88.43A6.61,6.61,0,0,1,95,182.68v13.23h6.62V182.68a6.61,6.61,0,0,1,6.61-6.61h19.84a6.62,6.62,0,0,1,6.62,6.61v13.23h6.61V108l-13.23-2.33Zm6.62,23.15v13.23a6.62,6.62,0,0,1-6.62,6.61H68.58A6.61,6.61,0,0,1,62,162.84V149.61A6.61,6.61,0,0,1,68.58,143h59.53a6.63,6.63,0,0,1,6.62,6.61Z"/><path id="Path_68" data-name="Path 68" class="cls-1" d="M161.19,143v13.22h13.23V145.13c0-.72-.08-1.42-.12-2.13Z"/><path id="Path_69" data-name="Path 69" class="cls-1" d="M154.57,156.22V143a6.63,6.63,0,0,1,6.62-6.62h12.16a38.43,38.43,0,0,0-2.25-6.61h-9.91v-6.62h6A36.73,36.73,0,0,0,148,109.48v60H167.8v6.62H148v19.84h26.46V189.3H161.19v-6.62h13.23V162.84H161.19A6.63,6.63,0,0,1,154.57,156.22Z"/><path id="Path_70" data-name="Path 70" class="cls-1" d="M81.54,37.16h3.58V30.55h-12A8.65,8.65,0,0,1,81.54,37.16Z"/><path id="Path_71" data-name="Path 71" class="cls-1" d="M68.58,149.61h59.54v13.23H68.58Z"/><path id="Path_72" data-name="Path 72" class="cls-1" d="M68.58,57a4.72,4.72,0,0,0-.37-1.81L57.27,63l-3.84-5.39L72.86,43.74A5.58,5.58,0,0,0,75.2,39.2a2.11,2.11,0,0,0-2.19-2,2,2,0,0,0-.77.19l-22.8,11.4a13.15,13.15,0,0,0-7.32,11.83v4.47l.29.14,10.81,6.49a10.81,10.81,0,0,1,1.49,1.1l12.5-12.5A4.68,4.68,0,0,0,68.58,57Z"/><path id="Path_73" data-name="Path 73" class="cls-1" d="M68.58,182.68H88.43v13.23H68.58Z"/><path id="Path_74" data-name="Path 74" class="cls-1" d="M73.15,30.55H62v4.57l7.31-3.66A8.67,8.67,0,0,1,73.15,30.55Z"/><path id="Path_75" data-name="Path 75" class="cls-1" d="M108.27,182.68h19.84v13.23H108.27Z"/></g></svg>