<svg id="Layer_1" data-name="Layer 1" xmlns="http://www.w3.org/2000/svg" viewBox="0 0 59 57"><defs><style>.cls-1{fill:#e26223;}</style></defs><title>military-vector</title><path id="Path_53" data-name="Path 53" class="cls-1" d="M56,12.08a2,2,0,0,0-1.45.6l-.65.64,2.9,2.9.65-.65a2,2,0,0,0,0-2.89A2,2,0,0,0,56,12.08Z"/><path id="Path_54" data-name="Path 54" class="cls-1" d="M50.75,16.42,49.3,15H46.4v2.9l1.45,1.45-2.27,2.27a4.13,4.13,0,0,1,.6.49l2.16,2.16c.06.06.11.14.17.2l6.87-6.85-2.9-2.9Z"/><path id="Path_55" data-name="Path 55" class="cls-1" d="M35.78,29.82l-1.67-.29L31,32.06l4.83,1.81Z"/><path id="Path_56" data-name="Path 56" class="cls-1" d="M22.25,36.23a1,1,0,0,0,1,1H34.81a1,1,0,0,0,1-1v-.3L29,33.39l-6.77,2.54Z"/><path id="Path_57" data-name="Path 57" class="cls-1" d="M27.08,8.21H31v1.93H27.08Z"/><path id="Path_58" data-name="Path 58" class="cls-1" d="M32.76,28.13,32.21,26a8.61,8.61,0,0,1-6.39,0l-.55,2.18,3.74,3Z"/><path id="Path_59" data-name="Path 59" class="cls-1" d="M35.78,12.08H23.9a3.56,3.56,0,0,1-1.21,1.56l-.9.64a3.24,3.24,0,0,1,.46,1.66v1.93a6.77,6.77,0,0,0,13.53,0Z"/><path id="Path_60" data-name="Path 60" class="cls-1" d="M22.25,29.8v4.07l4.83-1.81-3.16-2.54Z"/><path id="Path_61" data-name="Path 61" class="cls-1" d="M32.88,8.21h6.76v1.93H32.88Z"/><path id="Path_62" data-name="Path 62" class="cls-1" d="M36.66,28l2.55.45L37.71,27Z"/><path id="Path_63" data-name="Path 63" class="cls-1" d="M39.64,12.08H37.71v5.79a8.63,8.63,0,0,1-.29,2.2,4.37,4.37,0,0,0,2.22-3.83Z"/><path id="Path_64" data-name="Path 64" class="cls-1" d="M32.88.48H25.15a6.77,6.77,0,0,0-6.68,5.8h21.1A6.78,6.78,0,0,0,32.88.48Z"/><path id="Path_65" data-name="Path 65" class="cls-1" d="M14.84,21.89,11.68,20a1.39,1.39,0,0,0-1.85.44L6.91,25.12l4.25,2.55-1,1.66L5.88,26.76,2.57,32.07,5.3,33.43l-.87,1.73L1.57,33.73A4.93,4.93,0,0,0,2,38.94l2.38-1.58L5.4,39l-2,1.33A5,5,0,0,0,6,41.06H8.73V39.13h1.93v1.93h3.86V36.23H12.59V34.3h1.94V31.09l-1.67.28L9.55,36.74l-1.64-1,1.26-2.06-2.81-1.4.87-1.73,3,1.48,3.14-5.08-2.24-1.49,1.07-1.61,2.18,1.45,1-1.58a1.34,1.34,0,0,0-.49-1.81Z"/><path id="Path_66" data-name="Path 66" class="cls-1" d="M47,27.53a1.37,1.37,0,0,0,0-1.93l-2.16-2.16a2.6,2.6,0,0,0-3.29-.23l2.67,2.67-1.37,1.37-2.7-2.7-1,1.05,3.45,3.46a12.49,12.49,0,0,1,2.31.61Z"/><path id="Path_67" data-name="Path 67" class="cls-1" d="M37.71,36.23a2.89,2.89,0,0,1-2.9,2.89H23.22a2.89,2.89,0,0,1-2.9-2.89V30.12l-3.86.65V56.51h1.93V52.65a1.92,1.92,0,0,1,1.93-1.93h5.8a1.93,1.93,0,0,1,1.93,1.93v3.86H30V52.65a1.93,1.93,0,0,1,1.94-1.93h5.79a1.92,1.92,0,0,1,1.93,1.93v3.86h1.93V30.84l-3.86-.68ZM39.64,43v3.86a1.92,1.92,0,0,1-1.93,1.93H20.32a1.92,1.92,0,0,1-1.93-1.93V43a1.94,1.94,0,0,1,1.93-1.94H37.71A1.94,1.94,0,0,1,39.64,43Z"/><path id="Path_68" data-name="Path 68" class="cls-1" d="M47.37,41.06v3.86h3.86V41.68c0-.21,0-.41,0-.62Z"/><path id="Path_69" data-name="Path 69" class="cls-1" d="M45.44,44.92V41.06a1.92,1.92,0,0,1,1.93-1.93h3.55a10.29,10.29,0,0,0-.65-1.94h-2.9V35.26h1.76a10.7,10.7,0,0,0-5.62-4V48.79H49.3v1.93H43.51v5.8h7.72V54.58H47.37V52.65h3.86v-5.8H47.37A1.92,1.92,0,0,1,45.44,44.92Z"/><path id="Path_70" data-name="Path 70" class="cls-1" d="M24.11,10.14h1V8.21H21.66A2.54,2.54,0,0,1,24.11,10.14Z"/><path id="Path_71" data-name="Path 71" class="cls-1" d="M20.32,43H37.71v3.86H20.32Z"/><path id="Path_72" data-name="Path 72" class="cls-1" d="M20.32,15.94a1.4,1.4,0,0,0-.11-.53L17,17.69,15.9,16.12l5.67-4.06a1.6,1.6,0,0,0,.68-1.32.62.62,0,0,0-.64-.59.6.6,0,0,0-.22.06l-6.66,3.32A3.88,3.88,0,0,0,12.59,17V18.3l.09,0,3.15,1.9a2.75,2.75,0,0,1,.44.32l3.65-3.66a1.33,1.33,0,0,0,.4-1Z"/><path id="Path_73" data-name="Path 73" class="cls-1" d="M20.32,52.65h5.8v3.86h-5.8Z"/><path id="Path_74" data-name="Path 74" class="cls-1" d="M21.66,8.21H18.39V9.55l2.14-1.07A2.44,2.44,0,0,1,21.66,8.21Z"/><path id="Path_75" data-name="Path 75" class="cls-1" d="M31.91,52.65h5.8v3.86h-5.8Z"/></svg>