<svg id="Layer_1" data-name="Layer 1" xmlns="http://www.w3.org/2000/svg" viewBox="0 0 87 57"><defs><style>.cls-1{fill:#e26223;}</style></defs><title>sofa-vector</title><path id="Path_50" data-name="Path 50" class="cls-1" d="M48.82,25.67H68.16A3.86,3.86,0,0,0,72,21.81h0V5a3.87,3.87,0,0,0-3.87-3.87H48.82A3.87,3.87,0,0,0,45,5V21.81A3.86,3.86,0,0,0,48.82,25.67Z"/><path id="Path_51" data-name="Path 51" class="cls-1" d="M18.84,25.67H38.18a3.86,3.86,0,0,0,3.87-3.86V5a3.87,3.87,0,0,0-3.87-3.87H18.84A3.86,3.86,0,0,0,15,5h0V21.81a3.86,3.86,0,0,0,3.87,3.86Z"/><path id="Path_52" data-name="Path 52" class="cls-1" d="M80.25,15.33a5.8,5.8,0,0,0-5.8,5.8h0v9.08a7.68,7.68,0,0,0-4.36-1.34H16.91a7.68,7.68,0,0,0-4.36,1.34V21.13a5.8,5.8,0,0,0-11.6,0H1V46.28a5.8,5.8,0,0,0,5.8,5.8H8.68a3.87,3.87,0,0,0,7.74,0H70.58a3.87,3.87,0,0,0,7.74,0h1.93a5.8,5.8,0,0,0,5.8-5.8h0V21.13a5.8,5.8,0,0,0-5.8-5.8Z"/></svg>