<svg id="Layer_1" data-name="Layer 1" xmlns="http://www.w3.org/2000/svg" viewBox="0 0 200 200"><defs><style>.cls-1{fill:#e26223;}</style></defs><title>sofa-vector</title><g id="Group_29" data-name="Group 29"><path id="Path_50" data-name="Path 50" class="cls-1" d="M112.13,93.48h44.08A8.81,8.81,0,0,0,165,84.67h0V46.32a8.82,8.82,0,0,0-8.82-8.82H112.13a8.82,8.82,0,0,0-8.82,8.82h0V84.66A8.82,8.82,0,0,0,112.13,93.48Z"/><path id="Path_51" data-name="Path 51" class="cls-1" d="M43.78,93.48H87.87a8.82,8.82,0,0,0,8.82-8.82V46.32a8.82,8.82,0,0,0-8.82-8.82H43.78A8.83,8.83,0,0,0,35,46.31h0V84.66a8.82,8.82,0,0,0,8.83,8.82Z"/><path id="Path_52" data-name="Path 52" class="cls-1" d="M183.78,69.9a13.22,13.22,0,0,0-13.23,13.22h0v20.7a17.47,17.47,0,0,0-9.92-3.06H39.37a17.47,17.47,0,0,0-9.92,3.06V83.13A13.23,13.23,0,0,0,3,83.13v57.32a13.24,13.24,0,0,0,13.23,13.23h4.41a8.82,8.82,0,0,0,17.64,0H161.73a8.82,8.82,0,1,0,17.64,0h4.41A13.24,13.24,0,0,0,197,140.45V83.13A13.24,13.24,0,0,0,183.78,69.9Z"/></g></svg>