<svg id="Layer_1" data-name="Layer 1" xmlns="http://www.w3.org/2000/svg" viewBox="0 0 152 141"><defs><style>.cls-1{fill:#d8d8d8;}.cls-2{fill:#e26223;}</style></defs><title>Board_Game_Stack</title><g id="Group_5" data-name="Group 5"><rect id="Rectangle_8" data-name="Rectangle 8" class="cls-1" x="67" y="118" width="18" height="18"/><rect id="Rectangle_188" data-name="Rectangle 188" class="cls-1" x="46" y="47" width="18" height="18"/><rect id="Rectangle_189" data-name="Rectangle 189" class="cls-1" x="46" y="26" width="18" height="18"/><rect id="Rectangle_190" data-name="Rectangle 190" class="cls-1" x="25" y="26" width="18" height="18"/><rect id="Rectangle_191" data-name="Rectangle 191" class="cls-1" x="25" y="5" width="18" height="18"/><rect id="Rectangle_14" data-name="Rectangle 14" class="cls-2" x="25" y="118" width="18" height="18"/><rect id="Rectangle_15" data-name="Rectangle 15" class="cls-2" x="4" y="76" width="18" height="18"/><rect id="Rectangle_16" data-name="Rectangle 16" class="cls-2" x="130" y="76" width="18" height="18"/><rect id="Rectangle_19" data-name="Rectangle 19" class="cls-2" x="130" y="55" width="18" height="18"/><rect id="Rectangle_9" data-name="Rectangle 9" class="cls-1" x="88" y="118" width="18" height="18"/><rect id="Rectangle_12" data-name="Rectangle 12" class="cls-2" x="4" y="118" width="18" height="18"/><rect id="Rectangle_17" data-name="Rectangle 17" class="cls-2" x="130" y="118" width="18" height="18"/><rect id="Rectangle_10" data-name="Rectangle 10" class="cls-1" x="109" y="118" width="18" height="18"/><rect id="Rectangle_13" data-name="Rectangle 13" class="cls-2" x="4" y="97" width="18" height="18"/><rect id="Rectangle_18" data-name="Rectangle 18" class="cls-2" x="130" y="97" width="18" height="18"/><rect id="Rectangle_11" data-name="Rectangle 11" class="cls-1" x="109" y="97" width="18" height="18"/><rect id="Rectangle_192" data-name="Rectangle 192" class="cls-2" x="109" y="76" width="18" height="18"/><rect id="Rectangle_198" data-name="Rectangle 198" class="cls-1" x="130" y="34" width="18" height="18"/><rect id="Rectangle_193" data-name="Rectangle 193" class="cls-2" x="88" y="76" width="18" height="18"/><rect id="Rectangle_196" data-name="Rectangle 196" class="cls-1" x="109" y="34" width="18" height="18"/><rect id="Rectangle_195" data-name="Rectangle 195" class="cls-2" x="88" y="55" width="18" height="18"/><rect id="Rectangle_197" data-name="Rectangle 197" class="cls-1" x="130" y="13" width="18" height="18"/><rect id="Rectangle_194" data-name="Rectangle 194" class="cls-2" x="88" y="97" width="18" height="18"/><rect id="Rectangle_199" data-name="Rectangle 199" class="cls-1" x="109" y="55" width="18" height="18"/></g></svg>