<svg id="Layer_1" data-name="Layer 1" xmlns="http://www.w3.org/2000/svg" viewBox="0 0 200 200"><defs><style>.cls-1{fill:#d8d8d8;}.cls-2{fill:#e26223;}</style></defs><title>tetris-vector</title><g id="Group_5" data-name="Group 5"><rect id="Rectangle_8" data-name="Rectangle 8" class="cls-1" x="87.63" y="165.3" width="24.75" height="24.75"/><rect id="Rectangle_188" data-name="Rectangle 188" class="cls-1" x="58.76" y="67.69" width="24.75" height="24.75"/><rect id="Rectangle_189" data-name="Rectangle 189" class="cls-1" x="58.76" y="38.82" width="24.75" height="24.75"/><rect id="Rectangle_190" data-name="Rectangle 190" class="cls-1" x="29.89" y="38.82" width="24.75" height="24.75"/><rect id="Rectangle_191" data-name="Rectangle 191" class="cls-1" x="29.89" y="9.95" width="24.75" height="24.75"/><rect id="Rectangle_14" data-name="Rectangle 14" class="cls-2" x="29.89" y="165.3" width="24.75" height="24.75"/><rect id="Rectangle_15" data-name="Rectangle 15" class="cls-2" x="1.02" y="107.56" width="24.75" height="24.75"/><rect id="Rectangle_16" data-name="Rectangle 16" class="cls-2" x="174.24" y="107.56" width="24.75" height="24.75"/><rect id="Rectangle_19" data-name="Rectangle 19" class="cls-2" x="174.24" y="78.69" width="24.75" height="24.75"/><rect id="Rectangle_9" data-name="Rectangle 9" class="cls-1" x="116.5" y="165.3" width="24.75" height="24.75"/><rect id="Rectangle_12" data-name="Rectangle 12" class="cls-2" x="1.02" y="165.3" width="24.75" height="24.75"/><rect id="Rectangle_17" data-name="Rectangle 17" class="cls-2" x="174.24" y="165.3" width="24.75" height="24.75"/><rect id="Rectangle_10" data-name="Rectangle 10" class="cls-1" x="145.37" y="165.3" width="24.75" height="24.75"/><rect id="Rectangle_13" data-name="Rectangle 13" class="cls-2" x="1.02" y="136.43" width="24.75" height="24.75"/><rect id="Rectangle_18" data-name="Rectangle 18" class="cls-2" x="174.24" y="136.43" width="24.75" height="24.75"/><rect id="Rectangle_11" data-name="Rectangle 11" class="cls-1" x="145.37" y="136.43" width="24.75" height="24.75"/><rect id="Rectangle_192" data-name="Rectangle 192" class="cls-2" x="145.37" y="107.56" width="24.75" height="24.75"/><rect id="Rectangle_198" data-name="Rectangle 198" class="cls-1" x="174.24" y="49.82" width="24.75" height="24.75"/><rect id="Rectangle_193" data-name="Rectangle 193" class="cls-2" x="116.5" y="107.56" width="24.75" height="24.75"/><rect id="Rectangle_196" data-name="Rectangle 196" class="cls-1" x="145.37" y="49.82" width="24.75" height="24.75"/><rect id="Rectangle_195" data-name="Rectangle 195" class="cls-2" x="116.5" y="78.69" width="24.75" height="24.75"/><rect id="Rectangle_197" data-name="Rectangle 197" class="cls-1" x="174.24" y="20.95" width="24.75" height="24.75"/><rect id="Rectangle_194" data-name="Rectangle 194" class="cls-2" x="116.5" y="136.43" width="24.75" height="24.75"/><rect id="Rectangle_199" data-name="Rectangle 199" class="cls-1" x="145.37" y="78.69" width="24.75" height="24.75"/></g></svg>