<svg id="Layer_1" data-name="Layer 1" xmlns="http://www.w3.org/2000/svg" viewBox="0 0 275 325"><defs><style>.ssb-1{fill:#ffad61;}.ssb-2{fill:#592719;}.ssb-3{fill:#fa452f;}.ssb-4{fill:#3ea0e1;}.cls-5{fill:#e1db54;}</style></defs><title>ssb-vector</title><rect id="Rectangle_24" data-name="Rectangle 24" class="ssb-1" x="129.3" y="85.18" width="16.56" height="16.56"/><rect id="Rectangle_25" data-name="Rectangle 25" class="ssb-1" x="149.88" y="85.18" width="16.56" height="16.56"/><rect id="Rectangle_34" data-name="Rectangle 34" class="ssb-1" x="168.36" y="85.18" width="16.56" height="16.56"/><rect id="Rectangle_168" data-name="Rectangle 168" x="168.36" y="103.83" width="16.56" height="16.56"/><rect id="Rectangle_36" data-name="Rectangle 36" class="ssb-1" x="209.68" y="85.18" width="16.56" height="16.56"/><rect id="Rectangle_164" data-name="Rectangle 164" x="209.68" y="103.83" width="16.56" height="16.56"/><rect id="Rectangle_37" data-name="Rectangle 37" class="ssb-1" x="188.94" y="64.6" width="16.56" height="16.56"/><rect id="Rectangle_166" data-name="Rectangle 166" x="188.94" y="103.83" width="16.56" height="16.56"/><rect id="Rectangle_38" data-name="Rectangle 38" class="ssb-1" x="188.94" y="44.03" width="16.56" height="16.56"/><rect id="Rectangle_167" data-name="Rectangle 167" x="188.94" y="85.18" width="16.56" height="16.56"/><rect id="Rectangle_39" data-name="Rectangle 39" class="ssb-1" x="209.68" y="64.6" width="16.56" height="16.56"/><rect id="Rectangle_40" data-name="Rectangle 40" class="ssb-1" x="228.16" y="64.6" width="16.56" height="16.56"/><rect id="Rectangle_41" data-name="Rectangle 41" class="ssb-1" x="228.16" y="85.18" width="16.56" height="16.56"/><rect id="Rectangle_165" data-name="Rectangle 165" x="228.16" y="103.83" width="16.56" height="16.56"/><rect id="Rectangle_42" data-name="Rectangle 42" class="ssb-1" x="248.74" y="85.18" width="16.56" height="16.56"/><rect id="Rectangle_26" data-name="Rectangle 26" class="ssb-1" x="108.56" y="85.18" width="16.56" height="16.56"/><rect id="Rectangle_43" data-name="Rectangle 43" class="ssb-2" x="90.08" y="85.18" width="16.56" height="16.56"/><rect id="Rectangle_44" data-name="Rectangle 44" class="ssb-1" x="69.5" y="103.83" width="16.56" height="16.56"/><rect id="Rectangle_55" data-name="Rectangle 55" class="ssb-1" x="69.5" y="124.4" width="16.56" height="16.56"/><rect id="Rectangle_47" data-name="Rectangle 47" class="ssb-1" x="90.08" y="103.83" width="16.56" height="16.56"/><rect id="Rectangle_54" data-name="Rectangle 54" class="ssb-1" x="90.08" y="124.4" width="16.56" height="16.56"/><rect id="Rectangle_48" data-name="Rectangle 48" class="ssb-1" x="108.56" y="103.83" width="16.56" height="16.56"/><rect id="Rectangle_53" data-name="Rectangle 53" class="ssb-1" x="108.56" y="124.4" width="16.56" height="16.56"/><rect id="Rectangle_49" data-name="Rectangle 49" class="ssb-1" x="129.3" y="103.83" width="16.56" height="16.56"/><rect id="Rectangle_52" data-name="Rectangle 52" class="ssb-1" x="129.3" y="124.4" width="16.56" height="16.56"/><rect id="Rectangle_50" data-name="Rectangle 50" class="ssb-1" x="149.88" y="103.83" width="16.56" height="16.56"/><rect id="Rectangle_51" data-name="Rectangle 51" class="ssb-1" x="149.88" y="124.4" width="16.56" height="16.56"/><rect id="Rectangle_56" data-name="Rectangle 56" class="ssb-1" x="168.36" y="124.4" width="16.56" height="16.56"/><rect id="Rectangle_57" data-name="Rectangle 57" class="ssb-1" x="188.94" y="124.4" width="16.56" height="16.56"/><rect id="Rectangle_58" data-name="Rectangle 58" class="ssb-1" x="209.68" y="124.4" width="16.56" height="16.56"/><rect id="Rectangle_62" data-name="Rectangle 62" class="ssb-1" x="209.68" y="204.78" width="16.56" height="16.56"/><rect id="Rectangle_82" data-name="Rectangle 82" class="ssb-3" x="209.68" y="184.2" width="16.56" height="16.56"/><rect id="Rectangle_85" data-name="Rectangle 85" class="ssb-3" x="188.94" y="184.2" width="16.56" height="16.56"/><rect id="Rectangle_88" data-name="Rectangle 88" class="ssb-3" x="188.94" y="163.46" width="16.56" height="16.56"/><rect id="Rectangle_87" data-name="Rectangle 87" class="ssb-3" x="168.36" y="184.2" width="16.56" height="16.56"/><rect id="Rectangle_111" data-name="Rectangle 111" class="ssb-4" x="168.36" y="204.78" width="16.56" height="16.56"/><rect id="Rectangle_89" data-name="Rectangle 89" class="ssb-3" x="168.36" y="163.46" width="16.56" height="16.56"/><rect id="Rectangle_90" data-name="Rectangle 90" class="ssb-3" x="168.36" y="144.98" width="16.56" height="16.56"/><rect id="Rectangle_91" data-name="Rectangle 91" class="ssb-3" x="149.88" y="144.98" width="16.56" height="16.56"/><rect id="Rectangle_92" data-name="Rectangle 92" class="ssb-3" x="129.3" y="144.98" width="16.56" height="16.56"/><rect id="Rectangle_93" data-name="Rectangle 93" class="ssb-3" x="108.56" y="144.98" width="16.56" height="16.56"/><rect id="Rectangle_94" data-name="Rectangle 94" class="ssb-4" x="90.08" y="144.98" width="16.56" height="16.56"/><rect id="Rectangle_95" data-name="Rectangle 95" class="ssb-3" x="69.5" y="144.98" width="16.56" height="16.56"/><rect id="Rectangle_96" data-name="Rectangle 96" class="ssb-3" x="48.77" y="144.98" width="16.56" height="16.56"/><rect id="Rectangle_97" data-name="Rectangle 97" class="ssb-3" x="48.77" y="163.46" width="16.56" height="16.56"/><rect id="Rectangle_98" data-name="Rectangle 98" class="ssb-3" x="30.28" y="163.46" width="16.56" height="16.56"/><rect id="Rectangle_99" data-name="Rectangle 99" class="ssb-3" x="30.28" y="184.2" width="16.56" height="16.56"/><rect id="Rectangle_101" data-name="Rectangle 101" class="ssb-3" x="48.77" y="184.2" width="16.56" height="16.56"/><rect id="Rectangle_102" data-name="Rectangle 102" class="ssb-3" x="48.77" y="204.78" width="16.56" height="16.56"/><rect id="Rectangle_103" data-name="Rectangle 103" class="ssb-4" x="69.5" y="204.78" width="16.56" height="16.56"/><rect id="Rectangle_104" data-name="Rectangle 104" class="ssb-3" x="69.5" y="184.2" width="16.56" height="16.56"/><rect id="Rectangle_105" data-name="Rectangle 105" class="ssb-3" x="69.5" y="163.46" width="16.56" height="16.56"/><rect id="Rectangle_106" data-name="Rectangle 106" class="ssb-4" x="90.08" y="163.46" width="16.56" height="16.56"/><rect id="Rectangle_107" data-name="Rectangle 107" class="ssb-3" x="108.56" y="163.46" width="16.56" height="16.56"/><rect id="Rectangle_108" data-name="Rectangle 108" class="ssb-3" x="129.3" y="163.46" width="16.56" height="16.56"/><rect id="Rectangle_109" data-name="Rectangle 109" class="ssb-4" x="149.88" y="163.46" width="16.56" height="16.56"/><rect id="Rectangle_110" data-name="Rectangle 110" class="ssb-4" x="149.88" y="184.2" width="16.56" height="16.56"/><rect id="Rectangle_112" data-name="Rectangle 112" class="cls-5" x="149.88" y="204.78" width="16.56" height="16.56"/><rect id="Rectangle_100" data-name="Rectangle 100" class="ssb-3" x="9.7" y="184.2" width="16.56" height="16.56"/><rect id="Rectangle_86" data-name="Rectangle 86" class="ssb-3" x="188.94" y="204.78" width="16.56" height="16.56"/><rect id="Rectangle_84" data-name="Rectangle 84" class="ssb-3" x="228.16" y="184.2" width="16.56" height="16.56"/><rect id="Rectangle_83" data-name="Rectangle 83" class="ssb-3" x="209.68" y="163.46" width="16.56" height="16.56"/><rect id="Rectangle_64" data-name="Rectangle 64" class="ssb-1" x="209.68" y="223.26" width="16.56" height="16.56"/><rect id="Rectangle_68" data-name="Rectangle 68" class="ssb-1" x="188.94" y="223.26" width="16.56" height="16.56"/><rect id="Rectangle_127" data-name="Rectangle 127" class="ssb-4" x="188.94" y="243.84" width="16.56" height="16.56"/><rect id="Rectangle_136" data-name="Rectangle 136" class="ssb-4" x="188.94" y="264.58" width="16.56" height="16.56"/><rect id="Rectangle_144" data-name="Rectangle 144" class="ssb-2" x="188.94" y="283.06" width="16.56" height="16.56"/><rect id="Rectangle_148" data-name="Rectangle 148" class="ssb-2" x="209.68" y="283.06" width="16.56" height="16.56"/><rect id="Rectangle_146" data-name="Rectangle 146" class="ssb-2" x="188.94" y="303.64" width="16.56" height="16.56"/><rect id="Rectangle_149" data-name="Rectangle 149" class="ssb-2" x="209.68" y="303.64" width="16.56" height="16.56"/><rect id="Rectangle_150" data-name="Rectangle 150" class="ssb-2" x="228.16" y="303.64" width="16.56" height="16.56"/><rect id="Rectangle_69" data-name="Rectangle 69" class="ssb-4" x="168.36" y="223.26" width="16.56" height="16.56"/><rect id="Rectangle_126" data-name="Rectangle 126" class="ssb-4" x="168.36" y="243.84" width="16.56" height="16.56"/><rect id="Rectangle_135" data-name="Rectangle 135" class="ssb-4" x="168.36" y="264.58" width="16.56" height="16.56"/><rect id="Rectangle_145" data-name="Rectangle 145" class="ssb-2" x="168.36" y="283.06" width="16.56" height="16.56"/><rect id="Rectangle_147" data-name="Rectangle 147" class="ssb-2" x="168.36" y="303.64" width="16.56" height="16.56"/><rect id="Rectangle_70" data-name="Rectangle 70" class="ssb-4" x="149.88" y="223.26" width="16.56" height="16.56"/><rect id="Rectangle_125" data-name="Rectangle 125" class="ssb-4" x="149.88" y="243.84" width="16.56" height="16.56"/><rect id="Rectangle_134" data-name="Rectangle 134" class="ssb-4" x="149.88" y="264.58" width="16.56" height="16.56"/><rect id="Rectangle_71" data-name="Rectangle 71" class="ssb-4" x="129.3" y="223.26" width="16.56" height="16.56"/><rect id="Rectangle_124" data-name="Rectangle 124" class="ssb-4" x="129.3" y="243.84" width="16.56" height="16.56"/><rect id="Rectangle_115" data-name="Rectangle 115" class="ssb-4" x="129.3" y="184.2" width="16.56" height="16.56"/><rect id="Rectangle_118" data-name="Rectangle 118" class="ssb-4" x="129.3" y="204.78" width="16.56" height="16.56"/><rect id="Rectangle_72" data-name="Rectangle 72" class="ssb-4" x="108.56" y="223.26" width="16.56" height="16.56"/><rect id="Rectangle_123" data-name="Rectangle 123" class="ssb-4" x="108.56" y="243.84" width="16.56" height="16.56"/><rect id="Rectangle_114" data-name="Rectangle 114" class="ssb-4" x="108.56" y="184.2" width="16.56" height="16.56"/><rect id="Rectangle_117" data-name="Rectangle 117" class="ssb-4" x="108.56" y="204.78" width="16.56" height="16.56"/><rect id="Rectangle_73" data-name="Rectangle 73" class="ssb-4" x="90.08" y="223.26" width="16.56" height="16.56"/><rect id="Rectangle_122" data-name="Rectangle 122" class="ssb-4" x="90.08" y="243.84" width="16.56" height="16.56"/><rect id="Rectangle_131" data-name="Rectangle 131" class="ssb-4" x="90.08" y="264.58" width="16.56" height="16.56"/><rect id="Rectangle_113" data-name="Rectangle 113" class="ssb-4" x="90.08" y="184.2" width="16.56" height="16.56"/><rect id="Rectangle_116" data-name="Rectangle 116" class="cls-5" x="90.08" y="204.78" width="16.56" height="16.56"/><rect id="Rectangle_74" data-name="Rectangle 74" class="ssb-4" x="69.5" y="223.26" width="16.56" height="16.56"/><rect id="Rectangle_120" data-name="Rectangle 120" class="ssb-4" x="69.5" y="243.84" width="16.56" height="16.56"/><rect id="Rectangle_129" data-name="Rectangle 129" class="ssb-4" x="69.5" y="264.58" width="16.56" height="16.56"/><rect id="Rectangle_138" data-name="Rectangle 138" class="ssb-2" x="69.5" y="283.06" width="16.56" height="16.56"/><rect id="Rectangle_140" data-name="Rectangle 140" class="ssb-2" x="69.5" y="303.64" width="16.56" height="16.56"/><rect id="Rectangle_75" data-name="Rectangle 75" class="ssb-1" x="48.77" y="223.26" width="16.56" height="16.56"/><rect id="Rectangle_121" data-name="Rectangle 121" class="ssb-4" x="48.77" y="243.84" width="16.56" height="16.56"/><rect id="Rectangle_130" data-name="Rectangle 130" class="ssb-4" x="48.77" y="264.58" width="16.56" height="16.56"/><rect id="Rectangle_137" data-name="Rectangle 137" class="ssb-2" x="48.77" y="283.06" width="16.56" height="16.56"/><rect id="Rectangle_141" data-name="Rectangle 141" class="ssb-2" x="30.28" y="283.06" width="16.56" height="16.56"/><rect id="Rectangle_139" data-name="Rectangle 139" class="ssb-2" x="48.77" y="303.64" width="16.56" height="16.56"/><rect id="Rectangle_142" data-name="Rectangle 142" class="ssb-2" x="30.28" y="303.64" width="16.56" height="16.56"/><rect id="Rectangle_143" data-name="Rectangle 143" class="ssb-2" x="9.7" y="303.64" width="16.56" height="16.56"/><rect id="Rectangle_76" data-name="Rectangle 76" class="ssb-1" x="30.28" y="223.26" width="16.56" height="16.56"/><rect id="Rectangle_81" data-name="Rectangle 81" class="ssb-1" x="30.28" y="243.84" width="16.56" height="16.56"/><rect id="Rectangle_78" data-name="Rectangle 78" class="ssb-1" x="30.28" y="204.78" width="16.56" height="16.56"/><rect id="Rectangle_79" data-name="Rectangle 79" class="ssb-1" x="9.7" y="204.78" width="16.56" height="16.56"/><rect id="Rectangle_77" data-name="Rectangle 77" class="ssb-1" x="9.7" y="223.26" width="16.56" height="16.56"/><rect id="Rectangle_80" data-name="Rectangle 80" class="ssb-1" x="9.7" y="243.84" width="16.56" height="16.56"/><rect id="Rectangle_67" data-name="Rectangle 67" class="ssb-1" x="209.68" y="243.84" width="16.56" height="16.56"/><rect id="Rectangle_65" data-name="Rectangle 65" class="ssb-1" x="228.16" y="223.26" width="16.56" height="16.56"/><rect id="Rectangle_66" data-name="Rectangle 66" class="ssb-1" x="228.16" y="243.84" width="16.56" height="16.56"/><rect id="Rectangle_63" data-name="Rectangle 63" class="ssb-1" x="228.16" y="204.78" width="16.56" height="16.56"/><rect id="Rectangle_45" data-name="Rectangle 45" class="ssb-1" x="48.77" y="85.18" width="16.56" height="16.56"/><rect id="Rectangle_182" data-name="Rectangle 182" class="ssb-2" x="48.77" y="103.83" width="16.56" height="16.56"/><rect id="Rectangle_179" data-name="Rectangle 179" class="ssb-2" x="30.28" y="85.18" width="16.56" height="16.56"/><rect id="Rectangle_181" data-name="Rectangle 181" class="ssb-2" x="30.28" y="103.83" width="16.56" height="16.56"/><rect id="Rectangle_46" data-name="Rectangle 46" class="ssb-1" x="48.77" y="64.6" width="16.56" height="16.56"/><rect id="Rectangle_180" data-name="Rectangle 180" class="ssb-2" x="30.28" y="64.6" width="16.56" height="16.56"/><rect id="Rectangle_27" data-name="Rectangle 27" class="ssb-1" x="108.56" y="64.6" width="16.56" height="16.56"/><rect id="Rectangle_28" data-name="Rectangle 28" class="ssb-1" x="129.3" y="64.6" width="16.56" height="16.56"/><rect id="Rectangle_29" data-name="Rectangle 29" class="ssb-1" x="149.88" y="64.6" width="16.56" height="16.56"/><rect id="Rectangle_160" data-name="Rectangle 160" x="168.36" y="64.6" width="16.56" height="16.56"/><rect id="Rectangle_30" data-name="Rectangle 30" class="ssb-1" x="149.88" y="44.03" width="16.56" height="16.56"/><rect id="Rectangle_159" data-name="Rectangle 159" x="168.36" y="44.03" width="16.56" height="16.56"/><rect id="Rectangle_153" data-name="Rectangle 153" class="ssb-3" x="149.88" y="25.38" width="16.56" height="16.56"/><rect id="Rectangle_162" data-name="Rectangle 162" class="ssb-3" x="209.68" y="25.38" width="16.56" height="16.56"/><rect id="Rectangle_157" data-name="Rectangle 157" class="ssb-3" x="168.36" y="25.38" width="16.56" height="16.56"/><rect id="Rectangle_161" data-name="Rectangle 161" class="ssb-3" x="228.16" y="25.38" width="16.56" height="16.56"/><rect id="Rectangle_156" data-name="Rectangle 156" class="ssb-3" x="149.88" y="4.8" width="16.56" height="16.56"/><rect id="Rectangle_158" data-name="Rectangle 158" class="ssb-3" x="168.36" y="4.8" width="16.56" height="16.56"/><rect id="Rectangle_31" data-name="Rectangle 31" class="ssb-1" x="129.3" y="44.03" width="16.56" height="16.56"/><rect id="Rectangle_152" data-name="Rectangle 152" class="ssb-3" x="129.3" y="25.38" width="16.56" height="16.56"/><rect id="Rectangle_163" data-name="Rectangle 163" class="ssb-3" x="188.94" y="25.38" width="16.56" height="16.56"/><rect id="Rectangle_155" data-name="Rectangle 155" class="ssb-3" x="129.3" y="4.8" width="16.56" height="16.56"/><rect id="Rectangle_32" data-name="Rectangle 32" class="ssb-1" x="108.56" y="44.03" width="16.56" height="16.56"/><rect id="Rectangle_171" data-name="Rectangle 171" class="ssb-2" x="90.08" y="44.03" width="16.56" height="16.56"/><rect id="Rectangle_174" data-name="Rectangle 174" class="ssb-2" x="69.5" y="44.03" width="16.56" height="16.56"/><rect id="Rectangle_177" data-name="Rectangle 177" class="ssb-2" x="69.5" y="85.18" width="16.56" height="16.56"/><rect id="Rectangle_176" data-name="Rectangle 176" class="ssb-2" x="48.77" y="44.03" width="16.56" height="16.56"/><rect id="Rectangle_151" data-name="Rectangle 151" class="ssb-3" x="108.56" y="25.38" width="16.56" height="16.56"/><rect id="Rectangle_169" data-name="Rectangle 169" class="ssb-3" x="90.08" y="25.38" width="16.56" height="16.56"/><rect id="Rectangle_172" data-name="Rectangle 172" class="ssb-3" x="69.5" y="25.38" width="16.56" height="16.56"/><rect id="Rectangle_178" data-name="Rectangle 178" class="ssb-2" x="69.5" y="64.6" width="16.56" height="16.56"/><rect id="Rectangle_175" data-name="Rectangle 175" class="ssb-3" x="48.77" y="25.38" width="16.56" height="16.56"/><rect id="Rectangle_154" data-name="Rectangle 154" class="ssb-3" x="108.56" y="4.8" width="16.56" height="16.56"/><rect id="Rectangle_170" data-name="Rectangle 170" class="ssb-3" x="90.08" y="4.8" width="16.56" height="16.56"/><rect id="Rectangle_173" data-name="Rectangle 173" class="ssb-3" x="69.5" y="4.8" width="16.56" height="16.56"/><rect id="Rectangle_33" data-name="Rectangle 33" class="ssb-1" x="90.08" y="64.6" width="16.56" height="16.56"/></svg>