<svg id="Layer_1" data-name="Layer 1" xmlns="http://www.w3.org/2000/svg" viewBox="0 0 275 325"><defs><style>.tet-1{fill:#fa452f;}.tet-2{fill:#e1db54;}.tet-3{fill:#8d29d6;}.tet-4{fill:#29d655;}.tet-5{fill:#3bd7f7;}</style></defs><title>tetris-vector</title><rect id="Rectangle_8" data-name="Rectangle 8" class="tet-1" x="122.32" y="289.63" width="30.43" height="30.43"/><rect id="Rectangle_188" data-name="Rectangle 188" class="tet-2" x="15.58" y="289.63" width="30.43" height="30.43"/><rect id="Rectangle_189" data-name="Rectangle 189" class="tet-2" x="51.18" y="254.03" width="30.43" height="30.43"/><rect id="Rectangle_190" data-name="Rectangle 190" class="tet-2" x="15.58" y="254.03" width="30.43" height="30.43"/><rect id="Rectangle_191" data-name="Rectangle 191" class="tet-2" x="51.18" y="218.43" width="30.43" height="30.43"/><rect id="Rectangle_14" data-name="Rectangle 14" class="tet-3" x="51.15" y="289.63" width="30.43" height="30.43"/><rect id="Rectangle_15" data-name="Rectangle 15" class="tet-3" x="86.75" y="218.43" width="30.43" height="30.43"/><rect id="Rectangle_16" data-name="Rectangle 16" class="tet-4" x="228.99" y="218.43" width="30.43" height="30.43"/><rect id="Rectangle_19" data-name="Rectangle 19" class="tet-4" x="228.99" y="182.95" width="30.43" height="30.43"/><rect id="Rectangle_9" data-name="Rectangle 9" class="tet-1" x="157.92" y="289.63" width="30.43" height="30.43"/><rect id="Rectangle_12" data-name="Rectangle 12" class="tet-3" x="86.75" y="289.63" width="30.43" height="30.43"/><rect id="Rectangle_17" data-name="Rectangle 17" class="tet-4" x="228.99" y="289.63" width="30.43" height="30.43"/><rect id="Rectangle_10" data-name="Rectangle 10" class="tet-1" x="193.52" y="289.63" width="30.43" height="30.43"/><rect id="Rectangle_13" data-name="Rectangle 13" class="tet-3" x="86.75" y="254.03" width="30.43" height="30.43"/><rect id="Rectangle_18" data-name="Rectangle 18" class="tet-4" x="228.99" y="254.03" width="30.43" height="30.43"/><rect id="Rectangle_16-2" data-name="Rectangle 16" class="tet-4" x="15.58" y="40.43" width="30.43" height="30.43"/><rect id="Rectangle_19-2" data-name="Rectangle 19" class="tet-4" x="15.58" y="4.95" width="30.43" height="30.43"/><rect id="Rectangle_17-2" data-name="Rectangle 17" class="tet-4" x="15.58" y="111.63" width="30.43" height="30.43"/><rect id="Rectangle_18-2" data-name="Rectangle 18" class="tet-4" x="15.58" y="76.03" width="30.43" height="30.43"/><rect id="Rectangle_11" data-name="Rectangle 11" class="tet-1" x="193.52" y="254.03" width="30.43" height="30.43"/><rect id="Rectangle_8-2" data-name="Rectangle 8" class="tet-1" x="122.35" y="254.03" width="30.43" height="30.43"/><rect id="Rectangle_9-2" data-name="Rectangle 9" class="tet-1" x="122.35" y="218.43" width="30.43" height="30.43"/><rect id="Rectangle_10-2" data-name="Rectangle 10" class="tet-1" x="122.35" y="182.83" width="30.43" height="30.43"/><rect id="Rectangle_11-2" data-name="Rectangle 11" class="tet-1" x="86.75" y="182.83" width="30.43" height="30.43"/><rect id="Rectangle_192" data-name="Rectangle 192" class="tet-5" x="193.52" y="218.43" width="30.43" height="30.43"/><rect id="Rectangle_198" data-name="Rectangle 198" class="tet-2" x="228.99" y="147.35" width="30.43" height="30.43"/><rect id="Rectangle_193" data-name="Rectangle 193" class="tet-5" x="157.92" y="218.43" width="30.43" height="30.43"/><rect id="Rectangle_196" data-name="Rectangle 196" class="tet-2" x="193.52" y="147.35" width="30.43" height="30.43"/><rect id="Rectangle_195" data-name="Rectangle 195" class="tet-5" x="157.92" y="182.95" width="30.43" height="30.43"/><rect id="Rectangle_197" data-name="Rectangle 197" class="tet-2" x="228.99" y="111.75" width="30.43" height="30.43"/><rect id="Rectangle_194" data-name="Rectangle 194" class="tet-5" x="157.92" y="254.03" width="30.43" height="30.43"/><rect id="Rectangle_199" data-name="Rectangle 199" class="tet-2" x="193.52" y="182.95" width="30.43" height="30.43"/></svg>