<svg id="svg5307" xmlns="http://www.w3.org/2000/svg" viewBox="0 0 850.39 850.39"><title>Artboard 1</title><g id="layer1"><g id="g5880"><g id="g4684"><path id="path4868-0-2-4-8-4-0" d="M306.63,268.47a90,90,0,0,0-15.31,1.23c18.08,93.76,96.47,160.38,120.42,178.83a95.35,95.35,0,0,0-9,10.57C365.47,507.49,136,411.72,57.1,467.27c-83.33,58.66,37.07,80.76,61.78,94.45,74.91,41.49,112.31,117.93,175.62,116.91s82.7-48.5,110.27-74c0,0,1,64.64,21.06,64.64s21.06-64.64,21.06-64.64c27.57,25.53,47,73,110.27,74s100.71-75.42,175.62-116.91c24.71-13.69,145.11-35.79,61.78-94.45-78.91-55.55-308.37,40.22-345.63-8.17a96.59,96.59,0,0,0-9-10.57c23.94-18.45,102.33-85.06,120.41-178.83-101.05-16.6-127.15,140-131.61,173.89-.9-.06-1.85-.08-2.9-.08s-2,0-2.9.08c-4.22-32.13-27.87-174.37-116.3-175.11Z" style="fill:#40e0d0"/><path id="path4504-6-9-7-7" d="M425.83,54.43c-204.6,0-370.47,165.86-370.47,370.47q.06,13.22,1.06,26.39a119.37,119.37,0,0,1,14.26-6.46c51.11-15.37,103.93-9.5,156.21-1.3A289.55,289.55,0,0,1,214,359.17C214,199.26,343.6,69.63,503.51,69.63a289.58,289.58,0,0,1,34.32,2.27,370.14,370.14,0,0,0-112-17.47ZM792.32,373.6a289.13,289.13,0,0,1-12.81,71c3.76,1.32,7.49,2.78,11.19,4.41,1.45.72,2.93,1.49,4.41,2.3q1.07-13.17,1.19-26.38a368.42,368.42,0,0,0-4-51.3ZM769.75,562c-10.91,3.92-21.65,7.91-31,13.25-59.92,28.32-94,97.75-160.72,115.16-43.5,10.75-86.25-12.19-114.4-44.52q-3.4-.5-6.81-1.06c-2.62,15.39-9.1,31.66-24.62,37.52-25.27,5.51-36.91-24-38.45-44.23C367.12,676.51,317.9,701.59,271.08,690c-67.45-21.06-103.33-91.56-167-119.65-6.76-2.9-14.21-5.49-21.85-8.15A369.91,369.91,0,0,0,769.75,562Z" style="fill:#40e0d0"/></g></g></g></svg>