<?xml version="1.0" encoding="UTF-8" standalone="no"?>
<!-- Created with Inkscape (http://www.inkscape.org/) -->

<svg
   xmlns:dc="http://purl.org/dc/elements/1.1/"
   xmlns:cc="http://creativecommons.org/ns#"
   xmlns:rdf="http://www.w3.org/1999/02/22-rdf-syntax-ns#"
   xmlns:svg="http://www.w3.org/2000/svg"
   xmlns="http://www.w3.org/2000/svg"
   xmlns:sodipodi="http://sodipodi.sourceforge.net/DTD/sodipodi-0.dtd"
   xmlns:inkscape="http://www.inkscape.org/namespaces/inkscape"
   width="300mm"
   height="300mm"
   viewBox="0 0 300 300"
   version="1.1"
   id="svg1106"
   inkscape:version="0.92.2 (5c3e80d, 2017-08-06)"
   sodipodi:docname="QdN-V.1.1.svg">
  <defs
     id="defs1100" />
  <sodipodi:namedview
     id="base"
     pagecolor="#ffffff"
     bordercolor="#666666"
     borderopacity="1.0"
     inkscape:pageopacity="0.0"
     inkscape:pageshadow="2"
     inkscape:zoom="0.24748737"
     inkscape:cx="594.93713"
     inkscape:cy="693.73181"
     inkscape:document-units="mm"
     inkscape:current-layer="g1675"
     showgrid="false"
     inkscape:window-width="784"
     inkscape:window-height="821"
     inkscape:window-x="0"
     inkscape:window-y="0"
     inkscape:window-maximized="0" />
  <metadata
     id="metadata1103">
    <rdf:RDF>
      <cc:Work
         rdf:about="">
        <dc:format>image/svg+xml</dc:format>
        <dc:type
           rdf:resource="http://purl.org/dc/dcmitype/StillImage" />
        <dc:title></dc:title>
      </cc:Work>
    </rdf:RDF>
  </metadata>
  <g
     inkscape:label="Layer 1"
     inkscape:groupmode="layer"
     id="layer1"
     transform="translate(0,3)">
    <g
       transform="matrix(7.1419568,0,0,7.1419568,-2596.0305,-2460.9458)"
       id="g1675">
      <g
         id="g2931">
        <path
           style="opacity:1;fill:#080808;fill-opacity:1;stroke:none;stroke-width:0.26038596;stroke-linecap:butt;stroke-linejoin:miter;stroke-miterlimit:4;stroke-dasharray:none;stroke-opacity:1"
           d="m 384.48015,346.26185 a 18.896578,18.896578 0 0 0 -18.89663,18.89654 18.896578,18.896578 0 0 0 0.0859,1.65462 c -0.9018,0.63063 -1.61044,1.54602 -1.45869,2.66532 0.3594,1.19048 1.42651,1.75325 2.53956,2.17393 a 18.896578,18.896578 0 0 0 17.72983,12.40276 18.896578,18.896578 0 0 0 17.71359,-12.38375 c 1.24228,-0.48775 2.72451,-1.29916 2.59347,-2.81029 -0.2563,-0.88257 -0.79871,-1.5558 -1.49315,-2.05057 a 18.896578,18.896578 0 0 0 0.0826,-1.65202 18.896578,18.896578 0 0 0 -18.89653,-18.89654 z"
           id="path4868-0-2-4-31-4"
           inkscape:connector-curvature="0" />
        <path
           inkscape:connector-curvature="0"
           id="path4868-0-2-4-8-4"
           d="m 378.60775,357.43576 c -0.24205,-0.002 -0.49389,0.0174 -0.75597,0.0605 0.89288,4.62919 4.763,7.91798 5.94513,8.82893 -0.11977,0.11413 -0.25794,0.27932 -0.44463,0.52181 -1.83951,2.38924 -13.16821,-2.33914 -17.06378,0.40328 -4.11402,2.89619 1.83014,3.98734 3.04984,4.66293 3.69863,2.04868 5.5451,5.82232 8.67052,5.77191 3.12541,-0.0504 4.08315,-2.39448 5.44423,-3.65473 0,0 0.0479,3.19126 1.03967,3.19125 0.99182,-3e-5 1.03973,-3.19125 1.03973,-3.19125 1.36106,1.26025 2.31886,3.60432 5.44427,3.65473 3.12542,0.0504 4.97189,-3.72323 8.67052,-5.77191 1.2197,-0.67559 7.16382,-1.76674 3.0498,-4.66293 -3.89557,-2.74242 -15.22428,1.98596 -17.06379,-0.40328 -0.1867,-0.2425 -0.32485,-0.40768 -0.44463,-0.52181 1.18209,-0.91091 5.0523,-4.19969 5.94518,-8.82893 -4.98932,-0.81946 -6.27788,6.9108 -6.49764,8.58525 -0.0446,-0.003 -0.0917,-0.004 -0.14338,-0.004 -0.0517,0 -0.0989,9e-4 -0.14345,0.004 -0.20821,-1.58649 -1.37577,-8.60873 -5.74162,-8.64567 z"
           style="fill:#40e0d0;fill-opacity:1;stroke:none;stroke-width:0.26038596;stroke-linecap:butt;stroke-linejoin:miter;stroke-miterlimit:4;stroke-dasharray:none;stroke-opacity:1" />
        <path
           inkscape:connector-curvature="0"
           style="opacity:1;fill:#40e0d0;fill-opacity:1;fill-rule:nonzero;stroke:none;stroke-width:0.20498483;stroke-linecap:round;stroke-linejoin:round;stroke-miterlimit:4;stroke-dasharray:none;stroke-dashoffset:18.89763832;stroke-opacity:1"
           d="m 384.49272,346.86825 c -10.10136,2e-5 -18.29012,8.18879 -18.29014,18.29014 0.002,0.43494 0.0193,0.86961 0.052,1.30324 0.23445,-0.12505 0.47236,-0.23211 0.70419,-0.31908 2.52326,-0.75874 5.13092,-0.46897 7.71233,-0.0643 -0.4168,-1.34857 -0.63245,-2.75193 -0.63798,-4.16485 1e-5,-7.8947 6.39995,-14.2946 14.29464,-14.29455 0.56663,0.004 1.13253,0.041 1.69472,0.11186 -1.78811,-0.56947 -3.6532,-0.86035 -5.5298,-0.86244 z m 18.09395,15.7574 c -0.0638,1.19032 -0.27657,2.36743 -0.63234,3.50425 0.18553,0.0648 0.36967,0.13678 0.55223,0.21736 0.0718,0.0355 0.1447,0.0735 0.21798,0.11365 0.0349,-0.4333 0.0544,-0.86776 0.0584,-1.30252 -0.006,-0.84778 -0.0722,-1.69406 -0.19627,-2.53274 z m -1.11451,9.29967 c -0.53873,0.1937 -1.06877,0.3907 -1.52938,0.65431 -2.95832,1.39805 -4.63973,4.82573 -7.93499,5.68508 -2.14741,0.53077 -4.25802,-0.60165 -5.64767,-2.19778 -0.11226,-0.0163 -0.22429,-0.0337 -0.33613,-0.0525 -0.12979,0.76008 -0.44954,1.56314 -1.21551,1.85269 -1.24765,0.27215 -1.82233,-1.1845 -1.89862,-2.18353 -1.31541,1.89696 -3.74549,3.13545 -6.057,2.56181 -3.33034,-1.03975 -5.10175,-4.52056 -8.24527,-5.90746 -0.33336,-0.14321 -0.7014,-0.27113 -1.07844,-0.40232 2.76345,6.93007 9.47374,11.50319 16.96357,11.51306 7.49795,-0.005 14.21703,-4.58372 16.97944,-11.52329 z"
           id="path4504-6-9-7" />
      </g>
    </g>
  </g>
</svg>
