<?xml version="1.0" encoding="UTF-8" standalone="no"?>
<!-- Created with Inkscape (http://www.inkscape.org/) -->

<svg
   xmlns:dc="http://purl.org/dc/elements/1.1/"
   xmlns:cc="http://creativecommons.org/ns#"
   xmlns:rdf="http://www.w3.org/1999/02/22-rdf-syntax-ns#"
   xmlns:svg="http://www.w3.org/2000/svg"
   xmlns="http://www.w3.org/2000/svg"
   xmlns:sodipodi="http://sodipodi.sourceforge.net/DTD/sodipodi-0.dtd"
   xmlns:inkscape="http://www.inkscape.org/namespaces/inkscape"
   width="300mm"
   height="300mm"
   viewBox="0 0 300 300"
   version="1.1"
   id="svg2325"
   inkscape:version="0.92.2 (5c3e80d, 2017-08-06)"
   sodipodi:docname="QdN-V.1.3.svg">
  <defs
     id="defs2319" />
  <sodipodi:namedview
     id="base"
     pagecolor="#ffffff"
     bordercolor="#666666"
     borderopacity="1.0"
     inkscape:pageopacity="0.0"
     inkscape:pageshadow="2"
     inkscape:zoom="0.24748737"
     inkscape:cx="532.65051"
     inkscape:cy="806.53247"
     inkscape:document-units="mm"
     inkscape:current-layer="layer1"
     showgrid="false"
     inkscape:window-width="784"
     inkscape:window-height="821"
     inkscape:window-x="0"
     inkscape:window-y="0"
     inkscape:window-maximized="0" />
  <metadata
     id="metadata2322">
    <rdf:RDF>
      <cc:Work
         rdf:about="">
        <dc:format>image/svg+xml</dc:format>
        <dc:type
           rdf:resource="http://purl.org/dc/dcmitype/StillImage" />
        <dc:title></dc:title>
      </cc:Work>
    </rdf:RDF>
  </metadata>
  <g
     inkscape:label="Layer 1"
     inkscape:groupmode="layer"
     id="layer1"
     transform="translate(0,3)">
    <g
       id="g2946">
      <path
         style="fill:#080808;fill-opacity:1;stroke:none;stroke-width:1.8596648;stroke-linecap:butt;stroke-linejoin:miter;stroke-miterlimit:4;stroke-dasharray:none;stroke-opacity:1"
         d="m 107.96903,91.845102 c -1.72864,-0.01428 -3.52734,0.123556 -5.39917,0.431374 6.37705,33.061534 34.01713,56.549854 42.45999,63.055824 -0.85539,0.81511 -1.84227,1.99496 -3.17553,3.72674 -13.13769,17.06385 -94.046832,-16.7061 -121.868889,2.88014 -29.3821463,20.6846 13.070778,28.47747 21.78182,33.30258 26.415592,14.63143 39.602855,41.58275 61.924469,41.22279 22.32161,-0.35995 29.16174,-17.10134 38.88251,-26.10199 0,0 0.3421,22.79177 7.42521,22.79169 7.0836,-7e-5 7.42577,-22.79169 7.42577,-22.79169 9.72063,9.00065 16.5612,25.74182 38.88274,26.10199 22.32161,0.35996 35.50901,-26.59136 61.92446,-41.22279 8.71104,-4.82511 51.16368,-12.61798 21.78154,-33.30258 -27.82206,-19.58624 -108.73106,14.18371 -121.86875,-2.88014 -1.33341,-1.73192 -2.32021,-2.91163 -3.1756,-3.72674 8.44236,-6.50575 36.0833,-29.994 42.46028,-63.055824 -35.63357,-5.852475 -44.83641,49.356624 -46.40586,61.315394 -0.31853,-0.0214 -0.65491,-0.0286 -1.02415,-0.0286 -0.36924,0 -0.70634,0.006 -1.02437,0.0286 -1.4871,-11.33056 -9.82569,-61.483087 -41.00647,-61.746911 z"
         id="path4868-0-2-4-8-47-3"
         inkscape:connector-curvature="0" />
      <path
         id="path4504-6-9-2-52"
         d="M 149.9993,16.37242 C 77.855765,16.372563 19.371937,74.856248 19.371865,146.99971 c 0.01428,3.10625 0.13784,6.21078 0.371382,9.30768 1.674503,-0.8931 3.373574,-1.65772 5.029293,-2.27886 18.02101,-5.41881 36.644872,-3.34936 55.081115,-0.45922 -2.976695,-9.63136 -4.516787,-19.65416 -4.556424,-29.74518 7.1e-5,-56.383589 45.708299,-102.091387 102.091749,-102.091101 4.04692,0.02857 8.08855,0.293534 12.10368,0.798899 -12.7706,-4.066987 -26.09113,-6.144438 -39.49358,-6.159365 z m 129.2261,112.53857 c -0.45565,8.50121 -1.97525,16.90808 -4.51621,25.0272 1.32519,0.4628 2.64031,0.97687 3.944,1.5523 0.51279,0.25354 1.03351,0.52494 1.55687,0.81176 0.24926,-3.09461 0.38853,-6.19743 0.41709,-9.30254 -0.0428,-6.05474 -0.51565,-12.09897 -1.40182,-18.08872 z m -7.95971,66.41783 c -3.84772,1.38339 -7.6331,2.79036 -10.9229,4.67305 -21.12819,9.98488 -33.13667,34.46508 -56.6712,40.60266 -15.33678,3.79073 -30.41066,-4.29703 -40.33548,-15.69645 -0.80168,-0.1157 -1.60187,-0.24068 -2.40062,-0.37495 -0.92696,5.42838 -3.2106,11.16395 -8.68105,13.23176 -8.91066,1.94375 -13.01514,-8.45965 -13.55986,-15.59453 -9.3946,13.54786 -26.75019,22.39317 -43.258893,18.29633 -23.785139,-7.42606 -36.436469,-32.28578 -58.88742,-42.19096 -2.38077,-1.0228 -5.009367,-1.9364 -7.70217,-2.87342 19.736508,49.49439 67.661169,82.15548 121.153203,82.22583 53.54995,-0.0357 101.53724,-32.7368 121.26639,-82.29882 z"
         style="opacity:1;fill:#fafafa;fill-opacity:1;fill-rule:nonzero;stroke:none;stroke-width:1.46399248;stroke-linecap:round;stroke-linejoin:round;stroke-miterlimit:4;stroke-dasharray:none;stroke-dashoffset:18.89763832;stroke-opacity:1"
         inkscape:connector-curvature="0" />
    </g>
  </g>
</svg>
