<svg id="Layer_1" data-name="Layer 1" xmlns="http://www.w3.org/2000/svg" viewBox="0 0 731 389"><defs><style>.cls-1,.cls-2,.cls-3{stroke:#000;stroke-miterlimit:10;}.cls-2{fill:#fff;}.cls-3{fill:none;}</style></defs><title>Logo fond noir</title><rect class="cls-1" x="0.5" y="0.5" width="730" height="388"/><polyline class="cls-2" points="365.87 100.17 678.48 198.06 696.6 265.67 696.6 265.79 367.7 368.17 367 368.17 38.11 265.79 38.11 265.67 56.23 198.06 365.52 100.06"/><polygon class="cls-1" points="256.89 211.34 297.94 211.34 297.94 252.39 256.89 252.39 256.89 293.44 215.85 293.44 215.85 252.39 174.8 252.39 174.8 211.34 215.85 211.34 215.85 170.29 256.89 170.29 256.89 211.34"/><line class="cls-3" x1="365.17" y1="100.17" x2="365.87" y2="100.17"/><path class="cls-3" d="M962.57,99.8" transform="translate(0.5 0.5)"/><path class="cls-3" d="M302,22.25" transform="translate(0.5 0.5)"/><path class="cls-3" d="M302,92.25" transform="translate(0.5 0.5)"/><path class="cls-3" d="M365.37,99.27" transform="translate(0.5 0.5)"/><path class="cls-3" d="M365.37,99.56" transform="translate(0.5 0.5)"/><polyline class="cls-2" points="365.52 99.77 318.69 39.62 236.37 15.63 283.2 76.3 365.66 99.81"/><circle class="cls-1" cx="496.5" cy="192.9" r="19.48"/><circle class="cls-1" cx="457.53" cy="231.86" r="19.48"/><circle class="cls-1" cx="535.47" cy="231.86" r="19.48"/><circle class="cls-1" cx="496.5" cy="270.83" r="19.48"/><path class="cls-3" d="M428.78,22.25" transform="translate(0.5 0.5)"/><path class="cls-3" d="M428.78,92.25" transform="translate(0.5 0.5)"/><path class="cls-3" d="M365.37,99.27" transform="translate(0.5 0.5)"/><polyline class="cls-2" points="366.22 99.77 413.05 39.62 495.37 15.63 448.54 76.3 366.08 99.81"/></svg>