<?xml version="1.0" encoding="UTF-8" standalone="no"?>
<!-- Created with Inkscape (http://www.inkscape.org/) -->

<svg
   xmlns:dc="http://purl.org/dc/elements/1.1/"
   xmlns:cc="http://creativecommons.org/ns#"
   xmlns:rdf="http://www.w3.org/1999/02/22-rdf-syntax-ns#"
   xmlns:svg="http://www.w3.org/2000/svg"
   xmlns="http://www.w3.org/2000/svg"
   xmlns:sodipodi="http://sodipodi.sourceforge.net/DTD/sodipodi-0.dtd"
   xmlns:inkscape="http://www.inkscape.org/namespaces/inkscape"
   width="300mm"
   height="300mm"
   viewBox="0 0 300 300"
   version="1.1"
   id="svg5307"
   inkscape:version="0.92.2 (5c3e80d, 2017-08-06)"
   sodipodi:docname="QdN-V.1.4.svg">
  <defs
     id="defs5301" />
  <sodipodi:namedview
     id="base"
     pagecolor="#ffffff"
     bordercolor="#666666"
     borderopacity="1.0"
     inkscape:pageopacity="0.0"
     inkscape:pageshadow="2"
     inkscape:zoom="0.35"
     inkscape:cx="400"
     inkscape:cy="560"
     inkscape:document-units="mm"
     inkscape:current-layer="layer1"
     showgrid="false"
     inkscape:window-width="1600"
     inkscape:window-height="837"
     inkscape:window-x="-8"
     inkscape:window-y="-8"
     inkscape:window-maximized="1" />
  <metadata
     id="metadata5304">
    <rdf:RDF>
      <cc:Work
         rdf:about="">
        <dc:format>image/svg+xml</dc:format>
        <dc:type
           rdf:resource="http://purl.org/dc/dcmitype/StillImage" />
        <dc:title></dc:title>
      </cc:Work>
    </rdf:RDF>
  </metadata>
  <g
     inkscape:label="Layer 1"
     inkscape:groupmode="layer"
     id="layer1"
     transform="translate(0,3)">
    <g
       id="g5880"
       transform="matrix(1.2019195,0,0,1.2019195,-8.0953371,-32.794282)">
      <path
         sodipodi:nodetypes="cccccccccccccccccccccccccccccccccsc"
         inkscape:connector-curvature="0"
         id="path4868-0-2-4-8-4-0-0"
         d="m 130.13016,36.761861 c -0.69551,0.0034 -1.39103,0.01249 -2.08618,0.02687 -53.856524,0.683871 -103.13783,45.546243 -108.292093,99.291619 -0.792565,7.45881 -0.952987,16.83635 0.316777,23.18246 -5.605917,3.57919 -9.61667,8.65249 -9.133956,15.56962 1.925344,7.83462 5.531863,10.71376 15.692678,13.53124 0.559541,3.73297 2.236962,8.28392 4.19566,10.92316 23.129156,50.17605 87.319204,76.46311 138.901074,56.33506 30.23624,-11.07712 57.05618,-35.48341 66.77267,-66.68068 l 0.1664,-0.68575 c 7.58825,-2.53266 17.91489,-9.03883 15.01148,-18.32601 -1.66187,-4.68116 -4.25836,-8.06097 -8.08162,-10.65124 0.34689,-2.6794 0.62058,-5.71624 0.62058,-5.71624 -0.29008,-9.13937 0.0907,-19.38953 -2.90419,-22.74854 -0.79831,-0.62676 -2.18948,-0.54668 -2.18948,-0.54668 -3.97788,1.12373 -2.80189,5.24654 -4.86031,13.43307 -0.55646,2.97312 -1.83333,6.3618 -2.97579,10.11216 -4.52828,-1.16846 -8.3614,-1.05745 -12.71052,-1.08407 -24.40954,-0.98049 -53.65391,8.83366 -72.45501,6.38101 -5.69532,-1.36824 -4.67436,-2.89015 0.81567,-7.39217 13.78009,-13.54283 26.53456,-30.59536 28.34999,-50.27564 -1.58755,-2.052415 -9.21531,-1.731321 -13.55628,-1.37872 -15.27711,3.35756 -23.73857,18.46663 -28.23652,32.17943 -3.35984,3.2065 -4.90324,-2.62162 -5.42395,-5.02709 -5.21076,-14.25008 -17.08495,-28.847522 -33.798454,-27.765741 -4.525915,0.435263 -8.2453,0.139951 -5.955266,7.621901 5.34787,18.07135 16.89795,35.01243 31.039,47.9406 4.94514,3.60833 -2.37903,5.41746 -8.34781,4.73615 C 99.478075,159.50443 88.777639,157.3814 77.275816,155.53239 75.7538,150.06381 74.563244,144.93262 74.028161,139.38247 68.103487,96.860256 102.1877,53.207747 145.22949,49.76003 c 7.24621,-1.07411 19.72234,0.760754 22.01158,-1.166852 2.94083,-4.016142 -0.4567,-6.428886 -6.14846,-7.923549 -10.07054,-2.759948 -20.5298,-3.958494 -30.96245,-3.907771 z"
         style="opacity:1;fill:#080808;fill-opacity:1;stroke:none;stroke-width:1.54801702;stroke-linecap:butt;stroke-linejoin:miter;stroke-miterlimit:4;stroke-dasharray:none;stroke-opacity:1" />
      <g
         transform="translate(-18.713245,15.787153)"
         id="g4684">
        <path
           inkscape:connector-curvature="0"
           id="path4868-0-2-4-8-4-0"
           d="m 115.4478,87.80231 c -1.43901,-0.01186 -2.93623,0.10344 -4.49431,0.359671 5.30825,27.520929 28.31644,47.073079 35.34431,52.488749 -0.71203,0.67851 -1.53347,1.66059 -2.64335,3.10221 -10.93606,14.20424 -78.286158,-13.90639 -101.445657,2.39754 -24.458205,17.2181 10.880341,23.70508 18.131563,27.72152 21.98868,12.17958 32.966104,34.61419 51.546994,34.3145 18.58083,-0.29963 24.27468,-14.23539 32.36642,-21.72769 0,0 0.28477,18.97233 6.18092,18.97227 5.89647,-1.8e-4 6.18129,-18.97227 6.18129,-18.97227 8.09161,7.4923 13.78582,21.428 32.36665,21.72769 18.58089,0.29963 29.55832,-22.13492 51.547,-34.3145 7.25123,-4.01644 42.58953,-10.50342 18.13133,-27.72152 -23.15951,-16.30393 -90.50967,11.8067 -101.44571,-2.39754 -1.10995,-1.44168 -1.93126,-2.4237 -2.64337,-3.10221 7.02763,-5.41543 30.03637,-24.96752 35.34461,-52.488749 -29.66194,-4.871757 -37.32254,41.085299 -38.62903,51.040059 -0.26515,-0.0178 -0.54516,-0.0238 -0.85241,-0.0238 -0.30736,0 -0.58797,0.005 -0.85283,0.0238 -1.23782,-9.43183 -8.17907,-51.179646 -34.13442,-51.39926 z"
           style="fill:#40e0d0;fill-opacity:1;stroke:none;stroke-width:1.54801702;stroke-linecap:butt;stroke-linejoin:miter;stroke-miterlimit:4;stroke-dasharray:none;stroke-opacity:1" />
        <path
           inkscape:connector-curvature="0"
           style="opacity:1;fill:#40e0d0;fill-opacity:1;fill-rule:nonzero;stroke:none;stroke-width:1.21865261;stroke-linecap:round;stroke-linejoin:round;stroke-miterlimit:4;stroke-dasharray:none;stroke-dashoffset:18.89763832;stroke-opacity:1"
           d="M 150.43445,24.97754 C 90.381002,24.977659 41.698106,73.660613 41.697988,133.71401 c 0.01185,2.58575 0.114744,5.1699 0.309146,7.74787 1.393823,-0.74343 2.808225,-1.37991 4.186473,-1.89696 15.000996,-4.51077 30.503767,-2.78806 45.850467,-0.38227 -2.47791,-8.01735 -3.759966,-16.36046 -3.792841,-24.76038 5.9e-5,-46.934677 38.048257,-84.982641 84.982867,-84.982347 3.36866,0.0238 6.733,0.243751 10.07526,0.665017 -10.63047,-3.385544 -21.71859,-5.114852 -32.87515,-5.127281 z m 107.57011,93.6791 c -0.3793,7.07656 -1.64423,14.07459 -3.75932,20.83308 1.103,0.38523 2.19772,0.81317 3.28305,1.29223 0.42686,0.21105 0.86026,0.43696 1.29592,0.67565 0.20748,-2.57601 0.32341,-5.15891 0.34719,-7.74359 -0.0357,-5.04012 -0.42924,-10.07134 -1.16684,-15.05737 z M 251.3787,173.944 c -3.20279,1.15156 -6.35393,2.32273 -9.0923,3.88992 -17.58747,8.31153 -27.5836,28.68938 -47.1742,33.7983 -12.76654,3.15547 -25.3143,-3.57687 -33.5759,-13.06599 -0.66739,-0.0969 -1.33341,-0.20035 -1.99832,-0.31212 -0.7716,4.51874 -2.67254,9.293 -7.2263,11.0144 -7.41739,1.61796 -10.83392,-7.04195 -11.28747,-12.98127 -7.82023,11.27758 -22.26725,18.64052 -36.00938,15.23017 -19.799165,-6.1814 -30.330345,-26.87511 -49.018849,-35.12035 -1.981848,-0.8514 -4.16988,-1.6119 -6.411415,-2.39183 16.428946,41.19986 56.322204,68.38746 100.849884,68.44613 44.57597,-0.0297 84.52148,-27.25061 100.94425,-68.50695 z"
           id="path4504-6-9-7-7" />
      </g>
    </g>
  </g>
</svg>
