<svg id="Layer_1" data-name="Layer 1" xmlns="http://www.w3.org/2000/svg" viewBox="0 0 730 388"><defs><style>.cls-1{fill:none;stroke:#000;}.cls-1,.cls-2{stroke-miterlimit:10;}.cls-2{fill:#fff;stroke:#fff;}</style></defs><title>LogoWhiteFillEmptyBtns</title><line class="cls-1" x1="364.67" y1="99.67" x2="365.37" y2="99.67"/><polyline class="cls-2" points="365.02 99.27 318.19 39.12 235.87 15.13 282.7 75.8 365.16 99.31"/><path class="cls-2" d="M678,197.56,365.37,99.67l-.35-.11-309.29,98L37.61,265.17v.12L366.5,367.67h.7L696.1,265.29v-.12ZM297.44,251.89H256.39v41.05h-41V251.89h-41v-41h41V169.79h41v41.05h41.05Zm198.56-79a19.49,19.49,0,1,1-19.48,19.49A19.49,19.49,0,0,1,496,172.91Zm-39,77.94a19.49,19.49,0,1,1,19.49-19.49A19.48,19.48,0,0,1,457,250.85Zm39,39a19.49,19.49,0,1,1,19.48-19.49A19.49,19.49,0,0,1,496,289.82Zm39-39a19.49,19.49,0,1,1,19.48-19.49A19.49,19.49,0,0,1,535,250.85Z"/><polyline class="cls-2" points="365.72 99.27 412.55 39.12 494.87 15.13 448.04 75.8 365.58 99.31"/></svg>