<?xml version="1.0" encoding="UTF-8" standalone="no"?>
<!-- Created with Inkscape (http://www.inkscape.org/) -->

<svg
   xmlns:dc="http://purl.org/dc/elements/1.1/"
   xmlns:cc="http://creativecommons.org/ns#"
   xmlns:rdf="http://www.w3.org/1999/02/22-rdf-syntax-ns#"
   xmlns:svg="http://www.w3.org/2000/svg"
   xmlns="http://www.w3.org/2000/svg"
   xmlns:sodipodi="http://sodipodi.sourceforge.net/DTD/sodipodi-0.dtd"
   xmlns:inkscape="http://www.inkscape.org/namespaces/inkscape"
   width="300mm"
   height="300mm"
   viewBox="0 0 300 300"
   version="1.1"
   id="svg1750"
   inkscape:version="0.92.2 (5c3e80d, 2017-08-06)"
   sodipodi:docname="QdN-V.1.2.svg">
  <defs
     id="defs1744" />
  <sodipodi:namedview
     id="base"
     pagecolor="#ffffff"
     bordercolor="#666666"
     borderopacity="1.0"
     inkscape:pageopacity="0.0"
     inkscape:pageshadow="2"
     inkscape:zoom="0.24748737"
     inkscape:cx="521.22431"
     inkscape:cy="705.56648"
     inkscape:document-units="mm"
     inkscape:current-layer="layer1"
     showgrid="false"
     inkscape:window-width="784"
     inkscape:window-height="821"
     inkscape:window-x="0"
     inkscape:window-y="0"
     inkscape:window-maximized="0" />
  <metadata
     id="metadata1747">
    <rdf:RDF>
      <cc:Work
         rdf:about="">
        <dc:format>image/svg+xml</dc:format>
        <dc:type
           rdf:resource="http://purl.org/dc/dcmitype/StillImage" />
        <dc:title></dc:title>
      </cc:Work>
    </rdf:RDF>
  </metadata>
  <g
     inkscape:label="Layer 1"
     inkscape:groupmode="layer"
     id="layer1"
     transform="translate(0,3)">
    <g
       id="g2926">
      <path
         inkscape:connector-curvature="0"
         id="path4868-0-2-4-31-46"
         d="M 149.90942,12.041361 A 134.95852,134.95852 0 0 0 14.950531,146.99968 134.95852,134.95852 0 0 0 15.564739,158.8169 c -6.4406156,4.50393 -11.5016908,11.04168 -10.4178991,19.03567 2.5668902,8.50235 10.1880711,12.52156 18.1374241,15.52596 a 134.95852,134.95852 0 0 0 126.625656,88.5801 134.95852,134.95852 0 0 0 126.50967,-88.44418 c 8.8723,-3.48356 19.45832,-9.27862 18.52251,-20.07104 -1.83048,-6.30335 -5.70435,-11.11153 -10.66401,-14.64508 A 134.95852,134.95852 0 0 0 284.86802,146.99968 134.95852,134.95852 0 0 0 149.90985,12.041361 Z"
         style="opacity:1;fill:#40e0d0;fill-opacity:1;stroke:none;stroke-width:1.85966492;stroke-linecap:butt;stroke-linejoin:miter;stroke-miterlimit:4;stroke-dasharray:none;stroke-opacity:1" />
      <path
         style="fill:#fafafa;fill-opacity:1;stroke:none;stroke-width:1.85966492;stroke-linecap:butt;stroke-linejoin:miter;stroke-miterlimit:4;stroke-dasharray:none;stroke-opacity:1"
         d="m 107.96907,91.84507 c -1.72871,-0.01428 -3.52741,0.123555 -5.39917,0.431374 6.37698,33.061536 34.01713,56.549856 42.45992,63.055826 -0.85539,0.81511 -1.84227,1.99496 -3.17553,3.72674 -13.1377,17.06385 -94.046837,-16.7061 -121.868824,2.88014 -29.3821467,20.6846 13.070778,28.47747 21.781821,33.30258 26.415522,14.63144 39.602856,41.58268 61.924463,41.22272 22.32154,-0.35995 29.16168,-17.10134 38.88245,-26.10199 0,0 0.3421,22.79184 7.42528,22.79169 7.0836,-7e-5 7.4257,-22.79169 7.4257,-22.79169 9.7207,9.00065 16.5612,25.74189 38.88281,26.10199 22.32161,0.35996 35.50894,-26.59128 61.92446,-41.22272 8.71105,-4.82511 51.16361,-12.61798 21.78147,-33.30258 -27.82199,-19.58624 -108.73106,14.18371 -121.86876,-2.88014 -1.3334,-1.73192 -2.32013,-2.91163 -3.1756,-3.72674 8.44244,-6.50575 36.0833,-29.994 42.46029,-63.055826 -35.63358,-5.852476 -44.83641,49.356626 -46.40586,61.315396 -0.31853,-0.0214 -0.65492,-0.0286 -1.02408,-0.0286 -0.36924,0 -0.70634,0.006 -1.02445,0.0286 -1.48709,-11.33057 -9.82568,-61.483089 -41.00639,-61.746913 z"
         id="path4868-0-2-4-8-47"
         inkscape:connector-curvature="0" />
      <path
         id="path4504-6-9-2"
         d="M 149.99926,16.372385 C 77.855802,16.372528 19.371972,74.856215 19.371901,146.99968 c 0.01428,3.10625 0.13784,6.21078 0.371381,9.30768 1.674503,-0.8931 3.373575,-1.65772 5.029294,-2.27886 18.02101,-5.41881 36.644801,-3.34936 55.081116,-0.45922 -2.976695,-9.63136 -4.516858,-19.65417 -4.556425,-29.74518 7.2e-5,-56.383592 45.708233,-102.091391 102.091753,-102.091106 4.04684,0.02857 8.08848,0.293535 12.10361,0.798899 -12.7706,-4.066986 -26.09106,-6.144438 -39.49358,-6.159365 z M 279.22537,128.91096 c -0.45565,8.50121 -1.97518,16.90808 -4.51614,25.0272 1.32512,0.4628 2.64024,0.97687 3.944,1.5523 0.51279,0.25354 1.03344,0.52494 1.55688,0.81176 0.24925,-3.09461 0.38852,-6.19744 0.41709,-9.30254 -0.0429,-6.05474 -0.51565,-12.09898 -1.40183,-18.08872 z m -7.95971,66.41783 c -3.84765,1.38339 -7.6331,2.79036 -10.92283,4.67305 -21.12819,9.98481 -33.13674,34.46508 -56.67127,40.60259 -15.33678,3.79073 -30.41066,-4.29696 -40.33548,-15.69645 -0.80169,-0.1157 -1.60187,-0.24068 -2.40055,-0.37495 -0.92703,5.42846 -3.2106,11.16395 -8.68112,13.23183 -8.91066,1.94368 -13.01507,-8.45972 -13.55986,-15.5946 -9.3946,13.54786 -26.75012,22.39317 -43.258825,18.29633 -23.785211,-7.42599 -36.436542,-32.28571 -58.887422,-42.19089 -2.380842,-1.0228 -5.009367,-1.9364 -7.70217,-2.87342 19.736436,49.49432 67.661099,82.15541 121.153127,82.22583 53.55003,-0.0357 101.53732,-32.73679 121.2664,-82.29882 z"
         style="opacity:1;fill:#fafafa;fill-opacity:1;fill-rule:nonzero;stroke:none;stroke-width:1.46399248;stroke-linecap:round;stroke-linejoin:round;stroke-miterlimit:4;stroke-dasharray:none;stroke-dashoffset:18.89763832;stroke-opacity:1"
         inkscape:connector-curvature="0" />
    </g>
  </g>
</svg>
