<svg id="Layer_1" data-name="Layer 1" xmlns="http://www.w3.org/2000/svg" viewBox="0 0 292 90.85"><defs><style>.cls-1,.cls-2,.cls-3,.cls-4{fill:none;}.cls-2{stroke:#fff;stroke-width:2px;}.cls-3,.cls-4{stroke:#e86423;}.cls-3{stroke-width:4px;}.cls-14,.cls-5,.cls-6{isolation:isolate;}.cls-6{font-size:46px;}.cls-14,.cls-6{fill:#fff;font-family:OdibeeSans-Regular, Odibee Sans;}.cls-7{letter-spacing:-0.05em;}.cls-8{letter-spacing:-0.03em;}.cls-9{letter-spacing:-0.07em;}.cls-10{letter-spacing:-0.05em;}.cls-11{letter-spacing:-0.06em;}.cls-12{letter-spacing:-0.04em;}.cls-13{letter-spacing:-0.06em;}.cls-14{font-size:47px;}.cls-15{letter-spacing:-0.04em;}</style></defs><title>QDN2020_Artwork</title><g id="Group_60" data-name="Group 60"><g id="Ellipse_11" data-name="Ellipse 11"><ellipse class="cls-1" cx="267.5" cy="33.1" rx="24.5" ry="24"/><path class="cls-2" d="M241.94,30.09a22.24,22.24,0,0,1-.29-3.57,23.51,23.51,0,0,1,47,0,23.1,23.1,0,0,1-17.46,22.23" transform="translate(2.35 6.58)"/></g><line id="Line_11" data-name="Line 11" class="cls-3" x1="13.12" y1="78.58" x2="268.16" y2="32.08"/><path id="Path_44" data-name="Path 44" class="cls-4" d="M265.59,30.09,17.19,75.21" transform="translate(2.35 6.58)"/><g id="QUART_DE_NUIT" data-name="QUART DE NUIT" class="cls-5"><text class="cls-6" transform="translate(0 39.1)"><tspan class="cls-7">Q</tspan><tspan class="cls-8" x="20.52" y="0">U</tspan><tspan class="cls-7" x="41.91" y="0">A</tspan><tspan class="cls-9" x="59.62" y="0">R</tspan><tspan x="78.98" y="0">T </tspan><tspan class="cls-10" x="107.82" y="0">D</tspan><tspan x="128.29" y="0">E </tspan><tspan class="cls-11" x="157.55" y="0">N</tspan><tspan class="cls-12" x="177.61" y="0">U</tspan><tspan class="cls-13" x="198.54" y="0">I</tspan><tspan x="205.3" y="0">T</tspan></text></g><g id="_2020" data-name=" 2020" class="cls-5"><text class="cls-14" transform="translate(179 79.1)"><tspan class="cls-15">202</tspan><tspan x="64.16" y="0">0</tspan></text></g></g></svg>