<?xml version="1.0" encoding="utf-8"?>
<!-- Generator: Adobe Illustrator 24.0.1, SVG Export Plug-In . SVG Version: 6.00 Build 0)  -->
<svg version="1.1" id="Layer_1" xmlns="http://www.w3.org/2000/svg" xmlns:xlink="http://www.w3.org/1999/xlink" x="0px" y="0px"
	 viewBox="0 0 275 325" style="enable-background:new 0 0 275 325;" xml:space="preserve">
<style type="text/css">
	.st0{fill:none;stroke:#3BD7F7;stroke-width:2.3067;stroke-linecap:round;stroke-linejoin:round;}
	.st1{fill:none;stroke:#E26223;stroke-width:2.3067;stroke-linecap:round;stroke-linejoin:round;}
	.st2{fill:none;stroke:#3BD7F7;stroke-width:2.3067;stroke-linecap:round;}
	.st3{fill:none;stroke:#3BD7F7;stroke-width:1.6342;stroke-linecap:round;stroke-linejoin:round;}
	.st4{fill:#FA452F;}
	.st5{fill:#E1DB54;}
	.st6{fill:#8D29D6;}
	.st7{fill:#29D655;}
	.st8{fill:#3BD7F7;}
	.st9{fill:#FFAD61;}
	.st10{fill:#592719;}
	.st11{fill:#3EA0E1;}
	.st12{fill:#D8D8D8;}
	.st13{fill:none;}
	.st14{fill:none;stroke:#D8D8D8;stroke-width:3.3084;}
</style>
<title>QDN2020_Artwork</title>
<title>QDN2020_Artwork</title>
<g>
	<path id="Path_15_1_" class="st0" d="M-38,581h2.9l1.3-27.6l-146.8,3.8l4-22"/>
	<path id="Path_16_1_" class="st0" d="M-180.9,557.1v23.1l145.5,0.8"/>
	<path id="Path_17_4_" class="st1" d="M-27.5,537.2"/>
	<path id="Path_17_1_" class="st0" d="M-33.8,553.6h4.9l0.8-23.1"/>
	<path id="Path_18_2_" class="st0" d="M-86.1,554.4l-90.1,1.3l-0.6-23.9h32.7"/>
	<path id="Path_19_1_" class="st0" d="M-176.8,531.9l7.7-32.9l22.6-0.8"/>
	
		<text transform="matrix(0.9994 -3.489949e-02 3.489949e-02 0.9994 -126.0086 550.0234)" class="st12" style="font-family:'OdibeeSans-Regular'; font-size:16.1466px;">Secret Hitler</text>
	
		<text transform="matrix(0.9994 -3.489949e-02 3.489949e-02 0.9994 -107.2204 573.0043)" class="st12" style="font-family:'OdibeeSans-Regular'; font-size:16.9155px;">et plus...</text>
	<path id="Path_22_1_" class="st0" d="M-145,531.3l140.3-1v-24.2l-139,1.2l-6.1-12.9v19.5L-145,531.3z"/>
	<path id="Path_24_1_" class="st2" d="M-144.9,531.3l1.2-23.8"/>
	<path id="Path_25_1_" class="st2" d="M-7.4,476.1v30.1"/>
	<path id="Path_26_1_" class="st0" d="M-10.5,473.4l3.2,2.7l-134.2,0.9l-4.4-9h13.3l3.9,8.1l118.2-1.2V451h-118.2v23.9"/>
	<path id="Path_27_1_" class="st0" d="M-141.7,477l-0.8,29.9l-4-12.3"/>
	<path id="Path_28_1_" class="st0" d="M-149.7,494.4h3.1l0.6-26.5"/>
	<path id="Path_29_1_" class="st2" d="M-142.4,506.5l40.6,0.3"/>
	<path id="Path_30_1_" class="st0" d="M-131.7,469.9v-19h-4.6l-0.3-24.2h124.8v24"/>
	<path id="Path_31_1_" class="st0" d="M-136.2,450.9c-0.7-0.1-5.5-9.3-5.5-9.3v-21.3l5.1,6.5"/>
	<path id="Path_36_2_" class="st0" d="M-11.8,426.7l3.9,0.1l0.6-28.8h-120.6v27.7"/>
	<path id="Path_37_1_" class="st3" d="M-7.2,398.1H8.9v-28l-163.5-2.6V398h26.6"/>
	<path id="Path_38_1_" class="st0" d="M-128,425.6l-2.5-2.8v-24.7"/>
	<path id="Path_39_1_" class="st0" d="M-154.7,398.1l-2.9-3.9v-31.4l2.9,3.7"/>
	<path id="Path_40_1_" class="st2" d="M-157.6,362.8l44.8,0.7"/>
	<path id="Path_41_1_" class="st0" d="M8.8,369.3l-3.7-4h-15.9v-16.6l-99.3-1.2l-5.3-1v14.9l5.3,2.9l99.3,1"/>
	<path id="Path_42_1_" class="st0" d="M-114.7,346.5h95.8l8.2,2.2"/>
	
		<text transform="matrix(1 0 0 1 -109.7517 445.3178)" class="st12" style="font-family:'OdibeeSans-Regular'; font-size:19.2221px;">Mots Rapido</text>
	
		<text transform="matrix(1 0 0 1 -102.0623 468.3841)" class="st12" style="font-family:'OdibeeSans-Regular'; font-size:16.1466px;">Mot pour mot</text>
	
		<text transform="matrix(1 0 0 1 -111.2888 496.8324)" class="st12" style="font-family:'OdibeeSans-Regular'; font-size:16.1466px;">Miss Poutine</text>
	
		<text transform="matrix(1 0 0 1 -112.8269 522.3569)" class="st12" style="font-family:'OdibeeSans-Regular'; font-size:16.1466px;">Tragedy Loopers</text>
	
		<text transform="matrix(1 0 0 1 -101.5955 416.8822)" class="st12" style="font-family:'OdibeeSans-Regular'; font-size:18.4533px;">Galérapagos</text>
	
		<text transform="matrix(1 0 0 1 -106.3689 387.7091)" class="st12" style="font-family:'OdibeeSans-Regular'; font-size:18.4533px;">L&apos;osti de jeu</text>
	
		<text transform="matrix(0.9998 1.745406e-02 -1.745406e-02 0.9998 -72.7975 362.0199)" class="st12" style="font-family:'OdibeeSans-Regular'; font-size:14.7905px;">UNO</text>
	<line class="st0" x1="-131.7" y1="451.4" x2="-128.8" y2="451.4"/>
	<path class="st0" d="M-141.7,420.3"/>
	<line class="st0" x1="-141.7" y1="420.3" x2="-131.7" y2="420.3"/>
</g>
<rect id="Rectangle_8" x="135.3" y="285.1" class="st4" width="26.5" height="26.5"/>
<rect id="Rectangle_188" x="42.2" y="285.1" class="st5" width="26.5" height="26.5"/>
<rect id="Rectangle_189" x="73.2" y="254.1" class="st5" width="26.5" height="26.5"/>
<rect id="Rectangle_190" x="42.2" y="254.1" class="st5" width="26.5" height="26.5"/>
<rect id="Rectangle_191" x="73.2" y="223" class="st5" width="26.5" height="26.5"/>
<rect id="Rectangle_14" x="73.2" y="285.1" class="st6" width="26.5" height="26.5"/>
<rect id="Rectangle_15" x="104.3" y="223" class="st6" width="26.5" height="26.5"/>
<rect id="Rectangle_16" x="228.3" y="223" class="st7" width="26.5" height="26.5"/>
<rect id="Rectangle_19" x="228.3" y="192.1" class="st7" width="26.5" height="26.5"/>
<rect id="Rectangle_9" x="166.3" y="285.1" class="st4" width="26.5" height="26.5"/>
<rect id="Rectangle_12" x="104.3" y="285.1" class="st6" width="26.5" height="26.5"/>
<rect id="Rectangle_17" x="228.3" y="285.1" class="st7" width="26.5" height="26.5"/>
<rect id="Rectangle_10" x="197.4" y="285.1" class="st4" width="26.5" height="26.5"/>
<rect id="Rectangle_13" x="104.3" y="254.1" class="st6" width="26.5" height="26.5"/>
<rect id="Rectangle_18" x="228.3" y="254.1" class="st7" width="26.5" height="26.5"/>
<rect id="Rectangle_16_1_" x="42.2" y="67.8" class="st7" width="26.5" height="26.5"/>
<rect id="Rectangle_19_1_" x="42.2" y="36.8" class="st7" width="26.5" height="26.5"/>
<rect id="Rectangle_17_1_" x="42.2" y="129.9" class="st7" width="26.5" height="26.5"/>
<rect id="Rectangle_18_1_" x="42.2" y="98.8" class="st7" width="26.5" height="26.5"/>
<rect id="Rectangle_11" x="197.4" y="254.1" class="st4" width="26.5" height="26.5"/>
<rect id="Rectangle_8_1_" x="135.3" y="254.1" class="st4" width="26.5" height="26.5"/>
<rect id="Rectangle_9_1_" x="135.3" y="223" class="st4" width="26.5" height="26.5"/>
<rect id="Rectangle_10_1_" x="135.3" y="192" class="st4" width="26.5" height="26.5"/>
<rect id="Rectangle_11_1_" x="104.3" y="192" class="st4" width="26.5" height="26.5"/>
<rect id="Rectangle_192" x="197.4" y="223" class="st8" width="26.5" height="26.5"/>
<rect id="Rectangle_198" x="228.3" y="161" class="st5" width="26.5" height="26.5"/>
<rect id="Rectangle_193" x="166.3" y="223" class="st8" width="26.5" height="26.5"/>
<rect id="Rectangle_196" x="197.4" y="161" class="st5" width="26.5" height="26.5"/>
<rect id="Rectangle_195" x="166.3" y="192.1" class="st8" width="26.5" height="26.5"/>
<rect id="Rectangle_197" x="228.3" y="130" class="st5" width="26.5" height="26.5"/>
<rect id="Rectangle_194" x="166.3" y="254.1" class="st8" width="26.5" height="26.5"/>
<rect id="Rectangle_199" x="197.4" y="192.1" class="st5" width="26.5" height="26.5"/>
<g>
	<rect id="Rectangle_24_1_" x="427" y="85.2" class="st9" width="16.6" height="16.6"/>
	<rect id="Rectangle_25_1_" x="447.5" y="85.2" class="st9" width="16.6" height="16.6"/>
	<rect id="Rectangle_34_1_" x="466" y="85.2" class="st9" width="16.6" height="16.6"/>
	<rect id="Rectangle_168_1_" x="466" y="103.8" width="16.6" height="16.6"/>
	<rect id="Rectangle_36_1_" x="507.3" y="85.2" class="st9" width="16.6" height="16.6"/>
	<rect id="Rectangle_164_1_" x="507.3" y="103.8" width="16.6" height="16.6"/>
	<rect id="Rectangle_37_1_" x="486.6" y="64.6" class="st9" width="16.6" height="16.6"/>
	<rect id="Rectangle_166_1_" x="486.6" y="103.8" width="16.6" height="16.6"/>
	<rect id="Rectangle_38_1_" x="486.6" y="44" class="st9" width="16.6" height="16.6"/>
	<rect id="Rectangle_167_1_" x="486.6" y="85.2" width="16.6" height="16.6"/>
	<rect id="Rectangle_39_1_" x="507.3" y="64.6" class="st9" width="16.6" height="16.6"/>
	<rect id="Rectangle_40_1_" x="525.8" y="64.6" class="st9" width="16.6" height="16.6"/>
	<rect id="Rectangle_41_1_" x="525.8" y="85.2" class="st9" width="16.6" height="16.6"/>
	<rect id="Rectangle_165_1_" x="525.8" y="103.8" width="16.6" height="16.6"/>
	<rect id="Rectangle_42_1_" x="546.4" y="85.2" class="st9" width="16.6" height="16.6"/>
	<rect id="Rectangle_26_1_" x="406.2" y="85.2" class="st9" width="16.6" height="16.6"/>
	<rect id="Rectangle_43_1_" x="387.7" y="85.2" class="st10" width="16.6" height="16.6"/>
	<rect id="Rectangle_44_1_" x="367.2" y="103.8" class="st9" width="16.6" height="16.6"/>
	<rect id="Rectangle_55_1_" x="367.2" y="124.4" class="st9" width="16.6" height="16.6"/>
	<rect id="Rectangle_47_1_" x="387.7" y="103.8" class="st9" width="16.6" height="16.6"/>
	<rect id="Rectangle_54_1_" x="387.7" y="124.4" class="st9" width="16.6" height="16.6"/>
	<rect id="Rectangle_48_1_" x="406.2" y="103.8" class="st9" width="16.6" height="16.6"/>
	<rect id="Rectangle_53_1_" x="406.2" y="124.4" class="st9" width="16.6" height="16.6"/>
	<rect id="Rectangle_49_1_" x="427" y="103.8" class="st9" width="16.6" height="16.6"/>
	<rect id="Rectangle_52_1_" x="427" y="124.4" class="st9" width="16.6" height="16.6"/>
	<rect id="Rectangle_50_1_" x="447.5" y="103.8" class="st9" width="16.6" height="16.6"/>
	<rect id="Rectangle_51_1_" x="447.5" y="124.4" class="st9" width="16.6" height="16.6"/>
	<rect id="Rectangle_56_1_" x="466" y="124.4" class="st9" width="16.6" height="16.6"/>
	<rect id="Rectangle_57_1_" x="486.6" y="124.4" class="st9" width="16.6" height="16.6"/>
	<rect id="Rectangle_58_1_" x="507.3" y="124.4" class="st9" width="16.6" height="16.6"/>
	<rect id="Rectangle_62_1_" x="507.3" y="204.8" class="st9" width="16.6" height="16.6"/>
	<rect id="Rectangle_82_1_" x="507.3" y="184.2" class="st4" width="16.6" height="16.6"/>
	<rect id="Rectangle_85_1_" x="486.6" y="184.2" class="st4" width="16.6" height="16.6"/>
	<rect id="Rectangle_88_1_" x="486.6" y="163.5" class="st4" width="16.6" height="16.6"/>
	<rect id="Rectangle_87_1_" x="466" y="184.2" class="st4" width="16.6" height="16.6"/>
	<rect id="Rectangle_111_1_" x="466" y="204.8" class="st11" width="16.6" height="16.6"/>
	<rect id="Rectangle_89_1_" x="466" y="163.5" class="st4" width="16.6" height="16.6"/>
	<rect id="Rectangle_90_1_" x="466" y="145" class="st4" width="16.6" height="16.6"/>
	<rect id="Rectangle_91_1_" x="447.5" y="145" class="st4" width="16.6" height="16.6"/>
	<rect id="Rectangle_92_1_" x="427" y="145" class="st4" width="16.6" height="16.6"/>
	<rect id="Rectangle_93_1_" x="406.2" y="145" class="st4" width="16.6" height="16.6"/>
	<rect id="Rectangle_94_1_" x="387.7" y="145" class="st11" width="16.6" height="16.6"/>
	<rect id="Rectangle_95_1_" x="367.2" y="145" class="st4" width="16.6" height="16.6"/>
	<rect id="Rectangle_96_1_" x="346.4" y="145" class="st4" width="16.6" height="16.6"/>
	<rect id="Rectangle_97_1_" x="346.4" y="163.5" class="st4" width="16.6" height="16.6"/>
	<rect id="Rectangle_98_1_" x="327.9" y="163.5" class="st4" width="16.6" height="16.6"/>
	<rect id="Rectangle_99_1_" x="327.9" y="184.2" class="st4" width="16.6" height="16.6"/>
	<rect id="Rectangle_101_1_" x="346.4" y="184.2" class="st4" width="16.6" height="16.6"/>
	<rect id="Rectangle_102_1_" x="346.4" y="204.8" class="st4" width="16.6" height="16.6"/>
	<rect id="Rectangle_103_1_" x="367.2" y="204.8" class="st11" width="16.6" height="16.6"/>
	<rect id="Rectangle_104_1_" x="367.2" y="184.2" class="st4" width="16.6" height="16.6"/>
	<rect id="Rectangle_105_1_" x="367.2" y="163.5" class="st4" width="16.6" height="16.6"/>
	<rect id="Rectangle_106_1_" x="387.7" y="163.5" class="st11" width="16.6" height="16.6"/>
	<rect id="Rectangle_107_1_" x="406.2" y="163.5" class="st4" width="16.6" height="16.6"/>
	<rect id="Rectangle_108_1_" x="427" y="163.5" class="st4" width="16.6" height="16.6"/>
	<rect id="Rectangle_109_1_" x="447.5" y="163.5" class="st11" width="16.6" height="16.6"/>
	<rect id="Rectangle_110_1_" x="447.5" y="184.2" class="st11" width="16.6" height="16.6"/>
	<rect id="Rectangle_112_1_" x="447.5" y="204.8" class="st5" width="16.6" height="16.6"/>
	<rect id="Rectangle_100_1_" x="307.4" y="184.2" class="st4" width="16.6" height="16.6"/>
	<rect id="Rectangle_86_1_" x="486.6" y="204.8" class="st4" width="16.6" height="16.6"/>
	<rect id="Rectangle_84_1_" x="525.8" y="184.2" class="st4" width="16.6" height="16.6"/>
	<rect id="Rectangle_83_1_" x="507.3" y="163.5" class="st4" width="16.6" height="16.6"/>
	<rect id="Rectangle_64_1_" x="507.3" y="223.3" class="st9" width="16.6" height="16.6"/>
	<rect id="Rectangle_68_1_" x="486.6" y="223.3" class="st9" width="16.6" height="16.6"/>
	<rect id="Rectangle_127_1_" x="486.6" y="243.8" class="st11" width="16.6" height="16.6"/>
	<rect id="Rectangle_136_1_" x="486.6" y="264.6" class="st11" width="16.6" height="16.6"/>
	<rect id="Rectangle_144_1_" x="486.6" y="283.1" class="st10" width="16.6" height="16.6"/>
	<rect id="Rectangle_148_1_" x="507.3" y="283.1" class="st10" width="16.6" height="16.6"/>
	<rect id="Rectangle_146_1_" x="486.6" y="303.6" class="st10" width="16.6" height="16.6"/>
	<rect id="Rectangle_149_1_" x="507.3" y="303.6" class="st10" width="16.6" height="16.6"/>
	<rect id="Rectangle_150_1_" x="525.8" y="303.6" class="st10" width="16.6" height="16.6"/>
	<rect id="Rectangle_69_1_" x="466" y="223.3" class="st11" width="16.6" height="16.6"/>
	<rect id="Rectangle_126_1_" x="466" y="243.8" class="st11" width="16.6" height="16.6"/>
	<rect id="Rectangle_135_1_" x="466" y="264.6" class="st11" width="16.6" height="16.6"/>
	<rect id="Rectangle_145_1_" x="466" y="283.1" class="st10" width="16.6" height="16.6"/>
	<rect id="Rectangle_147_1_" x="466" y="303.6" class="st10" width="16.6" height="16.6"/>
	<rect id="Rectangle_70_1_" x="447.5" y="223.3" class="st11" width="16.6" height="16.6"/>
	<rect id="Rectangle_125_1_" x="447.5" y="243.8" class="st11" width="16.6" height="16.6"/>
	<rect id="Rectangle_134_1_" x="447.5" y="264.6" class="st11" width="16.6" height="16.6"/>
	<rect id="Rectangle_71_1_" x="427" y="223.3" class="st11" width="16.6" height="16.6"/>
	<rect id="Rectangle_124_1_" x="427" y="243.8" class="st11" width="16.6" height="16.6"/>
	<rect id="Rectangle_115_1_" x="427" y="184.2" class="st11" width="16.6" height="16.6"/>
	<rect id="Rectangle_118_1_" x="427" y="204.8" class="st11" width="16.6" height="16.6"/>
	<rect id="Rectangle_72_1_" x="406.2" y="223.3" class="st11" width="16.6" height="16.6"/>
	<rect id="Rectangle_123_1_" x="406.2" y="243.8" class="st11" width="16.6" height="16.6"/>
	<rect id="Rectangle_114_1_" x="406.2" y="184.2" class="st11" width="16.6" height="16.6"/>
	<rect id="Rectangle_117_1_" x="406.2" y="204.8" class="st11" width="16.6" height="16.6"/>
	<rect id="Rectangle_73_1_" x="387.7" y="223.3" class="st11" width="16.6" height="16.6"/>
	<rect id="Rectangle_122_1_" x="387.7" y="243.8" class="st11" width="16.6" height="16.6"/>
	<rect id="Rectangle_131_1_" x="387.7" y="264.6" class="st11" width="16.6" height="16.6"/>
	<rect id="Rectangle_113_1_" x="387.7" y="184.2" class="st11" width="16.6" height="16.6"/>
	<rect id="Rectangle_116_1_" x="387.7" y="204.8" class="st5" width="16.6" height="16.6"/>
	<rect id="Rectangle_74_1_" x="367.2" y="223.3" class="st11" width="16.6" height="16.6"/>
	<rect id="Rectangle_120_1_" x="367.2" y="243.8" class="st11" width="16.6" height="16.6"/>
	<rect id="Rectangle_129_1_" x="367.2" y="264.6" class="st11" width="16.6" height="16.6"/>
	<rect id="Rectangle_138_1_" x="367.2" y="283.1" class="st10" width="16.6" height="16.6"/>
	<rect id="Rectangle_140_1_" x="367.2" y="303.6" class="st10" width="16.6" height="16.6"/>
	<rect id="Rectangle_75_1_" x="346.4" y="223.3" class="st9" width="16.6" height="16.6"/>
	<rect id="Rectangle_121_1_" x="346.4" y="243.8" class="st11" width="16.6" height="16.6"/>
	<rect id="Rectangle_130_1_" x="346.4" y="264.6" class="st11" width="16.6" height="16.6"/>
	<rect id="Rectangle_137_1_" x="346.4" y="283.1" class="st10" width="16.6" height="16.6"/>
	<rect id="Rectangle_141_1_" x="327.9" y="283.1" class="st10" width="16.6" height="16.6"/>
	<rect id="Rectangle_139_1_" x="346.4" y="303.6" class="st10" width="16.6" height="16.6"/>
	<rect id="Rectangle_142_1_" x="327.9" y="303.6" class="st10" width="16.6" height="16.6"/>
	<rect id="Rectangle_143_1_" x="307.4" y="303.6" class="st10" width="16.6" height="16.6"/>
	<rect id="Rectangle_76_1_" x="327.9" y="223.3" class="st9" width="16.6" height="16.6"/>
	<rect id="Rectangle_81_1_" x="327.9" y="243.8" class="st9" width="16.6" height="16.6"/>
	<rect id="Rectangle_78_1_" x="327.9" y="204.8" class="st9" width="16.6" height="16.6"/>
	<rect id="Rectangle_79_1_" x="307.4" y="204.8" class="st9" width="16.6" height="16.6"/>
	<rect id="Rectangle_77_1_" x="307.4" y="223.3" class="st9" width="16.6" height="16.6"/>
	<rect id="Rectangle_80_1_" x="307.4" y="243.8" class="st9" width="16.6" height="16.6"/>
	<rect id="Rectangle_67_1_" x="507.3" y="243.8" class="st9" width="16.6" height="16.6"/>
	<rect id="Rectangle_65_1_" x="525.8" y="223.3" class="st9" width="16.6" height="16.6"/>
	<rect id="Rectangle_66_1_" x="525.8" y="243.8" class="st9" width="16.6" height="16.6"/>
	<rect id="Rectangle_63_1_" x="525.8" y="204.8" class="st9" width="16.6" height="16.6"/>
	<rect id="Rectangle_45_1_" x="346.4" y="85.2" class="st9" width="16.6" height="16.6"/>
	<rect id="Rectangle_182_1_" x="346.4" y="103.8" class="st10" width="16.6" height="16.6"/>
	<rect id="Rectangle_179_1_" x="327.9" y="85.2" class="st10" width="16.6" height="16.6"/>
	<rect id="Rectangle_181_1_" x="327.9" y="103.8" class="st10" width="16.6" height="16.6"/>
	<rect id="Rectangle_46_1_" x="346.4" y="64.6" class="st9" width="16.6" height="16.6"/>
	<rect id="Rectangle_180_1_" x="327.9" y="64.6" class="st10" width="16.6" height="16.6"/>
	<rect id="Rectangle_27_1_" x="406.2" y="64.6" class="st9" width="16.6" height="16.6"/>
	<rect id="Rectangle_28_1_" x="427" y="64.6" class="st9" width="16.6" height="16.6"/>
	<rect id="Rectangle_29_1_" x="447.5" y="64.6" class="st9" width="16.6" height="16.6"/>
	<rect id="Rectangle_160_1_" x="466" y="64.6" width="16.6" height="16.6"/>
	<rect id="Rectangle_30_1_" x="447.5" y="44" class="st9" width="16.6" height="16.6"/>
	<rect id="Rectangle_159_1_" x="466" y="44" width="16.6" height="16.6"/>
	<rect id="Rectangle_153_1_" x="447.5" y="25.4" class="st4" width="16.6" height="16.6"/>
	<rect id="Rectangle_162_1_" x="507.3" y="25.4" class="st4" width="16.6" height="16.6"/>
	<rect id="Rectangle_157_1_" x="466" y="25.4" class="st4" width="16.6" height="16.6"/>
	<rect id="Rectangle_161_1_" x="525.8" y="25.4" class="st4" width="16.6" height="16.6"/>
	<rect id="Rectangle_156_1_" x="447.5" y="4.8" class="st4" width="16.6" height="16.6"/>
	<rect id="Rectangle_158_1_" x="466" y="4.8" class="st4" width="16.6" height="16.6"/>
	<rect id="Rectangle_31_1_" x="427" y="44" class="st9" width="16.6" height="16.6"/>
	<rect id="Rectangle_152_1_" x="427" y="25.4" class="st4" width="16.6" height="16.6"/>
	<rect id="Rectangle_163_1_" x="486.6" y="25.4" class="st4" width="16.6" height="16.6"/>
	<rect id="Rectangle_155_1_" x="427" y="4.8" class="st4" width="16.6" height="16.6"/>
	<rect id="Rectangle_32_1_" x="406.2" y="44" class="st9" width="16.6" height="16.6"/>
	<rect id="Rectangle_171_1_" x="387.7" y="44" class="st10" width="16.6" height="16.6"/>
	<rect id="Rectangle_174_1_" x="367.2" y="44" class="st10" width="16.6" height="16.6"/>
	<rect id="Rectangle_177_1_" x="367.2" y="85.2" class="st10" width="16.6" height="16.6"/>
	<rect id="Rectangle_176_1_" x="346.4" y="44" class="st10" width="16.6" height="16.6"/>
	<rect id="Rectangle_151_1_" x="406.2" y="25.4" class="st4" width="16.6" height="16.6"/>
	<rect id="Rectangle_169_1_" x="387.7" y="25.4" class="st4" width="16.6" height="16.6"/>
	<rect id="Rectangle_172_1_" x="367.2" y="25.4" class="st4" width="16.6" height="16.6"/>
	<rect id="Rectangle_178_1_" x="367.2" y="64.6" class="st10" width="16.6" height="16.6"/>
	<rect id="Rectangle_175_1_" x="346.4" y="25.4" class="st4" width="16.6" height="16.6"/>
	<rect id="Rectangle_154_1_" x="406.2" y="4.8" class="st4" width="16.6" height="16.6"/>
	<rect id="Rectangle_170_1_" x="387.7" y="4.8" class="st4" width="16.6" height="16.6"/>
	<rect id="Rectangle_173_1_" x="367.2" y="4.8" class="st4" width="16.6" height="16.6"/>
	<rect id="Rectangle_33_1_" x="387.7" y="64.6" class="st9" width="16.6" height="16.6"/>
</g>
<g id="Group_62_1_" transform="translate(-1289 -1896)">
	<g id="Group_15_1_" transform="translate(0 111)">
		<g id="Group_12_1_" transform="translate(1346.341 1784.639)">
			<g id="Group_10_1_" transform="translate(0 124.554)">
				<g id="Group_9_1_">
					<g id="Group_8_1_" transform="translate(63.086 53.38) rotate(180)">
						<path id="Polygon_1_1_" class="st12" d="M-542.5-367.4c0.4-0.4,1.1-0.4,1.5,0l32,31.5c0.4,0.4,0.4,1.1,0,1.6
							c-0.2,0.2-0.5,0.3-0.8,0.3h-64.1c-0.6,0-1.1-0.5-1.1-1.1c0-0.3,0.1-0.6,0.3-0.8L-542.5-367.4z"/>
						<path id="Rectangle_200_1_" class="st12" d="M-559.9-345h36.4c1.2,0,2.2,1,2.2,2.2v32c0,1.2-1,2.2-2.2,2.2h-36.4
							c-1.2,0-2.2-1-2.2-2.2v-32C-562.1-344-561.1-345-559.9-345z"/>
					</g>
				</g>
			</g>
			<g id="Group_13_1_" transform="translate(0)">
				<g id="Group_9-2_1_" transform="translate(63.086 53.38) rotate(180)">
					<g id="Group_8-2_1_" transform="translate(63.086 53.38) rotate(180)">
						<path id="Polygon_1-2_1_" class="st12" d="M604,350.5c0.4-0.4,1.1-0.4,1.5,0l32,30.5c0.4,0.4,0.5,1.1,0,1.6
							c-0.2,0.2-0.5,0.3-0.8,0.3h-64c-0.6,0-1.1-0.5-1.1-1.1c0-0.3,0.1-0.6,0.3-0.8L604,350.5z"/>
						<path id="Rectangle_200-2_1_" class="st12" d="M586.6,373H623c1.2,0,2.2,1,2.2,2.2v30.9c0,1.2-1,2.2-2.2,2.2h-36.4
							c-1.2,0-2.2-1-2.2-2.2v-30.9C584.4,374,585.4,373,586.6,373z"/>
					</g>
				</g>
			</g>
		</g>
		<g id="Group_14_1_" transform="translate(1466.66 1841.872) rotate(90)">
			<g id="Group_10-2_1_" transform="translate(0 124.554)">
				<g id="Group_9-3_1_" transform="translate(0 0)">
					<g id="Group_8-3_1_" transform="translate(63.086 53.38) rotate(180)">
						<path id="Polygon_1-3_1_" class="st8" d="M-327.9,565.5c0.4-0.4,1.1-0.4,1.5,0l32,30.5c0.4,0.4,0.5,1.1,0,1.6
							c-0.2,0.2-0.5,0.3-0.8,0.3h-64c-0.6,0-1.1-0.5-1.1-1.1c0-0.3,0.1-0.6,0.3-0.8L-327.9,565.5z"/>
						<path id="Rectangle_200-3_1_" class="st8" d="M-345.3,588h36.4c1.2,0,2.2,1,2.2,2.2v30.9c0,1.2-1,2.2-2.2,2.2h-36.4
							c-1.2,0-2.2-1-2.2-2.2v-30.9C-347.5,588.9-346.5,588-345.3,588z"/>
					</g>
				</g>
			</g>
			<g id="Group_13-2_1_">
				<g id="Group_9-4_1_" transform="translate(63.086 53.38) rotate(180)">
					<g id="Group_8-4_1_" transform="translate(63.086 53.38) rotate(180)">
						<path id="Polygon_1-4_1_" class="st8" d="M389.4-582.4c0.4-0.4,1.1-0.4,1.5,0l32,31.5c0.4,0.4,0.4,1.1,0,1.6
							c-0.2,0.2-0.5,0.3-0.8,0.3h-64c-0.6,0-1.1-0.5-1.1-1.1c0-0.3,0.1-0.6,0.3-0.8L389.4-582.4z"/>
						<path id="Rectangle_200-4_1_" class="st8" d="M372-560h36.4c1.2,0,2.2,1,2.2,2.2v32c0,1.2-1,2.2-2.2,2.2H372
							c-1.2,0-2.2-1-2.2-2.2v-32C369.8-559,370.8-560,372-560z"/>
					</g>
				</g>
			</g>
		</g>
	</g>
	<g id="Rectangle_201_1_" transform="translate(1289 2027)">
		<path class="st13" d="M572.2,362.9h36.4c4.3,0,7.7,3.5,7.7,7.7V407c0,4.3-3.5,7.7-7.7,7.7h-36.4c-4.3,0-7.7-3.5-7.7-7.7v-36.4
			C564.5,366.4,568,362.9,572.2,362.9z"/>
		<path class="st14" d="M572.2,364.6h36.4c3.3,0,6.1,2.7,6.1,6.1v36.4c0,3.3-2.7,6.1-6.1,6.1h-36.4c-3.3,0-6.1-2.7-6.1-6.1v-36.5
			C566.2,367.3,568.9,364.6,572.2,364.6z"/>
	</g>
	<g id="Rectangle_202_1_" transform="translate(1420 2027)">
		<path class="st13" d="M585.7,362.9h36.4c4.3,0,7.7,3.5,7.7,7.7V407c0,4.3-3.5,7.7-7.7,7.7h-36.4c-4.3,0-7.7-3.5-7.7-7.7v-36.4
			C578,366.4,581.4,362.9,585.7,362.9z"/>
		<path class="st14" d="M585.7,364.6h36.4c3.3,0,6.1,2.7,6.1,6.1v36.4c0,3.3-2.7,6.1-6.1,6.1h-36.4c-3.3,0-6.1-2.7-6.1-6.1v-36.5
			C579.6,367.3,582.4,364.6,585.7,364.6z"/>
	</g>
	<g id="Rectangle_203_1_" transform="translate(1420 1896)">
		<path class="st13" d="M585.7,349.5h36.4c4.3,0,7.7,3.5,7.7,7.7v36.4c0,4.3-3.5,7.7-7.7,7.7h-36.4c-4.3,0-7.7-3.5-7.7-7.7v-36.4
			C578,352.9,581.4,349.5,585.7,349.5z"/>
		<path class="st14" d="M585.7,351.1h36.4c3.3,0,6.1,2.7,6.1,6.1v36.4c0,3.3-2.7,6.1-6.1,6.1h-36.4c-3.3,0-6.1-2.7-6.1-6.1v-36.4
			C579.6,353.8,582.4,351.1,585.7,351.1z"/>
	</g>
	<g id="Rectangle_204_1_" transform="translate(1289 1896)">
		<path class="st13" d="M572.2,349.5h36.4c4.3,0,7.7,3.5,7.7,7.7v36.4c0,4.3-3.5,7.7-7.7,7.7h-36.4c-4.3,0-7.7-3.5-7.7-7.7v-36.4
			C564.5,352.9,568,349.5,572.2,349.5z"/>
		<path class="st14" d="M572.2,351.1h36.4c3.3,0,6.1,2.7,6.1,6.1v36.4c0,3.3-2.7,6.1-6.1,6.1h-36.4c-3.3,0-6.1-2.7-6.1-6.1v-36.4
			C566.2,353.8,568.9,351.1,572.2,351.1z"/>
	</g>
	<g id="Rectangle_205_1_" transform="translate(1433 2040)">
		<rect x="579.3" y="364.3" class="st13" width="24.3" height="24.3"/>
		<rect x="581" y="365.9" class="st14" width="21" height="21"/>
	</g>
	<g id="Path_5_1_" transform="translate(1302 2040)">
		<path class="st13" d="M578,364.3l12.1,24.3h-24.3L578,364.3z"/>
		<path class="st12" d="M578,371.7l-6.8,13.6h13.6L578,371.7 M578,364.3l12.1,24.3h-24.3L578,364.3z"/>
	</g>
	<g id="Group_16_1_" transform="translate(-132 -62)">
		<path id="Path_6_1_" class="st14" d="M2000.8,2322.6l20.8,20.8"/>
		<path id="Path_7_1_" class="st14" d="M2021.7,2322.6l-20.3,20.3"/>
	</g>
	<g id="Ellipse_10_1_" transform="translate(1433 1909)">
		<circle class="st13" cx="591.5" cy="362.9" r="12.1"/>
		<circle class="st14" cx="591.5" cy="362.9" r="10.5"/>
	</g>
</g>
<g id="Group_29_1_" transform="translate(0 33.5)">
	<path id="Path_50_1_" class="st8" d="M886.9,407.6H931c4.9,0,8.8-3.9,8.8-8.8l0,0v-38.4c0-4.9-3.9-8.8-8.8-8.8l0,0h-44.1
		c-4.9,0-8.8,3.9-8.8,8.8l0,0v38.3C878.1,403.6,882.1,407.6,886.9,407.6z"/>
	<path id="Path_51_1_" class="st8" d="M818.6,407.6h44.1c4.9,0,8.8-3.9,8.8-8.8v-38.4c0-4.9-3.9-8.8-8.8-8.8h-44.1
		c-4.9,0-8.8,3.9-8.8,8.8l0,0v38.3C809.8,403.6,813.7,407.6,818.6,407.6L818.6,407.6z"/>
	<path id="Path_52_1_" class="st8" d="M958.6,384c-7.3,0-13.2,5.9-13.2,13.2l0,0v20.7c-2.9-2-6.4-3.1-9.9-3.1H814.2
		c-3.5,0-7,1.1-9.9,3.1v-20.7c0-7.3-5.9-13.2-13.2-13.2s-13.3,5.9-13.3,13.2v57.4c0,7.3,5.9,13.2,13.2,13.2h4.4
		c0,4.9,3.9,8.8,8.8,8.8c4.9,0,8.8-3.9,8.8-8.8h123.5c0,4.9,3.9,8.8,8.8,8.8s8.8-3.9,8.8-8.8h4.4c7.3,0,13.2-5.9,13.2-13.2v-57.4
		C971.8,389.9,965.9,384,958.6,384z"/>
</g>
<g id="military" transform="translate(656.969 -3)">
	<path id="Path_53" class="st8" d="M523.6,394.4c-1.9,0-3.6,0.7-5,2.1l-2.2,2.2l9.9,9.9l2.2-2.2c2.7-2.7,2.7-7.2,0-9.9
		C527.2,395.1,525.4,394.4,523.6,394.4z"/>
	<path id="Path_54" class="st8" d="M505.8,409.3l-5-5h-9.9v9.9l5,5l-7.8,7.8c0.7,0.5,1.4,1.1,2,1.7l7.4,7.4c0.2,0.2,0.4,0.5,0.6,0.7
		l23.5-23.5l-9.9-9.9L505.8,409.3z"/>
	<path id="Path_55" class="st8" d="M454.5,455.1l-5.7-1l-10.8,8.7l16.5,6.2V455.1z"/>
	<path id="Path_56" class="st8" d="M408.2,477.1c0,1.8,1.5,3.3,3.3,3.3h39.7c1.8,0,3.3-1.5,3.3-3.3v-1l-23.2-8.7l-23.2,8.7v1H408.2z
		"/>
	<path id="Path_57" class="st8" d="M424.8,381.1H438v6.6h-13.2V381.1z"/>
	<path id="Path_58" class="st8" d="M444.2,449.3l-1.9-7.5c-7,2.8-14.9,2.8-21.9,0l-1.9,7.5l12.8,10.2L444.2,449.3z"/>
	<path id="Path_59" class="st8" d="M454.5,394.4h-40.7c-0.8,2.1-2.3,4-4.1,5.3l-3.1,2.2c1,1.7,1.6,3.7,1.6,5.7v6.6
		c0,12.8,10.4,23.1,23.2,23.1s23.1-10.4,23.1-23.1V394.4z"/>
	<path id="Path_60" class="st8" d="M408.2,455.1V469l16.5-6.2l-10.8-8.7L408.2,455.1z"/>
	<path id="Path_61" class="st8" d="M444.6,381.1h23.2v6.6h-23.2V381.1z"/>
	<path id="Path_62" class="st8" d="M457.6,448.9l8.7,1.5l-5.1-5.1L457.6,448.9z"/>
	<path id="Path_63" class="st8" d="M467.8,394.4h-6.6v19.8c0,2.5-0.3,5.1-1,7.5c4.7-2.7,7.6-7.7,7.6-13.1V394.4z"/>
	<path id="Path_64" class="st8" d="M444.6,354.7h-26.5c-11.5,0-21.2,8.5-22.9,19.8h72.2C465.8,363.2,456.1,354.7,444.6,354.7z"/>
	<path id="Path_65" class="st8" d="M382.8,428l-10.8-6.5c-2.2-1.2-5-0.6-6.3,1.5l-10,16l14.5,8.7l-3.4,5.7l-14.7-8.8l-11.4,18.2
		l9.3,4.7l-3,5.9l-9.8-4.9c-3,5.7-2.5,12.6,1.3,17.9l8.1-5.4l3.7,5.5l-6.8,4.6c2.7,1.7,5.8,2.6,9,2.6h9.2v-6.6h6.6v6.6h13.2v-16.5
		h-6.6v-6.6h6.6v-11l-5.7,0.9l-11.3,18.4l-5.6-3.5l4.3-7l-9.6-4.8l3-5.9l10.1,5.1l10.7-17.4l-7.7-5.1l3.7-5.5l7.5,5l3.3-5.4
		c0.4-0.7,0.6-1.5,0.6-2.2C385.1,430.3,384.2,428.8,382.8,428z"/>
	<path id="Path_66" class="st8" d="M492.8,447.3c1.8-1.8,1.8-4.8,0-6.6l-7.4-7.4c-3.1-2.9-7.8-3.3-11.3-0.8l9.1,9.1l-4.7,4.7
		l-9.2-9.2l-3.6,3.6l11.8,11.8c2.7,0.5,5.3,1.2,7.9,2.1L492.8,447.3z"/>
	<path id="Path_67" class="st8" d="M461.1,477.1c0,5.5-4.4,9.9-9.9,9.9h-39.7c-5.5,0-9.9-4.4-9.9-9.9v-20.9l-13.2,2.2v88.1h6.6
		v-13.2c0-3.7,3-6.6,6.6-6.6h19.8c3.7,0,6.6,3,6.6,6.6v13.2h6.6v-13.2c0-3.7,3-6.6,6.6-6.6H461c3.7,0,6.6,3,6.6,6.6v13.2h6.6v-87.9
		l-13.2-2.3v20.8H461.1z M467.8,500.2v13.2c0,3.7-3,6.6-6.6,6.6h-59.5c-3.7,0-6.6-3-6.6-6.6v-13.2c0-3.7,3-6.6,6.6-6.6h59.5
		C464.8,493.6,467.8,496.6,467.8,500.2L467.8,500.2z"/>
	<path id="Path_68" class="st8" d="M494.2,493.6v13.2h13.2v-11.1c0-0.7-0.1-1.4-0.1-2.1H494.2L494.2,493.6z"/>
	<path id="Path_69" class="st8" d="M487.6,506.8v-13.2c0-3.7,3-6.6,6.6-6.6h12.2c-0.5-2.3-1.3-4.5-2.2-6.6h-9.9v-6.6h6
		c-4.7-6.6-11.5-11.4-19.3-13.7v60h19.8v6.6H481v19.8h26.5v-6.6h-13.2v-6.6h13.2v-19.8h-13.2C490.6,513.4,487.6,510.5,487.6,506.8z"
		/>
	<path id="Path_70" class="st8" d="M414.6,387.8h3.6v-6.6h-12C410.2,381.2,413.6,383.9,414.6,387.8z"/>
	<path id="Path_71" class="st8" d="M401.6,500.2h59.5v13.2h-59.5V500.2z"/>
	<path id="Path_72" class="st8" d="M401.6,407.6c0-0.6-0.1-1.2-0.4-1.8l-10.9,7.8l-3.8-5.4l19.4-13.9c1.5-1,2.3-2.7,2.3-4.5
		c0-1.2-1-2.1-2.2-2c-0.3,0-0.5,0.1-0.8,0.2l-22.8,11.4c-4.5,2.2-7.3,6.8-7.3,11.8v4.5c0.1,0.1,0.2,0.1,0.3,0.1l10.8,6.5
		c0.5,0.3,1,0.7,1.5,1.1l12.5-12.5C401.1,410,401.6,408.8,401.6,407.6z"/>
	<path id="Path_73" class="st8" d="M401.6,533.3h19.8v13.2h-19.8V533.3z"/>
	<path id="Path_74" class="st8" d="M406.2,381.1H395v4.6l7.3-3.7C403.5,381.5,404.8,381.1,406.2,381.1z"/>
	<path id="Path_75" class="st8" d="M441.3,533.3h19.8v13.2h-19.8V533.3z"/>
</g>
<g id="beer_1_" transform="translate(-35.5)">
	<g id="Group_31_1_" transform="translate(91.868 105.772)">
		<g id="Group_30_1_">
			<path id="Path_77_1_" class="st8" d="M1262.1,417c-2.1,0-3.8,1.7-3.8,3.8s1.7,3.8,3.8,3.8c2.1,0,3.8-1.7,3.8-3.8l0,0
				C1265.9,418.7,1264.2,417,1262.1,417z"/>
		</g>
	</g>
	<g id="Group_33_1_" transform="translate(58.938 46.943)">
		<g id="Group_32_1_">
			<path id="Path_78_1_" class="st8" d="M1240.9,379.2c-2.1,0-3.8,1.7-3.8,3.8v73.6c0,2.1,1.7,3.8,3.8,3.8s3.8-1.7,3.8-3.8v-73.5
				C1244.8,380.9,1243.1,379.2,1240.9,379.2L1240.9,379.2z"/>
		</g>
	</g>
	<g id="Group_35_1_" transform="translate(77.688 46.943)">
		<g id="Group_34_1_">
			<path id="Path_79_1_" class="st8" d="M1253,379.2c-2.1,0-3.8,1.7-3.8,3.8v73.6c0,2.1,1.7,3.8,3.8,3.8s3.8-1.7,3.8-3.8v-73.5
				C1256.8,380.9,1255.1,379.2,1253,379.2L1253,379.2z"/>
		</g>
	</g>
	<g id="Group_37_1_" transform="translate(35.5)">
		<g id="Group_36_2_">
			<path id="Path_80_2_" class="st8" d="M1372.5,411h-19.2v-11.6c8.5-6.3,10.2-18.4,3.9-26.8c-2.8-3.7-6.7-6.3-11.2-7.2
				c-3.7-0.8-7.5-0.5-11,0.8c-3.5-5.6-9.7-8.9-16.3-8.9c-2.5,0-5,0.5-7.3,1.4c-13.8-13.2-35.6-12.7-48.7,1c-1.5,1.5-2.8,3.2-3.9,4.9
				c-19.2-1-35.6,13.6-36.7,32.7c0,0.6-0.1,1.3-0.1,1.9v46.2c0.1,6.4,5.3,11.6,11.7,11.5c1.4,0,2.7-0.2,4-0.7v70.7
				c0,10.6,8.6,19.2,19.2,19.2h77c10.6,0,19.2-8.6,19.2-19.2v-11.5h19.2c10.6,0,19.2-8.6,19.3-19.2v-65.9
				C1391.8,419.7,1383.2,411,1372.5,411z M1345.6,523h-11.7c-2.1,0-3.8,1.7-3.8,3.8c0,2.1,1.7,3.8,3.8,3.8h11
				c-1.6,4.6-6,7.7-10.9,7.7h-77c-4.9,0-9.2-3.1-10.9-7.7h56.9c2.1,0,3.8-1.7,3.8-3.8c0-2.1-1.7-3.8-3.8-3.8h-57.5V418.2
				c8.7-1.3,16.2-6.9,20.1-14.8c0.8,0,1.5,0.3,2,0.8c9.1,8.9,23.7,8.8,32.7-0.3l0.1-0.1c0.2-0.2,0.6-0.4,0.9-0.4
				c6,0,9.9,1.3,11.7,3.8c1.4,2.1,1.4,5,1.4,7.3v15.6c0,4.9,3.1,9.2,7.7,10.9v62.6c0,2.1,1.7,3.8,3.8,3.8s3.8-1.7,3.8-3.8v-62.7
				c4.6-1.6,7.7-6,7.7-10.9v-27.1c2.7,0.5,5.4,0.5,8.1,0L1345.6,523z M1335.4,394.1c-1.9-1-4.2-0.2-5.2,1.7
				c-0.3,0.5-0.4,1.1-0.4,1.7V430c0,2.1-1.7,3.8-3.8,3.8s-3.8-1.7-3.8-3.8v-15.6c0-3,0-7.6-2.8-11.7c-3.3-4.7-9.3-7.1-18-7.1
				c-2.4,0-4.8,1-6.4,2.7c-5.9,6.1-15.7,6.3-21.8,0.4l-0.1-0.1c-2-1.9-4.7-3-7.4-3c-2.9,0-5.6,1.7-6.9,4.3
				c-3.2,6.6-9.8,10.8-17,10.8c-2.1,0-3.8,1.7-3.8,3.8v30.6c-0.1,2.2-1.8,4-4,4c-2.2,0-4-1.7-4-3.8v-46.1
				c-0.2-14.9,11.9-26.9,26.8-26.9c1.2,0,2.3,0.1,3.5,0.2c1.6,0.2,3.1-0.6,3.8-1.9c7.1-13,23.4-17.7,36.4-10.5
				c2.7,1.5,5.1,3.4,7.2,5.8c1.3,1.4,3.3,1.7,4.9,0.7c1.8-1.1,3.9-1.7,6-1.7c4.9,0,9.3,3.1,10.9,7.7c0.7,2,2.9,3.1,4.9,2.4
				c0.3-0.1,0.6-0.3,0.9-0.4c5.3-3.6,12.5-2.1,16,3.2c0.8,1.1,1.3,2.4,1.6,3.7C1355.2,391.1,1345.2,399.1,1335.4,394.1L1335.4,394.1
				z M1353.3,434.1h15.4v58.1h-15.4V434.1z M1384.1,496.1c0,6.4-5.2,11.5-11.5,11.5h-19.2v-7.7h19.2c2.1,0,3.8-1.7,3.8-3.8v-65.8
				c0-2.1-1.7-3.8-3.8-3.8l0,0h-19.2v-7.7h19.2c6.4,0,11.5,5.2,11.5,11.5V496.1z"/>
		</g>
	</g>
</g>
</svg>
