<?xml version="1.0" encoding="utf-8"?>
<!-- Generator: Adobe Illustrator 24.0.1, SVG Export Plug-In . SVG Version: 6.00 Build 0)  -->
<svg version="1.1" id="Layer_1" xmlns="http://www.w3.org/2000/svg" xmlns:xlink="http://www.w3.org/1999/xlink" x="0px" y="0px"
	 viewBox="0 0 275 325" style="enable-background:new 0 0 275 325;" xml:space="preserve">
<style type="text/css">
	.st0{fill:none;stroke:#3BD7F7;stroke-width:2.3067;stroke-linecap:round;stroke-linejoin:round;}
	.st1{fill:none;stroke:#E26223;stroke-width:2.3067;stroke-linecap:round;stroke-linejoin:round;}
	.st2{fill:none;stroke:#3BD7F7;stroke-width:2.3067;stroke-linecap:round;}
	.st3{fill:none;stroke:#3BD7F7;stroke-width:1.6342;stroke-linecap:round;stroke-linejoin:round;}
	.st4{fill:#FA452F;}
	.st5{fill:#E1DB54;}
	.st6{fill:#8D29D6;}
	.st7{fill:#29D655;}
	.st8{fill:#3BD7F7;}
	.st9{fill:#FFAD61;}
	.st10{fill:#592719;}
	.st11{fill:#3EA0E1;}
	.st12{fill:#D8D8D8;}
	.st13{fill:none;}
	.st14{fill:none;stroke:#D8D8D8;stroke-width:3.3084;}
</style>
<title>QDN2020_Artwork</title>
<title>QDN2020_Artwork</title>
<g>
	<path id="Path_15_1_" class="st0" d="M-335.7,581h2.9l1.3-27.6l-146.8,3.8l4-22"/>
	<path id="Path_16_1_" class="st0" d="M-478.6,557.1v23.1l145.5,0.8"/>
	<path id="Path_17_4_" class="st1" d="M-325.2,537.2"/>
	<path id="Path_17_1_" class="st0" d="M-331.5,553.6h4.9l0.8-23.1"/>
	<path id="Path_18_2_" class="st0" d="M-383.8,554.4l-90.1,1.3l-0.6-23.9h32.7"/>
	<path id="Path_19_1_" class="st0" d="M-474.5,531.9l7.7-32.9l22.6-0.8"/>
	
		<text transform="matrix(0.9994 -3.489949e-02 3.489949e-02 0.9994 -423.6753 550.0234)" class="st12" style="font-family:'OdibeeSans-Regular'; font-size:16.1466px;">Secret Hitler</text>
	
		<text transform="matrix(0.9994 -3.489949e-02 3.489949e-02 0.9994 -404.8871 573.0043)" class="st12" style="font-family:'OdibeeSans-Regular'; font-size:16.9155px;">et plus...</text>
	<path id="Path_22_1_" class="st0" d="M-442.7,531.3l140.3-1v-24.2l-139,1.2l-6.1-12.9v19.5L-442.7,531.3z"/>
	<path id="Path_24_1_" class="st2" d="M-442.6,531.3l1.2-23.8"/>
	<path id="Path_25_1_" class="st2" d="M-305.1,476.1v30.1"/>
	<path id="Path_26_1_" class="st0" d="M-308.2,473.4l3.2,2.7l-134.2,0.9l-4.4-9h13.3l3.9,8.1l118.2-1.2V451h-118.2v23.9"/>
	<path id="Path_27_1_" class="st0" d="M-439.4,477l-0.8,29.9l-4-12.3"/>
	<path id="Path_28_1_" class="st0" d="M-447.4,494.4h3.1l0.6-26.5"/>
	<path id="Path_29_1_" class="st2" d="M-440.1,506.5l40.6,0.3"/>
	<path id="Path_30_1_" class="st0" d="M-429.4,469.9v-19h-4.6l-0.3-24.2h124.8v24"/>
	<path id="Path_31_1_" class="st0" d="M-433.9,450.9c-0.7-0.1-5.5-9.3-5.5-9.3v-21.3l5.1,6.5"/>
	<path id="Path_36_2_" class="st0" d="M-309.5,426.7l3.9,0.1l0.6-28.8h-120.6v27.7"/>
	<path id="Path_37_1_" class="st3" d="M-304.9,398.1h16.1v-28l-163.5-2.6V398h26.6"/>
	<path id="Path_38_1_" class="st0" d="M-425.7,425.6l-2.5-2.8v-24.7"/>
	<path id="Path_39_1_" class="st0" d="M-452.4,398.1l-2.9-3.9v-31.4l2.9,3.7"/>
	<path id="Path_40_1_" class="st2" d="M-455.3,362.8l44.8,0.7"/>
	<path id="Path_41_1_" class="st0" d="M-288.9,369.3l-3.7-4h-15.9v-16.6l-99.3-1.2l-5.3-1v14.9l5.3,2.9l99.3,1"/>
	<path id="Path_42_1_" class="st0" d="M-412.4,346.5h95.8l8.2,2.2"/>
	
		<text transform="matrix(1 0 0 1 -407.4183 445.3178)" class="st12" style="font-family:'OdibeeSans-Regular'; font-size:19.2221px;">Mots Rapido</text>
	
		<text transform="matrix(1 0 0 1 -399.7289 468.3841)" class="st12" style="font-family:'OdibeeSans-Regular'; font-size:16.1466px;">Mot pour mot</text>
	
		<text transform="matrix(1 0 0 1 -408.9554 496.8324)" class="st12" style="font-family:'OdibeeSans-Regular'; font-size:16.1466px;">Miss Poutine</text>
	
		<text transform="matrix(1 0 0 1 -410.4935 522.3569)" class="st12" style="font-family:'OdibeeSans-Regular'; font-size:16.1466px;">Tragedy Loopers</text>
	
		<text transform="matrix(1 0 0 1 -399.2621 416.8822)" class="st12" style="font-family:'OdibeeSans-Regular'; font-size:18.4533px;">Galérapagos</text>
	
		<text transform="matrix(1 0 0 1 -404.0355 387.7091)" class="st12" style="font-family:'OdibeeSans-Regular'; font-size:18.4533px;">L&apos;osti de jeu</text>
	
		<text transform="matrix(0.9998 1.745406e-02 -1.745406e-02 0.9998 -370.4641 362.0199)" class="st12" style="font-family:'OdibeeSans-Regular'; font-size:14.7905px;">UNO</text>
	<line class="st0" x1="-429.4" y1="451.4" x2="-426.5" y2="451.4"/>
	<path class="st0" d="M-439.4,420.3"/>
	<line class="st0" x1="-439.4" y1="420.3" x2="-429.4" y2="420.3"/>
</g>
<g>
	<rect id="Rectangle_8" x="-175.3" y="289.6" class="st4" width="30.4" height="30.4"/>
	<rect id="Rectangle_188" x="-282.1" y="289.6" class="st5" width="30.4" height="30.4"/>
	<rect id="Rectangle_189" x="-246.5" y="254" class="st5" width="30.4" height="30.4"/>
	<rect id="Rectangle_190" x="-282.1" y="254" class="st5" width="30.4" height="30.4"/>
	<rect id="Rectangle_191" x="-246.5" y="218.4" class="st5" width="30.4" height="30.4"/>
	<rect id="Rectangle_14" x="-246.5" y="289.6" class="st6" width="30.4" height="30.4"/>
	<rect id="Rectangle_15" x="-210.9" y="218.4" class="st6" width="30.4" height="30.4"/>
	<rect id="Rectangle_16" x="-68.7" y="218.4" class="st7" width="30.4" height="30.4"/>
	<rect id="Rectangle_19" x="-68.7" y="182.9" class="st7" width="30.4" height="30.4"/>
	<rect id="Rectangle_9" x="-139.7" y="289.6" class="st4" width="30.4" height="30.4"/>
	<rect id="Rectangle_12" x="-210.9" y="289.6" class="st6" width="30.4" height="30.4"/>
	<rect id="Rectangle_17" x="-68.7" y="289.6" class="st7" width="30.4" height="30.4"/>
	<rect id="Rectangle_10" x="-104.1" y="289.6" class="st4" width="30.4" height="30.4"/>
	<rect id="Rectangle_13" x="-210.9" y="254" class="st6" width="30.4" height="30.4"/>
	<rect id="Rectangle_18" x="-68.7" y="254" class="st7" width="30.4" height="30.4"/>
	<rect id="Rectangle_16_1_" x="-282.1" y="40.4" class="st7" width="30.4" height="30.4"/>
	<rect id="Rectangle_19_1_" x="-282.1" y="4.9" class="st7" width="30.4" height="30.4"/>
	<rect id="Rectangle_17_1_" x="-282.1" y="111.6" class="st7" width="30.4" height="30.4"/>
	<rect id="Rectangle_18_1_" x="-282.1" y="76" class="st7" width="30.4" height="30.4"/>
	<rect id="Rectangle_11" x="-104.1" y="254" class="st4" width="30.4" height="30.4"/>
	<rect id="Rectangle_8_1_" x="-175.3" y="254" class="st4" width="30.4" height="30.4"/>
	<rect id="Rectangle_9_1_" x="-175.3" y="218.4" class="st4" width="30.4" height="30.4"/>
	<rect id="Rectangle_10_1_" x="-175.3" y="182.8" class="st4" width="30.4" height="30.4"/>
	<rect id="Rectangle_11_1_" x="-210.9" y="182.8" class="st4" width="30.4" height="30.4"/>
	<rect id="Rectangle_192" x="-104.1" y="218.4" class="st8" width="30.4" height="30.4"/>
	<rect id="Rectangle_198" x="-68.7" y="147.3" class="st5" width="30.4" height="30.4"/>
	<rect id="Rectangle_193" x="-139.7" y="218.4" class="st8" width="30.4" height="30.4"/>
	<rect id="Rectangle_196" x="-104.1" y="147.3" class="st5" width="30.4" height="30.4"/>
	<rect id="Rectangle_195" x="-139.7" y="182.9" class="st8" width="30.4" height="30.4"/>
	<rect id="Rectangle_197" x="-68.7" y="111.7" class="st5" width="30.4" height="30.4"/>
	<rect id="Rectangle_194" x="-139.7" y="254" class="st8" width="30.4" height="30.4"/>
	<rect id="Rectangle_199" x="-104.1" y="182.9" class="st5" width="30.4" height="30.4"/>
</g>
<g>
	<rect id="Rectangle_24_1_" x="129.3" y="85.2" class="st9" width="16.6" height="16.6"/>
	<rect id="Rectangle_25_1_" x="149.9" y="85.2" class="st9" width="16.6" height="16.6"/>
	<rect id="Rectangle_34_1_" x="168.4" y="85.2" class="st9" width="16.6" height="16.6"/>
	<rect id="Rectangle_168_1_" x="168.4" y="103.8" width="16.6" height="16.6"/>
	<rect id="Rectangle_36_1_" x="209.7" y="85.2" class="st9" width="16.6" height="16.6"/>
	<rect id="Rectangle_164_1_" x="209.7" y="103.8" width="16.6" height="16.6"/>
	<rect id="Rectangle_37_1_" x="188.9" y="64.6" class="st9" width="16.6" height="16.6"/>
	<rect id="Rectangle_166_1_" x="188.9" y="103.8" width="16.6" height="16.6"/>
	<rect id="Rectangle_38_1_" x="188.9" y="44" class="st9" width="16.6" height="16.6"/>
	<rect id="Rectangle_167_1_" x="188.9" y="85.2" width="16.6" height="16.6"/>
	<rect id="Rectangle_39_1_" x="209.7" y="64.6" class="st9" width="16.6" height="16.6"/>
	<rect id="Rectangle_40_1_" x="228.2" y="64.6" class="st9" width="16.6" height="16.6"/>
	<rect id="Rectangle_41_1_" x="228.2" y="85.2" class="st9" width="16.6" height="16.6"/>
	<rect id="Rectangle_165_1_" x="228.2" y="103.8" width="16.6" height="16.6"/>
	<rect id="Rectangle_42_1_" x="248.7" y="85.2" class="st9" width="16.6" height="16.6"/>
	<rect id="Rectangle_26_1_" x="108.6" y="85.2" class="st9" width="16.6" height="16.6"/>
	<rect id="Rectangle_43_1_" x="90.1" y="85.2" class="st10" width="16.6" height="16.6"/>
	<rect id="Rectangle_44_1_" x="69.5" y="103.8" class="st9" width="16.6" height="16.6"/>
	<rect id="Rectangle_55_1_" x="69.5" y="124.4" class="st9" width="16.6" height="16.6"/>
	<rect id="Rectangle_47_1_" x="90.1" y="103.8" class="st9" width="16.6" height="16.6"/>
	<rect id="Rectangle_54_1_" x="90.1" y="124.4" class="st9" width="16.6" height="16.6"/>
	<rect id="Rectangle_48_1_" x="108.6" y="103.8" class="st9" width="16.6" height="16.6"/>
	<rect id="Rectangle_53_1_" x="108.6" y="124.4" class="st9" width="16.6" height="16.6"/>
	<rect id="Rectangle_49_1_" x="129.3" y="103.8" class="st9" width="16.6" height="16.6"/>
	<rect id="Rectangle_52_1_" x="129.3" y="124.4" class="st9" width="16.6" height="16.6"/>
	<rect id="Rectangle_50_1_" x="149.9" y="103.8" class="st9" width="16.6" height="16.6"/>
	<rect id="Rectangle_51_1_" x="149.9" y="124.4" class="st9" width="16.6" height="16.6"/>
	<rect id="Rectangle_56_1_" x="168.4" y="124.4" class="st9" width="16.6" height="16.6"/>
	<rect id="Rectangle_57_1_" x="188.9" y="124.4" class="st9" width="16.6" height="16.6"/>
	<rect id="Rectangle_58_1_" x="209.7" y="124.4" class="st9" width="16.6" height="16.6"/>
	<rect id="Rectangle_62_1_" x="209.7" y="204.8" class="st9" width="16.6" height="16.6"/>
	<rect id="Rectangle_82_1_" x="209.7" y="184.2" class="st4" width="16.6" height="16.6"/>
	<rect id="Rectangle_85_1_" x="188.9" y="184.2" class="st4" width="16.6" height="16.6"/>
	<rect id="Rectangle_88_1_" x="188.9" y="163.5" class="st4" width="16.6" height="16.6"/>
	<rect id="Rectangle_87_1_" x="168.4" y="184.2" class="st4" width="16.6" height="16.6"/>
	<rect id="Rectangle_111_1_" x="168.4" y="204.8" class="st11" width="16.6" height="16.6"/>
	<rect id="Rectangle_89_1_" x="168.4" y="163.5" class="st4" width="16.6" height="16.6"/>
	<rect id="Rectangle_90_1_" x="168.4" y="145" class="st4" width="16.6" height="16.6"/>
	<rect id="Rectangle_91_1_" x="149.9" y="145" class="st4" width="16.6" height="16.6"/>
	<rect id="Rectangle_92_1_" x="129.3" y="145" class="st4" width="16.6" height="16.6"/>
	<rect id="Rectangle_93_1_" x="108.6" y="145" class="st4" width="16.6" height="16.6"/>
	<rect id="Rectangle_94_1_" x="90.1" y="145" class="st11" width="16.6" height="16.6"/>
	<rect id="Rectangle_95_1_" x="69.5" y="145" class="st4" width="16.6" height="16.6"/>
	<rect id="Rectangle_96_1_" x="48.8" y="145" class="st4" width="16.6" height="16.6"/>
	<rect id="Rectangle_97_1_" x="48.8" y="163.5" class="st4" width="16.6" height="16.6"/>
	<rect id="Rectangle_98_1_" x="30.3" y="163.5" class="st4" width="16.6" height="16.6"/>
	<rect id="Rectangle_99_1_" x="30.3" y="184.2" class="st4" width="16.6" height="16.6"/>
	<rect id="Rectangle_101_1_" x="48.8" y="184.2" class="st4" width="16.6" height="16.6"/>
	<rect id="Rectangle_102_1_" x="48.8" y="204.8" class="st4" width="16.6" height="16.6"/>
	<rect id="Rectangle_103_1_" x="69.5" y="204.8" class="st11" width="16.6" height="16.6"/>
	<rect id="Rectangle_104_1_" x="69.5" y="184.2" class="st4" width="16.6" height="16.6"/>
	<rect id="Rectangle_105_1_" x="69.5" y="163.5" class="st4" width="16.6" height="16.6"/>
	<rect id="Rectangle_106_1_" x="90.1" y="163.5" class="st11" width="16.6" height="16.6"/>
	<rect id="Rectangle_107_1_" x="108.6" y="163.5" class="st4" width="16.6" height="16.6"/>
	<rect id="Rectangle_108_1_" x="129.3" y="163.5" class="st4" width="16.6" height="16.6"/>
	<rect id="Rectangle_109_1_" x="149.9" y="163.5" class="st11" width="16.6" height="16.6"/>
	<rect id="Rectangle_110_1_" x="149.9" y="184.2" class="st11" width="16.6" height="16.6"/>
	<rect id="Rectangle_112_1_" x="149.9" y="204.8" class="st5" width="16.6" height="16.6"/>
	<rect id="Rectangle_100_1_" x="9.7" y="184.2" class="st4" width="16.6" height="16.6"/>
	<rect id="Rectangle_86_1_" x="188.9" y="204.8" class="st4" width="16.6" height="16.6"/>
	<rect id="Rectangle_84_1_" x="228.2" y="184.2" class="st4" width="16.6" height="16.6"/>
	<rect id="Rectangle_83_1_" x="209.7" y="163.5" class="st4" width="16.6" height="16.6"/>
	<rect id="Rectangle_64_1_" x="209.7" y="223.3" class="st9" width="16.6" height="16.6"/>
	<rect id="Rectangle_68_1_" x="188.9" y="223.3" class="st9" width="16.6" height="16.6"/>
	<rect id="Rectangle_127_1_" x="188.9" y="243.8" class="st11" width="16.6" height="16.6"/>
	<rect id="Rectangle_136_1_" x="188.9" y="264.6" class="st11" width="16.6" height="16.6"/>
	<rect id="Rectangle_144_1_" x="188.9" y="283.1" class="st10" width="16.6" height="16.6"/>
	<rect id="Rectangle_148_1_" x="209.7" y="283.1" class="st10" width="16.6" height="16.6"/>
	<rect id="Rectangle_146_1_" x="188.9" y="303.6" class="st10" width="16.6" height="16.6"/>
	<rect id="Rectangle_149_1_" x="209.7" y="303.6" class="st10" width="16.6" height="16.6"/>
	<rect id="Rectangle_150_1_" x="228.2" y="303.6" class="st10" width="16.6" height="16.6"/>
	<rect id="Rectangle_69_1_" x="168.4" y="223.3" class="st11" width="16.6" height="16.6"/>
	<rect id="Rectangle_126_1_" x="168.4" y="243.8" class="st11" width="16.6" height="16.6"/>
	<rect id="Rectangle_135_1_" x="168.4" y="264.6" class="st11" width="16.6" height="16.6"/>
	<rect id="Rectangle_145_1_" x="168.4" y="283.1" class="st10" width="16.6" height="16.6"/>
	<rect id="Rectangle_147_1_" x="168.4" y="303.6" class="st10" width="16.6" height="16.6"/>
	<rect id="Rectangle_70_1_" x="149.9" y="223.3" class="st11" width="16.6" height="16.6"/>
	<rect id="Rectangle_125_1_" x="149.9" y="243.8" class="st11" width="16.6" height="16.6"/>
	<rect id="Rectangle_134_1_" x="149.9" y="264.6" class="st11" width="16.6" height="16.6"/>
	<rect id="Rectangle_71_1_" x="129.3" y="223.3" class="st11" width="16.6" height="16.6"/>
	<rect id="Rectangle_124_1_" x="129.3" y="243.8" class="st11" width="16.6" height="16.6"/>
	<rect id="Rectangle_115_1_" x="129.3" y="184.2" class="st11" width="16.6" height="16.6"/>
	<rect id="Rectangle_118_1_" x="129.3" y="204.8" class="st11" width="16.6" height="16.6"/>
	<rect id="Rectangle_72_1_" x="108.6" y="223.3" class="st11" width="16.6" height="16.6"/>
	<rect id="Rectangle_123_1_" x="108.6" y="243.8" class="st11" width="16.6" height="16.6"/>
	<rect id="Rectangle_114_1_" x="108.6" y="184.2" class="st11" width="16.6" height="16.6"/>
	<rect id="Rectangle_117_1_" x="108.6" y="204.8" class="st11" width="16.6" height="16.6"/>
	<rect id="Rectangle_73_1_" x="90.1" y="223.3" class="st11" width="16.6" height="16.6"/>
	<rect id="Rectangle_122_1_" x="90.1" y="243.8" class="st11" width="16.6" height="16.6"/>
	<rect id="Rectangle_131_1_" x="90.1" y="264.6" class="st11" width="16.6" height="16.6"/>
	<rect id="Rectangle_113_1_" x="90.1" y="184.2" class="st11" width="16.6" height="16.6"/>
	<rect id="Rectangle_116_1_" x="90.1" y="204.8" class="st5" width="16.6" height="16.6"/>
	<rect id="Rectangle_74_1_" x="69.5" y="223.3" class="st11" width="16.6" height="16.6"/>
	<rect id="Rectangle_120_1_" x="69.5" y="243.8" class="st11" width="16.6" height="16.6"/>
	<rect id="Rectangle_129_1_" x="69.5" y="264.6" class="st11" width="16.6" height="16.6"/>
	<rect id="Rectangle_138_1_" x="69.5" y="283.1" class="st10" width="16.6" height="16.6"/>
	<rect id="Rectangle_140_1_" x="69.5" y="303.6" class="st10" width="16.6" height="16.6"/>
	<rect id="Rectangle_75_1_" x="48.8" y="223.3" class="st9" width="16.6" height="16.6"/>
	<rect id="Rectangle_121_1_" x="48.8" y="243.8" class="st11" width="16.6" height="16.6"/>
	<rect id="Rectangle_130_1_" x="48.8" y="264.6" class="st11" width="16.6" height="16.6"/>
	<rect id="Rectangle_137_1_" x="48.8" y="283.1" class="st10" width="16.6" height="16.6"/>
	<rect id="Rectangle_141_1_" x="30.3" y="283.1" class="st10" width="16.6" height="16.6"/>
	<rect id="Rectangle_139_1_" x="48.8" y="303.6" class="st10" width="16.6" height="16.6"/>
	<rect id="Rectangle_142_1_" x="30.3" y="303.6" class="st10" width="16.6" height="16.6"/>
	<rect id="Rectangle_143_1_" x="9.7" y="303.6" class="st10" width="16.6" height="16.6"/>
	<rect id="Rectangle_76_1_" x="30.3" y="223.3" class="st9" width="16.6" height="16.6"/>
	<rect id="Rectangle_81_1_" x="30.3" y="243.8" class="st9" width="16.6" height="16.6"/>
	<rect id="Rectangle_78_1_" x="30.3" y="204.8" class="st9" width="16.6" height="16.6"/>
	<rect id="Rectangle_79_1_" x="9.7" y="204.8" class="st9" width="16.6" height="16.6"/>
	<rect id="Rectangle_77_1_" x="9.7" y="223.3" class="st9" width="16.6" height="16.6"/>
	<rect id="Rectangle_80_1_" x="9.7" y="243.8" class="st9" width="16.6" height="16.6"/>
	<rect id="Rectangle_67_1_" x="209.7" y="243.8" class="st9" width="16.6" height="16.6"/>
	<rect id="Rectangle_65_1_" x="228.2" y="223.3" class="st9" width="16.6" height="16.6"/>
	<rect id="Rectangle_66_1_" x="228.2" y="243.8" class="st9" width="16.6" height="16.6"/>
	<rect id="Rectangle_63_1_" x="228.2" y="204.8" class="st9" width="16.6" height="16.6"/>
	<rect id="Rectangle_45_1_" x="48.8" y="85.2" class="st9" width="16.6" height="16.6"/>
	<rect id="Rectangle_182_1_" x="48.8" y="103.8" class="st10" width="16.6" height="16.6"/>
	<rect id="Rectangle_179_1_" x="30.3" y="85.2" class="st10" width="16.6" height="16.6"/>
	<rect id="Rectangle_181_1_" x="30.3" y="103.8" class="st10" width="16.6" height="16.6"/>
	<rect id="Rectangle_46_1_" x="48.8" y="64.6" class="st9" width="16.6" height="16.6"/>
	<rect id="Rectangle_180_1_" x="30.3" y="64.6" class="st10" width="16.6" height="16.6"/>
	<rect id="Rectangle_27_1_" x="108.6" y="64.6" class="st9" width="16.6" height="16.6"/>
	<rect id="Rectangle_28_1_" x="129.3" y="64.6" class="st9" width="16.6" height="16.6"/>
	<rect id="Rectangle_29_1_" x="149.9" y="64.6" class="st9" width="16.6" height="16.6"/>
	<rect id="Rectangle_160_1_" x="168.4" y="64.6" width="16.6" height="16.6"/>
	<rect id="Rectangle_30_1_" x="149.9" y="44" class="st9" width="16.6" height="16.6"/>
	<rect id="Rectangle_159_1_" x="168.4" y="44" width="16.6" height="16.6"/>
	<rect id="Rectangle_153_1_" x="149.9" y="25.4" class="st4" width="16.6" height="16.6"/>
	<rect id="Rectangle_162_1_" x="209.7" y="25.4" class="st4" width="16.6" height="16.6"/>
	<rect id="Rectangle_157_1_" x="168.4" y="25.4" class="st4" width="16.6" height="16.6"/>
	<rect id="Rectangle_161_1_" x="228.2" y="25.4" class="st4" width="16.6" height="16.6"/>
	<rect id="Rectangle_156_1_" x="149.9" y="4.8" class="st4" width="16.6" height="16.6"/>
	<rect id="Rectangle_158_1_" x="168.4" y="4.8" class="st4" width="16.6" height="16.6"/>
	<rect id="Rectangle_31_1_" x="129.3" y="44" class="st9" width="16.6" height="16.6"/>
	<rect id="Rectangle_152_1_" x="129.3" y="25.4" class="st4" width="16.6" height="16.6"/>
	<rect id="Rectangle_163_1_" x="188.9" y="25.4" class="st4" width="16.6" height="16.6"/>
	<rect id="Rectangle_155_1_" x="129.3" y="4.8" class="st4" width="16.6" height="16.6"/>
	<rect id="Rectangle_32_1_" x="108.6" y="44" class="st9" width="16.6" height="16.6"/>
	<rect id="Rectangle_171_1_" x="90.1" y="44" class="st10" width="16.6" height="16.6"/>
	<rect id="Rectangle_174_1_" x="69.5" y="44" class="st10" width="16.6" height="16.6"/>
	<rect id="Rectangle_177_1_" x="69.5" y="85.2" class="st10" width="16.6" height="16.6"/>
	<rect id="Rectangle_176_1_" x="48.8" y="44" class="st10" width="16.6" height="16.6"/>
	<rect id="Rectangle_151_1_" x="108.6" y="25.4" class="st4" width="16.6" height="16.6"/>
	<rect id="Rectangle_169_1_" x="90.1" y="25.4" class="st4" width="16.6" height="16.6"/>
	<rect id="Rectangle_172_1_" x="69.5" y="25.4" class="st4" width="16.6" height="16.6"/>
	<rect id="Rectangle_178_1_" x="69.5" y="64.6" class="st10" width="16.6" height="16.6"/>
	<rect id="Rectangle_175_1_" x="48.8" y="25.4" class="st4" width="16.6" height="16.6"/>
	<rect id="Rectangle_154_1_" x="108.6" y="4.8" class="st4" width="16.6" height="16.6"/>
	<rect id="Rectangle_170_1_" x="90.1" y="4.8" class="st4" width="16.6" height="16.6"/>
	<rect id="Rectangle_173_1_" x="69.5" y="4.8" class="st4" width="16.6" height="16.6"/>
	<rect id="Rectangle_33_1_" x="90.1" y="64.6" class="st9" width="16.6" height="16.6"/>
</g>
<g id="Group_62_1_" transform="translate(-1289 -1896)">
	<g id="Group_15_1_" transform="translate(0 111)">
		<g id="Group_12_1_" transform="translate(1346.341 1784.639)">
			<g id="Group_10_1_" transform="translate(0 124.554)">
				<g id="Group_9_1_">
					<g id="Group_8_1_" transform="translate(63.086 53.38) rotate(180)">
						<path id="Polygon_1_1_" class="st12" d="M-244.8-367.4c0.4-0.4,1.1-0.4,1.5,0l32,31.5c0.4,0.4,0.4,1.1,0,1.6
							c-0.2,0.2-0.5,0.3-0.8,0.3h-64.1c-0.6,0-1.1-0.5-1.1-1.1c0-0.3,0.1-0.6,0.3-0.8L-244.8-367.4z"/>
						<path id="Rectangle_200_1_" class="st12" d="M-262.2-345h36.4c1.2,0,2.2,1,2.2,2.2v32c0,1.2-1,2.2-2.2,2.2h-36.4
							c-1.2,0-2.2-1-2.2-2.2v-32C-264.4-344-263.4-345-262.2-345z"/>
					</g>
				</g>
			</g>
			<g id="Group_13_1_" transform="translate(0)">
				<g id="Group_9-2_1_" transform="translate(63.086 53.38) rotate(180)">
					<g id="Group_8-2_1_" transform="translate(63.086 53.38) rotate(180)">
						<path id="Polygon_1-2_1_" class="st12" d="M306.3,350.5c0.4-0.4,1.1-0.4,1.5,0l32,30.5c0.4,0.4,0.5,1.1,0,1.6
							c-0.2,0.2-0.5,0.3-0.8,0.3h-64c-0.6,0-1.1-0.5-1.1-1.1c0-0.3,0.1-0.6,0.3-0.8L306.3,350.5z"/>
						<path id="Rectangle_200-2_1_" class="st12" d="M288.9,373h36.4c1.2,0,2.2,1,2.2,2.2v30.9c0,1.2-1,2.2-2.2,2.2h-36.4
							c-1.2,0-2.2-1-2.2-2.2v-30.9C286.7,374,287.7,373,288.9,373z"/>
					</g>
				</g>
			</g>
		</g>
		<g id="Group_14_1_" transform="translate(1466.66 1841.872) rotate(90)">
			<g id="Group_10-2_1_" transform="translate(0 124.554)">
				<g id="Group_9-3_1_" transform="translate(0 0)">
					<g id="Group_8-3_1_" transform="translate(63.086 53.38) rotate(180)">
						<path id="Polygon_1-3_1_" class="st8" d="M-327.9,267.8c0.4-0.4,1.1-0.4,1.5,0l32,30.5c0.4,0.4,0.5,1.1,0,1.6
							c-0.2,0.2-0.5,0.3-0.8,0.3h-64c-0.6,0-1.1-0.5-1.1-1.1c0-0.3,0.1-0.6,0.3-0.8L-327.9,267.8z"/>
						<path id="Rectangle_200-3_1_" class="st8" d="M-345.3,290.3h36.4c1.2,0,2.2,1,2.2,2.2v30.9c0,1.2-1,2.2-2.2,2.2h-36.4
							c-1.2,0-2.2-1-2.2-2.2v-30.9C-347.5,291.2-346.5,290.3-345.3,290.3z"/>
					</g>
				</g>
			</g>
			<g id="Group_13-2_1_">
				<g id="Group_9-4_1_" transform="translate(63.086 53.38) rotate(180)">
					<g id="Group_8-4_1_" transform="translate(63.086 53.38) rotate(180)">
						<path id="Polygon_1-4_1_" class="st8" d="M389.4-284.7c0.4-0.4,1.1-0.4,1.5,0l32,31.5c0.4,0.4,0.4,1.1,0,1.6
							c-0.2,0.2-0.5,0.3-0.8,0.3h-64c-0.6,0-1.1-0.5-1.1-1.1c0-0.3,0.1-0.6,0.3-0.8L389.4-284.7z"/>
						<path id="Rectangle_200-4_1_" class="st8" d="M372-262.3h36.4c1.2,0,2.2,1,2.2,2.2v32c0,1.2-1,2.2-2.2,2.2H372
							c-1.2,0-2.2-1-2.2-2.2v-32C369.8-261.3,370.8-262.3,372-262.3z"/>
					</g>
				</g>
			</g>
		</g>
	</g>
	<g id="Rectangle_201_1_" transform="translate(1289 2027)">
		<path class="st13" d="M274.5,362.9h36.4c4.3,0,7.7,3.5,7.7,7.7V407c0,4.3-3.5,7.7-7.7,7.7h-36.4c-4.3,0-7.7-3.5-7.7-7.7v-36.4
			C266.8,366.4,270.3,362.9,274.5,362.9z"/>
		<path class="st14" d="M274.5,364.6h36.4c3.3,0,6.1,2.7,6.1,6.1v36.4c0,3.3-2.7,6.1-6.1,6.1h-36.4c-3.3,0-6.1-2.7-6.1-6.1v-36.5
			C268.5,367.3,271.2,364.6,274.5,364.6z"/>
	</g>
	<g id="Rectangle_202_1_" transform="translate(1420 2027)">
		<path class="st13" d="M288,362.9h36.4c4.3,0,7.7,3.5,7.7,7.7V407c0,4.3-3.5,7.7-7.7,7.7H288c-4.3,0-7.7-3.5-7.7-7.7v-36.4
			C280.3,366.4,283.7,362.9,288,362.9z"/>
		<path class="st14" d="M288,364.6h36.4c3.3,0,6.1,2.7,6.1,6.1v36.4c0,3.3-2.7,6.1-6.1,6.1H288c-3.3,0-6.1-2.7-6.1-6.1v-36.5
			C281.9,367.3,284.7,364.6,288,364.6z"/>
	</g>
	<g id="Rectangle_203_1_" transform="translate(1420 1896)">
		<path class="st13" d="M288,349.5h36.4c4.3,0,7.7,3.5,7.7,7.7v36.4c0,4.3-3.5,7.7-7.7,7.7H288c-4.3,0-7.7-3.5-7.7-7.7v-36.4
			C280.3,352.9,283.7,349.5,288,349.5z"/>
		<path class="st14" d="M288,351.1h36.4c3.3,0,6.1,2.7,6.1,6.1v36.4c0,3.3-2.7,6.1-6.1,6.1H288c-3.3,0-6.1-2.7-6.1-6.1v-36.4
			C281.9,353.8,284.7,351.1,288,351.1z"/>
	</g>
	<g id="Rectangle_204_1_" transform="translate(1289 1896)">
		<path class="st13" d="M274.5,349.5h36.4c4.3,0,7.7,3.5,7.7,7.7v36.4c0,4.3-3.5,7.7-7.7,7.7h-36.4c-4.3,0-7.7-3.5-7.7-7.7v-36.4
			C266.8,352.9,270.3,349.5,274.5,349.5z"/>
		<path class="st14" d="M274.5,351.1h36.4c3.3,0,6.1,2.7,6.1,6.1v36.4c0,3.3-2.7,6.1-6.1,6.1h-36.4c-3.3,0-6.1-2.7-6.1-6.1v-36.4
			C268.5,353.8,271.2,351.1,274.5,351.1z"/>
	</g>
	<g id="Rectangle_205_1_" transform="translate(1433 2040)">
		<rect x="281.6" y="364.3" class="st13" width="24.3" height="24.3"/>
		<rect x="283.3" y="365.9" class="st14" width="21" height="21"/>
	</g>
	<g id="Path_5_1_" transform="translate(1302 2040)">
		<path class="st13" d="M280.3,364.3l12.1,24.3h-24.3L280.3,364.3z"/>
		<path class="st12" d="M280.3,371.7l-6.8,13.6h13.6L280.3,371.7 M280.3,364.3l12.1,24.3h-24.3L280.3,364.3z"/>
	</g>
	<g id="Group_16_1_" transform="translate(-132 -62)">
		<path id="Path_6_1_" class="st14" d="M1703.1,2322.6l20.8,20.8"/>
		<path id="Path_7_1_" class="st14" d="M1724,2322.6l-20.3,20.3"/>
	</g>
	<g id="Ellipse_10_1_" transform="translate(1433 1909)">
		<circle class="st13" cx="293.8" cy="362.9" r="12.1"/>
		<circle class="st14" cx="293.8" cy="362.9" r="10.5"/>
	</g>
</g>
<g id="Group_29_1_" transform="translate(0 33.5)">
	<path id="Path_50_1_" class="st8" d="M589.2,407.6h44.1c4.9,0,8.8-3.9,8.8-8.8l0,0v-38.4c0-4.9-3.9-8.8-8.8-8.8l0,0h-44.1
		c-4.9,0-8.8,3.9-8.8,8.8l0,0v38.3C580.4,403.6,584.4,407.6,589.2,407.6z"/>
	<path id="Path_51_1_" class="st8" d="M520.9,407.6H565c4.9,0,8.8-3.9,8.8-8.8v-38.4c0-4.9-3.9-8.8-8.8-8.8h-44.1
		c-4.9,0-8.8,3.9-8.8,8.8l0,0v38.3C512.1,403.6,516,407.6,520.9,407.6L520.9,407.6z"/>
	<path id="Path_52_1_" class="st8" d="M660.9,384c-7.3,0-13.2,5.9-13.2,13.2l0,0v20.7c-2.9-2-6.4-3.1-9.9-3.1H516.5
		c-3.5,0-7,1.1-9.9,3.1v-20.7c0-7.3-5.9-13.2-13.2-13.2s-13.3,5.9-13.3,13.2v57.4c0,7.3,5.9,13.2,13.2,13.2h4.4
		c0,4.9,3.9,8.8,8.8,8.8c4.9,0,8.8-3.9,8.8-8.8h123.5c0,4.9,3.9,8.8,8.8,8.8c4.9,0,8.8-3.9,8.8-8.8h4.4c7.3,0,13.2-5.9,13.2-13.2
		v-57.4C674.1,389.9,668.2,384,660.9,384z"/>
</g>
<g id="military" transform="translate(656.969 -3)">
	<path id="Path_53" class="st8" d="M225.9,394.4c-1.9,0-3.6,0.7-5,2.1l-2.2,2.2l9.9,9.9l2.2-2.2c2.7-2.7,2.7-7.2,0-9.9
		C229.5,395.1,227.7,394.4,225.9,394.4z"/>
	<path id="Path_54" class="st8" d="M208.1,409.3l-5-5h-9.9v9.9l5,5l-7.8,7.8c0.7,0.5,1.4,1.1,2,1.7l7.4,7.4c0.2,0.2,0.4,0.5,0.6,0.7
		l23.5-23.5l-9.9-9.9L208.1,409.3z"/>
	<path id="Path_55" class="st8" d="M156.8,455.1l-5.7-1l-10.8,8.7l16.5,6.2V455.1z"/>
	<path id="Path_56" class="st8" d="M110.5,477.1c0,1.8,1.5,3.3,3.3,3.3h39.7c1.8,0,3.3-1.5,3.3-3.3v-1l-23.2-8.7l-23.2,8.7v1H110.5z
		"/>
	<path id="Path_57" class="st8" d="M127.1,381.1h13.2v6.6h-13.2V381.1z"/>
	<path id="Path_58" class="st8" d="M146.5,449.3l-1.9-7.5c-7,2.8-14.9,2.8-21.9,0l-1.9,7.5l12.8,10.2L146.5,449.3z"/>
	<path id="Path_59" class="st8" d="M156.8,394.4h-40.7c-0.8,2.1-2.3,4-4.1,5.3l-3.1,2.2c1,1.7,1.6,3.7,1.6,5.7v6.6
		c0,12.8,10.4,23.1,23.2,23.1s23.1-10.4,23.1-23.1V394.4z"/>
	<path id="Path_60" class="st8" d="M110.5,455.1V469l16.5-6.2l-10.8-8.7L110.5,455.1z"/>
	<path id="Path_61" class="st8" d="M146.9,381.1h23.2v6.6h-23.2V381.1z"/>
	<path id="Path_62" class="st8" d="M159.9,448.9l8.7,1.5l-5.1-5.1L159.9,448.9z"/>
	<path id="Path_63" class="st8" d="M170.1,394.4h-6.6v19.8c0,2.5-0.3,5.1-1,7.5c4.7-2.7,7.6-7.7,7.6-13.1V394.4z"/>
	<path id="Path_64" class="st8" d="M146.9,354.7h-26.5c-11.5,0-21.2,8.5-22.9,19.8h72.2C168.1,363.2,158.4,354.7,146.9,354.7z"/>
	<path id="Path_65" class="st8" d="M85.1,428l-10.8-6.5c-2.2-1.2-5-0.6-6.3,1.5l-10,16l14.5,8.7l-3.4,5.7l-14.7-8.8L43,462.8
		l9.3,4.7l-3,5.9l-9.8-4.9c-3,5.7-2.5,12.6,1.3,17.9l8.1-5.4l3.7,5.5l-6.8,4.6c2.7,1.7,5.8,2.6,9,2.6H64v-6.6h6.6v6.6h13.2v-16.5
		h-6.6v-6.6h6.6v-11l-5.7,0.9l-11.3,18.4l-5.6-3.5l4.3-7l-9.6-4.8l3-5.9l10.1,5.1l10.7-17.4l-7.7-5.1l3.7-5.5l7.5,5l3.3-5.4
		c0.4-0.7,0.6-1.5,0.6-2.2C87.4,430.3,86.5,428.8,85.1,428z"/>
	<path id="Path_66" class="st8" d="M195.1,447.3c1.8-1.8,1.8-4.8,0-6.6l-7.4-7.4c-3.1-2.9-7.8-3.3-11.3-0.8l9.1,9.1l-4.7,4.7
		l-9.2-9.2l-3.6,3.6l11.8,11.8c2.7,0.5,5.3,1.2,7.9,2.1L195.1,447.3z"/>
	<path id="Path_67" class="st8" d="M163.4,477.1c0,5.5-4.4,9.9-9.9,9.9h-39.7c-5.5,0-9.9-4.4-9.9-9.9v-20.9l-13.2,2.2v88.1h6.6
		v-13.2c0-3.7,3-6.6,6.6-6.6h19.8c3.7,0,6.6,3,6.6,6.6v13.2h6.6v-13.2c0-3.7,3-6.6,6.6-6.6h19.8c3.7,0,6.6,3,6.6,6.6v13.2h6.6v-87.9
		l-13.2-2.3v20.8H163.4z M170.1,500.2v13.2c0,3.7-3,6.6-6.6,6.6H104c-3.7,0-6.6-3-6.6-6.6v-13.2c0-3.7,3-6.6,6.6-6.6h59.5
		C167.1,493.6,170.1,496.6,170.1,500.2L170.1,500.2z"/>
	<path id="Path_68" class="st8" d="M196.5,493.6v13.2h13.2v-11.1c0-0.7-0.1-1.4-0.1-2.1H196.5L196.5,493.6z"/>
	<path id="Path_69" class="st8" d="M189.9,506.8v-13.2c0-3.7,3-6.6,6.6-6.6h12.2c-0.5-2.3-1.3-4.5-2.2-6.6h-9.9v-6.6h6
		c-4.7-6.6-11.5-11.4-19.3-13.7v60h19.8v6.6h-19.8v19.8h26.5v-6.6h-13.2v-6.6h13.2v-19.8h-13.2C192.9,513.4,189.9,510.5,189.9,506.8
		z"/>
	<path id="Path_70" class="st8" d="M116.9,387.8h3.6v-6.6h-12C112.5,381.2,115.9,383.9,116.9,387.8z"/>
	<path id="Path_71" class="st8" d="M103.9,500.2h59.5v13.2h-59.5V500.2z"/>
	<path id="Path_72" class="st8" d="M103.9,407.6c0-0.6-0.1-1.2-0.4-1.8l-10.9,7.8l-3.8-5.4l19.4-13.9c1.5-1,2.3-2.7,2.3-4.5
		c0-1.2-1-2.1-2.2-2c-0.3,0-0.5,0.1-0.8,0.2l-22.8,11.4c-4.5,2.2-7.3,6.8-7.3,11.8v4.5c0.1,0.1,0.2,0.1,0.3,0.1l10.8,6.5
		c0.5,0.3,1,0.7,1.5,1.1l12.5-12.5C103.4,410,103.9,408.8,103.9,407.6z"/>
	<path id="Path_73" class="st8" d="M103.9,533.3h19.8v13.2h-19.8V533.3z"/>
	<path id="Path_74" class="st8" d="M108.5,381.1H97.3v4.6l7.3-3.7C105.8,381.5,107.1,381.1,108.5,381.1z"/>
	<path id="Path_75" class="st8" d="M143.6,533.3h19.8v13.2h-19.8V533.3z"/>
</g>
<g id="beer_1_" transform="translate(-35.5)">
	<g id="Group_31_1_" transform="translate(91.868 105.772)">
		<g id="Group_30_1_">
			<path id="Path_77_1_" class="st8" d="M964.4,417c-2.1,0-3.8,1.7-3.8,3.8s1.7,3.8,3.8,3.8c2.1,0,3.8-1.7,3.8-3.8l0,0
				C968.2,418.7,966.5,417,964.4,417z"/>
		</g>
	</g>
	<g id="Group_33_1_" transform="translate(58.938 46.943)">
		<g id="Group_32_1_">
			<path id="Path_78_1_" class="st8" d="M943.2,379.2c-2.1,0-3.8,1.7-3.8,3.8v73.6c0,2.1,1.7,3.8,3.8,3.8s3.8-1.7,3.8-3.8v-73.5
				C947.1,380.9,945.4,379.2,943.2,379.2L943.2,379.2z"/>
		</g>
	</g>
	<g id="Group_35_1_" transform="translate(77.688 46.943)">
		<g id="Group_34_1_">
			<path id="Path_79_1_" class="st8" d="M955.3,379.2c-2.1,0-3.8,1.7-3.8,3.8v73.6c0,2.1,1.7,3.8,3.8,3.8s3.8-1.7,3.8-3.8v-73.5
				C959.1,380.9,957.4,379.2,955.3,379.2L955.3,379.2z"/>
		</g>
	</g>
	<g id="Group_37_1_" transform="translate(35.5)">
		<g id="Group_36_2_">
			<path id="Path_80_2_" class="st8" d="M1074.8,411h-19.2v-11.6c8.5-6.3,10.2-18.4,3.9-26.8c-2.8-3.7-6.7-6.3-11.2-7.2
				c-3.7-0.8-7.5-0.5-11,0.8c-3.5-5.6-9.7-8.9-16.3-8.9c-2.5,0-5,0.5-7.3,1.4c-13.8-13.2-35.6-12.7-48.7,1c-1.5,1.5-2.8,3.2-3.9,4.9
				c-19.2-1-35.6,13.6-36.7,32.7c0,0.6-0.1,1.3-0.1,1.9v46.2c0.1,6.4,5.3,11.6,11.7,11.5c1.4,0,2.7-0.2,4-0.7v70.7
				c0,10.6,8.6,19.2,19.2,19.2h77c10.6,0,19.2-8.6,19.2-19.2v-11.5h19.2c10.6,0,19.2-8.6,19.3-19.2v-65.9
				C1094.1,419.7,1085.5,411,1074.8,411z M1047.9,523h-11.7c-2.1,0-3.8,1.7-3.8,3.8c0,2.1,1.7,3.8,3.8,3.8h11
				c-1.6,4.6-6,7.7-10.9,7.7h-77c-4.9,0-9.2-3.1-10.9-7.7h56.9c2.1,0,3.8-1.7,3.8-3.8c0-2.1-1.7-3.8-3.8-3.8h-57.5V418.2
				c8.7-1.3,16.2-6.9,20.1-14.8c0.8,0,1.5,0.3,2,0.8c9.1,8.9,23.7,8.8,32.7-0.3l0.1-0.1c0.2-0.2,0.6-0.4,0.9-0.4
				c6,0,9.9,1.3,11.7,3.8c1.4,2.1,1.4,5,1.4,7.3v15.6c0,4.9,3.1,9.2,7.7,10.9v62.6c0,2.1,1.7,3.8,3.8,3.8s3.8-1.7,3.8-3.8v-62.7
				c4.6-1.6,7.7-6,7.7-10.9v-27.1c2.7,0.5,5.4,0.5,8.1,0L1047.9,523z M1037.7,394.1c-1.9-1-4.2-0.2-5.2,1.7
				c-0.3,0.5-0.4,1.1-0.4,1.7V430c0,2.1-1.7,3.8-3.8,3.8s-3.8-1.7-3.8-3.8v-15.6c0-3,0-7.6-2.8-11.7c-3.3-4.7-9.3-7.1-18-7.1
				c-2.4,0-4.8,1-6.4,2.7c-5.9,6.1-15.7,6.3-21.8,0.4l-0.1-0.1c-2-1.9-4.7-3-7.4-3c-2.9,0-5.6,1.7-6.9,4.3
				c-3.2,6.6-9.8,10.8-17,10.8c-2.1,0-3.8,1.7-3.8,3.8v30.6c-0.1,2.2-1.8,4-4,4s-4-1.7-4-3.8v-46.1c-0.2-14.9,11.9-26.9,26.8-26.9
				c1.2,0,2.3,0.1,3.5,0.2c1.6,0.2,3.1-0.6,3.8-1.9c7.1-13,23.4-17.7,36.4-10.5c2.7,1.5,5.1,3.4,7.2,5.8c1.3,1.4,3.3,1.7,4.9,0.7
				c1.8-1.1,3.9-1.7,6-1.7c4.9,0,9.3,3.1,10.9,7.7c0.7,2,2.9,3.1,4.9,2.4c0.3-0.1,0.6-0.3,0.9-0.4c5.3-3.6,12.5-2.1,16,3.2
				c0.8,1.1,1.3,2.4,1.6,3.7C1057.5,391.1,1047.5,399.1,1037.7,394.1L1037.7,394.1z M1055.6,434.1h15.4v58.1h-15.4V434.1z
				 M1086.4,496.1c0,6.4-5.2,11.5-11.5,11.5h-19.2v-7.7h19.2c2.1,0,3.8-1.7,3.8-3.8v-65.8c0-2.1-1.7-3.8-3.8-3.8l0,0h-19.2v-7.7
				h19.2c6.4,0,11.5,5.2,11.5,11.5V496.1z"/>
		</g>
	</g>
</g>
</svg>
