<?xml version="1.0" encoding="utf-8"?>
<!-- Generator: Adobe Illustrator 24.0.1, SVG Export Plug-In . SVG Version: 6.00 Build 0)  -->
<svg version="1.1" id="Layer_1" xmlns="http://www.w3.org/2000/svg" xmlns:xlink="http://www.w3.org/1999/xlink" x="0px" y="0px"
	 viewBox="0 0 51 49" style="enable-background:new 0 0 51 49;" xml:space="preserve">
<style type="text/css">
	.st0{fill:#3BD7F7;}
</style>
<title>cc-vector</title>
<g id="credit-card">
	<path id="Path_87" class="st0" d="M5.1,40.9h40.9c2.2,0,4.1-1.8,4.1-4.1V12.2c0-2.3-1.8-4.1-4.1-4.1H5.1C2.8,8.2,1,10,1,12.2v24.5
		C1,39,2.8,40.8,5.1,40.9z M2.6,12.2c0-1.4,1.1-2.5,2.5-2.4h40.9c1.4,0,2.5,1.1,2.5,2.4v24.5c0,1.4-1.1,2.5-2.5,2.5H5.1
		c-1.4,0-2.5-1.1-2.5-2.5V12.2z"/>
	<path id="Path_88" class="st0" d="M8.3,21.2h3.3c1.4,0,2.4-1.1,2.4-2.5l0,0v-3.3c0-1.4-1.1-2.5-2.4-2.5H8.3c-1.4,0-2.5,1.1-2.5,2.4
		v3.3C5.9,20.1,7,21.2,8.3,21.2z M8.3,14.7h3.3c0.5,0,0.8,0.4,0.8,0.8v0.8h-0.8c-0.5,0-0.8,0.4-0.8,0.8c0,0.5,0.4,0.8,0.8,0.8h0.8
		v0.8c0,0.5-0.4,0.8-0.8,0.8H8.3c-0.5,0-0.8-0.4-0.8-0.8V18h0.8c0.5,0,0.8-0.4,0.8-0.8c0-0.5-0.4-0.8-0.8-0.8H7.5v-0.8
		C7.5,15.1,7.9,14.7,8.3,14.7L8.3,14.7z"/>
	<path id="Path_89" class="st0" d="M6.7,32.7H19c0.5,0,0.8-0.4,0.8-0.8c0-0.5-0.4-0.8-0.8-0.8H6.7c-0.5,0-0.8,0.4-0.8,0.8
		C5.9,32.3,6.2,32.6,6.7,32.7C6.7,32.6,6.7,32.6,6.7,32.7L6.7,32.7z"/>
	<path id="Path_90" class="st0" d="M6.7,36H23c0.5,0,0.8-0.4,0.8-0.8c0-0.5-0.4-0.8-0.8-0.8H6.7c-0.5,0-0.8,0.4-0.8,0.8
		C5.9,35.6,6.2,36,6.7,36z"/>
	<path id="Path_91" class="st0" d="M38.6,37.6c0.7,0,1.4-0.2,2-0.5c2,1.1,4.4,0.5,5.6-1.5s0.5-4.4-1.5-5.6c-1.3-0.7-2.8-0.7-4.1,0
		c-1.8-1.4-4.4-1-5.7,0.8c-1.4,1.8-1,4.4,0.8,5.7c0.3,0.2,0.5,0.4,0.8,0.5C37.2,37.4,37.9,37.5,38.6,37.6L38.6,37.6z M45.1,33.5
		c0,1.4-1,2.5-2.4,2.5c0,0,0,0-0.1,0c-0.3,0-0.5,0-0.7-0.1c1-1.4,1-3.3,0-4.7c1.3-0.4,2.6,0.3,3.1,1.5C45.1,33,45.1,33.2,45.1,33.5
		L45.1,33.5z M38.6,31c1.4,0,2.5,1.1,2.5,2.5c0,1.4-1.1,2.5-2.5,2.5c-1.4,0-2.5-1.1-2.5-2.5l0,0C36.1,32.1,37.2,31,38.6,31z"/>
	<path id="Path_92" class="st0" d="M43.1,21.1c0.4,0.2,0.9,0.1,1.1-0.3c0,0,0,0,0,0l0,0c1.2-2.3,1.2-5,0-7.3
		c-0.2-0.4-0.7-0.5-1.1-0.3c-0.3,0.2-0.5,0.6-0.3,1c1,1.8,1,4,0,5.8C42.6,20.4,42.7,20.9,43.1,21.1z"/>
	<path id="Path_93" class="st0" d="M36.4,19.4c0.3,0.3,0.8,0.3,1.2,0c0,0,0,0,0,0l0,0c1.2-1,1.4-2.8,0.4-4c0,0,0,0,0,0
		c-0.1-0.2-0.3-0.3-0.4-0.4c-0.3-0.3-0.8-0.3-1.1,0c0,0,0,0,0,0c-0.3,0.3-0.3,0.8,0,1.1c0.6,0.4,0.7,1.1,0.4,1.7
		c-0.1,0.2-0.2,0.3-0.4,0.4C36.1,18.5,36.1,19,36.4,19.4C36.4,19.3,36.4,19.3,36.4,19.4L36.4,19.4z"/>
	<path id="Path_94" class="st0" d="M6.7,26.1h4.9c0.5,0,0.8-0.4,0.8-0.8s-0.4-0.8-0.8-0.8c0,0,0,0,0,0H6.7c-0.5,0-0.8,0.4-0.8,0.8
		C5.9,25.8,6.2,26.1,6.7,26.1C6.7,26.1,6.7,26.1,6.7,26.1z"/>
	<path id="Path_95" class="st0" d="M16.5,26.1h4.9c0.5,0,0.8-0.4,0.8-0.8s-0.4-0.8-0.8-0.8c0,0,0,0,0,0h-4.9c-0.5,0-0.8,0.4-0.8,0.8
		C15.7,25.8,16,26.1,16.5,26.1z"/>
	<path id="Path_96" class="st0" d="M26.3,26.1h4.9c0.5,0,0.8-0.4,0.8-0.8c0-0.5-0.4-0.8-0.8-0.8h-4.9c-0.5,0-0.8,0.4-0.8,0.8
		C25.5,25.8,25.9,26.1,26.3,26.1z"/>
	<path id="Path_97" class="st0" d="M36.1,26.1H41c0.5,0,0.8-0.4,0.8-0.8c0-0.5-0.4-0.8-0.8-0.8h-4.9c-0.5,0-0.8,0.4-0.8,0.8
		C35.3,25.8,35.7,26.1,36.1,26.1z"/>
	<path id="Path_98" class="st0" d="M40.8,14.1c-0.3-0.3-0.8-0.3-1.2,0c0,0,0,0,0,0c-0.3,0.3-0.3,0.8,0,1.2c0.4,0.5,0.6,1.2,0.6,1.9
		c0,0.7-0.2,1.3-0.6,1.9l0,0c-0.4,0.3-0.4,0.8-0.1,1.2s0.8,0.4,1.2,0.1c0,0,0.1-0.1,0.1-0.1l0,0l0,0C42.2,18.4,42.2,15.9,40.8,14.1
		L40.8,14.1z"/>
</g>
</svg>
