<?xml version="1.0" encoding="utf-8"?>
<!-- Generator: Adobe Illustrator 24.0.1, SVG Export Plug-In . SVG Version: 6.00 Build 0)  -->
<svg version="1.1" id="Layer_1" xmlns="http://www.w3.org/2000/svg" xmlns:xlink="http://www.w3.org/1999/xlink" x="0px" y="0px"
	 viewBox="0 0 51 49" style="enable-background:new 0 0 51 49;" xml:space="preserve">
<style type="text/css">
	.st0{fill:#3BD7F7;}
</style>
<title>coin-vector</title>
<g id="Group_39">
	<g id="Group_38">
		<path id="Path_81" class="st0" d="M33.2,31c-0.9-0.2-1.6-1-1.4-2s1-1.6,2-1.4c0.8,0.1,1.4,0.8,1.4,1.7c0,0.5,0.4,0.9,0.9,0.9
			c0.5,0,0.9-0.4,0.9-0.9c0-1.7-1.2-3.1-2.8-3.4v-0.5c0-0.5-0.4-0.9-0.9-0.9c-0.5,0-0.9,0.4-0.9,0.9c0,0,0,0,0,0v0.5
			c-1.6,0.3-2.8,1.7-2.9,3.4c0.1,2,1.7,3.5,3.7,3.5c0.9,0.2,1.6,1,1.4,2c-0.2,0.9-1,1.6-2,1.4c-0.8-0.1-1.4-0.8-1.4-1.7
			c0-0.5-0.4-0.9-0.9-0.9c-0.5,0-0.9,0.4-0.9,0.9c0,1.7,1.2,3.1,2.9,3.4v0.4c0,0.5,0.4,0.9,0.9,0.9c0.5,0,0.9-0.4,0.9-0.9
			c0,0,0,0,0,0v-0.4c1.6-0.3,2.8-1.7,2.8-3.4C36.8,32.5,35.2,30.9,33.2,31z"/>
	</g>
</g>
<g id="Group_41">
	<g id="Group_40">
		<path id="Path_82" class="st0" d="M42.9,25.6c-1.2-1.8-2.8-3.3-4.7-4.2c-0.4-0.2-1,0-1.2,0.4c-0.2,0.4,0,1,0.4,1.2c0,0,0,0,0,0
			l0,0c4.9,2.3,7,8.2,4.6,13.1c0,0,0,0,0,0c-0.1,0.1-0.1,0.2-0.2,0.3c-0.2,0.4-0.1,1,0.4,1.2c0.4,0.2,1,0.1,1.2-0.3l0,0
			C45.4,33.7,45.2,29.2,42.9,25.6L42.9,25.6z"/>
	</g>
</g>
<g id="Group_43">
	<g id="Group_42">
		<path id="Path_83" class="st0" d="M34.6,20.3L34.6,20.3c-0.6,0.1-0.9,0.5-0.9,1c0,0.4,0.4,0.8,0.8,0.8l0,0c0.5-0.1,0.9-0.5,0.8-1
			C35.3,20.7,34.9,20.4,34.6,20.3L34.6,20.3z"/>
	</g>
</g>
<g id="Group_45">
	<g id="Group_44">
		<path id="Path_84" class="st0" d="M28.9,40.7c-4.9-2.3-6.9-8.2-4.6-13.1c0.1-0.1,0.1-0.2,0.2-0.4c0.2-0.4,0.1-1-0.3-1.2
			c-0.4-0.2-1-0.1-1.2,0.4l0,0l0,0c-3,5.7-0.9,12.7,4.8,15.7l0.4,0.2c0.4,0.2,1,0,1.2-0.4C29.6,41.5,29.4,40.9,28.9,40.7L28.9,40.7z
			"/>
	</g>
</g>
<g id="Group_47">
	<g id="Group_46">
		<path id="Path_85" class="st0" d="M31.8,41.7L31.8,41.7c-0.5,0-0.9,0.4-0.9,0.9c0,0.5,0.4,0.9,0.9,0.9h0.1c0.5,0,0.9-0.4,0.9-0.9
			C32.7,42.1,32.3,41.7,31.8,41.7C31.8,41.7,31.8,41.7,31.8,41.7L31.8,41.7z"/>
	</g>
</g>
<g id="Group_49">
	<g id="Group_48">
		<path id="Path_86" class="st0" d="M37.2,17.3c-0.1-0.3-0.2-0.5-0.4-0.7h2.3c2.3,0,4.1-1.8,4.1-4.1c0-2.3-1.8-4.1-4.1-4.1H32
			c1.3-1.9,0.8-4.4-1.1-5.7c0,0,0,0,0,0C30.2,2.2,29.4,2,28.6,2H6.8C4.5,2,2.7,3.8,2.7,6.1c0,2.3,1.8,4.1,4.1,4.1h7.1
			c-1,1.4-1,3.2,0,4.6h-2.3c-2.3,0-4.1,1.8-4.1,4.1c0,1.2,0.6,2.4,1.5,3.2c-1.8,1.4-2.1,4-0.7,5.8c0.2,0.2,0.4,0.5,0.7,0.7
			c-1.8,1.4-2.1,4-0.7,5.7c0.2,0.2,0.4,0.5,0.7,0.7c-1.8,1.4-2.1,4-0.6,5.8c0.8,1,1.9,1.5,3.2,1.5h10.5c5.7,6.1,15.3,6.4,21.4,0.6
			s6.4-15.3,0.6-21.4C42.2,19.5,39.8,18,37.2,17.3z M39.1,10.2c1.3,0,2.3,1,2.3,2.3s-1,2.3-2.3,2.3c0,0,0,0,0,0H17.3
			c-1.3,0-2.3-1-2.3-2.3c0-1.3,1-2.3,2.3-2.3H39.1z M6.8,8.4c-1.3,0-2.3-1-2.3-2.3s1-2.3,2.3-2.3h21.8c1.3,0,2.3,1,2.3,2.3
			s-1,2.3-2.3,2.3l0,0H6.8z M11.6,16.6h21.8c0.3,0,0.7,0.1,1,0.2c-0.4,0-0.8,0-1.3,0c-4,0-7.9,1.6-10.7,4.4H11.6
			c-1.3,0.1-2.4-0.9-2.5-2.2c-0.1-1.3,0.9-2.4,2.2-2.5C11.4,16.6,11.5,16.6,11.6,16.6L11.6,16.6z M11.6,23h9.3c-1,1.4-1.8,3-2.3,4.6
			h-7c-1.3,0-2.3-1-2.3-2.3C9.3,24,10.3,23,11.6,23C11.6,23,11.6,23,11.6,23L11.6,23z M11.6,29.4h6.6c-0.2,1.5-0.2,3.1,0,4.6h-6.6
			c-1.3,0.1-2.4-0.9-2.5-2.2c-0.1-1.3,0.9-2.4,2.2-2.5C11.4,29.4,11.5,29.4,11.6,29.4z M11.6,40.5c-1.3,0-2.3-1-2.3-2.3
			c0-1.3,1-2.3,2.3-2.3h6.9c0.4,1.7,1.2,3.2,2.1,4.6H11.6z M33.2,45.3c-7.4,0-13.4-6-13.4-13.4s6-13.4,13.4-13.4s13.4,6,13.4,13.4
			c0,0,0,0,0,0l0,0C46.5,39.3,40.5,45.3,33.2,45.3z"/>
	</g>
</g>
</svg>
