<svg id="Layer_1" data-name="Layer 1" xmlns="http://www.w3.org/2000/svg" viewBox="0 0 659.49 353.95"><defs><style>.cls-1{fill:#fff;}.cls-1,.cls-2,.cls-3{stroke:#000;stroke-miterlimit:10;}.cls-3{fill:none;}</style></defs><title>LogoWhiteButterfly</title><polyline class="cls-1" points="328.26 85.45 640.87 183.34 658.99 250.95 658.99 251.07 330.1 353.45 329.39 353.45 0.5 251.07 0.5 250.95 18.62 183.34 327.91 85.33"/><polygon class="cls-2" points="219.28 196.62 260.33 196.62 260.33 237.67 219.28 237.67 219.28 278.71 178.24 278.71 178.24 237.67 137.19 237.67 137.19 196.62 178.24 196.62 178.24 155.57 219.28 155.57 219.28 196.62"/><line class="cls-3" x1="327.56" y1="85.45" x2="328.26" y2="85.45"/><path class="cls-3" d="M962.57,99.8" transform="translate(-37.11 -14.22)"/><path class="cls-3" d="M302,22.25" transform="translate(-37.11 -14.22)"/><path class="cls-3" d="M302,92.25" transform="translate(-37.11 -14.22)"/><path class="cls-3" d="M365.37,99.27" transform="translate(-37.11 -14.22)"/><path class="cls-3" d="M365.37,99.56" transform="translate(-37.11 -14.22)"/><polyline class="cls-1" points="327.91 85.05 281.08 24.9 198.76 0.91 245.59 61.58 328.05 85.09"/><circle class="cls-2" cx="458.89" cy="178.18" r="19.48"/><circle class="cls-2" cx="419.92" cy="217.14" r="19.48"/><circle class="cls-2" cx="497.86" cy="217.14" r="19.48"/><circle class="cls-2" cx="458.89" cy="256.11" r="19.48"/><path class="cls-3" d="M428.78,22.25" transform="translate(-37.11 -14.22)"/><path class="cls-3" d="M428.78,92.25" transform="translate(-37.11 -14.22)"/><path class="cls-3" d="M365.37,99.27" transform="translate(-37.11 -14.22)"/><polyline class="cls-1" points="328.61 85.05 375.44 24.9 457.76 0.91 410.93 61.58 328.47 85.09"/></svg>