<?xml version="1.0" encoding="utf-8"?>
<!-- Generator: Adobe Illustrator 24.0.2, SVG Export Plug-In . SVG Version: 6.00 Build 0)  -->
<svg version="1.1" id="Layer_1" xmlns="http://www.w3.org/2000/svg" xmlns:xlink="http://www.w3.org/1999/xlink" x="0px" y="0px"
	 viewBox="0 0 24 24" style="enable-background:new 0 0 24 24;" xml:space="preserve">
<style type="text/css">
	.st0{fill:#3BD7F7;}
</style>
<path class="st0" d="M9.5,3C7.6,3,5.8,4.2,5.2,6.1C3.4,6.4,2,8.1,2,10c0,2.2,1.8,4,4,4v8h11v-2h3c0.5,0,1-0.5,1-1v-8
	c0-0.6-0.5-1-1-1h-2V8c0-2.2-1.8-4-4-4h-1.7C11.5,3.3,10.5,3,9.5,3 M9.5,5c0.8,0,1.5,0.4,2,1H14c1.1,0,2,0.9,2,2h-4
	c-2,0-2.7,1.1-3.5,2.6S6,12,6,12c-1.1,0-2-0.9-2-2s0.9-2,2-2h1V7.5C7,6.1,8.1,5,9.5,5 M17,12h2v6h-2V12z"/>
</svg>
