<svg id="Layer_1" data-name="Layer 1" xmlns="http://www.w3.org/2000/svg" viewBox="0 0 200 200"><defs><style>.cls-1{fill:#d8d8d8;}.cls-2{fill:#3bd7f7;}.cls-3,.cls-4{fill:none;}.cls-4{stroke:#d8d8d8;stroke-width:3.31px;}</style></defs><title>ddr-vector</title><g id="Group_62" data-name="Group 62"><g id="Group_15" data-name="Group 15"><g id="Group_12" data-name="Group 12"><g id="Group_10" data-name="Group 10"><g id="Group_9" data-name="Group 9"><g id="Group_8" data-name="Group 8"><path id="Polygon_1" data-name="Polygon 1" class="cls-1" d="M100.28,197.37a1.09,1.09,0,0,1-1.5,0l-32-31.5a1.21,1.21,0,0,1,0-1.6,1.14,1.14,0,0,1,.8-.3h64.1a1.11,1.11,0,0,1,1.1,1.1,1.14,1.14,0,0,1-.3.8Z"/><path id="Rectangle_200" data-name="Rectangle 200" class="cls-1" d="M117.68,175H81.28a2.22,2.22,0,0,1-2.2-2.2v-32a2.22,2.22,0,0,1,2.2-2.2h36.4a2.22,2.22,0,0,1,2.2,2.2v32A2.22,2.22,0,0,1,117.68,175Z"/></g></g></g><g id="Group_13" data-name="Group 13"><g id="Group_9-2" data-name="Group 9-2"><g id="Group_8-2" data-name="Group 8-2"><path id="Polygon_1-2" data-name="Polygon 1-2" class="cls-1" d="M98.69,2.54a1.09,1.09,0,0,1,1.5,0l32,30.5a1.12,1.12,0,0,1,0,1.6,1.14,1.14,0,0,1-.8.3h-64a1.11,1.11,0,0,1-1.1-1.1,1.14,1.14,0,0,1,.3-.8Z"/><path id="Rectangle_200-2" data-name="Rectangle 200-2" class="cls-1" d="M81.29,25h36.4a2.22,2.22,0,0,1,2.2,2.2v30.9a2.22,2.22,0,0,1-2.2,2.2H81.29a2.22,2.22,0,0,1-2.2-2.2V27.24A2.22,2.22,0,0,1,81.29,25Z"/></g></g></g></g><g id="Group_14" data-name="Group 14"><g id="Group_10-2" data-name="Group 10-2"><g id="Group_9-3" data-name="Group 9-3"><g id="Group_8-3" data-name="Group 8-3"><path id="Polygon_1-3" data-name="Polygon 1-3" class="cls-2" d="M2.58,100.26a1.09,1.09,0,0,1,0-1.5l30.5-32a1.12,1.12,0,0,1,1.6,0,1.14,1.14,0,0,1,.3.8v64a1.11,1.11,0,0,1-1.1,1.1,1.14,1.14,0,0,1-.8-.3Z"/><path id="Rectangle_200-3" data-name="Rectangle 200-3" class="cls-2" d="M25.08,117.66V81.26a2.22,2.22,0,0,1,2.2-2.2h30.9a2.22,2.22,0,0,1,2.2,2.2v36.4a2.22,2.22,0,0,1-2.2,2.2H27.28A2.16,2.16,0,0,1,25.08,117.66Z"/></g></g></g><g id="Group_13-2" data-name="Group 13-2"><g id="Group_9-4" data-name="Group 9-4"><g id="Group_8-4" data-name="Group 8-4"><path id="Polygon_1-4" data-name="Polygon 1-4" class="cls-2" d="M197.41,98.67a1.09,1.09,0,0,1,0,1.5l-31.5,32a1.21,1.21,0,0,1-1.6,0,1.14,1.14,0,0,1-.3-.8v-64a1.11,1.11,0,0,1,1.1-1.1,1.14,1.14,0,0,1,.8.3Z"/><path id="Rectangle_200-4" data-name="Rectangle 200-4" class="cls-2" d="M175,81.27v36.4a2.22,2.22,0,0,1-2.2,2.2h-32a2.22,2.22,0,0,1-2.2-2.2V81.27a2.22,2.22,0,0,1,2.2-2.2h32A2.22,2.22,0,0,1,175,81.27Z"/></g></g></g></g></g><g id="Rectangle_201" data-name="Rectangle 201"><path class="cls-3" d="M9.55,146.3H46a7.7,7.7,0,0,1,7.7,7.7v36.4a7.7,7.7,0,0,1-7.7,7.7H9.55a7.7,7.7,0,0,1-7.7-7.7V154A7.77,7.77,0,0,1,9.55,146.3Z"/><path class="cls-4" d="M9.55,148H46a6.12,6.12,0,0,1,6.1,6.1v36.4a6.12,6.12,0,0,1-6.1,6.1H9.55a6.12,6.12,0,0,1-6.1-6.1V154A6.17,6.17,0,0,1,9.55,148Z"/></g><g id="Rectangle_202" data-name="Rectangle 202"><path class="cls-3" d="M154.05,146.3h36.4a7.7,7.7,0,0,1,7.7,7.7v36.4a7.7,7.7,0,0,1-7.7,7.7h-36.4a7.7,7.7,0,0,1-7.7-7.7V154A7.7,7.7,0,0,1,154.05,146.3Z"/><path class="cls-4" d="M154.05,148h36.4a6.12,6.12,0,0,1,6.1,6.1v36.4a6.12,6.12,0,0,1-6.1,6.1h-36.4a6.12,6.12,0,0,1-6.1-6.1V154A6.1,6.1,0,0,1,154.05,148Z"/></g><g id="Rectangle_203" data-name="Rectangle 203"><path class="cls-3" d="M154.05,1.9h36.4a7.7,7.7,0,0,1,7.7,7.7V46a7.7,7.7,0,0,1-7.7,7.7h-36.4a7.7,7.7,0,0,1-7.7-7.7V9.6A7.64,7.64,0,0,1,154.05,1.9Z"/><path class="cls-4" d="M154.05,3.5h36.4a6.12,6.12,0,0,1,6.1,6.1V46a6.12,6.12,0,0,1-6.1,6.1h-36.4A6.12,6.12,0,0,1,148,46V9.6A6.12,6.12,0,0,1,154.05,3.5Z"/></g><g id="Rectangle_204" data-name="Rectangle 204"><path class="cls-3" d="M9.55,1.9H46a7.7,7.7,0,0,1,7.7,7.7V46A7.7,7.7,0,0,1,46,53.7H9.55A7.7,7.7,0,0,1,1.85,46V9.6A7.7,7.7,0,0,1,9.55,1.9Z"/><path class="cls-4" d="M9.55,3.5H46a6.12,6.12,0,0,1,6.1,6.1V46A6.12,6.12,0,0,1,46,52.1H9.55A6.12,6.12,0,0,1,3.45,46V9.6A6.19,6.19,0,0,1,9.55,3.5Z"/></g><g id="Rectangle_205" data-name="Rectangle 205"><rect class="cls-3" x="160.65" y="160.7" width="24.3" height="24.3"/><rect class="cls-4" x="162.35" y="162.3" width="21" height="21"/></g><g id="Path_5" data-name="Path 5"><path class="cls-3" d="M28.35,160.7,40.45,185H16.15Z"/><path class="cls-1" d="M28.35,168.1l-6.8,13.6h13.6l-6.8-13.6m0-7.4L40.45,185H16.15Z"/></g><g id="Group_16" data-name="Group 16"><path id="Path_6" data-name="Path 6" class="cls-4" d="M17.15,17,38,37.8"/><path id="Path_7" data-name="Path 7" class="cls-4" d="M38.05,17,17.75,37.3"/></g><g id="Ellipse_10" data-name="Ellipse 10"><circle class="cls-3" cx="172.85" cy="28.3" r="12.1"/><circle class="cls-4" cx="172.85" cy="28.3" r="10.5"/></g></g></svg>