<svg id="Layer_1" data-name="Layer 1" xmlns="http://www.w3.org/2000/svg" viewBox="0 0 325 467"><title>game-board-stack</title><path id="Path_22" data-name="Path 22" d="M56.44,396.94l253.8-1.77v-42L58.69,355.28l-11-23.39v42.52Z" style="fill:none;stroke:#3bd7f7;stroke-linecap:round;stroke-linejoin:round;stroke-width:3px"/><path id="Path_24" data-name="Path 24" d="M56.7,396.9,59,355.59" style="fill:none;stroke:#3bd7f7;stroke-linecap:round;stroke-width:3px"/><path id="Path_25" data-name="Path 25" d="M305.47,277.1v78" style="fill:none;stroke:#3bd7f7;stroke-linecap:round;stroke-width:3px"/><path id="Path_26" data-name="Path 26" d="M299.75,270.19l5.72,4.91L62.64,276.73l-7.9-16.35h24l7.09,14.72,213.93-2.18V229.59H85.81v43.33" style="fill:none;stroke:#3bd7f7;stroke-linecap:round;stroke-linejoin:round;stroke-width:3px"/><path id="Path_27" data-name="Path 27" d="M62.49,276.77l-1.36,77.68-7.2-22.2" style="fill:none;stroke:#3bd7f7;stroke-linecap:round;stroke-linejoin:round;stroke-width:3px"/><path id="Path_28" data-name="Path 28" d="M48,331.89h5.7l1.11-71.5" style="fill:none;stroke:#3bd7f7;stroke-linecap:round;stroke-linejoin:round;stroke-width:3px"/><path id="Path_29" data-name="Path 29" d="M61.12,353.79l73.47.58" style="fill:none;stroke:#3bd7f7;stroke-linecap:round;stroke-width:3px"/><path id="Path_30" data-name="Path 30" d="M80.48,264V229.63H72.17l-.62-43.79H297.44v43.42" style="fill:none;stroke:#3bd7f7;stroke-linecap:round;stroke-linejoin:round;stroke-width:3px"/><path id="Path_31" data-name="Path 31" d="M72.34,229.59c-1.29-.27-10-5.92-10-5.92V185.13l9.19,1" style="fill:none;stroke:#3bd7f7;stroke-linecap:round;stroke-linejoin:round;stroke-width:3px"/><path id="Path_32" data-name="Path 32" d="M297.44,185.84V147.2L59.1,145.56l1.14,38,2.1,1.45" style="fill:none;stroke:#3bd7f7;stroke-linecap:round;stroke-linejoin:round;stroke-width:3px"/><path id="Path_33" data-name="Path 33" d="M60.22,184,57.28,181l-1.05-38.58,2.94,3.78" style="fill:none;stroke:#3bd7f7;stroke-linecap:round;stroke-linejoin:round;stroke-width:3px"/><path id="Path_34" data-name="Path 34" d="M56.23,142.46h6.29" style="fill:none;stroke:#3bd7f7;stroke-linecap:round;stroke-width:3px"/><path id="Path_35" data-name="Path 35" d="M297.44,146.07l-4.56-4.64H284" style="fill:none;stroke:#3bd7f7;stroke-linecap:round;stroke-linejoin:round;stroke-width:3px"/><path id="Path_36" data-name="Path 36" d="M282.85,144.75l1.09-52.06H65.64v50.15H61.28" style="fill:none;stroke:#3bd7f7;stroke-linecap:round;stroke-linejoin:round;stroke-width:3px"/><path id="Path_37" data-name="Path 37" d="M284,92.69h29.06V61.85L17.24,52.64V92.69H65.42" style="fill:none;stroke:#3bd7f7;stroke-linecap:round;stroke-linejoin:round;stroke-width:3px"/><path id="Path_38" data-name="Path 38" d="M65.42,142.46l-4.6-5V92.83" style="fill:none;stroke:#3bd7f7;stroke-linecap:round;stroke-linejoin:round;stroke-width:3px"/><path id="Path_39" data-name="Path 39" d="M17.24,92.83l-5.32-7.09V46.27L17.24,53" style="fill:none;stroke:#3bd7f7;stroke-linecap:round;stroke-linejoin:round;stroke-width:3px"/><path id="Path_40" data-name="Path 40" d="M11.92,46.27l77.59,2.12" style="fill:none;stroke:#3bd7f7;stroke-linecap:round;stroke-width:3px"/><path id="Path_41" data-name="Path 41" d="M313.08,61.72l-6.74-7.3-28.7-1.77V18.3L98,16.17,88.45,14.4V47.33L98,52.64l179.62,1.77" style="fill:none;stroke:#3bd7f7;stroke-linecap:round;stroke-linejoin:round;stroke-width:3px"/><path id="Path_42" data-name="Path 42" d="M89.51,14.4H262.76l14.88,3.9" style="fill:none;stroke:#3bd7f7;stroke-linecap:round;stroke-linejoin:round;stroke-width:3px"/><g id="L_osti_de_jeu_Cards_Against_Humanity_" data-name="L osti de jeu Cards Against Humanity " style="isolation:isolate"><g style="isolation:isolate"><path d="M117.56,75.46H121v3.18a.89.89,0,0,0,.18.65,1.06,1.06,0,0,0,.69.16h.72a1,1,0,0,0,.66-.16.89.89,0,0,0,.18-.65V63.16h3.48v16q0,3-3.27,3h-2.82q-3.27,0-3.27-3Z" style="fill:#fff"/><path d="M132.68,67.36h3.18q3.24,0,3.24,3V75.7h-6.39v3a.94.94,0,0,0,.17.65,1,1,0,0,0,.67.16h1.38a1,1,0,0,0,.66-.16.89.89,0,0,0,.18-.65V77.62h3.3v1.5q0,3-3.27,3h-3.12q-3.27,0-3.27-3V70.33Q129.41,67.36,132.68,67.36Zm0,6.15h3.12V70.69a.86.86,0,0,0-.18-.64,1,1,0,0,0-.66-.17h-1.44a1,1,0,0,0-.66.17.86.86,0,0,0-.18.64Z" style="fill:#fff"/><path d="M146.81,67.36h.9q3.09,0,3.09,3V82.09h-3.42V70.81a.86.86,0,0,0-.18-.64,1,1,0,0,0-.66-.17h-.9q-.93,0-.93,1v11.1h-3.39V67.36h3.36v1.35A2,2,0,0,1,146.81,67.36Z" style="fill:#fff"/><path d="M159.2,67.36h3.36V83.2q0,3-3.27,3h-5.67V83.59h4.68a1,1,0,0,0,.66-.16.89.89,0,0,0,.18-.65V80.44a2,2,0,0,1-2.07,1.26h-.93q-3.06,0-3.06-3v-8.4q0-3,3.06-3h.93a1.91,1.91,0,0,1,2.13,1.44Zm-1.89,11.7h.9a1,1,0,0,0,.72-.22,1.18,1.18,0,0,0,.21-.8V71q0-1-.93-1h-.9a1,1,0,0,0-.66.17.86.86,0,0,0-.18.64v7.44a.89.89,0,0,0,.18.65A1,1,0,0,0,157.31,79.06Z" style="fill:#fff"/><path d="M171,67.36h3.36V82.09H171V80.83a2,2,0,0,1-2.07,1.26H168q-3.06,0-3.06-3V70.33q0-3,3.06-3h.93A1.91,1.91,0,0,1,171,68.8Zm-1.89,12.09h.9q.93,0,.93-1V71q0-1-.93-1h-.9a1,1,0,0,0-.66.17.86.86,0,0,0-.18.64v7.83a.89.89,0,0,0,.18.65A1,1,0,0,0,169.13,79.45Z" style="fill:#fff"/></g></g><g id="L_osti_de_jeu_Cards_Against_Humanity_2" data-name="L osti de jeu Cards Against Humanity " style="isolation:isolate"><g style="isolation:isolate"><path d="M117.4,109.16v2.64h-3.33v16.29h-3.45V111.8h-3.3v-2.64Z" style="fill:#fff"/><path d="M122,113.36h3.18q3.24,0,3.24,3v5.37H122v3a.94.94,0,0,0,.17.65,1,1,0,0,0,.67.16h1.38a1,1,0,0,0,.66-.16.89.89,0,0,0,.18-.65v-1.11h3.3v1.5q0,3-3.27,3H122q-3.27,0-3.27-3v-8.79Q118.69,113.36,122,113.36Zm0,6.15h3.12v-2.82a.86.86,0,0,0-.18-.64,1,1,0,0,0-.66-.17h-1.44a1,1,0,0,0-.66.17.86.86,0,0,0-.18.64Z" style="fill:#fff"/><path d="M134,128.09H130.6V108H134Z" style="fill:#fff"/><path d="M139.69,113.36h3.18q3.24,0,3.24,3v5.37h-6.39v3a.94.94,0,0,0,.17.65,1,1,0,0,0,.67.16h1.38a1,1,0,0,0,.66-.16.89.89,0,0,0,.18-.65v-1.11h3.3v1.5q0,3-3.27,3h-3.12q-3.27,0-3.27-3v-8.79Q136.42,113.36,139.69,113.36Zm0,6.15h3.12v-2.82a.86.86,0,0,0-.18-.64,1,1,0,0,0-.66-.17h-1.44a1,1,0,0,0-.66.17.86.86,0,0,0-.18.64Z" style="fill:#fff"/><path d="M153.67,124.85v-2.07a.86.86,0,0,0-.18-.64,1,1,0,0,0-.69-.17h-1.62Q148,122,148,119v-2.7q0-3,3.27-3h2.37q3.24,0,3.24,3v1.38h-3.27V116.6a.86.86,0,0,0-.18-.64,1,1,0,0,0-.66-.17h-.6a1,1,0,0,0-.69.17.86.86,0,0,0-.18.64v2.16a.89.89,0,0,0,.18.65,1.06,1.06,0,0,0,.69.16h1.62q3.24,0,3.24,2.94v2.61q0,3-3.27,3H151.3q-3.27,0-3.27-3v-1.35h3.33v1.08a.89.89,0,0,0,.18.65,1,1,0,0,0,.66.16h.6a1.06,1.06,0,0,0,.69-.16A.89.89,0,0,0,153.67,124.85Z" style="fill:#fff"/><path d="M164.92,116h-2v8.55a.89.89,0,0,0,.18.65,1.06,1.06,0,0,0,.69.16h1.11v2.73h-2.1q-3.27,0-3.27-3V116h-1.47v-2.64h1.47v-2.64h3.39v2.64h2Z" style="fill:#fff"/><path d="M172.51,113.3h.54v2.94h-1.26q-1.89,0-1.89,2.16v9.69h-3.39V113.36h3.36v1.89a2.63,2.63,0,0,1,.93-1.41A2.69,2.69,0,0,1,172.51,113.3Z" style="fill:#fff"/><path d="M180.4,113.36h3.36v14.73h-3.42v-1.26a2,2,0,0,1-2.07,1.26h-.93q-3.06,0-3.06-3v-8.79q0-3,3.06-3h.93a1.91,1.91,0,0,1,2.13,1.44Zm-1.89,12.09h.9q.93,0,.93-1V117q0-1-.93-1h-.9a1,1,0,0,0-.66.17.86.86,0,0,0-.18.64v7.83a.89.89,0,0,0,.18.65A1,1,0,0,0,178.51,125.45Z" style="fill:#fff"/><path d="M192,116h-2v8.55a.89.89,0,0,0,.18.65,1.06,1.06,0,0,0,.69.16H192v2.73h-2.1q-3.27,0-3.27-3V116h-1.47v-2.64h1.47v-2.64H190v2.64h2Z" style="fill:#fff"/><path d="M193.54,111v-3h3.57v3ZM197,128.09h-3.39V113.36H197Z" style="fill:#fff"/><path d="M202.66,113.36h3.39q3.18,0,3.18,3v8.79q0,3-3.18,3h-3.39q-3.21,0-3.21-3v-8.79Q199.45,113.36,202.66,113.36Zm3.24,11.37v-8a.86.86,0,0,0-.18-.64,1,1,0,0,0-.69-.17h-1.38a1,1,0,0,0-.69.17.86.86,0,0,0-.18.64v8a.89.89,0,0,0,.18.65,1.06,1.06,0,0,0,.69.16H205a1.06,1.06,0,0,0,.69-.16A.89.89,0,0,0,205.9,124.73Z" style="fill:#fff"/><path d="M217.15,113.36h.9q3.09,0,3.09,3v11.76h-3.42V116.81a.86.86,0,0,0-.18-.64,1,1,0,0,0-.66-.17H216q-.93,0-.93,1v11.1h-3.39V113.36H215v1.35A2,2,0,0,1,217.15,113.36Z" style="fill:#fff"/><path d="M229,124.85v-2.07a.86.86,0,0,0-.18-.64,1,1,0,0,0-.69-.17h-1.62q-3.21,0-3.21-2.94v-2.7q0-3,3.27-3h2.37q3.24,0,3.24,3v1.38h-3.27V116.6a.86.86,0,0,0-.18-.64,1,1,0,0,0-.66-.17h-.6a1,1,0,0,0-.69.17.86.86,0,0,0-.18.64v2.16a.89.89,0,0,0,.18.65,1.06,1.06,0,0,0,.69.16h1.62q3.24,0,3.24,2.94v2.61q0,3-3.27,3H226.6q-3.27,0-3.27-3v-1.35h3.33v1.08a.89.89,0,0,0,.18.65,1,1,0,0,0,.66.16h.6a1.06,1.06,0,0,0,.69-.16A.89.89,0,0,0,229,124.85Z" style="fill:#fff"/></g></g><g id="L_osti_de_jeu_Cards_Against_Humanity_3" data-name="L osti de jeu Cards Against Humanity " style="isolation:isolate"><g style="isolation:isolate"><path d="M157.33,156.16h3.45v16q0,3-3.27,3h-3.66q-3.27,0-3.27-3v-16H154v15.48a.89.89,0,0,0,.18.65,1,1,0,0,0,.66.16h1.59a1.06,1.06,0,0,0,.69-.16.89.89,0,0,0,.18-.65Z" style="fill:#fff"/><path d="M171,156.16h3.15v18.93h-3.24l-4.05-12.54v12.54h-3.18V156.16H167l4,12.36Z" style="fill:#fff"/><path d="M180.16,156.16h3.66q3.27,0,3.27,3v13q0,3-3.27,3h-3.66q-3.27,0-3.27-3v-13Q176.89,156.16,180.16,156.16Zm3.48,15.48v-12a.86.86,0,0,0-.18-.64,1,1,0,0,0-.66-.17h-1.59a1,1,0,0,0-.69.17.86.86,0,0,0-.18.64v12a.89.89,0,0,0,.18.65,1.06,1.06,0,0,0,.69.16h1.59a1,1,0,0,0,.66-.16A.89.89,0,0,0,183.64,171.64Z" style="fill:#fff"/></g></g><g id="L_osti_de_jeu_Cards_Against_Humanity_4" data-name="L osti de jeu Cards Against Humanity " style="isolation:isolate"><g style="isolation:isolate"><path d="M135.76,198.16H143q3.27,0,3.27,3v13q0,3-3.27,3h-7.2Zm7,15.6V201.49a.86.86,0,0,0-.18-.64,1,1,0,0,0-.66-.17h-2.7v13.89h2.7a1,1,0,0,0,.66-.16A.89.89,0,0,0,142.75,213.76Z" style="fill:#fff"/><path d="M151.9,202.36h3.39q3.18,0,3.18,3v8.79q0,3-3.18,3H151.9q-3.21,0-3.21-3v-8.79Q148.69,202.36,151.9,202.36Zm3.24,11.37v-8a.86.86,0,0,0-.18-.64,1,1,0,0,0-.69-.17h-1.38a1,1,0,0,0-.69.17.86.86,0,0,0-.18.64v8a.89.89,0,0,0,.18.65,1.06,1.06,0,0,0,.69.16h1.38a1.06,1.06,0,0,0,.69-.16A.89.89,0,0,0,155.14,213.73Z" style="fill:#fff"/><path d="M166.39,202.33h.9q3.09,0,3.09,3v8.82q0,3-3.09,3h-.9a2,2,0,0,1-2.13-1.35v1.35H160.9V197h3.39v6.57A2,2,0,0,1,166.39,202.33Zm.57,11.31v-7.86a.86.86,0,0,0-.18-.64,1,1,0,0,0-.66-.17h-.9q-.93,0-.93,1v7.47q0,1,.93,1h.9a1,1,0,0,0,.66-.16A.89.89,0,0,0,167,213.64Z" style="fill:#fff"/><path d="M178.21,202.33h.9q3.09,0,3.09,3v8.82q0,3-3.09,3h-.9a2,2,0,0,1-2.13-1.35v1.35h-3.36V197h3.39v6.57A2,2,0,0,1,178.21,202.33Zm.57,11.31v-7.86a.86.86,0,0,0-.18-.64,1,1,0,0,0-.66-.17H177q-.93,0-.93,1v7.47q0,1,.93,1h.9a1,1,0,0,0,.66-.16A.89.89,0,0,0,178.78,213.64Z" style="fill:#fff"/><path d="M187.93,217.09h-3.39V197h3.39Z" style="fill:#fff"/><path d="M193.63,202.36h3.18q3.24,0,3.24,3v5.37h-6.39v3a.94.94,0,0,0,.17.65,1,1,0,0,0,.67.16h1.38a1,1,0,0,0,.66-.16.89.89,0,0,0,.18-.65v-1.11H200v1.5q0,3-3.27,3h-3.12q-3.27,0-3.27-3v-8.79Q190.36,202.36,193.63,202.36Zm0,6.15h3.12v-2.82a.86.86,0,0,0-.18-.64,1,1,0,0,0-.66-.17H194.5a1,1,0,0,0-.66.17.86.86,0,0,0-.18.64Z" style="fill:#fff"/></g></g><g id="UNO" style="isolation:isolate"><g style="isolation:isolate"><path d="M129.9,34.56l3.45.06,0,3.18a.86.86,0,0,0,.17.65,1,1,0,0,0,.68.17l.72,0a1,1,0,0,0,.67-.16.9.9,0,0,0,.19-.64L136,22.36l3.48.06-.28,16c0,2-1.14,2.95-3.32,2.91l-2.82,0q-3.27,0-3.22-3Z" style="fill:#fff"/><path d="M148,26.77l3.42.06-.25,14.73-3.36-.06,0-1.47a1.89,1.89,0,0,1-2.15,1.43h-.93c-2,0-3-1-3-3l.2-11.76,3.39.06L145.18,38a.88.88,0,0,0,.16.65,1,1,0,0,0,.66.18l.9,0c.62,0,.94-.32.95-1Z" style="fill:#fff"/><path d="M159.5,27l.9,0q3.09,0,3,3l-.21,11.76-3.42-.06.2-11.28a.86.86,0,0,0-.17-.65,1,1,0,0,0-.66-.17l-.9,0c-.62,0-.93.32-.94,1l-.2,11.1-3.39-.06L154,26.88l3.36.06,0,1.35A2,2,0,0,1,159.5,27Z" style="fill:#fff"/><path d="M171.89,27.19l3.36.06L175,43.09q0,3-3.32,2.91L166,45.9l.05-2.58,4.68.08a1,1,0,0,0,.66-.15.9.9,0,0,0,.19-.64l0-2.34a1.94,1.94,0,0,1-2.09,1.22l-.93,0q-3.06,0-3-3l.15-8.4q0-3,3.11-2.91h.93a1.91,1.91,0,0,1,2.1,1.48Zm-2.1,11.66.9,0a1,1,0,0,0,.73-.21,1.15,1.15,0,0,0,.22-.79l.13-7c0-.66-.3-1-.92-1H170a1,1,0,0,0-.66.15.86.86,0,0,0-.19.64L169,38a.85.85,0,0,0,.17.65A1,1,0,0,0,169.79,38.85Z" style="fill:#fff"/><path d="M180.93,42.08,177.54,42,177.89,22l3.39.06Z" style="fill:#fff"/><path d="M186.89,27.45l3.17.06c2.16,0,3.23,1,3.19,3l-.09,5.37-6.39-.11-.05,3a.9.9,0,0,0,.15.65,1,1,0,0,0,.67.17l1.38,0a1.12,1.12,0,0,0,.67-.15.93.93,0,0,0,.19-.65l0-1.11,3.3.06,0,1.5c0,2-1.14,3-3.32,2.91l-3.12,0q-3.27-.06-3.22-3l.15-8.79Q183.62,27.39,186.89,27.45Zm-.08,6.15,3.12.06,0-2.83a.88.88,0,0,0-.17-.64,1,1,0,0,0-.66-.18l-1.44,0a1,1,0,0,0-.66.15.86.86,0,0,0-.19.64Z" style="fill:#fff"/><path d="M206.31,39.07l.07-4a.86.86,0,0,0-.17-.64.93.93,0,0,0-.66-.18l-2.43,0q-3.09-.06-3-3.06l.09-4.65q0-3,3.29-2.91l3.3.06q3.24,0,3.18,3l0,2.64-3.48-.06,0-2.16a1,1,0,0,0-.17-.65,1,1,0,0,0-.66-.17l-1.14,0a1,1,0,0,0-.69.15.86.86,0,0,0-.19.64l-.07,3.81a.85.85,0,0,0,.17.65,1.1,1.1,0,0,0,.69.18l2.37,0c2.09,0,3.13,1,3.09,3l-.08,5q-.06,3-3.32,2.92l-3.24-.06c-2.18,0-3.26-1-3.22-3l0-2.61,3.45.06,0,2.13a.85.85,0,0,0,.17.65,1,1,0,0,0,.68.18l1.14,0a1,1,0,0,0,.66-.16A.84.84,0,0,0,206.31,39.07Z" style="fill:#fff"/><path d="M217.81,28l.9,0q3.09,0,3,3l-.16,8.79q0,3-3.14,2.92l-.9,0a2,2,0,0,1-2.07-1.3l-.1,5.34L212,46.7l.33-18.81,3.36.06,0,1.35A2,2,0,0,1,217.81,28Zm.37,11.29.14-7.83a.86.86,0,0,0-.17-.65,1,1,0,0,0-.66-.17l-.9,0c-.62,0-.93.31-.94,1l-.13,7.47c0,.66.29,1,.91,1l.9,0a1,1,0,0,0,.66-.16A.86.86,0,0,0,218.18,39.28Z" style="fill:#fff"/><path d="M227.26,28.16l3.18.05q3.24.06,3.19,3l-.1,5.37-6.39-.11,0,3a1,1,0,0,0,.15.65,1,1,0,0,0,.68.18l1.38,0a1,1,0,0,0,.66-.15.86.86,0,0,0,.19-.64l0-1.11,3.3.06,0,1.5q0,3-3.32,2.91L227,42.88q-3.27,0-3.22-3l.16-8.79Q224,28.1,227.26,28.16Zm-.08,6.15,3.12,0,0-2.82a.85.85,0,0,0-.17-.65,1,1,0,0,0-.66-.17l-1.44,0a1,1,0,0,0-.66.15.93.93,0,0,0-.19.65Z" style="fill:#fff"/><path d="M239,28.36l3.18.06q3.24,0,3.18,3l-.09,5.37-6.39-.11-.05,3a.9.9,0,0,0,.15.65,1,1,0,0,0,.67.17l1.38,0a1,1,0,0,0,.67-.16.88.88,0,0,0,.19-.64l0-1.11,3.3.06,0,1.5q0,3-3.32,2.91l-3.12,0q-3.27-.06-3.22-3l.16-8.79Q235.75,28.3,239,28.36Zm-.08,6.15,3.12.06.05-2.82a.89.89,0,0,0-.17-.65,1,1,0,0,0-.66-.18l-1.44,0a1,1,0,0,0-.66.15.86.86,0,0,0-.19.64Z" style="fill:#fff"/><path d="M253.6,23.27l3.42.06-.35,20.07-3.36-.06,0-1.47a1.9,1.9,0,0,1-2.15,1.44l-.93,0c-2,0-3-1-3-3l.15-8.82q.06-3,3.12-2.92l.93,0a1.94,1.94,0,0,1,2,1.29Zm-2.14,17.4.9,0c.62,0,.94-.32.95-1l.13-7.47a1.16,1.16,0,0,0-.19-.79.92.92,0,0,0-.72-.24l-.9,0a1.07,1.07,0,0,0-.66.15.84.84,0,0,0-.19.65l-.14,7.86a.82.82,0,0,0,.17.64A.9.9,0,0,0,251.46,40.67Z" style="fill:#fff"/></g></g><g id="et_plus..." data-name="et plus..." style="isolation:isolate"><g style="isolation:isolate"><path d="M115.34,423.32l2.93-.1c1.88-.07,2.85.79,2.92,2.57l.19,5.48-5.91.21.12,3.48a.93.93,0,0,0,.21.68,1,1,0,0,0,.72.16l1.38-.05a1,1,0,0,0,.71-.21,1,1,0,0,0,.16-.72l0-1.2,2.64-.09,0,1.59c.06,1.76-.84,2.67-2.69,2.73l-2.88.1c-1.86.07-2.82-.78-2.88-2.54l-.33-9.32C112.58,424.31,113.48,423.39,115.34,423.32Zm.06,6.18,3.24-.11-.11-3.18a1,1,0,0,0-.19-.68,1,1,0,0,0-.71-.16l-1.47.05a1,1,0,0,0-.71.21,1,1,0,0,0-.16.69Z" style="fill:#fff"/><path d="M128.42,425.05l-2,.08.32,9.26a1.06,1.06,0,0,0,.19.7,1.09,1.09,0,0,0,.71.14l1.14,0,.08,2.31-1.92.06c-1.88.07-2.85-.78-2.91-2.53l-.34-9.81-1.38,0-.08-2.19,1.38-.05-.09-2.49,2.73-.09.09,2.49,2-.07Z" style="fill:#fff"/><path d="M138.87,422.5l1,0q2.73-.09,2.82,2.58l.33,9.32q.09,2.64-2.64,2.73l-1.05,0a1.74,1.74,0,0,1-1.9-1.1l.19,5.3-2.7.1-.66-18.77,2.7-.1,0,1.17A1.73,1.73,0,0,1,138.87,422.5ZM140.35,434l-.29-8.51a1,1,0,0,0-.21-.7,1.14,1.14,0,0,0-.72-.14l-1,0a1,1,0,0,0-.76.26,1.18,1.18,0,0,0-.19.82l.28,8.16a1.19,1.19,0,0,0,.25.8,1.07,1.07,0,0,0,.78.21l1.05,0a1.13,1.13,0,0,0,.71-.18A1,1,0,0,0,140.35,434Z" style="fill:#fff"/><path d="M148.32,436.82l-2.7.09-.7-20.06,2.7-.09Z" style="fill:#fff"/><path d="M156.05,421.9l2.7-.1.51,14.64-2.7.09,0-1.17a1.72,1.72,0,0,1-1.82,1.23l-1.08,0c-1.8.07-2.73-.78-2.79-2.54l-.42-12,2.7-.1.41,11.58a1,1,0,0,0,.2.69,1.11,1.11,0,0,0,.73.14l1.05,0a1,1,0,0,0,.75-.27,1.17,1.17,0,0,0,.2-.82Z" style="fill:#fff"/><path d="M166.68,433.23l-.08-2.42c0-.36-.08-.6-.21-.7a1.08,1.08,0,0,0-.72-.14l-1.53,0c-1.86.07-2.82-.78-2.88-2.54l-.11-3.09c-.06-1.78.84-2.7,2.69-2.76l2.19-.08c1.88-.06,2.85.79,2.92,2.57l0,1.41-2.63.09,0-1.14a1,1,0,0,0-.21-.7,1.14,1.14,0,0,0-.72-.14l-.72,0a1.15,1.15,0,0,0-.72.19,1,1,0,0,0-.15.71l.09,2.52a1,1,0,0,0,.2.7,1.18,1.18,0,0,0,.73.14l1.55-.06c1.84-.06,2.79.8,2.86,2.58l.1,3c.06,1.76-.84,2.67-2.7,2.74l-2.21.08c-1.86.06-2.82-.79-2.88-2.54l0-1.44,2.63-.1,0,1.14c0,.36.08.6.21.7a1.08,1.08,0,0,0,.72.14l.72,0a1.16,1.16,0,0,0,.72-.18A1.07,1.07,0,0,0,166.68,433.23Z" style="fill:#fff"/><path d="M171.37,436l-.13-3.69,3-.1.13,3.69Z" style="fill:#fff"/><path d="M176.32,435.84l-.13-3.69,3-.1.13,3.68Z" style="fill:#fff"/><path d="M181.26,435.67l-.12-3.69,3-.11.13,3.69Z" style="fill:#fff"/></g></g><path id="Path_15" data-name="Path 15" d="M277,452.56h6l-1.24-50.11-260,.83L36,381.68l12.22-.51" style="fill:none;stroke:#3bd7f7;stroke-linecap:round;stroke-linejoin:round;stroke-width:3px"/><path id="Path_16" data-name="Path 16" d="M21,403v47.9l261.35,1.73L287.5,428l-.27-32.83-5.53,9.5" style="fill:none;stroke:#3bd7f7;stroke-linecap:round;stroke-linejoin:round;stroke-width:3px"/><g id="Jeu_de_Cartes" data-name="Jeu de Cartes" style="isolation:isolate"><g style="isolation:isolate"><path d="M127.77,263.61a2.15,2.15,0,0,1-2.16-2.16V256.8l2.79.63v2.31a1.06,1.06,0,0,0,.32.77,1,1,0,0,0,.73.31h3.42a1.06,1.06,0,0,0,1.08-1.08v-5.28a1,1,0,0,0-.31-.76,1.06,1.06,0,0,0-.77-.32h-5.1a2.15,2.15,0,0,1-2.16-2.16v-6.45a2.15,2.15,0,0,1,2.16-2.16h6.81a2.15,2.15,0,0,1,2.16,2.16V248l-2.79-.66v-.87a1,1,0,0,0-.31-.76,1.06,1.06,0,0,0-.77-.32h-3.42a1,1,0,0,0-.73.32,1,1,0,0,0-.32.76v3a1.06,1.06,0,0,0,.32.77,1,1,0,0,0,.73.31h5.13a2.15,2.15,0,0,1,2.16,2.16v8.7a2.15,2.15,0,0,1-2.16,2.16Z" style="fill:#fff"/><path d="M140.73,263.61a2.09,2.09,0,0,1-1.54-.64,2.12,2.12,0,0,1-.65-1.55V250.77a2.06,2.06,0,0,1,.65-1.53,2.12,2.12,0,0,1,1.54-.63h4.08a2.12,2.12,0,0,1,1.56.63,2.08,2.08,0,0,1,.63,1.53v4.56a2.14,2.14,0,0,1-.63,1.55,2.09,2.09,0,0,1-1.56.64h-3.45v2.19a1.08,1.08,0,0,0,1.11,1.08h3.9l.63,2.82Zm.63-8.91h1.74a1.06,1.06,0,0,0,1.08-1.08v-1.11a1,1,0,0,0-.31-.76,1.06,1.06,0,0,0-.77-.32h-.63a1.07,1.07,0,0,0-.79.32,1,1,0,0,0-.32.76Z" style="fill:#fff"/><path d="M151,263.61a2.09,2.09,0,0,1-1.56-.64,2.14,2.14,0,0,1-.63-1.55V250.8a2.12,2.12,0,0,1,.63-1.54,2.1,2.1,0,0,1,1.56-.65h4.08a2.12,2.12,0,0,1,1.55.65,2.09,2.09,0,0,1,.64,1.54v3.27h-2.82v-1.56a1,1,0,0,0-.33-.76,1.1,1.1,0,0,0-.78-.32h-.63a1.09,1.09,0,0,0-1.08,1.08v7.2a1.06,1.06,0,0,0,.32.77,1,1,0,0,0,.76.31h.63a1.09,1.09,0,0,0,.78-.31,1,1,0,0,0,.33-.77v-1.56h2.82v3.27a2.19,2.19,0,0,1-2.19,2.19Z" style="fill:#fff"/><path d="M159.06,263.61v-15h6.27a2.12,2.12,0,0,1,1.55.65,2.09,2.09,0,0,1,.64,1.54v3.27l-2.82-.63v-.9a1.09,1.09,0,0,0-.31-.78,1,1,0,0,0-.77-.33h-1.74v12.18Z" style="fill:#fff"/><path d="M170.91,263.61a2.09,2.09,0,0,1-1.54-.64,2.12,2.12,0,0,1-.65-1.55V250.77a2.06,2.06,0,0,1,.65-1.53,2.12,2.12,0,0,1,1.54-.63H175a2.12,2.12,0,0,1,1.56.63,2.08,2.08,0,0,1,.63,1.53v4.56a2.14,2.14,0,0,1-.63,1.55,2.09,2.09,0,0,1-1.56.64h-3.45v2.19a1.08,1.08,0,0,0,1.11,1.08h3.9l.63,2.82Zm.63-8.91h1.74a1.06,1.06,0,0,0,1.08-1.08v-1.11a1,1,0,0,0-.31-.76,1.06,1.06,0,0,0-.77-.32h-.63a1.07,1.07,0,0,0-.79.32,1,1,0,0,0-.32.76Z" style="fill:#fff"/><path d="M179.58,263.61V241.77l2.82-.63v7.47H186l-.66,2.82H182.4v12.18Z" style="fill:#fff"/><path d="M191.73,263.61v-21h2.79v8h5.58v-8h2.76v21H200.1V253.38h-5.58v10.23Z" style="fill:#fff"/><path d="M205.92,244.59v-2.82l2.82-.66v2.82Zm.06,19V249.27l2.82-.66v15Z" style="fill:#fff"/><path d="M211.2,263.61V241.77l2.82-.63v7.47h3.57l-.66,2.82H214v12.18Z" style="fill:#fff"/><path d="M218.79,263.61V241.8l2.82-.63v22.44Z" style="fill:#fff"/><path d="M225.9,263.61a2.09,2.09,0,0,1-1.54-.64,2.12,2.12,0,0,1-.65-1.55V250.77a2.06,2.06,0,0,1,.65-1.53,2.12,2.12,0,0,1,1.54-.63H230a2.12,2.12,0,0,1,1.56.63,2.08,2.08,0,0,1,.63,1.53v4.56a2.14,2.14,0,0,1-.63,1.55,2.09,2.09,0,0,1-1.56.64h-3.45v2.19a1.08,1.08,0,0,0,1.11,1.08h3.9l.63,2.82Zm.63-8.91h1.74a1.06,1.06,0,0,0,1.08-1.08v-1.11a1,1,0,0,0-.31-.76,1.06,1.06,0,0,0-.77-.32h-.63a1.07,1.07,0,0,0-.79.32,1,1,0,0,0-.32.76Z" style="fill:#fff"/><path d="M233.67,263.61v-15h6.27a2.12,2.12,0,0,1,1.55.65,2.09,2.09,0,0,1,.64,1.54v3.27l-2.82-.63v-.9a1.09,1.09,0,0,0-.31-.78,1,1,0,0,0-.77-.33h-1.74v12.18Z" style="fill:#fff"/></g></g><g id="Jeu_de_Cartes-2" data-name="Jeu de Cartes" style="isolation:isolate"><g style="isolation:isolate"><path d="M133.33,311.61v-21h2.79v18.21h7.17v2.79Z" style="fill:#fff"/><path d="M149.05,296l-2.82-2.55v-2.82h2.82Z" style="fill:#fff"/><path d="M153.88,311.61a2.09,2.09,0,0,1-1.56-.64,2.14,2.14,0,0,1-.63-1.55V298.8a2.12,2.12,0,0,1,.63-1.54,2.1,2.1,0,0,1,1.56-.65H158a2.06,2.06,0,0,1,1.53.65,2.12,2.12,0,0,1,.63,1.54v10.62a2.14,2.14,0,0,1-.63,1.55,2.05,2.05,0,0,1-1.53.64Zm1.71-2.82h.63a1.09,1.09,0,0,0,.78-.31,1,1,0,0,0,.33-.77v-7.2a1,1,0,0,0-.33-.76,1.1,1.1,0,0,0-.78-.32h-.63a1.09,1.09,0,0,0-1.08,1.08v7.2a1.06,1.06,0,0,0,.32.77A1,1,0,0,0,155.59,308.79Z" style="fill:#fff"/><path d="M163.81,311.61a2.05,2.05,0,0,1-1.53-.64,2.14,2.14,0,0,1-.63-1.55v-2.49h2.79v.78a1,1,0,0,0,.33.77,1.09,1.09,0,0,0,.78.31h.63a1.06,1.06,0,0,0,1.08-1.08V306.6a1,1,0,0,0-.31-.76,1.06,1.06,0,0,0-.77-.32h-2.37a2.05,2.05,0,0,1-1.53-.64,2.14,2.14,0,0,1-.63-1.55V298.8a2.12,2.12,0,0,1,.63-1.54,2.06,2.06,0,0,1,1.53-.65h4.11a2.06,2.06,0,0,1,1.53.65,2.12,2.12,0,0,1,.63,1.54v2.49h-2.82v-.78a1,1,0,0,0-.31-.76,1.06,1.06,0,0,0-.77-.32h-.63a1.1,1.1,0,0,0-.78.32,1,1,0,0,0-.33.76v1.11a1,1,0,0,0,.33.77,1.09,1.09,0,0,0,.78.31h2.37a2.06,2.06,0,0,1,1.53.65,2.12,2.12,0,0,1,.63,1.54v4.65a2.17,2.17,0,0,1-2.16,2.07Z" style="fill:#fff"/><path d="M171.88,311.61V289.77l2.82-.63v7.47h3.57l-.66,2.82H174.7v12.18Z" style="fill:#fff"/><path d="M179.17,292.59v-2.82l2.82-.66v2.82Zm.06,19V297.27l2.82-.66v15Z" style="fill:#fff"/><path d="M191.44,311.61a2.15,2.15,0,0,1-2.19-2.19V298.8a2.15,2.15,0,0,1,2.19-2.19h3.45v-6.84l2.82-.66v22.5Zm1.71-2.82h1.74v-9.36h-1.74a1.08,1.08,0,0,0-.75.3,1,1,0,0,0-.33.78v7.2a1.13,1.13,0,0,0,1.08,1.08Z" style="fill:#fff"/><path d="M202,311.61a2.09,2.09,0,0,1-1.54-.64,2.12,2.12,0,0,1-.65-1.55V298.77a2.06,2.06,0,0,1,.65-1.53,2.12,2.12,0,0,1,1.54-.63h4.08a2.12,2.12,0,0,1,1.56.63,2.08,2.08,0,0,1,.63,1.53v4.56a2.14,2.14,0,0,1-.63,1.55,2.09,2.09,0,0,1-1.56.64h-3.45v2.19a1.08,1.08,0,0,0,1.11,1.08h3.9l.63,2.82Zm.63-8.91h1.74a1.06,1.06,0,0,0,1.08-1.08v-1.11a1,1,0,0,0-.31-.76,1.06,1.06,0,0,0-.77-.32h-.63a1.07,1.07,0,0,0-.79.32,1,1,0,0,0-.32.76Z" style="fill:#fff"/><path d="M212.86,319.08a2.15,2.15,0,0,1-2.19-2.19v-3.24l2.82.63v.9a1.06,1.06,0,0,0,.32.75,1,1,0,0,0,.79.33h.57a1,1,0,0,0,.78-.33,1.08,1.08,0,0,0,.3-.75V297.24l2.82-.63v20.28a2.15,2.15,0,0,1-2.19,2.19Zm3.39-26.7v-2.82l2.82-.66v2.82Z" style="fill:#fff"/><path d="M223.66,311.61a2.09,2.09,0,0,1-1.54-.64,2.12,2.12,0,0,1-.65-1.55V298.77a2.06,2.06,0,0,1,.65-1.53,2.12,2.12,0,0,1,1.54-.63h4.08a2.12,2.12,0,0,1,1.56.63,2.08,2.08,0,0,1,.63,1.53v4.56a2.14,2.14,0,0,1-.63,1.55,2.09,2.09,0,0,1-1.56.64h-3.45v2.19a1.08,1.08,0,0,0,1.11,1.08h3.9l.63,2.82Zm.63-8.91H226a1.06,1.06,0,0,0,1.08-1.08v-1.11a1,1,0,0,0-.31-.76,1.06,1.06,0,0,0-.77-.32h-.63a1.07,1.07,0,0,0-.79.32,1,1,0,0,0-.32.76Z" style="fill:#fff"/><path d="M234.52,311.61a2.15,2.15,0,0,1-2.19-2.19V296.61h2.82v11.1a1.13,1.13,0,0,0,1.08,1.08H238V296.61h2.82v15Z" style="fill:#fff"/></g></g><g id="Jeu_de_Cartes-3" data-name="Jeu de Cartes"><g style="isolation:isolate"><path d="M156.61,385.61v-21h7.62a2.19,2.19,0,0,1,2.19,2.16v6a2,2,0,0,1,1,.78,2.14,2.14,0,0,1,.39,1.23v8.7a2.12,2.12,0,0,1-.63,1.56,2.08,2.08,0,0,1-1.53.63Zm2.82-13h3.09a1.07,1.07,0,0,0,.78-.33,1,1,0,0,0,.33-.75v-3.06a1,1,0,0,0-.33-.76,1.1,1.1,0,0,0-.78-.32h-3.09Zm0,10.23H164a1,1,0,0,0,.74-.31,1.09,1.09,0,0,0,.31-.8v-5.28a1.05,1.05,0,0,0-.31-.75,1,1,0,0,0-.74-.33h-4.53Z" style="fill:#fff"/><path d="M169.9,385.61V363.8l2.82-.63v22.44Z" style="fill:#fff"/><path d="M177.25,385.61a2.09,2.09,0,0,1-1.56-.64,2.14,2.14,0,0,1-.63-1.55V372.8a2.12,2.12,0,0,1,.63-1.54,2.1,2.1,0,0,1,1.56-.65h4.08a2.06,2.06,0,0,1,1.53.65,2.12,2.12,0,0,1,.63,1.54v10.62a2.14,2.14,0,0,1-.63,1.55,2.05,2.05,0,0,1-1.53.64Zm1.71-2.82h.63a1.09,1.09,0,0,0,.78-.31,1,1,0,0,0,.33-.77v-7.2a1,1,0,0,0-.33-.76,1.1,1.1,0,0,0-.78-.32H179a1.09,1.09,0,0,0-1.08,1.08v7.2a1.06,1.06,0,0,0,.32.77A1,1,0,0,0,179,382.79Z" style="fill:#fff"/><path d="M185.62,385.61V363.74l2.82-.66v15l2.82-7.5h2.82l-2.82,7.5,2.82,7.5h-2.82l-1.41-3.78-1.41,3.78Z" style="fill:#fff"/><path d="M197.77,385.61a2.15,2.15,0,0,1-2.19-2.19V370.61h2.82v11.1a1.13,1.13,0,0,0,1.08,1.08h1.74V370.61H204v15Z" style="fill:#fff"/><path d="M208,385.61a2.05,2.05,0,0,1-1.53-.64,2.14,2.14,0,0,1-.63-1.55v-2.49h2.79v.78a1,1,0,0,0,.33.77,1.09,1.09,0,0,0,.78.31h.63a1.06,1.06,0,0,0,1.08-1.08V380.6a1,1,0,0,0-.31-.76,1.06,1.06,0,0,0-.77-.32H208a2.05,2.05,0,0,1-1.53-.64,2.14,2.14,0,0,1-.63-1.55V372.8a2.12,2.12,0,0,1,.63-1.54,2.06,2.06,0,0,1,1.53-.65h4.11a2.06,2.06,0,0,1,1.53.65,2.12,2.12,0,0,1,.63,1.54v2.49h-2.82v-.78a1,1,0,0,0-.31-.76,1.06,1.06,0,0,0-.77-.32h-.63a1.1,1.1,0,0,0-.78.32,1,1,0,0,0-.33.76v1.11a1,1,0,0,0,.33.77,1.09,1.09,0,0,0,.78.31h2.37a2.06,2.06,0,0,1,1.53.65,2.12,2.12,0,0,1,.63,1.54v4.65a2.17,2.17,0,0,1-2.16,2.07Z" style="fill:#fff"/></g></g><g id="Jeu_de_Cartes-4" data-name="Jeu de Cartes"><g style="isolation:isolate"><path d="M104.55,342.87a1.57,1.57,0,0,1-1.58-1.58V322.54a1.54,1.54,0,0,1,.46-1.11,1.53,1.53,0,0,1,1.12-.47h3l-.46,2H105.8a.72.72,0,0,0-.57.25.82.82,0,0,0-.22.55V340a.82.82,0,0,0,.22.55.75.75,0,0,0,.57.24h1.26l.46,2.05Z" style="fill:#fff"/><path d="M111.35,339.61a1.54,1.54,0,0,1-1.1-.46,1.51,1.51,0,0,1-.49-1.12V325.8a1.5,1.5,0,0,1,.49-1.11,1.52,1.52,0,0,1,1.1-.48h5a1.51,1.51,0,0,1,1.14.48,1.54,1.54,0,0,1,.45,1.11v2.86l-2.05.46v-2.07a.82.82,0,0,0-.21-.55.71.71,0,0,0-.56-.24H112.6a.82.82,0,0,0-.79.79v9.73a.75.75,0,0,0,.24.57.79.79,0,0,0,.55.22h2.51a.73.73,0,0,0,.56-.22.8.8,0,0,0,.21-.57v-1.61l2.05-.48V338a1.55,1.55,0,0,1-.45,1.12,1.53,1.53,0,0,1-1.14.46Z" style="fill:#fff"/><path d="M120.9,339.61a1.58,1.58,0,0,1-1.14-.46,1.55,1.55,0,0,1-.47-1.14v-3.32a1.6,1.6,0,0,1,1.61-1.61h1.71a.82.82,0,0,0,.59-.23.77.77,0,0,0,.23-.56v-.82a.79.79,0,0,0-.23-.56.82.82,0,0,0-.59-.23h-2.37l.46-2.07h3.19a1.62,1.62,0,0,1,1.6,1.61v9.39Zm1.25-2.06h1.28v-2.4h-1.28a.79.79,0,0,0-.79.79v.81a.81.81,0,0,0,.23.57A.77.77,0,0,0,122.15,337.55Z" style="fill:#fff"/><path d="M126.81,339.61v-11h4.6a1.62,1.62,0,0,1,1.61,1.61v2.4l-2.07-.46v-.66a.85.85,0,0,0-.23-.58.74.74,0,0,0-.56-.24h-1.28v8.93Z" style="fill:#fff"/><path d="M135.5,339.61a1.57,1.57,0,0,1-1.6-1.6v-7.79a1.53,1.53,0,0,1,.46-1.14,1.55,1.55,0,0,1,1.14-.47H138v-5l2.07-.49v16.5Zm1.26-2.06H138v-6.87h-1.27a.82.82,0,0,0-.55.22.75.75,0,0,0-.24.57v5.28a.75.75,0,0,0,.24.55A.73.73,0,0,0,136.76,337.55Z" style="fill:#fff"/><path d="M142.79,339.61a1.51,1.51,0,0,1-1.13-.47,1.58,1.58,0,0,1-.46-1.13v-1.83h2.05v.57a.78.78,0,0,0,.24.57.81.81,0,0,0,.57.23h.46a.79.79,0,0,0,.8-.8v-.81a.77.77,0,0,0-.23-.56.81.81,0,0,0-.57-.23h-1.73a1.52,1.52,0,0,1-1.13-.48,1.58,1.58,0,0,1-.46-1.13v-3.32a1.58,1.58,0,0,1,.46-1.13,1.52,1.52,0,0,1,1.13-.48h3a1.5,1.5,0,0,1,1.12.48,1.54,1.54,0,0,1,.46,1.13v1.83h-2.06v-.58a.79.79,0,0,0-.23-.56.81.81,0,0,0-.57-.23h-.46a.81.81,0,0,0-.57.23.76.76,0,0,0-.24.56v.82a.74.74,0,0,0,.24.56.81.81,0,0,0,.57.23h1.74a1.53,1.53,0,0,1,1.12.47,1.58,1.58,0,0,1,.46,1.14v3.41a1.48,1.48,0,0,1-.48,1.06,1.52,1.52,0,0,1-1.1.45Z" style="fill:#fff"/><path d="M151.83,339.64l3.1-15.4h2l3.06,15.4h-2.05l-.59-2.89h-2.93l-.55,2.89Zm3-4.91H157l-1.06-5.48Z" style="fill:#fff"/><path d="M162.74,345.11a1.62,1.62,0,0,1-1.61-1.6v-2.4l2.07.48v.66a.84.84,0,0,0,.79.8h.49a.72.72,0,0,0,.57-.25.77.77,0,0,0,.22-.55v-2.64h-2.53a1.62,1.62,0,0,1-1.61-1.6v-7.79a1.52,1.52,0,0,1,.49-1.14,1.56,1.56,0,0,1,1.12-.47h4.6v14.9a1.59,1.59,0,0,1-.46,1.14,1.55,1.55,0,0,1-1.15.46Zm1.25-7.56h.49a.72.72,0,0,0,.57-.25.77.77,0,0,0,.22-.55v-6.07H164a.85.85,0,0,0-.55.22.75.75,0,0,0-.24.57v5.28a.84.84,0,0,0,.79.8Z" style="fill:#fff"/><path d="M170,339.61a1.59,1.59,0,0,1-1.6-1.6v-3.32a1.59,1.59,0,0,1,.47-1.14,1.56,1.56,0,0,1,1.13-.47h1.72a.78.78,0,0,0,.58-.23.73.73,0,0,0,.23-.56v-.82a.75.75,0,0,0-.23-.56.78.78,0,0,0-.58-.23h-2.38l.47-2.07H173a1.62,1.62,0,0,1,1.6,1.61v9.39Zm1.26-2.06h1.27v-2.4H171.3a.77.77,0,0,0-.56.23.73.73,0,0,0-.23.56v.81a.79.79,0,0,0,.79.8Z" style="fill:#fff"/><path d="M176,325.67V323.6l2.07-.49v2.07Zm0,13.94V329.1l2.06-.49v11Z" style="fill:#fff"/><path d="M179.48,339.61v-11h4.6a1.56,1.56,0,0,1,1.12.47,1.49,1.49,0,0,1,.49,1.12v9.41h-2.07v-8.14a.75.75,0,0,0-.24-.57.85.85,0,0,0-.55-.22h-1.28v8.93Z" style="fill:#fff"/><path d="M188.68,339.61a1.47,1.47,0,0,1-1.12-.47,1.55,1.55,0,0,1-.47-1.13v-1.83h2v.57a.78.78,0,0,0,.24.57.81.81,0,0,0,.57.23h.47a.79.79,0,0,0,.56-.23.81.81,0,0,0,.23-.57v-.81a.77.77,0,0,0-.23-.56.79.79,0,0,0-.56-.23h-1.74a1.48,1.48,0,0,1-1.12-.48,1.55,1.55,0,0,1-.47-1.13v-3.32a1.55,1.55,0,0,1,.47-1.13,1.48,1.48,0,0,1,1.12-.48h3a1.48,1.48,0,0,1,1.12.48,1.55,1.55,0,0,1,.47,1.13v1.83h-2.07v-.58a.79.79,0,0,0-.79-.79H190a.81.81,0,0,0-.57.23.76.76,0,0,0-.24.56v.82a.74.74,0,0,0,.24.56.81.81,0,0,0,.57.23h1.74a1.51,1.51,0,0,1,1.12.47,1.59,1.59,0,0,1,.47,1.14v3.41a1.61,1.61,0,0,1-1.59,1.51Z" style="fill:#fff"/><path d="M194.6,339.61v-16l2.07-.46v5.47h2.61l-.48,2.07h-2.13v8.93Z" style="fill:#fff"/><path d="M203.51,339.61v-15.4h2v5.86h4.09v-5.86h2v15.4h-2v-7.5h-4.09v7.5Z" style="fill:#fff"/><path d="M215.52,339.61a1.55,1.55,0,0,1-1.15-.46,1.59,1.59,0,0,1-.46-1.14v-9.4H216v8.14a.75.75,0,0,0,.24.55.74.74,0,0,0,.55.25h1.28v-8.94h2.07v11Z" style="fill:#fff"/><path d="M221.81,339.61v-11h8.73a1.52,1.52,0,0,1,1.13.48,1.58,1.58,0,0,1,.46,1.13v9.39h-2v-8.14a.76.76,0,0,0-.24-.56.81.81,0,0,0-.57-.23H228v8.93H226v-8.14a.73.73,0,0,0-.25-.56.81.81,0,0,0-.57-.23h-1.25v8.93Z" style="fill:#fff"/><path d="M234.92,339.61a1.54,1.54,0,0,1-1.13-.46,1.52,1.52,0,0,1-.47-1.14v-3.32a1.6,1.6,0,0,1,1.6-1.61h1.72a.8.8,0,0,0,.58-.23.73.73,0,0,0,.23-.56v-.82a.75.75,0,0,0-.23-.56.8.8,0,0,0-.58-.23h-2.38l.46-2.07h3.19a1.62,1.62,0,0,1,1.61,1.61v9.39Zm1.26-2.06h1.27v-2.4h-1.27a.77.77,0,0,0-.56.23.74.74,0,0,0-.24.56v.81a.78.78,0,0,0,.24.57A.77.77,0,0,0,236.18,337.55Z" style="fill:#fff"/><path d="M240.71,339.61v-11h4.6a1.58,1.58,0,0,1,1.12.47,1.48,1.48,0,0,1,.48,1.12v9.41h-2.07v-8.14a.75.75,0,0,0-.24-.57.82.82,0,0,0-.55-.22h-1.27v8.93Z" style="fill:#fff"/><path d="M248.54,325.67V323.6l2.07-.49v2.07Zm0,13.94V329.1l2.07-.49v11Z" style="fill:#fff"/><path d="M252.41,339.61v-16l2.07-.46v5.47h2.62l-.49,2.07h-2.13v8.93Z" style="fill:#fff"/><path d="M259.58,345.11a1.57,1.57,0,0,1-1.6-1.6v-2.4l2.07.48v.66a.75.75,0,0,0,.24.55.73.73,0,0,0,.55.25h.48a.73.73,0,0,0,.55-.25.75.75,0,0,0,.24-.55v-2.64h-2.53A1.57,1.57,0,0,1,258,338v-9.4h2.07v8.14a.75.75,0,0,0,.24.55.73.73,0,0,0,.55.25h1.27v-8.94h2.07v14.9a1.55,1.55,0,0,1-.46,1.14,1.52,1.52,0,0,1-1.12.46Z" style="fill:#fff"/><path d="M265.94,342.87l.46-2.05h1.26a.75.75,0,0,0,.57-.24.77.77,0,0,0,.22-.55V323.8a.77.77,0,0,0-.22-.55.72.72,0,0,0-.57-.25H266.4l-.46-2h3a1.51,1.51,0,0,1,1.12.47,1.55,1.55,0,0,1,.47,1.11v18.75a1.53,1.53,0,0,1-.47,1.12,1.5,1.5,0,0,1-1.12.46Z" style="fill:#fff"/></g></g></svg>