<?xml version="1.0" encoding="utf-8"?>
<!-- Generator: Adobe Illustrator 24.0.2, SVG Export Plug-In . SVG Version: 6.00 Build 0)  -->
<svg version="1.1" id="Layer_1" xmlns="http://www.w3.org/2000/svg" xmlns:xlink="http://www.w3.org/1999/xlink" x="0px" y="0px"
	 viewBox="0 0 24 24" style="enable-background:new 0 0 24 24;" xml:space="preserve">
<style type="text/css">
	.st0{fill:#3BD7F7;}
</style>
<path class="st0" d="M13,3C9.2,3,6.2,5.9,6,9.7l-1.9,2.5c-0.2,0.3,0,0.8,0.4,0.8H6v3c0,1.1,0.9,2,2,2h1v3h7v-4.7
	c2.4-1.1,4-3.5,4-6.3C20,6.1,16.9,3,13,3 M17.1,9.6l-2,0.5l1.4,1.4c0.3,0.3,0.3,0.9,0,1.3c-0.4,0.3-0.9,0.3-1.3,0l-1.5-1.4l-0.5,2
	c-0.1,0.5-0.6,0.8-1.1,0.6c-0.5-0.1-0.8-0.6-0.6-1.1l0.5-2l-2,0.5c-0.5,0.1-1-0.2-1.1-0.6c-0.1-0.5,0.2-1,0.6-1.1l2-0.5l-1.4-1.5
	c-0.3-0.3-0.3-0.9,0-1.3c0.4-0.3,0.9-0.3,1.3,0l1.4,1.4l0.5-2c0.1-0.5,0.6-0.8,1.1-0.6c0.5,0.1,0.8,0.6,0.7,1.1l-0.5,2l2-0.5
	c0.5-0.1,1,0.2,1.1,0.7C17.8,9,17.5,9.4,17.1,9.6z"/>
</svg>
