<?xml version="1.0" encoding="UTF-8" standalone="no"?>
<!-- Created with Inkscape (https://www.inkscape.org/) -->
<svg
   xmlns:dc="http://purl.org/dc/elements/1.1/"
   xmlns:cc="http://creativecommons.org/ns#"
   xmlns:rdf="http://www.w3.org/1999/02/22-rdf-syntax-ns#"
   xmlns:svg="http://www.w3.org/2000/svg"
   xmlns="http://www.w3.org/2000/svg"
   id="svg4760"
   version="1.1"
   viewBox="0 0 48.947915 30.1625"
   height="114"
   width="185">
  <title
     id="title5315">Minipix - Ghost</title>
  <defs
     id="defs4754" />
  <metadata
     id="metadata4757">
    <rdf:RDF>
      <cc:Work
         rdf:about="">
        <dc:format>image/svg+xml</dc:format>
        <dc:type
           rdf:resource="http://purl.org/dc/dcmitype/StillImage" />
        <dc:title>Minipix - Ghost</dc:title>
        <dc:creator>
          <cc:Agent>
            <dc:title>Beagle Bros - Fred &amp; Sara Crone</dc:title>
          </cc:Agent>
        </dc:creator>
        <dc:publisher>
          <cc:Agent>
            <dc:title>Openclipart.org</dc:title>
          </cc:Agent>
        </dc:publisher>
        <dc:identifier>https://openclipart.org/</dc:identifier>
        <dc:source />
        <dc:contributor>
          <cc:Agent>
            <dc:title>Arvin61r58 (https://openclipart.org/user-detail/Arvin61r58)</dc:title>
          </cc:Agent>
        </dc:contributor>
        <dc:subject>
          <rdf:Bag>
            <rdf:li>Beagle Bros</rdf:li>
            <rdf:li>Minipix</rdf:li>
            <rdf:li>retro</rdf:li>
            <rdf:li>old school</rdf:li>
            <rdf:li>OldSchool</rdf:li>
            <rdf:li>old skool</rdf:li>
            <rdf:li>OldSkool</rdf:li>
            <rdf:li>pixel art</rdf:li>
            <rdf:li>PixelArt</rdf:li>
            <rdf:li>ghost</rdf:li>
            <rdf:li>Halloween</rdf:li>
            <rdf:li>holiday</rdf:li>
          </rdf:Bag>
        </dc:subject>
        <cc:license
           rdf:resource="http://creativecommons.org/publicdomain/zero/1.0/" />
      </cc:Work>
      <cc:License
         rdf:about="http://creativecommons.org/publicdomain/zero/1.0/">
        <cc:permits
           rdf:resource="http://creativecommons.org/ns#Reproduction" />
        <cc:permits
           rdf:resource="http://creativecommons.org/ns#Distribution" />
        <cc:permits
           rdf:resource="http://creativecommons.org/ns#DerivativeWorks" />
      </cc:License>
    </rdf:RDF>
  </metadata>
  <path
     id="path4741"
     d="M 7.672916,23.018747 V 17.197915 H 5.291666 2.9104161 v -1.852084 -1.85208 H 2.645833 2.3812495 V 13.229166 12.964581 H 2.1166664 1.8520829 V 12.7 12.435415 H 1.5874997 1.3229162 V 11.906249 11.377082 H 1.5874997 1.8520829 V 11.112501 10.847916 H 2.1166664 2.3812495 V 10.583331 10.31875 H 2.645833 2.9104161 V 9.7895838 9.2604175 H 2.645833 2.3812495 V 8.9958325 8.7312513 H 2.1166664 1.8520829 V 8.2020813 7.6729151 H 2.1166664 2.3812495 V 7.4083338 7.1437488 H 2.645833 2.9104161 V 6.8791676 6.6145826 H 3.1749996 3.4395827 V 6.3500014 6.0854164 H 3.7041662 3.9687493 V 5.8208314 5.5562501 H 4.2333328 4.4979163 V 5.2916651 5.0270839 H 4.7624994 5.0270829 V 4.7624989 4.4979177 H 5.291666 5.5562495 V 4.2333327 3.9687514 h 3.7041663 3.7041662 v 0.2645813 0.264585 h 0.264584 0.264583 v 0.2645812 0.264585 h 0.264584 0.264583 v 0.2645812 0.264585 h 0.264583 0.264583 v 0.2645813 0.264585 h 0.264584 0.264583 v 0.264585 0.2645812 h 0.264583 0.264585 V 6.3500014 6.0854164 h 0.264581 0.264585 V 5.8208314 5.5562501 h 0.264581 0.264585 V 5.2916651 5.0270839 h 0.264582 0.264585 V 4.7624989 4.4979177 h 0.264585 0.264581 V 4.2333327 3.9687514 h 1.587499 1.587502 v -0.264585 -0.264585 h 0.264581 0.264585 V 3.1750002 2.9104152 h 4.233334 4.233334 v 0.264585 0.2645812 h 0.264581 0.264585 v 0.264585 0.264585 h 0.264581 0.264585 v 0.2645813 0.264585 h 0.264581 0.264585 V 4.2333327 3.9687514 h 0.264582 0.264585 v -0.264585 -0.264585 h 0.264585 0.264581 V 3.1750002 2.9104152 h 1.852083 1.852084 V 2.645834 2.381249 h 0.264581 0.264585 V 2.1166677 1.8520827 h 0.264585 0.264582 V 1.5875015 1.3229165 h 3.175001 3.174997 v 0.264585 0.2645812 h 0.264585 0.264581 v 0.264585 0.2645813 h 0.264585 0.264585 v 0.264585 0.2645812 h 0.264582 0.264585 v 0.264585 0.2645812 h 0.132288 0.132293 v 0.264585 0.264585 h 0.264585 0.264581 v 0.2645813 0.264585 h 0.264585 0.264581 v 0.2645812 0.264585 h 0.264585 0.264585 v 0.2645812 0.264585 h 0.264582 0.264585 v 0.5291663 0.5291662 h -0.264585 -0.264582 v 0.264585 0.2645812 h -0.264585 -0.264585 v 0.264585 0.2645813 h -0.264581 -0.264585 v 0.264585 0.2645812 H 45.772915 45.50833 v 0.264585 0.264585 h -0.132293 -0.132288 v 1.8520797 1.852084 h -0.529167 -0.52917 V 12.7 12.964581 h -0.264581 -0.264585 v 0.264585 0.264585 H 43.391665 43.12708 v 0.264581 0.264585 h -0.264581 -0.264585 v 0.264582 0.264585 h -0.529166 -0.529167 v 7.143749 7.14375 H 24.606247 7.672916 Z"
     style="fill:#ffffff;stroke-width:0.13229166;fill-opacity:1" />
  <path
     id="path4739"
     d="M 7.672916,23.018747 V 17.197915 H 5.291666 2.9104161 v -1.852084 -1.85208 H 2.645833 2.3812495 V 13.229166 12.964581 H 2.1166664 1.8520829 V 12.7 12.435415 H 1.5874997 1.3229162 V 11.906249 11.377082 H 1.5874997 1.8520829 V 11.112501 10.847916 H 2.1166664 2.3812495 V 10.583331 10.31875 H 2.645833 2.9104161 V 9.7895838 9.2604175 H 2.645833 2.3812495 V 8.9958325 8.7312513 H 2.1166664 1.8520829 V 8.2020813 7.6729151 H 2.1166664 2.3812495 V 7.4083338 7.1437488 H 2.645833 2.9104161 V 6.8791676 6.6145826 H 3.1749996 3.4395827 V 6.3500014 6.0854164 H 3.7041662 3.9687493 V 5.8208314 5.5562501 H 4.2333328 4.4979163 V 5.2916651 5.0270839 H 4.7624994 5.0270829 V 4.7624989 4.4979177 H 5.291666 5.5562495 V 4.2333327 3.9687514 h 3.7041663 3.7041662 v 0.2645813 0.264585 h 0.264584 0.264583 v 0.2645812 0.264585 h 0.264584 0.264583 v 0.2645812 0.264585 h 0.264583 0.264583 v 0.2645813 0.264585 h 0.264584 0.264583 v 0.264585 0.2645812 h 0.264583 0.264585 V 6.3500014 6.0854164 h 0.264581 0.264585 V 5.8208314 5.5562501 h 0.264581 0.264585 V 5.2916651 5.0270839 h 0.264582 0.264585 V 4.7624989 4.4979177 h 0.264585 0.264581 V 4.2333327 3.9687514 h 1.587499 1.587502 v -0.264585 -0.264585 h 0.264581 0.264585 V 3.1750002 2.9104152 h 4.233334 4.233334 v 0.264585 0.2645812 h 0.264581 0.264585 v 0.264585 0.264585 h 0.264581 0.264585 v 0.2645813 0.264585 h 0.264581 0.264585 V 4.2333327 3.9687514 h 0.264582 0.264585 v -0.264585 -0.264585 h 0.264585 0.264581 V 3.1750002 2.9104152 h 1.852083 1.852084 V 2.645834 2.381249 h 0.264581 0.264585 V 2.1166677 1.8520827 h 0.264585 0.264582 V 1.5875015 1.3229165 h 3.175001 3.174997 v 0.264585 0.2645812 h 0.264585 0.264581 v 0.264585 0.2645813 h 0.264585 0.264585 v 0.264585 0.2645812 h 0.264582 0.264585 v 0.264585 0.2645812 h 0.132288 0.132293 v 0.264585 0.264585 h 0.264585 0.264581 v 0.2645813 0.264585 h 0.264585 0.264581 v 0.2645812 0.264585 h 0.264585 0.264585 v 0.2645812 0.264585 h 0.264582 0.264585 v 0.5291663 0.5291662 h -0.264585 -0.264582 v 0.264585 0.2645812 h -0.264585 -0.264585 v 0.264585 0.2645813 h -0.264581 -0.264585 v 0.264585 0.2645812 H 45.772915 45.50833 v 0.264585 0.264585 h -0.132293 -0.132288 v 1.8520797 1.852084 h -0.529167 -0.52917 V 12.7 12.964581 h -0.264581 -0.264585 v 0.264585 0.264585 H 43.391665 43.12708 v 0.264581 0.264585 h -0.264581 -0.264585 v 0.264582 0.264585 h -0.529166 -0.529167 v 7.143749 7.14375 H 41.274996 41.010415 V 20.372916 11.906249 H 39.687498 38.36458 v -0.264582 -0.264585 h -0.264581 -0.264585 v 8.731249 8.731252 h -0.264581 -0.264585 v -8.731252 -8.731249 h 0.264585 0.264581 V 11.112501 10.847916 H 37.570833 37.306248 V 10.583331 10.31875 H 37.041666 36.777081 V 10.054165 9.7895838 H 36.512496 36.247915 V 9.5249988 9.2604175 H 35.98333 35.718749 V 8.9958325 8.7312513 H 35.454164 35.189583 V 8.4666663 8.2020813 H 34.924998 34.660416 V 7.9375001 7.6729151 H 34.395831 34.131246 V 7.4083338 7.1437488 h 0.264585 0.264585 V 6.8791676 6.6145826 h 0.264582 0.264585 V 6.3500014 6.0854164 h 0.264581 0.264585 V 5.8208314 5.5562501 h 0.264581 0.264585 V 5.2916651 5.0270839 h 0.264581 0.264585 V 4.7624989 4.4979177 h 0.264585 0.264582 V 4.2333327 3.9687514 h 0.264585 0.264581 v -0.264585 -0.264585 h 0.529166 0.529166 v 0.264585 0.264585 H 38.629165 38.36458 v 0.2645813 0.264585 h -0.264581 -0.264585 v 0.2645812 0.264585 h -0.264581 -0.264585 v 0.2645812 0.264585 h 0.264585 0.264581 v 0.2645813 0.264585 h -0.264581 -0.264585 v 0.264585 0.2645812 h 0.264585 0.264581 v 0.264585 0.2645812 h -0.264581 -0.264585 v 0.264585 0.2645813 h 0.264585 0.264581 v 0.264585 0.2645812 h -0.264581 -0.264585 v 0.264585 0.264585 h 0.264585 0.264581 v 0.2645812 0.264585 h -0.264581 -0.264585 v 0.2645813 0.264585 h 0.264585 0.264581 v 0.2645812 0.264585 h 0.264585 0.264581 V 7.6729151 5.0270839 h 0.264585 0.264581 v 3.1749974 3.1750007 h 1.322918 1.322917 V 7.9375001 4.4979177 h 0.264585 0.264582 v 3.7041636 3.7041677 h 1.322917 1.322917 V 8.2020813 4.4979177 h 0.264582 0.264585 v 1.5874987 1.5874987 h 0.132288 0.132293 V 7.4083338 7.1437488 h 0.264585 0.264581 V 6.8791676 6.6145826 h 0.264585 0.264581 V 6.0854164 5.5562501 H 46.302081 46.037496 V 5.2916651 5.0270839 H 45.772915 45.50833 V 4.7624989 4.4979177 H 45.376037 45.243749 V 4.2333327 3.9687514 H 44.979164 44.714582 V 3.7041664 3.4395814 H 44.449997 44.185412 V 3.1750002 2.9104152 H 43.920831 43.656246 V 2.645834 2.381249 H 43.391665 43.12708 V 2.1166677 1.8520827 h -2.645831 -2.645835 v 0.264585 0.2645813 h -0.264581 -0.264585 v 0.264585 0.2645812 h -0.264582 -0.264585 v 0.264585 0.2645812 h -0.264585 -0.264581 v 0.264585 0.264585 H 35.98333 35.718749 v 0.2645813 0.264585 h -0.264585 -0.264581 v 0.2645812 0.264585 h -0.264585 -0.264582 v 0.2645812 0.264585 h -0.264585 -0.264585 v 0.2645813 0.264585 H 33.866665 33.60208 v 0.264585 0.2645812 h -0.264581 -0.264585 v 0.264585 0.2645812 H 32.808333 32.543748 V 8.7312513 10.31875 h 0.264585 0.264581 v 0.264581 0.264585 h 0.264585 0.264581 v 0.264585 0.264581 h 0.264585 0.264581 v 0.264585 0.264582 h 0.264585 0.264585 v 4.7625 4.762499 H 34.395831 34.131246 V 16.933334 12.435415 H 33.866665 33.60208 V 12.170834 11.906249 H 33.337499 33.072914 V 11.641667 11.377082 H 32.808333 32.543748 V 12.7 14.022917 H 32.279167 32.014582 V 10.054165 6.0854164 H 31.749997 31.485415 V 5.8208314 5.5562501 H 31.22083 30.956249 V 5.2916651 5.0270839 H 30.691664 30.427083 V 4.7624989 4.4979177 H 30.162498 29.897917 V 4.2333327 3.9687514 h -0.264585 -0.264585 v -0.264585 -0.264585 h -3.704164 -3.704167 v 0.264585 0.264585 h -0.264585 -0.264582 v 0.2645813 0.264585 h -0.264585 -0.264581 v 0.2645812 0.264585 h -0.264585 -0.264581 v 0.2645812 0.264585 h -0.264585 -0.264585 v 0.2645813 0.264585 h -0.264581 -0.264585 v 3.9687486 3.968752 h -0.264582 -0.264585 v -1.587502 -1.587499 h -0.264581 -0.264585 v 0.264585 0.264581 h -0.264581 -0.264585 v 0.264585 0.264582 h -0.264581 -0.264585 v 0.264585 0.264581 H 16.933331 16.668749 V 12.7 12.964581 h -0.264585 -0.264581 v 5.556251 5.556251 h -0.264585 -0.264581 v -5.820832 -5.820836 h 0.264581 0.264585 v -0.264581 -0.264585 h 0.264581 0.264585 v -0.264582 -0.264585 h 0.264582 0.264585 v -0.264581 -0.264585 h 0.264585 0.264581 V 10.31875 9.7895838 H 17.462501 17.197916 V 9.5249988 9.2604175 H 16.933331 16.668749 V 8.9958325 8.7312513 H 16.404164 16.139583 V 8.4666663 8.2020813 H 15.874998 15.610417 V 7.9375001 7.6729151 H 15.345832 15.081249 V 7.4083338 7.1437488 H 14.816666 14.552082 V 6.8791676 6.6145826 H 14.287499 14.022916 V 6.3500014 6.0854164 H 13.758333 13.493749 V 5.8208314 5.5562501 H 13.229166 12.964582 V 5.2916651 5.0270839 H 12.699999 12.435416 V 4.7624989 4.4979177 H 9.2604158 6.0854161 V 8.9958325 13.493751 H 6.8791658 7.672916 v -2.38125 -2.3812497 h 0.2645834 0.2645832 v 2.6458307 2.645835 H 9.2604158 10.318749 V 10.583331 7.1437488 h 0.264583 0.264584 v 2.38125 2.3812502 h 0.264583 0.264584 v -0.264582 -0.264585 h 0.264583 0.264583 v -0.264581 -0.264585 h 0.264583 0.264584 V 10.583331 10.31875 h 0.264583 0.264583 V 10.054165 9.7895838 h 0.264584 0.264583 V 9.2604175 8.7312513 H 13.229166 12.964582 V 8.4666663 8.2020813 H 12.699999 12.435416 V 7.9375001 7.6729151 H 12.170832 11.906249 V 7.4083338 7.1437488 H 11.641666 11.377083 V 6.8791676 6.6145826 H 11.112499 10.847916 V 6.3500014 6.0854164 H 10.583332 10.318749 V 5.8208314 5.5562501 H 10.054166 9.7895824 V 5.2916651 5.0270839 h 0.5291666 0.529167 v 0.2645812 0.264585 h 0.264583 0.264584 v 0.2645813 0.264585 h 0.264583 0.264583 v 0.264585 0.2645812 h 0.264583 0.264584 v 0.264585 0.2645812 h 0.264583 0.264583 v 0.264585 0.2645813 h 0.264584 0.264583 v 0.264585 0.2645812 h 0.264584 0.264583 v 0.264585 0.264585 h 0.264583 0.264583 v 0.5291662 0.5291663 h -0.264583 -0.264583 v 0.2645812 0.264585 h -0.264583 -0.264584 v 0.264581 0.264585 h -0.264583 -0.264584 v 4.7625 4.7625 h -0.264583 -0.264583 v 0.264585 0.264581 h 0.264583 0.264583 v 0.264585 0.264581 h -0.264583 -0.264583 v 0.264585 0.264582 h 0.264583 0.264583 V 22.225 22.489581 h 0.264584 0.264583 v 0.264585 0.264581 h 0.264584 0.264583 v 0.264585 0.264585 h -0.264583 -0.264584 v 0.264581 0.264585 h 0.264584 0.264583 v 0.264582 0.264585 h 0.264583 0.264583 v 0.264581 0.264585 h 0.264584 0.264583 v 0.264581 0.264585 h 0.264583 0.264585 v 0.264585 0.264581 h -0.264585 -0.264583 v 0.264585 0.264582 h 0.264583 0.264585 v 0.264585 0.264581 h -0.264585 -0.264583 v 0.264585 0.264581 h 0.264583 0.264585 v 0.264585 0.264585 h -0.264585 -0.264583 v 0.264581 0.264585 h -0.264583 -0.264584 v -0.264585 -0.264581 h -0.264583 -0.264583 v 0.264581 0.264585 h -0.264583 -0.264584 v -0.264585 -0.264581 h -0.264583 -0.264584 v 0.264581 0.264585 h -0.264583 -0.264583 v -0.264585 -0.264581 h -0.264584 -0.264583 v 0.264581 0.264585 h -0.264583 -0.264583 v -0.264585 -0.264581 h 0.264583 0.264583 v -0.264585 -0.264585 h -0.264583 -0.264583 v -0.264581 -0.264585 h 0.264583 0.264583 V 26.9875 26.722915 h -0.264583 -0.264583 v -0.264582 -0.264585 h 0.264583 0.264583 v -0.264581 -0.264585 h -0.264583 -0.264583 v -0.264585 -0.264581 h 0.264583 0.264583 V 24.870831 24.60625 h -0.264583 -0.264583 v -0.264585 -0.264582 h 0.264583 0.264583 v -0.264585 -0.264581 h -0.264583 -0.264583 v -0.264585 -0.264585 h 0.264583 0.264583 V 22.754166 22.489581 H 11.641666 11.377083 V 22.225 21.960415 h 0.264583 0.264583 v -0.264582 -0.264585 h -0.264583 -0.264583 v -0.264581 -0.264585 h 0.264583 0.264583 V 20.637501 20.372916 H 11.641666 11.377083 V 20.108331 19.84375 h 0.264583 0.264583 v 0.264581 0.264585 h 0.264583 0.264584 v -4.233334 -4.233333 h -0.264584 -0.264583 v 0.264585 0.264581 H 11.641666 11.377083 V 12.7 12.964581 h -0.264584 -0.264583 v 7.937501 7.937501 H 9.2604158 7.672916 Z m 5.291666,5.027085 v -0.264585 h 0.264584 0.264583 v 0.264585 0.264585 h 0.264584 0.264583 v -0.264585 -0.264585 h 0.264583 0.264583 v 0.264585 0.264585 h 0.264584 0.264583 v -0.264585 -0.264585 h -0.264583 -0.264584 v -0.264581 -0.264585 h 0.264584 0.264583 V 26.9875 26.722915 h -0.264583 -0.264584 v -0.264582 -0.264585 h 0.264584 0.264583 V 25.929167 25.664582 H 14.816666 14.552082 V 25.399997 25.135416 H 14.287499 14.022916 V 24.870831 24.60625 h -0.264583 -0.264584 v -0.264585 -0.264582 h -0.264583 -0.264584 v -0.264585 -0.264581 h 0.264584 0.264583 V 23.283332 23.018747 H 13.229166 12.964582 V 22.754166 22.489581 H 12.699999 12.435416 V 22.225 21.960415 H 12.170832 11.906249 V 22.225 22.489581 h 0.264583 0.264584 v 0.264585 0.264581 h -0.264584 -0.264583 v 0.264585 0.264585 h 0.264583 0.264584 v 0.264581 0.264585 h -0.264584 -0.264583 v 0.264582 0.264585 h 0.264583 0.264584 v 0.264581 0.264585 h -0.264584 -0.264583 v 0.264581 0.264585 h 0.264583 0.264584 v 0.264585 0.264581 h -0.264584 -0.264583 v 0.264585 0.264582 h 0.264583 0.264584 v 0.264585 0.264581 h -0.264584 -0.264583 v 0.264585 0.264581 h 0.264583 0.264584 v 0.264585 0.264585 h 0.264583 0.264583 z m -0.529166,-0.529166 v -0.264585 h 0.264583 0.264583 V 26.9875 26.722915 h -0.264583 -0.264583 v -0.264582 -0.264585 h 0.264583 0.264583 v -0.264581 -0.264585 h -0.264583 -0.264583 v -0.264585 -0.264581 h 0.264583 0.264583 V 24.870831 24.60625 h -0.264583 -0.264583 v -0.264585 -0.264582 h 0.264583 0.264583 v 0.264582 0.264585 h 0.264584 0.264583 v 0.264581 0.264585 h 0.264584 0.264583 v 0.264581 0.264585 h 0.264583 0.264583 v 0.264585 0.264581 h -0.264583 -0.264583 v 0.264585 0.264582 h 0.264583 0.264583 v 0.264585 0.264581 h -0.264583 -0.264583 v 0.264585 0.264581 h -0.264583 -0.264584 v -0.264581 -0.264585 h -0.264583 -0.264584 v 0.264585 0.264581 h -0.264583 -0.264583 z m 1.5875,-0.529166 v -0.264585 h -0.264583 -0.264584 v -0.264582 -0.264585 h 0.264584 0.264583 v -0.264581 -0.264585 h -0.264583 -0.264584 v -0.264585 -0.264581 h -0.264583 -0.264584 v 0.264581 0.264585 h 0.264584 0.264583 v 0.264585 0.264581 h -0.264583 -0.264584 v 0.264585 0.264582 h 0.264584 0.264583 v 0.264585 0.264581 h 0.264584 0.264583 z m -1.5875,-3.704168 v -0.264585 h 0.264583 0.264583 v 0.264585 0.264585 h -0.264583 -0.264583 z m 0,-2.116665 v -0.264585 h -0.264584 -0.264583 v 0.264585 0.264581 h 0.264583 0.264584 z M 5.5562495,8.2020813 V 5.5562501 H 5.291666 5.0270829 v 0.2645813 0.264585 H 4.7624994 4.4979163 v 0.264585 0.2645812 H 4.2333328 3.9687493 v 0.264585 0.2645812 H 3.7041662 3.4395827 v 0.264585 0.2645813 H 3.1749996 2.9104161 v 0.5291662 0.52917 h 0.2645835 0.2645831 v 0.2645812 0.264585 h 0.2645835 0.2645831 v 0.2645813 0.264585 h 0.2645835 0.2645835 v 0.2645812 0.264585 h 0.2645831 0.2645835 v 0.264581 0.264585 H 5.291666 5.5562495 Z M 4.4979163,9.5249988 V 9.2604175 H 4.2333328 3.9687493 V 8.9958325 8.7312513 H 3.7041662 3.4395827 V 8.4666663 8.2020813 H 3.7041662 3.9687493 V 7.9375001 7.6729151 H 4.2333328 4.4979163 V 7.4083338 7.1437488 h 0.2645831 0.2645835 v 0.264585 0.2645813 H 4.7624994 4.4979163 v 0.264585 0.2645812 h 0.2645831 0.2645835 v 0.264585 0.264585 H 4.7624994 4.4979163 v 0.2645812 0.264585 h 0.2645831 0.2645835 v 0.2645813 0.264585 H 4.7624994 4.4979163 Z m 0,-1.0583325 V 8.2020813 H 4.2333328 3.9687493 v 0.264585 0.264585 H 4.2333328 4.4979163 Z M 37.306248,8.9958325 V 8.7312513 h -0.264582 -0.264585 v -0.264585 -0.264585 h 0.264585 0.264582 V 7.9375001 7.6729151 H 37.041666 36.777081 V 7.4083338 7.1437488 h 0.264585 0.264582 V 6.8791676 6.6145826 H 37.041666 36.777081 V 6.3500014 6.0854164 h 0.264585 0.264582 V 5.8208314 5.5562501 h -0.264582 -0.264585 v 0.2645813 0.264585 h -0.264585 -0.264581 v 0.264585 0.2645812 H 35.98333 35.718749 v 0.264585 0.2645812 h -0.264585 -0.264581 v 0.264585 0.2645813 h 0.264581 0.264585 v 0.264585 0.2645812 h 0.264581 0.264585 v 0.264585 0.264585 h 0.264581 0.264585 v 0.2645812 0.264585 h 0.264585 0.264582 z M 36.247915,7.9375001 V 7.6729151 H 35.98333 35.718749 V 7.4083338 7.1437488 h 0.264581 0.264585 V 6.8791676 6.6145826 h 0.264581 0.264585 v 0.264585 0.2645812 h -0.264585 -0.264581 v 0.264585 0.2645813 h 0.264581 0.264585 v 0.264585 0.2645812 H 36.512496 36.247915 Z M 16.668749,28.574998 v -0.264581 h 0.264582 0.264585 v -0.264585 -0.264585 h -0.264585 -0.264582 v -0.264581 -0.264585 h 0.264582 0.264585 V 26.9875 26.722915 h -0.264585 -0.264582 v -0.264582 -0.264585 h 0.264582 0.264585 v -0.264581 -0.264585 h -0.264585 -0.264582 v -0.264585 -0.264581 h 0.264582 0.264585 V 24.870831 24.60625 h -0.264585 -0.264582 v -0.264585 -0.264582 h 0.264582 0.264585 v -0.264585 -0.264581 h -0.264585 -0.264582 v -0.264585 -0.264585 h 0.264582 0.264585 V 22.754166 22.489581 H 16.933331 16.668749 V 22.225 21.960415 h 0.264582 0.264585 v -0.264582 -0.264585 h -0.264585 -0.264582 v -0.264581 -0.264585 h 0.264582 0.264585 V 20.637501 20.372916 H 16.933331 16.668749 V 20.108331 19.84375 h 0.264582 0.264585 v 0.264581 0.264585 h 0.264585 0.264581 v 0.264585 0.264581 h 0.264585 0.264581 v 0.264585 0.264581 h -0.264581 -0.264585 v 0.264585 0.264582 h 0.264585 0.264581 V 22.225 22.489581 h 0.264585 0.264581 v 0.264585 0.264581 h 0.264585 0.264582 v 0.264585 0.264585 h -0.264582 -0.264585 v 0.264581 0.264585 h 0.264585 0.264582 v 0.264582 0.264585 h 0.264585 0.264581 v 0.264581 0.264585 h 0.264585 0.264585 v 0.264581 0.264585 h -0.264585 -0.264585 v 0.264585 0.264581 h 0.264585 0.264585 v 0.264585 0.264582 h 0.264581 0.264585 v 0.264585 0.264581 h 0.264581 0.264585 v 0.264585 0.264581 h -0.264585 -0.264581 v 0.264585 0.264585 h 0.264581 0.264585 v 0.264581 0.264585 h -0.264585 -0.264581 v -0.264585 -0.264581 h -0.264585 -0.264581 v 0.264581 0.264585 h -0.264585 -0.264585 v -0.264585 -0.264581 h -0.264581 -0.264585 v 0.264581 0.264585 h -0.264582 -0.264585 v -0.264585 -0.264581 h -0.264581 -0.264585 v 0.264581 0.264585 h -0.264581 -0.264585 v -0.264585 -0.264581 h -0.264581 -0.264585 v 0.264581 0.264585 h -0.264585 -0.264582 z m 1.587499,-0.529166 v -0.264585 h 0.264585 0.264581 v 0.264585 0.264585 h 0.264585 0.264582 v -0.264585 -0.264585 h 0.264585 0.264581 v 0.264585 0.264585 h 0.264585 0.264585 v -0.264585 -0.264585 h 0.264581 0.264585 V 27.516666 27.252081 H 20.637498 20.372917 V 26.9875 26.722915 h -0.264585 -0.264585 v -0.264582 -0.264585 h -0.264581 -0.264585 v -0.264581 -0.264585 h 0.264585 0.264581 V 25.399997 25.135416 H 19.579166 19.314581 V 24.870831 24.60625 h -0.264582 -0.264585 v -0.264585 -0.264582 h -0.264581 -0.264585 v -0.264585 -0.264581 h 0.264585 0.264581 V 23.283332 23.018747 H 18.520833 18.256248 V 22.754166 22.489581 H 17.991667 17.727082 V 22.225 21.960415 H 17.462501 17.197916 V 22.225 22.489581 h 0.264585 0.264581 v 0.264585 0.264581 h -0.264581 -0.264585 v 0.264585 0.264585 h 0.264585 0.264581 v 0.264581 0.264585 h -0.264581 -0.264585 v 0.264582 0.264585 h 0.264585 0.264581 v 0.264581 0.264585 h -0.264581 -0.264585 v 0.264581 0.264585 h 0.264585 0.264581 v 0.264585 0.264581 h -0.264581 -0.264585 v 0.264585 0.264582 h 0.264585 0.264581 v 0.264585 0.264581 h -0.264581 -0.264585 v 0.264585 0.264581 h 0.264585 0.264581 v 0.264585 0.264585 h 0.264585 0.264581 z m -0.529166,-0.529166 v -0.264585 h 0.264585 0.264581 V 26.9875 26.722915 h -0.264581 -0.264585 v -0.264582 -0.264585 h 0.264585 0.264581 v -0.264581 -0.264585 h -0.264581 -0.264585 v -0.264585 -0.264581 h 0.264585 0.264581 V 24.870831 24.60625 h -0.264581 -0.264585 v -0.264585 -0.264582 h 0.264585 0.264581 v 0.264582 0.264585 h 0.264585 0.264581 v 0.264581 0.264585 h 0.264585 0.264582 v 0.264581 0.264585 h -0.264582 -0.264585 v 0.264585 0.264581 h 0.264585 0.264582 v 0.264585 0.264582 h 0.264585 0.264581 v 0.264585 0.264581 h 0.264585 0.264585 v 0.264585 0.264581 h -0.264585 -0.264585 v -0.264581 -0.264585 h -0.264581 -0.264585 v 0.264585 0.264581 h -0.264582 -0.264585 v -0.264581 -0.264585 h -0.264581 -0.264585 v 0.264585 0.264581 H 17.991667 17.727082 Z M 19.314581,26.9875 v -0.264585 h -0.264582 -0.264585 v -0.264582 -0.264585 h -0.264581 -0.264585 v 0.264585 0.264582 h 0.264585 0.264581 v 0.264585 0.264581 h 0.264585 0.264582 z m -0.529167,-1.587503 v -0.264581 h -0.264581 -0.264585 v 0.264581 0.264585 h 0.264585 0.264581 z m -1.058332,-2.116665 v -0.264585 h 0.264585 0.264581 v 0.264585 0.264585 h -0.264581 -0.264585 z m 0,-2.116665 v -0.264585 h -0.264581 -0.264585 v 0.264585 0.264581 h 0.264585 0.264581 z m -6.349999,-2.116668 v -0.264582 h 0.264583 0.264583 v 0.264582 0.264585 h -0.264583 -0.264583 z m 5.291666,0 v -0.264582 h 0.264582 0.264585 v 0.264582 0.264585 h -0.264585 -0.264582 z m -5.291666,-1.058333 v -0.264585 h 0.264583 0.264583 v 0.264585 0.264585 h -0.264583 -0.264583 z m 12.170831,-2.116665 v -0.264585 h -0.264581 -0.264585 v -1.322917 -1.322918 h 0.264585 0.264581 V 12.7 12.435415 h 2.116669 2.116665 V 12.7 12.964581 h 0.264585 0.264581 v 1.322918 1.322917 h -0.264581 -0.264585 v 0.264585 0.264581 h -2.116665 -2.116669 z m -1.587498,-0.52917 V 15.08125 h -0.264585 -0.264582 v -0.264585 -0.264581 h -0.264585 -0.264581 v -0.264585 -0.264582 h -0.264585 -0.264581 v -0.264585 -0.264581 h -0.264585 -0.264585 v -0.264585 -0.264585 h 0.264585 0.264585 V 12.7 12.435415 h -0.264585 -0.264585 v -0.264581 -0.264585 h 0.264585 0.264585 v -0.264582 -0.264585 h -0.264585 -0.264585 v -0.264581 -0.264585 h 0.264585 0.264585 V 10.583331 10.31875 H 20.108332 19.843747 V 10.054165 9.7895838 h 0.264585 0.264585 V 9.5249988 9.2604175 H 20.108332 19.843747 V 8.9958325 8.7312513 h 0.264585 0.264585 V 8.4666663 8.2020813 H 20.108332 19.843747 V 7.9375001 7.6729151 h 0.264585 0.264585 v 0.264585 0.2645812 h 0.264581 0.264585 v 0.264585 0.264585 h -0.264585 -0.264581 v 0.2645812 0.264585 h 0.264581 0.264585 v 0.2645813 0.264585 h 0.264581 0.264585 v 0.2645812 0.264585 h 0.264582 0.264585 v 0.264581 0.264585 h 0.264581 0.264585 v 0.264585 0.264581 h -0.264585 -0.264581 v 0.264585 0.264582 h 0.264581 0.264585 v 0.264585 0.264581 H 22.224997 21.960416 V 12.7 12.964581 h 0.264581 0.264585 v 0.264585 0.264585 h -0.264585 -0.264581 v 0.264581 0.264585 h 0.264581 0.264585 v 0.264582 0.264585 h -0.264585 -0.264581 v 0.264581 0.264585 h 0.264581 0.264585 v 0.264581 0.264585 h -0.264585 -0.264581 z m 0,-1.058332 v -0.264582 h -0.264585 -0.264582 v -0.264585 -0.264581 h 0.264582 0.264585 V 13.229166 12.964581 H 21.695831 21.431249 V 12.7 12.435415 h 0.264582 0.264585 v -0.264581 -0.264585 h -0.264585 -0.264582 v -0.264582 -0.264585 h 0.264582 0.264585 V 11.112501 10.847916 H 21.695831 21.431249 V 10.583331 10.31875 H 21.166664 20.902083 V 10.054165 9.7895838 h -0.264585 -0.264581 v 0.2645812 0.264585 h 0.264581 0.264585 v 0.264581 0.264585 h -0.264585 -0.264581 v 0.264585 0.264581 h 0.264581 0.264585 v 0.264585 0.264582 h -0.264585 -0.264581 v 0.264585 0.264581 h 0.264581 0.264585 V 12.7 12.964581 h -0.264585 -0.264581 v 0.264585 0.264585 h 0.264581 0.264585 v 0.264581 0.264585 h 0.264581 0.264585 v 0.264582 0.264585 h 0.264582 0.264585 z m -1.058333,-1.058333 v -0.264585 h 0.264581 0.264585 v 0.264585 0.264585 h -0.264585 -0.264581 z m 0,-1.058332 v -0.264585 h 0.264581 0.264585 v 0.264585 0.264581 h -0.264585 -0.264581 z m 0,-1.058333 v -0.264585 h 0.264581 0.264585 v 0.264585 0.264581 H 21.166664 20.902083 Z M 22.489582,8.9958325 V 8.7312513 H 22.224997 21.960416 V 7.9375001 7.1437488 h 0.264581 0.264585 V 6.8791676 6.6145826 h 1.058332 1.058333 v 0.264585 0.2645812 h 0.264585 0.264585 v 0.7937513 0.7937512 h -0.264585 -0.264585 v 0.2645812 0.264585 h -1.058333 -1.058332 z m 4.7625,0 V 8.7312513 H 26.987497 26.722915 V 7.9375001 7.1437488 h 0.264582 0.264585 V 6.8791676 6.6145826 h 1.058332 1.058333 v 0.264585 0.2645812 h 0.264585 0.264585 v 0.7937513 0.7937512 h -0.264585 -0.264585 v 0.2645812 0.264585 H 28.310414 27.252082 Z M 19.843747,6.8791676 v -0.264585 h 0.264585 0.264585 v 0.264585 0.2645812 h -0.264585 -0.264585 z"
     style="fill:#000000;stroke-width:0.13229166" />
</svg>
